<svg width="235" height="235" viewBox="0 0 235 235" fill="none" xmlns="http://www.w3.org/2000/svg">
<circle cx="117.5" cy="117.5" r="117.5" fill="url(#paint0_radial_0_1)"/>
<path d="M114.375 38.25C122.388 38.2505 130.127 41.1659 136.149 46.4523C142.171 51.7387 146.064 59.0351 147.103 66.9806L156.384 81.579C156.994 82.5401 156.871 83.9715 155.456 84.582L147.375 88.0387V100.125C147.375 102.313 146.506 104.411 144.959 105.959C143.411 107.506 141.313 108.375 139.125 108.375H130.879L130.875 120.75H93.7499V105.512C93.7499 100.645 91.9514 96.0371 88.6143 91.8791C84.7273 87.0259 82.2906 81.1732 81.5848 74.9955C80.8791 68.8177 81.9331 62.5663 84.6254 56.9615C87.3176 51.3566 91.5386 46.6265 96.802 43.316C102.065 40.0055 108.157 38.2494 114.375 38.25ZM112.189 62.0224C110.827 60.7071 109.004 59.9792 107.111 59.9952C105.219 60.0113 103.408 60.7701 102.069 62.1083C100.731 63.4464 99.971 65.2568 99.9542 67.1495C99.9374 69.0423 100.665 70.8659 101.979 72.2276L114.375 84.6274L126.771 72.2276C127.46 71.5616 128.01 70.7649 128.388 69.8841C128.766 69.0033 128.965 68.056 128.973 67.0975C128.981 66.139 128.798 65.1885 128.435 64.3014C128.072 63.4144 127.536 62.6085 126.858 61.9308C126.18 61.2532 125.374 60.7173 124.487 60.3545C123.599 59.9918 122.649 59.8093 121.69 59.8178C120.732 59.8263 119.785 60.0257 118.904 60.4042C118.023 60.7827 117.227 61.3328 116.561 62.0224L114.375 64.2086L112.189 62.0224Z" fill="white"/>
<path d="M57.2045 153V140.28H59.4125V143.736L59.1965 142.872C59.5485 141.992 60.1405 141.32 60.9725 140.856C61.8045 140.392 62.8285 140.16 64.0445 140.16V142.392C63.9485 142.376 63.8525 142.368 63.7565 142.368C63.6765 142.368 63.5965 142.368 63.5165 142.368C62.2845 142.368 61.3085 142.736 60.5885 143.472C59.8685 144.208 59.5085 145.272 59.5085 146.664V153H57.2045ZM72.671 153.144C71.311 153.144 70.111 152.864 69.071 152.304C68.047 151.744 67.247 150.976 66.671 150C66.111 149.024 65.831 147.904 65.831 146.64C65.831 145.376 66.103 144.256 66.647 143.28C67.207 142.304 67.967 141.544 68.927 141C69.903 140.44 70.999 140.16 72.215 140.16C73.447 140.16 74.535 140.432 75.479 140.976C76.423 141.52 77.159 142.288 77.687 143.28C78.231 144.256 78.503 145.4 78.503 146.712C78.503 146.808 78.495 146.92 78.479 147.048C78.479 147.176 78.471 147.296 78.455 147.408H67.631V145.752H77.255L76.319 146.328C76.335 145.512 76.167 144.784 75.815 144.144C75.463 143.504 74.975 143.008 74.351 142.656C73.743 142.288 73.031 142.104 72.215 142.104C71.415 142.104 70.703 142.288 70.079 142.656C69.455 143.008 68.967 143.512 68.615 144.168C68.263 144.808 68.087 145.544 68.087 146.376V146.76C68.087 147.608 68.279 148.368 68.663 149.04C69.063 149.696 69.615 150.208 70.319 150.576C71.023 150.944 71.831 151.128 72.743 151.128C73.495 151.128 74.175 151 74.783 150.744C75.407 150.488 75.951 150.104 76.415 149.592L77.687 151.08C77.111 151.752 76.391 152.264 75.527 152.616C74.679 152.968 73.727 153.144 72.671 153.144ZM97.8543 140.16C98.8783 140.16 99.7823 140.36 100.566 140.76C101.35 141.16 101.958 141.768 102.39 142.584C102.838 143.4 103.062 144.432 103.062 145.68V153H100.758V145.944C100.758 144.712 100.47 143.784 99.8943 143.16C99.3183 142.536 98.5103 142.224 97.4703 142.224C96.7023 142.224 96.0303 142.384 95.4543 142.704C94.8783 143.024 94.4303 143.496 94.1103 144.12C93.8063 144.744 93.6543 145.52 93.6543 146.448V153H91.3503V145.944C91.3503 144.712 91.0623 143.784 90.4863 143.16C89.9263 142.536 89.1183 142.224 88.0623 142.224C87.3103 142.224 86.6463 142.384 86.0703 142.704C85.4943 143.024 85.0463 143.496 84.7263 144.12C84.4063 144.744 84.2463 145.52 84.2463 146.448V153H81.9423V140.28H84.1503V143.664L83.7903 142.8C84.1903 141.968 84.8063 141.32 85.6383 140.856C86.4703 140.392 87.4383 140.16 88.5423 140.16C89.7583 140.16 90.8063 140.464 91.6863 141.072C92.5663 141.664 93.1423 142.568 93.4143 143.784L92.4783 143.4C92.8623 142.424 93.5343 141.64 94.4943 141.048C95.4543 140.456 96.5743 140.16 97.8543 140.16ZM113.206 153.144C111.846 153.144 110.646 152.864 109.606 152.304C108.582 151.744 107.782 150.976 107.206 150C106.646 149.024 106.366 147.904 106.366 146.64C106.366 145.376 106.638 144.256 107.182 143.28C107.742 142.304 108.502 141.544 109.462 141C110.438 140.44 111.534 140.16 112.75 140.16C113.982 140.16 115.07 140.432 116.014 140.976C116.958 141.52 117.694 142.288 118.222 143.28C118.766 144.256 119.038 145.4 119.038 146.712C119.038 146.808 119.03 146.92 119.014 147.048C119.014 147.176 119.006 147.296 118.99 147.408H108.166V145.752H117.79L116.854 146.328C116.87 145.512 116.702 144.784 116.35 144.144C115.998 143.504 115.51 143.008 114.886 142.656C114.278 142.288 113.566 142.104 112.75 142.104C111.95 142.104 111.238 142.288 110.614 142.656C109.99 143.008 109.502 143.512 109.15 144.168C108.798 144.808 108.622 145.544 108.622 146.376V146.76C108.622 147.608 108.814 148.368 109.198 149.04C109.598 149.696 110.15 150.208 110.854 150.576C111.558 150.944 112.366 151.128 113.278 151.128C114.03 151.128 114.71 151 115.318 150.744C115.942 150.488 116.486 150.104 116.95 149.592L118.222 151.08C117.646 151.752 116.926 152.264 116.062 152.616C115.214 152.968 114.262 153.144 113.206 153.144ZM127.733 153.144C126.501 153.144 125.397 152.872 124.421 152.328C123.461 151.784 122.701 151.024 122.141 150.048C121.581 149.072 121.301 147.936 121.301 146.64C121.301 145.344 121.581 144.216 122.141 143.256C122.701 142.28 123.461 141.52 124.421 140.976C125.397 140.432 126.501 140.16 127.733 140.16C128.805 140.16 129.773 140.4 130.637 140.88C131.501 141.36 132.189 142.08 132.701 143.04C133.229 144 133.493 145.2 133.493 146.64C133.493 148.08 133.237 149.28 132.725 150.24C132.229 151.2 131.549 151.928 130.685 152.424C129.821 152.904 128.837 153.144 127.733 153.144ZM127.925 151.128C128.725 151.128 129.445 150.944 130.085 150.576C130.741 150.208 131.253 149.688 131.621 149.016C132.005 148.328 132.197 147.536 132.197 146.64C132.197 145.728 132.005 144.944 131.621 144.288C131.253 143.616 130.741 143.096 130.085 142.728C129.445 142.36 128.725 142.176 127.925 142.176C127.109 142.176 126.381 142.36 125.741 142.728C125.101 143.096 124.589 143.616 124.205 144.288C123.821 144.944 123.629 145.728 123.629 146.64C123.629 147.536 123.821 148.328 124.205 149.016C124.589 149.688 125.101 150.208 125.741 150.576C126.381 150.944 127.109 151.128 127.925 151.128ZM132.269 153V149.568L132.413 146.616L132.173 143.664V135.192H134.477V153H132.269ZM139.076 153V140.28H141.38V153H139.076ZM140.228 137.832C139.78 137.832 139.404 137.688 139.1 137.4C138.812 137.112 138.668 136.76 138.668 136.344C138.668 135.912 138.812 135.552 139.1 135.264C139.404 134.976 139.78 134.832 140.228 134.832C140.676 134.832 141.044 134.976 141.332 135.264C141.636 135.536 141.788 135.88 141.788 136.296C141.788 136.728 141.644 137.096 141.356 137.4C141.068 137.688 140.692 137.832 140.228 137.832ZM152.811 140.16C153.851 140.16 154.763 140.36 155.547 140.76C156.347 141.16 156.971 141.768 157.419 142.584C157.867 143.4 158.091 144.432 158.091 145.68V153H155.787V145.944C155.787 144.712 155.483 143.784 154.875 143.16C154.283 142.536 153.443 142.224 152.355 142.224C151.539 142.224 150.827 142.384 150.219 142.704C149.611 143.024 149.139 143.496 148.803 144.12C148.483 144.744 148.323 145.52 148.323 146.448V153H146.019V140.28H148.227V143.712L147.867 142.8C148.283 141.968 148.923 141.32 149.787 140.856C150.651 140.392 151.659 140.16 152.811 140.16ZM171.081 153V137.16L172.113 138.288H167.289V136.2H173.457V153H171.081Z" fill="white"/>
<defs>
<radialGradient id="paint0_radial_0_1" cx="0" cy="0" r="1" gradientUnits="userSpaceOnUse" gradientTransform="translate(117.5 117.5) rotate(90) scale(117.5)">
<stop stop-color="#EF3693"/>
<stop offset="1" stop-color="#9C1256"/>
</radialGradient>
</defs>
</svg>
