<svg width="1440" height="5810" viewBox="0 0 1440 5810" fill="none" xmlns="http://www.w3.org/2000/svg">
<circle cx="1291" cy="222" r="461" fill="url(#paint0_linear_4_46)" fill-opacity="0.61"/>
<circle cx="78.1683" cy="1571.17" r="348.276" transform="rotate(-115.459 78.1683 1571.17)" fill="url(#paint1_linear_4_46)" fill-opacity="0.61"/>
<circle cx="186.096" cy="3854.09" r="684.365" transform="rotate(-141.767 186.096 3854.09)" fill="url(#paint2_linear_4_46)" fill-opacity="0.61"/>
<ellipse cx="137.527" cy="5430" rx="546.04" ry="609.9" transform="rotate(-141.767 137.527 5430)" fill="url(#paint3_linear_4_46)" fill-opacity="0.61"/>
<circle cx="57.8018" cy="588.801" r="312.5" transform="rotate(-142.85 57.8018 588.801)" fill="url(#paint4_linear_4_46)" fill-opacity="0.61"/>
<circle cx="1356.67" cy="2014.67" r="440.294" transform="rotate(135 1356.67 2014.67)" fill="url(#paint5_linear_4_46)" fill-opacity="0.61"/>
<circle cx="1372.17" cy="4326.17" r="595.5" transform="rotate(135 1372.17 4326.17)" fill="url(#paint6_linear_4_46)" fill-opacity="0.61"/>
<g clip-path="url(#clip0_4_46)">
<path d="M28 1024C27.8767 1024 27.7538 1024.02 27.632 1024.04L26.154 1021.08C26.4663 1020.76 26.7026 1020.37 26.8456 1019.95C26.9885 1019.53 27.0344 1019.07 26.9799 1018.63C26.9254 1018.19 26.7719 1017.76 26.5306 1017.38C26.2894 1017 25.9666 1016.69 25.586 1016.45C25.2054 1016.21 24.7768 1016.07 24.3315 1016.02C23.8863 1015.97 23.436 1016.02 23.0136 1016.17C22.5912 1016.32 22.2075 1016.56 21.8909 1016.88C21.5742 1017.19 21.3327 1017.58 21.184 1018H16.816C16.6671 1017.58 16.4256 1017.2 16.1092 1016.88C15.7928 1016.56 15.4097 1016.32 14.9878 1016.17C14.566 1016.03 14.1163 1015.97 13.6717 1016.02C13.2271 1016.07 12.7989 1016.22 12.4186 1016.45C12.0384 1016.69 11.7157 1017 11.4743 1017.38C11.2329 1017.76 11.0789 1018.18 11.0237 1018.63C10.9685 1019.07 11.0134 1019.52 11.1552 1019.95C11.297 1020.37 11.532 1020.76 11.843 1021.08L10.363 1024.04C10.2429 1024.02 10.1216 1024 10 1024C9.20435 1024 8.44129 1024.32 7.87868 1024.88C7.31607 1025.44 7 1026.2 7 1027C7 1027.8 7.31607 1028.56 7.87868 1029.12C8.44129 1029.68 9.20435 1030 10 1030C10.122 1030 10.2435 1029.98 10.364 1029.96L11.843 1032.92C11.531 1033.24 11.295 1033.63 11.1525 1034.06C11.01 1034.48 10.9645 1034.93 11.0194 1035.38C11.0743 1035.82 11.2283 1036.25 11.4699 1036.62C11.7115 1037 12.0346 1037.32 12.4155 1037.55C12.7963 1037.79 13.2251 1037.94 13.6704 1037.99C14.1157 1038.03 14.566 1037.98 14.9883 1037.83C15.4106 1037.68 15.794 1037.44 16.1103 1037.12C16.4266 1036.81 16.6678 1036.42 16.816 1036H21.184C21.3327 1036.42 21.5739 1036.8 21.8901 1037.12C22.2062 1037.44 22.5891 1037.68 23.0108 1037.83C23.4324 1037.98 23.882 1038.03 24.3266 1037.98C24.7711 1037.93 25.1993 1037.79 25.5797 1037.55C25.9601 1037.32 26.283 1037 26.5247 1036.62C26.7664 1036.25 26.9207 1035.82 26.9764 1035.38C27.0321 1034.93 26.9876 1034.48 26.8463 1034.06C26.7051 1033.63 26.4705 1033.25 26.16 1032.93L27.641 1029.96C27.7598 1029.98 27.8797 1030 28 1030C28.7956 1030 29.5587 1029.68 30.1213 1029.12C30.6839 1028.56 31 1027.8 31 1027C31 1026.2 30.6839 1025.44 30.1213 1024.88C29.5587 1024.32 28.7956 1024 28 1024ZM10 1028C9.80222 1028 9.60888 1027.94 9.44443 1027.83C9.27998 1027.72 9.15181 1027.57 9.07612 1027.38C9.00043 1027.2 8.98063 1027 9.01921 1026.8C9.0578 1026.61 9.15304 1026.43 9.29289 1026.29C9.43275 1026.15 9.61093 1026.06 9.80491 1026.02C9.99889 1025.98 10.2 1026 10.3827 1026.08C10.5654 1026.15 10.7216 1026.28 10.8315 1026.44C10.9414 1026.61 11 1026.8 11 1027C11 1027.27 10.8946 1027.52 10.7071 1027.71C10.5196 1027.89 10.2652 1028 10 1028ZM24 1018C24.1978 1018 24.3911 1018.06 24.5556 1018.17C24.72 1018.28 24.8482 1018.43 24.9239 1018.62C24.9996 1018.8 25.0194 1019 24.9808 1019.2C24.9422 1019.39 24.847 1019.57 24.7071 1019.71C24.5673 1019.85 24.3891 1019.94 24.1951 1019.98C24.0011 1020.02 23.8 1020 23.6173 1019.92C23.4346 1019.85 23.2784 1019.72 23.1685 1019.56C23.0586 1019.39 23 1019.2 23 1019C23 1018.73 23.1054 1018.48 23.2929 1018.29C23.4804 1018.11 23.7348 1018 24 1018ZM14 1018C14.1978 1018 14.3911 1018.06 14.5556 1018.17C14.72 1018.28 14.8482 1018.43 14.9239 1018.62C14.9996 1018.8 15.0194 1019 14.9808 1019.2C14.9422 1019.39 14.847 1019.57 14.7071 1019.71C14.5673 1019.85 14.3891 1019.94 14.1951 1019.98C14.0011 1020.02 13.8 1020 13.6173 1019.92C13.4346 1019.85 13.2784 1019.72 13.1685 1019.56C13.0586 1019.39 13 1019.2 13 1019C13 1018.73 13.1054 1018.48 13.2929 1018.29C13.4804 1018.11 13.7348 1018 14 1018ZM14 1036C13.8022 1036 13.6089 1035.94 13.4444 1035.83C13.28 1035.72 13.1518 1035.57 13.0761 1035.38C13.0004 1035.2 12.9806 1035 13.0192 1034.8C13.0578 1034.61 13.153 1034.43 13.2929 1034.29C13.4327 1034.15 13.6109 1034.06 13.8049 1034.02C13.9989 1033.98 14.2 1034 14.3827 1034.08C14.5654 1034.15 14.7216 1034.28 14.8315 1034.44C14.9414 1034.61 15 1034.8 15 1035C15 1035.27 14.8946 1035.52 14.7071 1035.71C14.5196 1035.89 14.2652 1036 14 1036ZM24 1036C23.8022 1036 23.6089 1035.94 23.4444 1035.83C23.28 1035.72 23.1518 1035.57 23.0761 1035.38C23.0004 1035.2 22.9806 1035 23.0192 1034.8C23.0578 1034.61 23.153 1034.43 23.2929 1034.29C23.4327 1034.15 23.6109 1034.06 23.8049 1034.02C23.9989 1033.98 24.2 1034 24.3827 1034.08C24.5654 1034.15 24.7216 1034.28 24.8315 1034.44C24.9414 1034.61 25 1034.8 25 1035C25 1035.27 24.8946 1035.52 24.7071 1035.71C24.5196 1035.89 24.2652 1036 24 1036ZM24.368 1032.04C24.2462 1032.02 24.1233 1032 24 1032C23.3814 1032 22.7785 1032.19 22.2741 1032.55C21.7698 1032.91 21.3889 1033.42 21.184 1034H16.816C16.6111 1033.42 16.2302 1032.91 15.7259 1032.55C15.2215 1032.19 14.6186 1032 14 1032C13.878 1032 13.7565 1032.02 13.636 1032.04L12.157 1029.08C12.6972 1028.52 12.9994 1027.78 12.9994 1027C12.9994 1026.22 12.6972 1025.48 12.157 1024.92L13.637 1021.96C13.7571 1021.98 13.8784 1022 14 1022C14.6186 1022 15.2215 1021.81 15.7259 1021.45C16.2302 1021.09 16.6111 1020.58 16.816 1020H21.184C21.386 1020.66 21.8191 1021.22 22.4029 1021.58C22.9868 1021.94 23.6817 1022.08 24.359 1021.96L25.839 1024.93C25.2994 1025.48 24.9983 1026.23 24.9996 1027.01C25.0009 1027.78 25.3045 1028.53 25.846 1029.08L24.368 1032.04ZM28 1028C27.8022 1028 27.6089 1027.94 27.4444 1027.83C27.28 1027.72 27.1518 1027.57 27.0761 1027.38C27.0004 1027.2 26.9806 1027 27.0192 1026.8C27.0578 1026.61 27.153 1026.43 27.2929 1026.29C27.4327 1026.15 27.6109 1026.06 27.8049 1026.02C27.9989 1025.98 28.2 1026 28.3827 1026.08C28.5654 1026.15 28.7216 1026.28 28.8315 1026.44C28.9414 1026.61 29 1026.8 29 1027C29 1027.27 28.8946 1027.52 28.7071 1027.71C28.5196 1027.89 28.2652 1028 28 1028Z" fill="black"/>
</g>
<g filter="url(#filter0_b_4_46)">
<rect x="-407" y="-60" width="2329" height="9423" fill="#1E1B2C" fill-opacity="0.05"/>
</g>
<defs>
<filter id="filter0_b_4_46" x="-615" y="-268" width="2745" height="9839" filterUnits="userSpaceOnUse" color-interpolation-filters="sRGB">
<feFlood flood-opacity="0" result="BackgroundImageFix"/>
<feGaussianBlur in="BackgroundImageFix" stdDeviation="104"/>
<feComposite in2="SourceAlpha" operator="in" result="effect1_backgroundBlur_4_46"/>
<feBlend mode="normal" in="SourceGraphic" in2="effect1_backgroundBlur_4_46" result="shape"/>
</filter>
<linearGradient id="paint0_linear_4_46" x1="1291" y1="-239" x2="976.004" y2="597" gradientUnits="userSpaceOnUse">
<stop stop-color="#FF0181"/>
<stop offset="1" stop-color="#FF0181" stop-opacity="0"/>
</linearGradient>
<linearGradient id="paint1_linear_4_46" x1="78.1683" y1="1222.89" x2="-159.808" y2="1854.47" gradientUnits="userSpaceOnUse">
<stop stop-color="#FF0181"/>
<stop offset="1" stop-color="#FF0181" stop-opacity="0"/>
</linearGradient>
<linearGradient id="paint2_linear_4_46" x1="186.096" y1="3169.73" x2="-281.529" y2="4410.79" gradientUnits="userSpaceOnUse">
<stop stop-color="#FF0181"/>
<stop offset="1" stop-color="#FF0181" stop-opacity="0"/>
</linearGradient>
<linearGradient id="paint3_linear_4_46" x1="137.527" y1="4820.1" x2="-314.055" y2="5893.1" gradientUnits="userSpaceOnUse">
<stop stop-color="#FF0181"/>
<stop offset="1" stop-color="#FF0181" stop-opacity="0"/>
</linearGradient>
<linearGradient id="paint4_linear_4_46" x1="57.8018" y1="276.301" x2="-155.729" y2="843.003" gradientUnits="userSpaceOnUse">
<stop stop-color="#8F85B0"/>
<stop offset="1" stop-color="#FF0181" stop-opacity="0"/>
</linearGradient>
<linearGradient id="paint5_linear_4_46" x1="1356.67" y1="1574.38" x2="1055.82" y2="2372.83" gradientUnits="userSpaceOnUse">
<stop stop-color="#8F85B0"/>
<stop offset="1" stop-color="#FF0181" stop-opacity="0"/>
</linearGradient>
<linearGradient id="paint6_linear_4_46" x1="1372.17" y1="3730.66" x2="965.263" y2="4810.57" gradientUnits="userSpaceOnUse">
<stop stop-color="#8F85B0"/>
<stop offset="1" stop-color="#FF0181" stop-opacity="0"/>
</linearGradient>
<clipPath id="clip0_4_46">
<rect width="24" height="24" fill="white" transform="translate(7 1015)"/>
</clipPath>
</defs>
</svg>
