<svg xmlns="http://www.w3.org/2000/svg" viewBox="0 0 500 500"><g id="freepik--Floor--inject-134"><ellipse id="freepik--floor--inject-134" cx="250" cy="361.32" rx="227.35" ry="126.4" style="fill:#f5f5f5"></ellipse></g><g id="freepik--Shadows--inject-134"><path id="freepik--Shadow--inject-134" d="M350,281l-70.63-40.75a12.28,12.28,0,0,0-11.12,0l-60.59,35.14c-3.07,1.78-3.07,4.66,0,6.43l70.62,40.75a12.25,12.25,0,0,0,11.12,0L350,287.46C353,285.68,353,282.8,350,281Z" style="fill:#e0e0e0"></path><ellipse id="freepik--shadow--inject-134" cx="324.21" cy="408.87" rx="57.86" ry="33.41" style="fill:#e0e0e0"></ellipse><polygon id="freepik--shadow--inject-134" points="261.05 332.76 143.25 400.77 94.51 372.63 212.31 304.62 261.05 332.76" style="fill:#e0e0e0"></polygon><path id="freepik--shadow--inject-134" d="M45.41,370.12c-14,8.11-14,21.24,0,29.35s36.79,8.1,50.83,0,14-21.24,0-29.35S59.44,362,45.41,370.12Z" style="fill:#e0e0e0"></path></g><g id="freepik--Picture--inject-134"><g id="freepik--picture--inject-134"><g id="freepik--Frame--inject-134"><polygon points="42.79 207.15 45.05 208.5 91.37 181.75 89.11 180.41 42.79 207.15" style="fill:#fafafa"></polygon><polygon points="89.11 180.41 45.05 205.84 45.05 69.04 89.11 43.62 89.11 180.41" style="fill:#fff"></polygon><path d="M95.63,34.92,40.79,66.58v149.3l54.84-31.67ZM91.37,181.75,45.05,208.5V69L91.37,42.3Z" style="fill:#f0f0f0"></path><polygon points="91.37 181.75 89.11 180.41 89.11 43.62 91.37 42.3 91.37 181.75" style="fill:#e0e0e0"></polygon><polygon points="95.63 34.92 93.34 33.61 38.49 65.27 40.79 66.58 95.63 34.92" style="fill:#fafafa"></polygon><polygon points="38.49 65.27 40.79 66.58 40.79 215.88 38.49 214.56 38.49 65.27" style="fill:#e0e0e0"></polygon></g><g id="freepik--Land--inject-134"><polygon points="85.81 177.77 48.35 199.4 48.35 73.03 85.81 51.4 85.81 177.77" style="fill:#f0f0f0"></polygon></g><g id="freepik--land--inject-134"><polygon points="85.81 177.77 48.35 199.4 48.35 73.03 85.81 51.4 85.81 177.77" style="fill:#f0f0f0"></polygon></g><path d="M48.35,163.07a35.52,35.52,0,0,0,5.36,0,67.55,67.55,0,0,0,18.24-4c4.53-1.67,9.06-3.84,13.86-4v22.69l-5.07,2.93a17,17,0,0,0-7-3.86c-7.22-1.9-14.62,1.73-22,2.58a29.66,29.66,0,0,1-3.4.17Z" style="fill:#fafafa"></path><path d="M48.35,118.51c8.38-2.48,17-4.54,23-10.69,4.82-5,7.09-11.82,8.68-18.55s2.67-13.68,5.72-19.89c0-.06.07-.11.1-.18v67.54c-.47.7-.94,1.4-1.44,2.08C78.87,146.27,70.76,152.5,61.5,153c-4.35.23-8.84-.79-13.15-.78Z" style="fill:#fafafa"></path><path d="M48.35,93.59a25.54,25.54,0,0,0,8.3-23.24c-.12-.63-.26-1.25-.42-1.87l14.41-8.32c-.06,1-.11,1.9-.13,2.84-.15,5.5,0,11.07-1.18,16.44a32.31,32.31,0,0,1-16.42,21.22,30.26,30.26,0,0,1-4.56,1.9Z" style="fill:#fafafa"></path></g></g><g id="freepik--Window--inject-134"><g id="freepik--window--inject-134"><g id="freepik--window--inject-134"><g id="freepik--frame--inject-134"><polygon points="463.28 281.83 461.02 283.17 384.24 238.84 386.49 237.49 463.28 281.83" style="fill:#fafafa"></polygon><polygon points="386.49 237.49 461.02 280.52 461.02 72.56 386.49 29.55 386.49 237.49" style="fill:#fff"></polygon><path d="M380,241.3l85.3,49.25V70.1L380,20.85Zm4.26-213.07L461,72.56V283.17l-76.78-44.33Z" style="fill:#f0f0f0"></path><polygon points="384.24 238.84 386.49 237.49 386.49 29.55 384.24 28.23 384.24 238.84" style="fill:#e0e0e0"></polygon><polygon points="461.02 208.69 461.02 211.34 384.24 167.01 386.49 165.66 461.02 208.69" style="fill:#fafafa"></polygon><polygon points="461.02 136.83 461.02 139.48 384.24 95.15 386.49 93.81 461.02 136.83" style="fill:#fafafa"></polygon><polygon points="379.98 20.85 382.27 19.54 467.57 68.79 465.28 70.1 379.98 20.85" style="fill:#fafafa"></polygon><polygon points="467.57 68.79 465.28 70.1 465.28 290.55 467.57 289.24 467.57 68.79" style="fill:#e0e0e0"></polygon><polygon points="428.18 53.6 425.89 52.27 425.89 262.89 428.18 261.58 428.18 53.6" style="fill:#e0e0e0"></polygon></g><polygon points="421.63 49.83 425.89 52.27 425.89 262.89 421.63 260.43 421.63 49.83" style="fill:#f0f0f0"></polygon><polygon points="379.98 92.69 379.98 97.61 465.28 146.86 465.28 141.94 379.98 92.69" style="fill:#f0f0f0"></polygon><polygon points="379.98 164.54 379.98 169.45 465.28 218.7 465.28 213.79 379.98 164.54" style="fill:#f0f0f0"></polygon><polygon points="425.89 119.2 428.18 117.87 461.02 136.83 461.02 139.48 425.89 119.2" style="fill:#fafafa"></polygon><polygon points="425.89 191.03 428.18 189.7 461.02 208.66 461.02 211.31 425.89 191.03" style="fill:#fafafa"></polygon></g><g id="freepik--Curtains--inject-134"><path d="M388.1,16.16V34.92s12.19,86.77,56.87,136V289.56a3,3,0,0,0,4.06,2.35s1.54,3.8,4.06,2.34c0,0,1.71,3.71,4.07,2.35,0,0,1.74,3.68,4.06,2.34,0,0,1.33,3.93,4.06,2.35V60.72Z" style="fill:#f0f0f0"></path><path d="M449,291.91c-.21-10-.3-20-.38-30L448.53,232l.12-29.95.14-15,.24-15,.25,15,.14,15,.11,29.95L449.41,262C449.33,271.94,449.24,281.92,449,291.91Z" style="fill:#e0e0e0"></path><path d="M453.09,294.25c-.2-10-.3-20-.38-29.95l-.12-30,.12-29.95.14-15,.24-15,.25,15,.14,15,.11,29.95-.11,30C453.4,274.29,453.3,284.27,453.09,294.25Z" style="fill:#e0e0e0"></path><path d="M457.16,296.6c-.21-10-.31-20-.39-30l-.11-29.95.11-29.95.14-15,.25-15,.24,15,.14,15,.11,29.95-.11,29.95C457.46,276.63,457.36,286.62,457.16,296.6Z" style="fill:#e0e0e0"></path><path d="M461.22,298.94c-.21-10-.31-20-.39-29.95l-.11-30,.11-29.95.14-15,.25-15,.24,15,.14,15,.12,29.95-.12,30C461.52,279,461.42,289,461.22,298.94Z" style="fill:#e0e0e0"></path><path d="M388.1,34.92c6.53,3.53,13,7.16,19.49,10.81l19.35,11L446.18,68l9.57,5.69,9.53,5.78-9.77-5.36-9.72-5.45-19.35-11L407.2,46.39C400.81,42.61,394.43,38.81,388.1,34.92Z" style="fill:#e0e0e0"></path><path d="M448.25,166.25c-3-3.05-5.16-6.86-7.34-10.53l-1.56-2.82c-.51-.94-1-1.91-1.47-2.86l-1.45-2.87-1.36-2.92c-3.64-7.77-6.8-15.75-9.68-23.83a251.61,251.61,0,0,1-7.28-24.66,143.54,143.54,0,0,1-4-25.38c.37,2.11.73,4.22,1.06,6.32L416.51,83c1,4.15,1.95,8.3,3.11,12.4l.84,3.08.92,3.07c.61,2,1.18,4.09,1.86,6.11l2,6.09,2.08,6q4.23,12.08,9.2,23.86l1.25,2.94,1.32,2.91c.44,1,.86,2,1.32,2.92l1.4,2.87A57.8,57.8,0,0,0,448.25,166.25Z" style="fill:#e0e0e0"></path><path d="M457.15,168.88A116.67,116.67,0,0,1,447.54,150a176.52,176.52,0,0,1-6.82-20.13,184.73,184.73,0,0,1-4.37-20.8c-.62-3.48-.91-7-1.31-10.53-.2-1.76-.24-3.53-.36-5.3s-.2-3.53-.27-5.29c.6,3.49,1,7,1.6,10.46l.9,5.21c.27,1.74.62,3.46,1,5.19l1,5.17,1.18,5.14.57,2.57.66,2.55c.44,1.7.85,3.41,1.32,5.1l1.43,5.07c.47,1.7,1.05,3.36,1.55,5s1.07,3.35,1.63,5l.85,2.5.89,2.48.9,2.48.95,2.45c.61,1.66,1.3,3.27,2,4.9Q454.79,164.15,457.15,168.88Z" style="fill:#e0e0e0"></path><path d="M461.22,169.56c-1.71-7.33-3-14.75-4.12-22.2s-1.89-15-2.51-22.46-.91-15-.94-22.58a212.45,212.45,0,0,1,1.1-22.56c.1,3.77-.05,7.52.13,11.28s.19,7.5.33,11.25.33,7.49.58,11.23l.35,5.62.44,5.61c.58,7.48,1.29,14.95,2.06,22.41S460.27,162.09,461.22,169.56Z" style="fill:#e0e0e0"></path><path d="M392.16,18.5a79.79,79.79,0,0,1,.5,9.38,75.49,75.49,0,0,1-.5,9.38,75.49,75.49,0,0,1-.5-9.38A79.79,79.79,0,0,1,392.16,18.5Z" style="fill:#e0e0e0"></path><path d="M396.22,20.85a75.59,75.59,0,0,1,.5,9.38,75.59,75.59,0,0,1-.5,9.38,79.67,79.67,0,0,1-.5-9.38A79.67,79.67,0,0,1,396.22,20.85Z" style="fill:#e0e0e0"></path><path d="M400.29,23.19a79.79,79.79,0,0,1,.5,9.38,79.84,79.84,0,0,1-.5,9.39,75.75,75.75,0,0,1-.5-9.39A75.7,75.7,0,0,1,400.29,23.19Z" style="fill:#e0e0e0"></path><path d="M404.35,25.54a79.67,79.67,0,0,1,.5,9.38,79.67,79.67,0,0,1-.5,9.38,75.59,75.59,0,0,1-.5-9.38A75.59,75.59,0,0,1,404.35,25.54Z" style="fill:#e0e0e0"></path><path d="M408.41,27.88a79.84,79.84,0,0,1,.5,9.39,75.7,75.7,0,0,1-.5,9.38,75.7,75.7,0,0,1-.5-9.38A79.84,79.84,0,0,1,408.41,27.88Z" style="fill:#e0e0e0"></path><path d="M412.47,30.23a75.59,75.59,0,0,1,.5,9.38,75.59,75.59,0,0,1-.5,9.38,79.67,79.67,0,0,1-.5-9.38A79.67,79.67,0,0,1,412.47,30.23Z" style="fill:#e0e0e0"></path><path d="M416.54,32.58A79.56,79.56,0,0,1,417,42a79.79,79.79,0,0,1-.5,9.38A75.7,75.7,0,0,1,416,42,75.49,75.49,0,0,1,416.54,32.58Z" style="fill:#e0e0e0"></path><path d="M420.6,34.92a79.67,79.67,0,0,1,.5,9.38,79.56,79.56,0,0,1-.5,9.38,75.49,75.49,0,0,1-.5-9.38A75.59,75.59,0,0,1,420.6,34.92Z" style="fill:#e0e0e0"></path><path d="M424.66,37.27a79.56,79.56,0,0,1,.5,9.38,75.7,75.7,0,0,1-.5,9.38,75.7,75.7,0,0,1-.5-9.38A79.56,79.56,0,0,1,424.66,37.27Z" style="fill:#e0e0e0"></path><path d="M428.72,39.61a75.7,75.7,0,0,1,.5,9.38,75.49,75.49,0,0,1-.5,9.38,79.56,79.56,0,0,1-.5-9.38A79.79,79.79,0,0,1,428.72,39.61Z" style="fill:#e0e0e0"></path><path d="M432.79,42a77.46,77.46,0,0,1,.49,9.38,77.67,77.67,0,0,1-.49,9.38,75.7,75.7,0,0,1-.5-9.38A75.49,75.49,0,0,1,432.79,42Z" style="fill:#e0e0e0"></path><path d="M436.85,44.3a79.79,79.79,0,0,1,.5,9.38,79.56,79.56,0,0,1-.5,9.38,75.49,75.49,0,0,1-.5-9.38A75.7,75.7,0,0,1,436.85,44.3Z" style="fill:#e0e0e0"></path><path d="M440.91,46.65a79.56,79.56,0,0,1,.5,9.38,75.59,75.59,0,0,1-.5,9.38,75.59,75.59,0,0,1-.5-9.38A79.56,79.56,0,0,1,440.91,46.65Z" style="fill:#e0e0e0"></path><path d="M445,49a75.7,75.7,0,0,1,.5,9.38,75.49,75.49,0,0,1-.5,9.38,79.56,79.56,0,0,1-.5-9.38A79.79,79.79,0,0,1,445,49Z" style="fill:#e0e0e0"></path><path d="M449,51.34a77.57,77.57,0,0,1,.49,9.38A77.57,77.57,0,0,1,449,70.1a75.59,75.59,0,0,1-.5-9.38A75.59,75.59,0,0,1,449,51.34Z" style="fill:#e0e0e0"></path><path d="M453.1,53.68a79.79,79.79,0,0,1,.5,9.38,79.84,79.84,0,0,1-.5,9.39,75.75,75.75,0,0,1-.5-9.39A75.7,75.7,0,0,1,453.1,53.68Z" style="fill:#e0e0e0"></path><path d="M457.16,56a79.67,79.67,0,0,1,.5,9.38,75.59,75.59,0,0,1-.5,9.38,75.59,75.59,0,0,1-.5-9.38A79.67,79.67,0,0,1,457.16,56Z" style="fill:#e0e0e0"></path><path d="M461.22,58.37a75.75,75.75,0,0,1,.5,9.39,75.7,75.7,0,0,1-.5,9.38,79.79,79.79,0,0,1-.5-9.38A79.84,79.84,0,0,1,461.22,58.37Z" style="fill:#e0e0e0"></path></g></g></g><g id="freepik--Plant--inject-134"><g id="freepik--Pot--inject-134"><g id="freepik--pot--inject-134"><g id="freepik--pot--inject-134"><path d="M49.76,387.71c-11.26-11.63-17.88-58.93-6.89-68.15h55.9c11,9.22,4.38,56.51-6.88,68.14l-.31.32-.39.38a13.21,13.21,0,0,1-1,.92l-.26.21c-.28.22-.55.44-.85.65-.48.34-1,.66-1.46.94-9.27,5.41-24.29,5.41-33.55,0h0a15.78,15.78,0,0,1-1.46-.95c-.28-.2-.54-.4-.79-.6l-.34-.27c-.35-.29-.67-.58-1-.88L50,388Z" style="fill:#37474f"></path><path d="M93.92,315.85c12.75,7.45,12.75,19.52,0,27s-33.44,7.44-46.19,0-12.76-19.52,0-27S81.16,308.4,93.92,315.85Z" style="fill:#455a64"></path><path d="M87.78,319.43c9.37,5.47,9.37,14.34,0,19.81s-24.55,5.46-33.92,0-9.37-14.34,0-19.81S78.42,314,87.78,319.43Z" style="fill:#263238"></path><path d="M53.86,328.83c9.37-5.47,24.56-5.47,33.92,0a15.66,15.66,0,0,1,5.61,5.2,15.59,15.59,0,0,1-5.61,5.21c-9.36,5.46-24.55,5.46-33.92,0A15.67,15.67,0,0,1,48.25,334,15.74,15.74,0,0,1,53.86,328.83Z" style="fill:#fafafa"></path></g></g><g id="freepik--Plants--inject-134"><path d="M48.19,244.05l18.6,14.76-18-8.31a49.84,49.84,0,0,0,3.12,17.05s8.87,5.29,14,9.94L52.14,272s-1,9.09,2.84,23c1,3.63,5.07,10.57,7.65,15.75a58.94,58.94,0,0,0,4,6.92c.09.15.18.28.28.42q4.74-2.7,9.84-5.24c2.21-4.67,5.11-16.19,6.15-25.62,4-36.12-23.34-56.82-45.29-63.76C37.61,223.47,45.15,232.93,48.19,244.05Z" style="fill:#0E8B01"></path><path d="M48.19,244.05l18.6,14.76-18-8.31a49.84,49.84,0,0,0,3.12,17.05s8.87,5.29,14,9.94L52.14,272s-1,9.09,2.84,23c1,3.63,5.07,10.57,7.65,15.75a58.94,58.94,0,0,0,4,6.92c.09.15.18.28.28.42q4.74-2.7,9.84-5.24c2.21-4.67,5.11-16.19,6.15-25.62,4-36.12-23.34-56.82-45.29-63.76C37.61,223.47,45.15,232.93,48.19,244.05Z" style="fill:#fff;opacity:0.5"></path><path d="M63.75,245.56c3.79,3.82,6,8.85,7.72,13.88a73.16,73.16,0,0,1,3.31,15.62,67.73,67.73,0,0,1-3.94,31.37h0a.52.52,0,0,0,.3.67.52.52,0,0,0,.68-.3h0A68.57,68.57,0,0,0,75.3,275a73.64,73.64,0,0,0-3.58-15.66C69.93,254.34,67.61,249.32,63.75,245.56Z" style="fill:#fafafa"></path><path d="M128.74,263l0,0c-.47.55-8.11,9.64-19.45,27.33l-18.89,3,13.93,2.44-7.48,11.84L78.25,311.5l14.51,2.37s-4,14.16-14.42,20.06c-5.73,3.26-8.54,3.76-10.26,2.12-1.2-1.14-1.48-7.93-2.48-14s-1.09-15.92,4.63-27.81a37.18,37.18,0,0,1,6-8.75C89.93,270.18,115.9,262.81,128.74,263Z" style="fill:#0E8B01"></path><path d="M128.74,263l0,0c-.47.55-8.11,9.64-19.45,27.33l-18.89,3,13.93,2.44-7.48,11.84L78.25,311.5l14.51,2.37s-4,14.16-14.42,20.06c-5.73,3.26-8.54,3.76-10.26,2.12-1.2-1.14-1.48-7.93-2.48-14s-1.09-15.92,4.63-27.81a37.18,37.18,0,0,1,6-8.75C89.93,270.18,115.9,262.81,128.74,263Z" style="fill:#fff;opacity:0.25"></path><path d="M109,269.17c-9.77,4.28-19,10.16-26.27,18.14a51.66,51.66,0,0,0-9,13.36,48.62,48.62,0,0,0-4.11,15.51,0,0,0,0,0,0,.06s.06,0,.06,0a63,63,0,0,1,5-15.09,58.15,58.15,0,0,1,8.67-13.24c7-8,16.06-14.05,25.69-18.6a.05.05,0,0,0,0-.1Z" style="fill:#fafafa"></path><path d="M16.23,270.79h0A38.75,38.75,0,0,1,21,271a75.79,75.79,0,0,1,18.17,4.42c2.17.81,4.35,1.73,6.49,2.75,1.07.51,2.14,1.05,3.18,1.61a52.72,52.72,0,0,1,13.93,10.53,33.07,33.07,0,0,1,4.79,6.74c.17.32.35.62.51.94h0c.41.83.77,1.64,1.12,2.45,4,9.08,4.35,15.38,4.1,22.37-.2,5.42-2,11.61-3.09,12.63a2.68,2.68,0,0,1-.48.35c-1.54,1-4,.41-8.59-2.16-9.21-5.15-12.82-18.19-12.82-18.19l12.79-2.17L44.67,310,38,299.61l12.27-2.24-16.68-2.56c-10.12-15.54-16.92-23.51-17.33-24l0,0Z" style="fill:#0E8B01"></path><path d="M16.23,270.79h0A38.75,38.75,0,0,1,21,271a75.79,75.79,0,0,1,18.17,4.42c2.17.81,4.35,1.73,6.49,2.75,1.07.51,2.14,1.05,3.18,1.61a52.72,52.72,0,0,1,13.93,10.53,33.07,33.07,0,0,1,4.79,6.74c.17.32.35.62.51.94h0c.41.83.77,1.64,1.12,2.45,4,9.08,4.35,15.38,4.1,22.37-.2,5.42-2,11.61-3.09,12.63a2.68,2.68,0,0,1-.48.35c-1.54,1-4,.41-8.59-2.16-9.21-5.15-12.82-18.19-12.82-18.19l12.79-2.17L44.67,310,38,299.61l12.27-2.24-16.68-2.56c-10.12-15.54-16.92-23.51-17.33-24l0,0Z" style="fill:#fff;opacity:0.65"></path><path d="M21,271a75.79,75.79,0,0,1,18.17,4.42c2.17.81,4.35,1.73,6.49,2.75,1.07.51,2.14,1.05,3.18,1.61a52.72,52.72,0,0,1,13.93,10.53,33.07,33.07,0,0,1,4.79,6.74c.17.32.35.62.51.94h0c.41.83.77,1.64,1.12,2.45,4,9.08,4.35,15.38,4.1,22.37-.2,5.42-2,11.61-3.09,12.63a2.68,2.68,0,0,1-.48.35,2.78,2.78,0,0,1-1,.37c1.13-8.4-3-29.71-9.26-38.47-6.51-9.12-21.95-22.34-43.18-26.9l0,0A38,38,0,0,1,21,271Z" style="fill:#0E8B01;opacity:0.30000000000000004"></path><path d="M68.75,336.18a72,72,0,0,0-1.2-18.58A59.92,59.92,0,0,0,61.38,300c-3.14-5.48-7.67-10-12.47-13.93a70.07,70.07,0,0,0-16-9.6.05.05,0,0,0-.07,0,.07.07,0,0,0,0,.07,90.47,90.47,0,0,1,15.39,10.31A67.14,67.14,0,0,1,55,293.15a41.19,41.19,0,0,1,5.65,7.25A59.35,59.35,0,0,1,67,317.71a71.61,71.61,0,0,1,1.62,18.47.05.05,0,1,0,.1,0Z" style="fill:#fafafa"></path></g></g></g><g id="freepik--side-table--inject-134"><g id="freepik--side-table--inject-134"><g id="freepik--side-table--inject-134"><polygon points="337.72 288.46 327.13 282.34 337.72 279.28 337.72 288.46" style="fill:#0E8B01"></polygon><polygon points="337.72 288.46 327.13 282.34 337.72 279.28 337.72 288.46" style="fill:#fff;opacity:0.6000000000000001"></polygon><polygon points="337.72 288.46 327.13 282.34 337.72 279.28 337.72 288.46" style="opacity:0.05"></polygon><polygon points="337.72 288.46 343.02 285.4 343.02 276.23 337.72 279.28 337.72 288.46" style="fill:#0E8B01"></polygon><polygon points="337.72 288.46 343.02 285.4 343.02 276.23 337.72 279.28 337.72 288.46" style="fill:#fff;opacity:0.75"></polygon><polygon points="284.64 309.93 284.64 319.69 221.91 283.42 221.91 273.66 284.64 309.93" style="fill:#0E8B01"></polygon><polygon points="284.64 309.93 284.64 319.69 221.91 283.42 221.91 273.66 284.64 309.93" style="fill:#fff;opacity:0.6000000000000001"></polygon><polygon points="284.64 309.93 284.64 319.69 221.91 283.42 221.91 273.66 284.64 309.93" style="opacity:0.1"></polygon><polygon points="284.64 319.69 289.94 316.63 289.94 306.87 284.64 309.93 284.64 319.69" style="fill:#0E8B01"></polygon><polygon points="284.64 319.69 289.94 316.63 289.94 306.87 284.64 309.93 284.64 319.69" style="fill:#fff;opacity:0.75"></polygon><polygon points="216.61 197.18 279.34 233.45 279.34 312.99 216.61 276.72 216.61 197.18" style="fill:#0E8B01"></polygon><polygon points="216.61 197.18 279.34 233.45 279.34 312.99 216.61 276.72 216.61 197.18" style="fill:#fff;opacity:0.6000000000000001"></polygon><polygon points="279.34 233.45 348.32 193.63 348.32 273.17 279.34 312.99 279.34 233.45" style="fill:#0E8B01"></polygon><polygon points="279.34 233.45 348.32 193.63 348.32 273.17 279.34 312.99 279.34 233.45" style="fill:#fff;opacity:0.75"></polygon><polygon points="348.32 193.63 285.59 157.35 216.61 197.18 279.34 233.45 348.32 193.63" style="fill:#0E8B01"></polygon><polygon points="348.32 193.63 285.59 157.35 216.61 197.18 279.34 233.45 348.32 193.63" style="fill:#fff;opacity:0.85"></polygon><polygon points="284.64 260.99 343.02 227.28 343.02 270.11 284.64 303.82 284.64 260.99" style="fill:#0E8B01"></polygon><polygon points="284.64 260.99 343.02 227.28 343.02 270.11 284.64 303.82 284.64 260.99" style="fill:#fff;opacity:0.6000000000000001"></polygon><polygon points="343.02 270.11 306.18 248.55 284.64 260.99 284.64 303.82 343.02 270.11" style="opacity:0.1"></polygon><polygon points="343.02 270.11 306.18 248.55 343.02 227.28 343.02 270.11" style="opacity:0.05"></polygon><polygon points="284.64 236.51 343.02 202.8 343.02 221.16 284.64 254.87 284.64 236.51" style="fill:#0E8B01"></polygon><polygon points="284.64 236.51 343.02 202.8 343.02 221.16 284.64 254.87 284.64 236.51" style="fill:#fff;opacity:0.85"></polygon><path d="M302.73,229.93c0,.84,2.53.07,5.65-1.73l9.9-5.72c3.12-1.8,5.65-3.94,5.65-4.79v-1.53l-21.2,12.24Z" style="fill:#455a64"></path></g><polygon points="261.65 190.71 249.47 183.67 278.83 166.69 291.02 173.73 261.65 190.71" style="fill:#0E8B01;opacity:0.2"></polygon><g id="freepik--picture--inject-134"><g id="freepik--frame--inject-134"><polygon points="262.69 184.5 264.1 185.24 286.85 172.1 285.43 171.37 262.69 184.5" style="fill:#0E8B01"></polygon><polygon points="262.69 184.5 264.1 185.24 286.85 172.1 285.43 171.37 262.69 184.5" style="opacity:0.2"></polygon><polygon points="285.43 171.37 264.01 183.74 261.95 150.23 283.37 137.87 285.43 171.37" style="fill:#0E8B01"></polygon><g style="opacity:0.8"><polygon points="285.43 171.37 264.01 183.74 261.95 150.23 283.37 137.87 285.43 171.37" style="fill:#fff"></polygon></g><path d="M287,132.86l-27.74,16,2.49,40.59,27.75-16Zm-.17,39.25L264.1,185.24l-2.15-35,22.74-13.14Z" style="fill:#0E8B01"></path><path d="M287,132.86l-27.74,16,2.49,40.59,27.75-16Zm-.17,39.25L264.1,185.24l-2.15-35,22.74-13.14Z" style="fill:#0E8B01"></path><polygon points="286.85 172.1 285.43 171.37 283.37 137.87 284.69 137.09 286.85 172.1" style="fill:#0E8B01"></polygon><polygon points="286.85 172.1 285.43 171.37 283.37 137.87 284.69 137.09 286.85 172.1" style="opacity:0.35000000000000003"></polygon><polygon points="287.02 132.86 285.59 132.14 257.84 148.16 259.28 148.88 287.02 132.86" style="fill:#0E8B01"></polygon><polygon points="287.02 132.86 285.59 132.14 257.84 148.16 259.28 148.88 287.02 132.86" style="fill:#fff;opacity:0.6000000000000001"></polygon><polygon points="257.84 148.16 259.28 148.88 261.77 189.47 260.34 188.75 257.84 148.16" style="fill:#0E8B01"></polygon><polygon points="257.84 148.16 259.28 148.88 261.77 189.47 260.34 188.75 257.84 148.16" style="opacity:0.35000000000000003"></polygon></g><g id="freepik--land--inject-134"><polygon points="284.68 170.38 264.87 181.81 264.53 176.29 268.9 163.45 271.93 165.69 271.07 170.34 277.37 153.22 284.34 164.85 284.68 170.38" style="fill:#0E8B01"></polygon><path d="M267.89,152.63a3.55,3.55,0,0,0-1.65,3c.07,1.08.91,1.51,1.89.95a3.55,3.55,0,0,0,1.64-3C269.7,152.49,268.86,152.07,267.89,152.63Z" style="fill:#0E8B01"></path></g></g></g></g><g id="freepik--Mirror--inject-134"><g id="freepik--mirror--inject-134"><g id="freepik--mirror--inject-134"><path d="M117.44,368a8.92,8.92,0,0,0,4.41-1.38L204.37,319c5-2.86,9.76-9.5,10.93-15.1l25.16-120.77a1.87,1.87,0,0,0-3.67-.76L211.63,303.12c-.94,4.53-5.13,10.31-9.13,12.63L120,363.39c-1.59.92-2.73,1-3.15.73s-.68-1.41-.3-3.22l24.76-120.52a1.87,1.87,0,0,0-3.67-.75L112.84,360.15c-.89,4.34.74,6.25,1.79,7A4.67,4.67,0,0,0,117.44,368Z" style="fill:#455a64"></path><polygon points="252.93 332.76 143.25 396.08 126.52 107.66 236.19 44.34 252.93 332.76" style="fill:#0E8B01"></polygon><polygon points="252.93 332.76 143.25 396.08 126.52 107.66 236.19 44.34 252.93 332.76" style="opacity:0.2"></polygon><polygon points="247.12 329.62 231.09 53.78 132.33 110.8 148.36 386.64 247.12 329.62" style="fill:#fafafa"></polygon><polygon points="122.65 105.42 126.52 107.66 143.25 396.08 139.38 393.85 122.65 105.42" style="fill:#0E8B01"></polygon><polygon points="122.65 105.42 126.52 107.66 143.25 396.08 139.38 393.85 122.65 105.42" style="opacity:0.5"></polygon><polygon points="232.33 42.1 236.19 44.34 126.52 107.66 122.65 105.42 232.33 42.1" style="fill:#0E8B01"></polygon><polygon points="232.33 42.1 236.19 44.34 126.52 107.66 122.65 105.42 232.33 42.1" style="opacity:0.1"></polygon><g style="opacity:0.1"><polygon points="247.02 327.95 138.66 219.66 139.33 231.22 241.21 333.03 247.12 329.62 247.02 327.95" style="fill:#0E8B01"></polygon><polygon points="167.99 375.31 185.26 365.34 144.78 325.09 146.46 353.93 167.99 375.31" style="fill:#0E8B01"></polygon><polygon points="142.94 293.41 143.62 304.98 197.05 358.53 203.95 354.54 142.94 293.41" style="fill:#0E8B01"></polygon><polygon points="170.41 88.89 236.41 145.32 235.76 134.09 177.32 84.9 170.41 88.89" style="fill:#0E8B01"></polygon><polygon points="210.53 65.65 192.94 75.8 234.58 113.81 232.95 85.76 210.53 65.65" style="fill:#0E8B01"></polygon><polygon points="246.32 315.78 245.11 295.05 136.76 186.98 137.96 207.71 246.32 315.78" style="fill:#0E8B01"></polygon><polygon points="135.81 170.68 244.2 279.31 243.52 267.74 135.14 159.11 135.81 170.68" style="fill:#0E8B01"></polygon><polygon points="237.58 165.47 159.34 95.28 142.12 105.22 239.23 193.86 237.58 165.47" style="fill:#0E8B01"></polygon></g></g><g id="freepik--Character--inject-134"><g id="freepik--Body--inject-134"><path d="M231.52,287.63c-.33-11.42-4.82-58.63-9.56-61.71,0,0-.5-4.65-1.24-6.3,2.69-6.28-.41-16.78-4.9-20.93,1.25-2.52,1.31-6-.14-7.5l-1.76-8.56c6.52-8.52,1-15.82-2.44-20.78-6.84-9.91-10-14-15.21-14.09-3.57,0-5.28.45-5.67-2.4s-16.37,1-16.37,1h-.18c.35,2.92-2.69,3.42-12.52,6.21-4.31,1.22-4.49,7.86-3.26,13.12.53,2.28-2.54,13,1.33,17.54l1.73,11.09c-1.89,4.21-1.56,7.41.66,9.08-3.71,2.88-5.84,10.08-3.28,13.89-.65,3-.22,3.54-2.64,8.9-8.49,11.84,4.27,55.36,9.62,77.87-2,9.89-2.63,16.57-2.15,24.35.62,9.93,3.14,37.18,4.47,46.94,0,.11,18.87-10.93,18.87-10.93.16-2.1.35-4.35.56-6.84.69-8.18,5.38-43.48,6-58.61.43-10.92,1.74-30.08,1.74-30.08,2,6.7,10.89,29.35,10.89,29.35a48.41,48.41,0,0,0-.86,17.55c2.18,13.41,4.64,22.05,7.57,33.7L231.4,338.7C231.83,323.57,231.85,299,231.52,287.63Z" style="fill:#ffa8a7"></path><path d="M163.32,182.63s2.74-6.27,3.46-8.47l-1.73,9.13Z" style="fill:#f28f8f"></path><path d="M196,246.62l-.86,22.25,6.52,18-4.61-18,2.44-18.47s13.28-7.32,14.54-11.59Z" style="fill:#f28f8f"></path><path d="M212.51,210.05a2.76,2.76,0,0,0-.55-.58c-.22-.16-.46-.29-.68-.45a.66.66,0,0,1-.33-.53.89.89,0,0,1,.11-.31,1.55,1.55,0,0,1,.35-.44.11.11,0,0,1,.07,0l0,0a1.55,1.55,0,0,1,.06.31c0,.35,0,.69,0,1,0,.08.09.26.18.15a1.74,1.74,0,0,0,.26-1.14,1.07,1.07,0,0,0-.3-.8c-.56-.5-1.22.37-1.31.88-.14.76.57,1.25,1.11,1.6a1.74,1.74,0,0,1,.66.66,3,3,0,0,1,.25.94c0,.18.4.46.47.17A1.9,1.9,0,0,0,212.51,210.05Z" style="fill:#f28f8f"></path><path d="M209.63,213.65a20.5,20.5,0,0,0-6.17-.52,40,40,0,0,1-8.51-1,7.31,7.31,0,0,1-3.24-1.39c-.09-.08-.19-.19-.16-.31a.35.35,0,0,1,.29-.19c1.25-.28,2.53-.36,3.77-.61A6.4,6.4,0,0,0,199,208a2.33,2.33,0,0,0,.75-1.67,1.18,1.18,0,0,0-.45-.9.83.83,0,0,0-.51-.13c-.45,0-.95.19-1.41.25a15.08,15.08,0,0,1-1.78.15,33.06,33.06,0,0,1-3.59-.16,30.38,30.38,0,0,0-7.13-.14c-1.25.19-2.46.56-3.72.71a18.23,18.23,0,0,1-6.74-.53c-3.77-1-7.5-2.35-11.24-3.63a15.74,15.74,0,0,0,1.38,2c-4.24,4.19-8.41,9.53-5.85,13.34-.09.42,1.18,1,1.51,1.15,4.95.82,10,1.64,11.34,1.93a35.39,35.39,0,0,1,6.62,2.2c5.22,2.14,8.09,3.33,13.73,3.33,3.59,0,5.6-.75,7.56-2.56a11.19,11.19,0,0,1,2.26-2.1c1.15-.58,2.9-.94,3.71-2a3.75,3.75,0,0,0,.82-2.05,35.07,35.07,0,0,0,4.6-.87c.33-.13.71-.32.77-.67a.88.88,0,0,0-.07-.48A3,3,0,0,0,209.63,213.65Z" style="fill:#f28f8f"></path></g><path id="freepik--Arm--inject-134" d="M239.2,193.29c-10.63.09-27-11.82-27-11.82l-14.46-33.7a59.08,59.08,0,0,1,6.57-.45,13.82,13.82,0,0,1,7.81,2.6c3.06,2,14.07,15.37,22.9,26.43l4.07,15.75.06,1Z" style="fill:#f28f8f"></path><g id="freepik--Bikini--inject-134"><path d="M158.71,217.27c4.86,4.22,21.45,11.21,35.61,12.56,19,1.8,24.5-6.57,26.4-10.21a19.78,19.78,0,0,1,1.24,6.3s-3.09,17.34-26,20.7c0,0-1.88-5.94-16.66-11.78s-23.28-8.67-23.28-8.67A12.2,12.2,0,0,1,158.71,217.27Z" style="fill:#0E8B01"></path><path d="M170.79,149.58c4.45,4,8,7.33,18.14,5.88,8-1.14,8.13-3.36,4.65-7.69h4.19s7.17,5.5,10.9,8.86c4.43,4,6.65,5.24,9.74,10.6,2.14,3.71,4.3,12.19-2.52,18.06a6.56,6.56,0,0,1-.21,5.9c-2.57,4.07-33.2,12-54.35,3.11,0,0-3.26-4.23-1.73-11.09,0,0,7.78-.33,9-10.89s-3.11-21.52-3.11-21.52Z" style="fill:#0E8B01"></path><path d="M201,183.83c-3.29,5.84-9.88,7.82-16.66,7.18-5.33-.5-11-3.62-12.91-7.72.85,4.41,3.3,8.64,12.24,9.85C193.76,194.5,199.87,188.75,201,183.83Z" style="opacity:0.2"></path></g><g id="freepik--Head--inject-134"><path d="M173.75,143.73c-1.17-3.85-13.14-8.94-14.56-22.52-1.16-11.06,6.4-14.17,6.4-14.17-1-6.48,8-16,25.36-12.9,16,2.88,18.28,20.47,10.85,24.72C195.31,122.57,173.75,143.73,173.75,143.73Z" style="fill:#263238"></path><path d="M197.41,105.1c1.39,1.75,4.16,3.63,4.16,10.18,0,3.38,1.56,4.14,2.52,8.16a19.53,19.53,0,0,1,.36,8.08c-.75,4.34-2.34,6.39-4.55,8-1.75,1.25-6.11,1.89-9.86,1.89l.82,5.88s9.77,6.66,1.36,8.28c-12.07,2.34-17.66-4.93-17.66-4.93l-1.9-16c-.21,1-3.19,2.78-6.18-.39-3.2-3.4-3.35-7-1.73-9.62,1.79-2.87,6.36-2.24,8.58.88,3,.44,3.56-3.54,2.25-7.82a7.64,7.64,0,0,0,3.7-8.88C184.59,111.46,195.06,110.58,197.41,105.1Z" style="fill:#ffa8a7"></path><path d="M165.59,107c-3.35.93-7,5.13-7,14s.89,20.52,6.71,24.27,13.16,1.74,15.42,0c-3.23-.77-7-1.76-7.54-6.25,0,0-5.06-1.78-6.91-4.21s-5.6-8.51-5.18-14.59S165.59,107,165.59,107Z" style="fill:#263238"></path><path d="M193.2,133.58c-.31.68-1.21-.38-2.36-.6s-2.43.24-2.43-.41c0-1.27,1.59-2,2.92-1.78S193.79,132.31,193.2,133.58Z" style="fill:#b16668"></path><path d="M189.28,131.19h0a1.68,1.68,0,0,0-.83,1.38c0,.65,1.27.18,2.43.41a3.43,3.43,0,0,1,.85.3h0A3.07,3.07,0,0,0,189.28,131.19Z" style="fill:#f28f8f"></path><polygon points="191.69 119.16 193.87 128.53 198.72 125.84 191.69 119.16" style="fill:#f28f8f"></polygon><path d="M190,141.38c-3.92.13-12.43-2.19-14.18-5.11,0,0,.93,3.42,3.77,4.79,4,1.92,10.74,2.67,10.74,2.67Z" style="fill:#f28f8f"></path><path d="M196.07,119.72a1.81,1.81,0,0,0,1.54,2,1.7,1.7,0,0,0,2-1.47c.11-1-.65-1.21-1.62-1.35S196.18,118.76,196.07,119.72Z" style="fill:#263238"></path><path d="M185,122.67a1.81,1.81,0,0,0,2.5.25,1.69,1.69,0,0,0,.28-2.43c-.61-.74-1.14-.51-1.91.09S184.38,121.92,185,122.67Z" style="fill:#263238"></path><path d="M184.73,115.77l-3.26,2.78a2.06,2.06,0,0,0,3,.3A2.24,2.24,0,0,0,184.73,115.77Z" style="fill:#263238"></path><path d="M195.76,113.71l4.15.8a2,2,0,0,1-2.41,1.71A2.23,2.23,0,0,1,195.76,113.71Z" style="fill:#263238"></path></g><g id="freepik--arm--inject-134"><path d="M210.92,214c-.07.35-.44.54-.77.68a36.85,36.85,0,0,1-4.6.87,3.78,3.78,0,0,1-.82,2.05c-.81,1.09-2.56,1.45-3.71,2a11.22,11.22,0,0,0-2.26,2.1c-2,1.82-4,2.56-7.56,2.56-5.64,0-8.52-1.18-13.74-3.32a34,34,0,0,0-6.62-2.21c-2.48-.52-17-2.83-21.31-3.6a62.75,62.75,0,0,1-7-1.57,12.13,12.13,0,0,1-4.3-2l-.83-14.21c2-8.71,5.74-21.71,9-31.09,3.5-10.1,5.36-12.28,19.17-15.45a4.74,4.74,0,0,1,.25.69c2.63,12.15-2,30.12-2,30.12l-7,16.9c5.64,1.67,11.24,4,16.92,5.48a18.43,18.43,0,0,0,6.74.52c1.25-.15,2.47-.52,3.72-.71a30.83,30.83,0,0,1,7.12.14,33.35,33.35,0,0,0,3.6.16,17.78,17.78,0,0,0,1.78-.14,11.62,11.62,0,0,1,1.41-.26.78.78,0,0,1,.51.14,1.14,1.14,0,0,1,.44.89,2.31,2.31,0,0,1-.74,1.67A6.36,6.36,0,0,1,194.9,208c-1.25.26-2.53.33-3.77.61-.12,0-.25.07-.29.19s.07.23.16.31a7.1,7.1,0,0,0,3.23,1.39,40.08,40.08,0,0,0,8.52,1,20.52,20.52,0,0,1,6.17.52,3,3,0,0,1,1.92,1.46A.81.81,0,0,1,210.92,214Z" style="fill:#ffa8a7"></path><path d="M156.79,198.51c-3.88-1.32-9.63-.73-13.26.73,2.51-2.05,7.47-4.3,14.08-2.71Z" style="fill:#f28f8f"></path><path d="M210.92,214a2.05,2.05,0,0,0-1.4-1.67,8.22,8.22,0,0,0-2.23-.57,35.71,35.71,0,0,0-4.63-.1,39,39,0,0,1-9.24-1.13,7,7,0,0,1-2.19-.94,2.88,2.88,0,0,1-.49-.41.45.45,0,0,1-.06-.51.61.61,0,0,1,.38-.23c.39-.09.77-.16,1.16-.22a16,16,0,0,0,4.46-1,4.46,4.46,0,0,0,1.72-1.34,1.43,1.43,0,0,0,.12-1.82c-.2-.2-.52-.16-.89-.09a10.35,10.35,0,0,1-1.16.23,16.82,16.82,0,0,1-2.35.12c-3.13,0-6.2-.7-9.25-.4-1.51.13-3,.64-4.57.79a17.46,17.46,0,0,1-4.68-.15c-6.13-1.29-11.77-3.91-17.69-5.74,3,.84,5.91,1.85,8.85,2.83,1.47.5,2.94,1,4.42,1.41a32.21,32.21,0,0,0,4.48,1.11,18,18,0,0,0,4.58.11c1.51-.16,3-.67,4.57-.82,3.14-.31,6.23.33,9.29.37a17.48,17.48,0,0,0,2.29-.11,9.61,9.61,0,0,0,1.12-.22,3.12,3.12,0,0,1,.63-.07,1.07,1.07,0,0,1,.68.28,1.53,1.53,0,0,1,.42,1.27,2.49,2.49,0,0,1-.48,1.17,5,5,0,0,1-1.91,1.48,16.86,16.86,0,0,1-4.59,1c-.37.05-.76.12-1.12.2a.57.57,0,0,0-.12,0s0,0,0,0a2.93,2.93,0,0,0,.4.33,6.33,6.33,0,0,0,2.05.91,39.63,39.63,0,0,0,9.14,1.26,36.28,36.28,0,0,1,4.65.22,7.91,7.91,0,0,1,2.23.64A2.07,2.07,0,0,1,210.92,214Z" style="fill:#b16668"></path></g><g id="freepik--arm--inject-134"><path d="M211.08,138.26s-.53-.24-.72-1.35-.12-1.88-.32-3.12-.79-3.29-1.95-3.47-1.62,2.47-1.59,4.6a9.5,9.5,0,0,1-1.27,5.82c-1.32,2.45-2.4,5.57-.85,8.21Z" style="fill:#f28f8f"></path><path d="M239.19,193.13a10.7,10.7,0,0,1-3.12-.73c-6-2.45-9.76-7.56-12.41-11.07-1.89-2.52-2.23-3.4-6.19-10.41-5.1-9-6.34-11.54-7.56-13.43-1.61-2.51-2.93-4.22-4.63-6.6a4.59,4.59,0,0,1-.93-3.57,8.25,8.25,0,0,1,1.15-2.78c1.15-1.94,3.33-3.6,4.59-5,1.86-2.11,1.57-2.5,1.49-4.19a10,10,0,0,1,.95-3.88,17.4,17.4,0,0,1-1.38-3.54,9.14,9.14,0,0,1-1.19-3.25,9.46,9.46,0,0,1-1.36-2c-.88-1.82,0-2.28,0-2.28s-.28-.58-.65-1.59,0-2.52.95-2.34,1.44,1.41,2.14,2.38,1.5,1.9,1.5,1.9c-.09-1.3.88-2,1.47-1.81s1.2,2.32,1.95,3.94a18.07,18.07,0,0,1,1.58,4.64c.28,1.64.3,4.26,1,6.31,1,3.11,1.2,3.36.7,6-.33,1.78-1.32,5.35-1.07,7.05.21,1.38,2.57,3.84,6.61,8.32,3.46,3.84,11.76,11.48,12.9,12.54l1.42,24.4Z" style="fill:#ffa8a7"></path><path d="M204.38,149a12,12,0,0,0,2,3.28c.74,1.07,1.48,2.14,2.19,3.22s1.43,2.17,2.11,3.28,1.45,2.71,2.1,3.83c-.76-1.05-1.57-2.63-2.3-3.7s-1.45-2.15-2.18-3.22l-2.16-3.24-1.08-1.62A4.54,4.54,0,0,1,204.38,149Z" style="fill:#b16668"></path><path d="M212.56,120.7a9.64,9.64,0,0,0,.56,1.67,16.13,16.13,0,0,0,.74,1.57l0,.08v.12a7.11,7.11,0,0,0,0,.93,7.31,7.31,0,0,0,.11.94,5.85,5.85,0,0,0,.63,1.77l.08.14-.06.12c-.08.2-.16.45-.23.68s-.11.48-.15.73a6.34,6.34,0,0,0-.07.75c0,.26,0,.51,0,.77a4.45,4.45,0,0,1-.31-1.54,4.25,4.25,0,0,1,0-.8,4.77,4.77,0,0,1,.17-.8l0,.25a5.25,5.25,0,0,1-.8-1.94,4.68,4.68,0,0,1-.11-1,4.92,4.92,0,0,1,.08-1.07l0,.2a10.92,10.92,0,0,1-.59-1.72A5.77,5.77,0,0,1,212.56,120.7Z" style="fill:#f28f8f"></path><path d="M208.61,120.35a4.45,4.45,0,0,0,.67.76,6.15,6.15,0,0,0,.76.61l.06,0,0,.1a7.85,7.85,0,0,0,.89,1.9,5.35,5.35,0,0,0,1.38,1.5l.17.13,0,.21a7.08,7.08,0,0,0-.08,1.15,9.4,9.4,0,0,0,.11,1.19,9.68,9.68,0,0,0,.25,1.19c.09.4.24.78.37,1.18a7.37,7.37,0,0,1-.65-1.08,7,7,0,0,1-.45-1.18,7.87,7.87,0,0,1-.23-1.27,5.36,5.36,0,0,1,0-1.32l.13.34a4.62,4.62,0,0,1-.87-.78,4.73,4.73,0,0,1-.67-.94,6.43,6.43,0,0,1-.48-1,5.82,5.82,0,0,1-.28-1.11l.08.13a4.36,4.36,0,0,1-.7-.79A3.51,3.51,0,0,1,208.61,120.35Z" style="fill:#f28f8f"></path><path d="M213.11,133.69a4.93,4.93,0,0,1-.48,2.2,7.23,7.23,0,0,1-1.26,1.87c.14-.35.31-.68.48-1s.33-.66.47-1A16.89,16.89,0,0,0,213.11,133.69Z" style="fill:#f28f8f"></path><path d="M207,142.47a9.4,9.4,0,0,0-.3,4,6.79,6.79,0,0,0,.57,1.88,13.9,13.9,0,0,0,1,1.79,5.42,5.42,0,0,1-2.24-3.57A5.5,5.5,0,0,1,207,142.47Z" style="fill:#f28f8f"></path></g></g></g></g><g id="freepik--character--inject-134"><g id="freepik--character--inject-134"><path d="M373.4,213.81c-4.32.28-21.45-17.31-21.45-17.31,2-2.19,5.44-6.17,9.35-7.72C365.09,199.53,369.54,203,373.4,213.81Z" style="fill:#f28f8f"></path><g id="freepik--arm--inject-134"><path d="M356.69,156.9c5.78-.31,6.39-1.46,9.32.34,3.28,2,2,9.82,3,14.43,2.88,14.22,3.66,17.74,7.45,33.89,1.26,5.39-1.34,12.29-7.61,5.28-2.16-2.41-3.36-6.53-4.7-11.21-1.27-4.4-3.5-13.69-3.5-13.69S358.09,168.59,356.69,156.9Z" style="fill:#ffa8a7"></path></g><g id="freepik--body--inject-134"><path d="M361.93,387.74c.05-1.85.23-7.69.4-9.87l.09-1.58c.21-11.84,1.22-18.3,1.31-23.23.23-12.9-3.6-21.42-4.25-33.63s.65-21.85,1.24-38.26c.43-12.2,1.15-17.16.92-27-.07-3.1,0-8.68-.06-10.53a21.54,21.54,0,0,0-.56-4.81c-.42-1.37-2.13-3.1-2.59-3.85-3.12-5.06-3.44-15-2.23-20.16,1.55-6.6,2.48-5.71,3.83-14.87,1-6.45,3-16.89,3.76-23.2,1-8.24,1.38-19.7-6.53-19.86-1.63,0-6.74.75-7.31-.84a41,41,0,0,1-1.14-6.61c-5.45.7-11.05,1.42-16.55,2.06.18,1.94.55,3.56.68,5.61,0,.36.37,1-.48,1.64s-3.43,1-4.83,1.19a18.45,18.45,0,0,0-2.5.38c-4.92,1.46-5.16,2.32-8.26,7.43-2.57,4.23-7,13.25-7.33,18.63s1.17,8.08,3.91,11.9a58.06,58.06,0,0,0-.25,9.53c.42,3.6,1.8,4,3.15,12.91a20.42,20.42,0,0,1,0,6.2,17.18,17.18,0,0,1-2.32,7.71c-.88,1.62-2,2.8-2.48,4.32-.75,2.35.85,6.58.73,9.69-.34,9,.07,21.88.07,21.88l25.25,5s6.28,38.5,5.82,43.17c-.7,7,1.26,8.46,3.29,11.73,2.21,3.55,4.83,29.58,6.05,46.81l.12,1.45a96.48,96.48,0,0,1-.63,12.2c-.9,2.36-15.79.51-19.33.79-2.51.2-13.87,2.78-7.22,7.86,3.24,2.47,7.63,3,11.9,3.2,6.85.39,10.95,1.65,15.1,2,6.26.57,10.53-.86,11-5.69C364,396.08,361.86,390.59,361.93,387.74Z" style="fill:#ffa8a7"></path><path d="M318.49,188.81c-.95,1.67-3.77,6.53-5.06,9.47-2.72-3.81-4.21-6.51-3.89-11.9s4.76-14.4,7.33-18.63c3.1-5.1,3.34-6,8.25-7.43h0C330.9,171.13,325.13,177.18,318.49,188.81Z" style="fill:#ffa8a7"></path><path d="M362.86,184.46c0-1.06,0-2.12,0-3.19s-.06-2.11-.1-3.18c-.09-2.13-.18-4.28-.29-6.42a26.58,26.58,0,0,1,.55,3.19c.11,1.08.21,2.15.25,3.23A28.93,28.93,0,0,1,362.86,184.46Z" style="fill:#f28f8f"></path><path d="M337,209.22c-1.69,0-3.36.31-5,.43a41.52,41.52,0,0,1-5,.06,31.45,31.45,0,0,1-5.09-.69,19.5,19.5,0,0,1-2.69-.81A10.42,10.42,0,0,1,317,207s-.08.07,0,.1a10.07,10.07,0,0,0,4,2.35,22.19,22.19,0,0,0,5.08,1,31.79,31.79,0,0,0,5.42-.13,32.55,32.55,0,0,0,5.53-.91C337.06,209.34,337.08,209.22,337,209.22Z" style="fill:#f28f8f"></path><path d="M338.25,215.05c-1.7.06-3.38.33-5.07.46a46.49,46.49,0,0,1-5,.09,30.71,30.71,0,0,1-5.12-.68,18.81,18.81,0,0,1-2.71-.8,10.68,10.68,0,0,1-2.2-1.22s-.07.07-.05.1a10.11,10.11,0,0,0,4.05,2.32,21.82,21.82,0,0,0,5.1,1,38.58,38.58,0,0,0,11-1.11C338.29,215.17,338.31,215.05,338.25,215.05Z" style="fill:#f28f8f"></path><path d="M357.52,204.84a4.13,4.13,0,0,0-1,.56c-.32.18-.71.41-1.08.58a15.3,15.3,0,0,1-2.41.85,30.7,30.7,0,0,1-5,.8c-.05,0-.08.12,0,.13a19.31,19.31,0,0,0,5.37-.34,13,13,0,0,0,2.38-.79,11.55,11.55,0,0,0,1.11-.57,2.42,2.42,0,0,0,1-.78C357.91,205,357.8,204.79,357.52,204.84Z" style="fill:#f28f8f"></path><path d="M355,211.08a24.41,24.41,0,0,1-3.83,1.23,16.71,16.71,0,0,1-2.26.34,13.34,13.34,0,0,0-1.92.1c-.07,0-.09.13,0,.15a5.88,5.88,0,0,0,2.09.18,15,15,0,0,0,2.12-.17,14.43,14.43,0,0,0,4.12-1.29C355.55,211.48,355.26,211,355,211.08Z" style="fill:#f28f8f"></path><path d="M334.48,238.28s0,0-.07,0a8.43,8.43,0,0,1-3.23-1c-.23-.15-.29-.37-.1-.54a1,1,0,0,1,.71-.15,11.57,11.57,0,0,1,2.1.31,0,0,0,0,0,0,0,6.9,6.9,0,0,0-2.31-.67,1.28,1.28,0,0,0-.94.14.67.67,0,0,0-.14.89,1.72,1.72,0,0,0,.88.7,6.42,6.42,0,0,0,1.29.41,6.63,6.63,0,0,0,1.05.13,3.63,3.63,0,0,0,.45,0l.22,0C334.46,238.33,334.48,238.31,334.48,238.28Z" style="fill:#f28f8f"></path><path d="M349.87,237.65s0,0,.06-.05a8.15,8.15,0,0,0,3-1.41c.2-.18.23-.4,0-.54a1,1,0,0,0-.72-.05,11.14,11.14,0,0,0-2,.57s0,0,0,0a6.9,6.9,0,0,1,2.17-.95,1.32,1.32,0,0,1,1,0,.68.68,0,0,1,.28.85,1.72,1.72,0,0,1-.76.8,6.68,6.68,0,0,1-1.22.56,5.66,5.66,0,0,1-1,.26,2.83,2.83,0,0,1-.45,0H350C349.9,237.7,349.87,237.69,349.87,237.65Z" style="fill:#f28f8f"></path><path d="M318.8,187.57c1.81-2.64,3.63-5.27,5.42-7.91-1.33,3.26-2.71,5.61-4.22,9.12C319.78,188.59,319,187.78,318.8,187.57Z" style="fill:#f28f8f"></path><path d="M352.76,377.23c-1.51,1-1,2.61-1,4.36s-.05,6.79-.14,8.68c-4.76,1.77-11.2.29-16.3,1-4.37.61-7.88.1-11.76,4s5.58,6.92,9.36,7.52,8.2.5,11,.81c5.07.57,6.73,1.59,10.6,1.82,5.51.33,8.75-1.23,9.5-5.87.52-3.16-.75-6.82-1-10.14a70.76,70.76,0,0,1,.13-9.4c.18-2.3.81-2.88-.77-3.72l-.09,1.58c-.35.94-2.41,1.88-4.74,1.95-1.82.05-4.06-.22-4.71-1.14Z" style="fill:#0E8B01"></path><path d="M364,399.55c.38-2.3-.19-4.85-.61-7.36-1.56.82-2.57,1.08-4.76,2.08-4,1.84-7.79,5.6-8.49,10.48a24.42,24.42,0,0,0,4.36.67C360,405.75,363.28,404.19,364,399.55Z" style="fill:#455a64"></path><path d="M335.05,391.16c-3.82.23-7.57.21-11.45,4.11-3.32,3.33,3.1,6,7.4,7.11a6.76,6.76,0,0,1-.28-6.65c1.27-2.62,3.93-3.83,7.62-4.66C337.34,391.06,335.9,391.11,335.05,391.16Z" style="fill:#455a64"></path><path d="M337.6,275.52l-25.25-5s.72,53.87-.27,57.55-1.83,6.42-.3,11.73,2.27,43.27,2.66,62.39c0,1.45,0,2.42,0,2.42-.17,1.87-.93,8.72-1,11.13-3.6.68-9.77.25-13.19.07-4.18-.21-9.85-.06-12.77,1.48-5.63,3-3,4.4,1,6.46,5.82,2.94,8.3,2.47,14.93,3.39s10.82,5.16,17.85.71c3.62-2.29,2.84-8.63,2.23-13-.3-2.1.57-9,.61-10.62s0-2.07,0-2.39c.54-10,2.31-24.37,3-32.74,1.14-13.08-1.16-20.77,0-34.67S337.6,275.52,337.6,275.52Z" style="fill:#ffa8a7"></path><path d="M314.44,402.24c-1.55.91-1.14,2.56-1.15,4.31s-.34,6.78-.51,8.67c-4.83,1.56-11.2-.54-16.33-.05-4.39.42-7.88.09-11.92,3.82s5.27,7.16,9,7.92,8.17.85,10.93,1.28c5,.79,6.65,1.89,10.5,2.28,5.5.57,8.8-.85,9.76-5.45.65-3.14-.46-6.84-.53-10.17a71.86,71.86,0,0,1,.53-9.39c.28-2.29.94-2.84-.6-3.75l-.16,1.58c-.4.92-2.49,1.76-4.83,1.74-1.81,0-4-.4-4.65-1.34Z" style="fill:#0E8B01"></path><path d="M324.74,425c.47-2.28,0-4.86-.3-7.38-1.59.75-2.61,1-4.85,1.87-4.11,1.66-8,5.25-8.92,10.11a24.53,24.53,0,0,0,4.31.85C320.48,431,323.78,429.62,324.74,425Z" style="fill:#455a64"></path><path d="M296.45,415.17c-4.39.42-7.88.09-11.92,3.82-3.46,3.18,2.84,6.15,7.09,7.42a6.74,6.74,0,0,1,0-6.65c1.39-2.57,3.91-3.94,7.63-4.62A21.48,21.48,0,0,0,296.45,415.17Z" style="fill:#455a64"></path><path d="M337.6,275.52l1.81-10.77c4.08-1.53,8.35-3.12,12.36-4.71a23.33,23.33,0,0,1-10,6.31c-.06,1.11-1.46,6.39-1.18,11.78.36,7.19,1.05,13.62,2.46,34.53C342.37,304.77,337.6,275.52,337.6,275.52Z" style="fill:#f28f8f"></path><path d="M339.36,264.75c-1.74-7.9-10.44-9.38-15.81-11.32-3.84-1.39-10.69-2.12-11.37-2.19a52.07,52.07,0,0,0-.26-6.28c17.05-3.33,42.49-4.61,49.67-1.11.09,1.29,0,3.47,0,3.47a18.05,18.05,0,0,1-6,9.83C349.92,261.79,346.82,263.23,339.36,264.75Z" style="fill:#0E8B01"></path><path d="M349.41,166c.11,1.93.24,3.85.17,5.76a51.76,51.76,0,0,1-.52,5.71c-.56,3.75-1.41,7.47-2.18,11.17s-1.64,7.51-2.36,11.14a92.93,92.93,0,0,0-1.8,10.61,32.32,32.32,0,0,0,1.37,12.36c.06.2.23,0,.2-.13a39.93,39.93,0,0,1-.32-11c.36-3.68,1-7,1.76-10.68s1.49-7.24,2.22-11,1.53-7.41,2-11.44a36.13,36.13,0,0,0-.4-12.6c0-.18-.18,0-.17.08Z" style="fill:#f28f8f"></path><path d="M357.49,184.63c-3.43-3.54-1.74-10.42-1.38-15.54.3-4.3.7-7.89.25-12.22a30.65,30.65,0,0,1-5.16,0c-.41,1.45-2.84,3.14-7.14,3.75a28.63,28.63,0,0,1-13.91-1.14c-1.8.28-3.34.67-5.09.78,4.16,2.08,6.83,3.79,9.38,8.57,2.8,5.26,3.92,15-2.52,19-4.37,2.77-11.85,3.48-14.14-2.49s-1.57-12.95.13-19.31c-.28.4-.52.82-.86,1.37-3.26,5.38-6.95,13.13-7.47,18.88s1,8.32,3.62,12.47a14.59,14.59,0,0,0-.07,3.27c7.56,2.91,13,2.92,21.53,2.58s18.27-1.57,25.81-6.65h0a126.05,126.05,0,0,0,2.4-13.5C360.85,185.27,358.27,185.43,357.49,184.63Z" style="fill:#0E8B01"></path></g><g id="freepik--head--inject-134"><path d="M316.7,112.39c7.95-11.23,23.6-11,33.46-6.55,6.28,2.83,5.67,5.26,7,10-11.14,5.19-21.75,10.54-32.72,15.71-1.16-2.66-3.94-2.37-6.2-4.39C314.35,123.71,313.91,116.34,316.7,112.39Z" style="fill:#263238"></path><path d="M319.34,128a57.42,57.42,0,0,0-4.36,8.09c-.14.39,1.89,1.51,3.42,1.59C318.87,134.89,319,131.05,319.34,128Z" style="fill:#f28f8f"></path><path d="M331,110.63c-7.88,2.31-11.52,6.7-13.26,14.35-.38,1.69,1.86,4.22,1.32,5.62-.85,2.28-1.5,3.12-1.27,5.16s1.52,4.69,1.82,7c.37,2.89-.06,6.26,1.7,7.2s6.94,1.82,12,.79c6.27-1.28,14.35-6.58,18.75-12.15,5.18-6.56,7-18.91,1.56-23.61C345.89,108.41,338.86,108.32,331,110.63Z" style="fill:#ffa8a7"></path><path d="M321.29,150c3.3,1.43,7.14,1.37,10.66,1.11-.08-.67-.13-1.35-.22-2a32.52,32.52,0,0,1-6.46,1A18.05,18.05,0,0,1,321.29,150Z" style="fill:#f28f8f"></path><path d="M351.21,111.35c-.75-.35-17.56-5.37-22.13-1.23-.49.45-3.92,1.07-4.69,2.32-.36.59-2.52,1.22-2.81,2.11a4.28,4.28,0,0,0-.4,2.34,5.8,5.8,0,0,0,4.75,5,6.21,6.21,0,0,0-1.07,4.91,8.51,8.51,0,0,0,2.37,3.91,2.14,2.14,0,0,0-.11,2,2.25,2.25,0,0,0,1.71,1.22,1,1,0,0,0,.66-.08,1.94,1.94,0,0,0,.64-.78,8.42,8.42,0,0,1,2.1-3,4.55,4.55,0,0,1,6.35,1.53c1.52,2.38.4,5.67-.77,7.5-1.56,2.47-4.06,3-6,1.26a21.05,21.05,0,0,1,1,3.58c.76,2.87.12,4.08,3.72,5.4s9.32.58,13.2-.67c2-4.67,4.34-5.22,6.84-10.28C360.76,129.9,364.92,117.81,351.21,111.35Z" style="fill:#263238"></path><path d="M331.84,140.36c.05,2.87.34,5.52-.72,8.39s-3.65,4-6.79,3.64c5.48,5.86,13.3,4.56,21.06,3.9,9.19-.79,16.3-9,17.13-17.92,1.07-11.39,1.7-18.85-6.21-25.15.66,7.31.14,14.35-4.1,20.31S338.64,145.55,331.84,140.36Z" style="fill:#263238"></path></g><g id="freepik--arm--inject-134"><path d="M313.9,198.24c-1.74,4-2.35,5.41-4.09,9.63l3.87-.4a1.64,1.64,0,0,0,0,.23c.36,3.13,1.45,3.82,2.61,9.81-2.95.81-11,2.86-17.08,3.09-8.46.32-3.73-8-1.26-14.39,4.48-11.5,10.64-23,12.18-34.91.74-5.67,2.29-10.33,8.3-10.31a35.13,35.13,0,0,0,7.15-.86l0,.08c5.76,10.81,0,16.86-6.65,28.49-.95,1.67-3.77,6.53-5.06,9.47Z" style="fill:#ffa8a7"></path><path d="M313.2,207.81a1.64,1.64,0,0,1,0-.23l-1.07.11a20.55,20.55,0,0,0,1.62,6.63,17,17,0,0,1,1,3.59l1.1-.29C314.65,211.63,313.56,210.94,313.2,207.81Z" style="fill:#f28f8f"></path><path d="M309.3,208a12.47,12.47,0,0,1-3.5,5.21A9,9,0,0,0,311,207.8Z" style="fill:#f28f8f"></path></g></g></g></svg>