<svg xmlns="http://www.w3.org/2000/svg" viewBox="0 0 500 500"><ellipse cx="249.53" cy="335.97" rx="233.51" ry="134.82" style="fill:#ebebeb"/><path d="M483 333.5a79.43 79.43 0 0 0-2.73-18.31 82 82 0 0 0-2.52-7.84c-.35-.93-.71-1.86-1.1-2.79-.16-.4-.34-.79-.51-1.19-4.73 0-9.41 1.92-13.35 4.62-4.53 3.12-8.28 7.21-12.2 11.07a107.23 107.23 0 0 1-21 16.45c-13.25 7.69-32 8.26-47 9.55-14.28 1.23-28.75 2.38-42.34 6.94s-26.47 12.95-33.4 25.51c-4.5 8.15-7.29 17.15-11.72 25.33s-10.53 12.94-18.85 15c-4.17 1-12.72 1.53-18.84 1.36-14.48-.38-29-3.59-43.39-4.67-23.74-1.77-33.56 2.54-38.4 3.69a79.6 79.6 0 0 0-31.36 14.71c-4.59 3.63-8.94 7.59-13.95 10.62a55.9 55.9 0 0 1-10.17 4.72q5.39 2.08 10.91 4c1.41.48 2.82.95 4.24 1.41.73.23 1.45.47 2.18.69a320.5 320.5 0 0 0 17.33 4.95 355.25 355.25 0 0 0 34.91 7.07c77.73 11.85 164 .17 224.92-35 26.59-15.35 45.43-33.49 56.51-52.79 8.37-14.67 12.31-29.9 11.83-45.1Z" style="fill:#8c00ff;opacity:.30000000000000004"/><path d="M444.05 351c-9.08 3.1-15.14 5.54-36.15 6.54-11.82.56-23.92 1.11-35.82.9-14.88-.26-34.56 4.93-44 17.45l-.08.1c-7.13 8-12.58 19.14-19.11 34.14A32.34 32.34 0 0 1 297 424.9a42.13 42.13 0 0 1-19.11 7.27c-5.39.62-10.83.19-16.23-.25L226 429.06c-15.21-1.22-32-.4-46.11 5.89-11.65 5.2-21.27 13.88-30.43 22.84 1.79.49 3.57 1 5.37 1.45a355.25 355.25 0 0 0 34.91 7.07c77.73 11.85 164 .17 224.92-35 26.59-15.35 45.43-33.49 56.51-52.79 8.38-14.58 12.32-29.81 11.83-45a78 78 0 0 0-.7-8.33C471.14 338 464.08 344.13 444.05 351Z" style="fill:#8c00ff;opacity:.5"/><path d="M189.73 466.31c77.73 11.85 164 .17 224.92-35 26.59-15.35 45.43-33.49 56.51-52.79a93.31 93.31 0 0 0 6.51-13.71 81.37 81.37 0 0 1-18.76 6c-3.27.65-6.58 1.15-9.87 1.51-14.69 1.63-29.54.92-44.3 1.78a208.29 208.29 0 0 0-35.21 5.1c-11 2.56-19.45 9.11-27.35 16.85-7.15 7-10.15 17.54-14.05 26.48-5.22 12-13.36 22.46-22.95 25.12-11.93 3.33-24.51 1.7-36.56-.08-10.81-1.6-21.88-3.68-32.63-4.45-22.8-1.65-42.57 3.18-59.28 16.06a22.16 22.16 0 0 0-4.11 4.1q8.48 1.72 17.13 3.03Z" style="fill:#8c00ff"/><path d="M315.64 366.2c-14.6 11.34-15.8 34.15-29 45.38-11.17 9.5-28.45 7.38-74.33 2.78 0 0 33.47 4.95 51.67 5.74 14 .61 21.31-1.36 29.91-11.61 9.21-10.98 9.11-28.34 21.75-42.29ZM118.18 447.46c1.16.48 5 1.94 6.16 2.34 7.45-2.94 12.86-8.32 17-12.22 10.62-10.08 24.82-17.09 32.78-19-10.52 1.68-22.68 6-36.9 18.35a49.55 49.55 0 0 1-19.04 10.53ZM352.7 387.06s11.53-10 32.78-13.61c20.87-3.52 59.57 1.27 75.77-3.13 0 0-11.38 5.55-41 5.55-35.97 0-44.05-1.87-67.55 11.19ZM464.48 306.86c-7.76 3-15 13.08-25.1 20.8-9.3 7.07-23.05 14.84-55 17.2 0 0 21.64.47 37.09-4.74s20.84-10.66 26.09-16.61c9.1-10.37 14.2-15.22 16.92-16.65ZM231.73 429.52c-3.44-.28-17.94-2.84-30.79-1s-23.21 5.16-33.82 13.86c0 0 12.56-7.78 26.35-10.66a131.63 131.63 0 0 1 38.26-2.2ZM349.14 362c-4.95 1.9-13.85 5.21-21.73 15.84s-11 18.13-16 29.44-11.59 15.45-11.59 15.45S307 413.94 310.6 404s8.22-20.05 15.93-28.44 13.74-11.28 22.61-13.56ZM482.76 329.38c-.18-2.14-.44-4.28-.8-6.41a61.48 61.48 0 0 0-7.53 7.61c-5.32 6.25-25.35 21.78-58.22 26.41 0 0 10.47.59 29-4.74s27.55-13.95 31.59-18a45.08 45.08 0 0 1 5.96-4.87ZM201.49 446.44c8.07-5 20.53-5.9 38.45-4.3s51.22 9.57 66.81 5c0 0-5.67 4.24-26.21 2.88-18.68-1.24-43.42-6.16-56-6.18-17.45-.01-23.05 2.6-23.05 2.6Z" style="fill:#fafafa"/><ellipse cx="287.88" cy="276.11" rx="23.72" ry="13.7" style="opacity:.1"/><path d="m314.18 278.75-2.05 1.45a146.62 146.62 0 0 0-18.06 15.42c-2.6 2.61-4.89 5.7-5.4 9.35-.69 5 2.62 8 5.77 9.5 6.66 3.2 15.71 2 15.63 1.64 1.05 4.85 5.09 8.63 9.67 10.53a34.52 34.52 0 0 0 14.61 2.21c5.74-.22 11.23-1.82 17.18-3.64a150.63 150.63 0 0 0 29.73-12.71c8.29-4.66 17.61-10.42 21-19.8a10.25 10.25 0 0 0-2.76-12.21c-5.68-5.76-13.79-8.3-21.64-10.27-12.45-3.11-25.51-5.29-38.07-2.63a70.36 70.36 0 0 0-25.61 11.16ZM124.32 340.43c-2.37 0-5.82-3.13-7.31-4.79-3.52-3.91-7.1-8.19-8.24-9.57-1.93.35-8.5 1.59-15.4 3.45l-1.65.45a24 24 0 0 1-5.45 1.15 2.25 2.25 0 0 1-2.16-1c-.55-1-.18-2.41 1.26-4.74 3-4.86 9.36-8.54 12.5-10.13a80.05 80.05 0 0 0-9.44-4.25c-1.46-.52-3.41-1.4-3.38-3 0-.78.54-1.87 3-2.64a29.22 29.22 0 0 1 7.45-.84c1 0 2 0 3 .13 7.64.7 11.54 2 12.93 2.51 1.71-1.27 7.69-5.33 15-6 1.19-.11 2.28-.17 3.23-.17 2.45 0 3.79.37 4.37 1.22a1.68 1.68 0 0 1 .13 1.6c-.47 1.18-1.7 2.12-3.26 3.32a31.17 31.17 0 0 0-5.41 5l1.48.54a83.07 83.07 0 0 1 13.03 5.67c3.45 2 4.87 3.61 4.46 5.17-.51 1.91-3.53 2.31-6 2.31h-3.06c-3.81 0-8.82.1-11.13.15.45 1.8 1.3 5.48 2.17 10.44.26 1.53.11 2.61-.47 3.3a2.08 2.08 0 0 1-1.65.72ZM118.92 401.51a1.27 1.27 0 0 1-.94-.42c-.59-.65-.78-2.54-.57-5.6a88.61 88.61 0 0 1-15.31 1.85 14 14 0 0 1-6.3-1.06 6.84 6.84 0 0 1-3.8-4.54c-.52-2.23.17-4.94 1.89-7.52-.71-1.25-1.6-4.13 1.45-8.53a9.52 9.52 0 0 1 8.11-4.31 9.69 9.69 0 0 1 1.74.15c.88-1.13 3.16-3.27 7.94-3.27a16.93 16.93 0 0 1 2.21.14 6.65 6.65 0 0 1 4.53 2.87c3 4.07 4.06 11.9 3.43 17.79a21.11 21.11 0 0 1 3.53-.36 5.49 5.49 0 0 1 3.39.85 1.54 1.54 0 0 1 .63 1.54c-.3 1.61-3.9 3-7 3.93-.86 1.66-2.94 5.49-4.21 6.28a1.36 1.36 0 0 1-.72.21Z" style="fill:#e0e0e0"/><ellipse cx="242.5" cy="352" rx="36.5" ry="17.5" style="fill:#e0e0e0"/><ellipse cx="200.5" cy="368" rx="30.24" ry="14.5" style="fill:#e0e0e0"/><path d="M190.22 226.66c0-18 7.89-62.91 46.12-97.95l4.56 2.63s-37.41 33.45-33.3 95.33c0 1.28-.85 2.57-2.55 3.55a12.5 12.5 0 0 1-6.14 1.47 12.6 12.6 0 0 1-6.15-1.47c-1.7-.98-2.54-2.22-2.54-3.56Z" style="fill:#b16668"/><path d="M237.31 131.34s6.62-7.72 25.72-1 23.6 34.85 20.36 50.1a44.22 44.22 0 0 0-8.59-13.1l-2.49-15.89-1.11 13.38a23 23 0 0 1-7.64-6.39s-.07-9.21-2-15.11L260 154.75a12.65 12.65 0 0 1-5.67-3.34c-2.93-2.8-12.15-9.93-17.02-20.07Z" style="fill:#8c00ff"/><path d="M237.31 131.34s6.62-7.72 25.72-1 23.6 34.85 20.36 50.1a44.22 44.22 0 0 0-8.59-13.1l-2.49-15.89-1.11 13.38a23 23 0 0 1-7.64-6.39s-.07-9.21-2-15.11L260 154.75a12.65 12.65 0 0 1-5.67-3.34c-2.93-2.8-12.15-9.93-17.02-20.07Z" style="opacity:.15"/><path d="M239.75 132s.8-5.31-5.43-15.92-20.61-14.72-28.5-14.84-18.93 2.66-29.4 11.66a38 38 0 0 1 18.58 3.34 22 22 0 0 1 12.85-5.44s-6.85 4.88-8.65 7.2c0 0 6.64 4.49 14.05 4.1 0 0 5.86-4.4 11-5.06 0 0-5.59 3.26-7.48 7 .02-.04 14.99 8.35 22.98 7.96Z" style="fill:#8c00ff"/><path d="M237.31 131.34s-10.08-7.89-25.37-3.34-25.7 25.64-27.17 35.75c0 0 6.13-6.14 19.34-10.83l5.09-11.54.14 9.57 8.71-3.73 4.57-12v10s11.09-7.22 14.69-13.88Z" style="fill:#8c00ff"/><path d="M237.31 131.34s-10.08-7.89-25.37-3.34-25.7 25.64-27.17 35.75c0 0 6.13-6.14 19.34-10.83l5.09-11.54.14 9.57 8.71-3.73 4.57-12v10s11.09-7.22 14.69-13.88Z" style="opacity:.15"/><path d="M237.31 131.34a35.14 35.14 0 0 0-3.69 12.34 23.56 23.56 0 0 0 1.49 11.07l5.79-4.38-4.51 11.81a32.59 32.59 0 0 0 2.61 12.06l6.63-10.49-4.23 16.09s4.12 13.85 4.23 19.91c0 0 11.44-17.36 10.41-35.47s-6.34-30.4-18.73-32.94Z" style="fill:#8c00ff"/><path d="M177 229.61c0-29.58-13-103.25-75.7-160.76l-7.49 4.32s61.4 54.9 54.66 156.45c0 2.11 1.4 4.21 4.18 5.82a20.55 20.55 0 0 0 10.07 2.41 20.53 20.53 0 0 0 10.1-2.41c2.75-1.61 4.18-3.72 4.18-5.83Z" style="fill:#b16668"/><path d="M99.67 73.17S88.81 60.5 57.46 71.46 18.73 128.65 24 153.68c0 0 5-12.47 14.11-21.5l4.08-26.07 1.82 22a37.76 37.76 0 0 0 12.54-10.5s.11-15.11 3.21-24.79l2.65 18.82a20.89 20.89 0 0 0 9.3-5.49c4.83-4.64 19.98-16.33 27.96-32.98Z" style="fill:#8c00ff"/><path d="M95.66 74.26s-1.3-8.71 8.92-26.13C114.94 30.5 138.4 24 151.35 23.77s31.07 4.37 48.25 19.14a62.54 62.54 0 0 0-30.45 5.48 36.1 36.1 0 0 0-21.08-8.94s11.27 8 14.14 11.76c0 0-10.89 7.38-23.05 6.74 0 0-9.62-7.23-18.09-8.31 0 0 9.17 5.35 12.27 11.54 0 0-24.55 13.72-37.68 13.08Z" style="fill:#8c00ff"/><path d="M95.66 74.26s-1.3-8.71 8.92-26.13C114.94 30.5 138.4 24 151.35 23.77s31.07 4.37 48.25 19.14a62.54 62.54 0 0 0-30.45 5.48 36.1 36.1 0 0 0-21.08-8.94s11.27 8 14.14 11.76c0 0-10.89 7.38-23.05 6.74 0 0-9.62-7.23-18.09-8.31 0 0 9.17 5.35 12.27 11.54 0 0-24.55 13.72-37.68 13.08Z" style="opacity:.15"/><path d="M99.67 73.17s16.54-13 41.64-5.49 42.17 42.09 44.59 58.68c0 0-10.06-10.08-31.75-17.78l-8.35-18.94-.22 15.71-14.31-6.12-7.5-19.72v16.35s-18.19-11.71-24.1-22.69Z" style="fill:#8c00ff"/><path d="M99.67 73.17a57.75 57.75 0 0 1 6.06 20.25c.94 10.91-2.45 18.18-2.45 18.18l-9.51-7.2 7.41 19.39a53.45 53.45 0 0 1-4.28 19.78L86 126.36l7 26.41s-6.8 22.72-7 32.67c0 0-18.77-28.49-17.08-58.2s10.42-49.9 30.75-54.07Z" style="fill:#8c00ff"/><path d="M99.67 73.17a57.75 57.75 0 0 1 6.06 20.25c.94 10.91-2.45 18.18-2.45 18.18l-9.51-7.2 7.41 19.39a53.45 53.45 0 0 1-4.28 19.78L86 126.36l7 26.41s-6.8 22.72-7 32.67c0 0-18.77-28.49-17.08-58.2s10.42-49.9 30.75-54.07Z" style="opacity:.15"/><path d="M270.5 343.89 266.83 303l-1.1 4H258v4.89a9.74 9.74 0 0 1-1.14 1.59l-3.71-2.14a25.13 25.13 0 0 1-7.86 2.8v5.09a34.16 34.16 0 0 1-10.3.38v-5.09a26.85 26.85 0 0 1-10.27-3.18L221 313.5a9 9 0 0 1-1.79-3V307h-7.61v-.7l-.55-3.29-3.67 40.86v1c0 4.67 3.08 9.34 9.25 12.9 12.34 7.13 32.35 7.13 44.69 0 6.61-3.77 9.68-8.87 9.18-13.88Z" style="fill:#f0997a"/><path d="M270.5 343.89 266.83 303l-1.1 4H258v4.89a9.74 9.74 0 0 1-1.14 1.59l-3.71-2.14a25.13 25.13 0 0 1-7.86 2.8v5.09a34.16 34.16 0 0 1-10.3.38v-5.09a26.85 26.85 0 0 1-10.27-3.18L221 313.5a9 9 0 0 1-1.79-3V307h-7.61v-.7l-.55-3.29-3.67 40.86v1c0 4.67 3.08 9.34 9.25 12.9 12.34 7.13 32.35 7.13 44.69 0 6.61-3.77 9.68-8.87 9.18-13.88Z" style="fill:#fff;opacity:.12"/><path d="M242.91 292.32v4.53a34.89 34.89 0 0 0-10.31.38v-4.63a47.35 47.35 0 0 1 10.31-.28ZM224.75 300a12.88 12.88 0 0 0-4.86 4.54l-.91-.18-6.45-1.24a15.48 15.48 0 0 1 3.86-4.35 23.92 23.92 0 0 1 2.87-1.94ZM266.29 305.09l-7.58.88a2.49 2.49 0 0 0-.11-.29 11.82 11.82 0 0 0-5.39-5.64l5.49-3.17a20.46 20.46 0 0 1 4.58 3.48 12.82 12.82 0 0 1 3 4.7ZM265.4 313.33a17.79 17.79 0 0 1-6.73 6.29l-4.92-2.84-.53-.31a14.65 14.65 0 0 0 3.71-2.95 9.74 9.74 0 0 0 1.14-1.59ZM247.77 323.5a47.68 47.68 0 0 1-14.27.52l1.52-4.39a34.16 34.16 0 0 0 10.3-.38ZM224.75 316.45l-.59.34-4.9 2.83c-4-2.33-6.59-5.21-7.62-8.22l7.61-.88a9 9 0 0 0 1.79 3 13.69 13.69 0 0 0 3 2.5c.22.14.46.29.71.43Z" style="fill:#f0997a"/><g style="opacity:.2"><path d="M242.91 292.32v4.53a34.89 34.89 0 0 0-10.31.38v-4.63a47.35 47.35 0 0 1 10.31-.28ZM224.75 300a12.88 12.88 0 0 0-4.86 4.54l-.91-.18-6.45-1.24a15.48 15.48 0 0 1 3.86-4.35 23.92 23.92 0 0 1 2.87-1.94ZM266.29 305.09l-7.58.88a2.49 2.49 0 0 0-.11-.29 11.82 11.82 0 0 0-5.39-5.64l5.49-3.17a20.46 20.46 0 0 1 4.58 3.48 12.82 12.82 0 0 1 3 4.7ZM265.4 313.33a17.79 17.79 0 0 1-6.73 6.29l-4.92-2.84-.53-.31a14.65 14.65 0 0 0 3.71-2.95 9.74 9.74 0 0 0 1.14-1.59ZM247.77 323.5a47.68 47.68 0 0 1-14.27.52l1.52-4.39a34.16 34.16 0 0 0 10.3-.38ZM224.75 316.45l-.59.34-4.9 2.83c-4-2.33-6.59-5.21-7.62-8.22l7.61-.88a9 9 0 0 0 1.79 3 13.69 13.69 0 0 0 3 2.5c.22.14.46.29.71.43Z" style="fill:#fff"/></g><path d="M224.74 316.45c7.86 4.54 20.59 4.54 28.44 0s7.85-11.88 0-16.41-20.58-4.54-28.43 0-7.86 11.88-.01 16.41Z" style="fill:#ffbda7"/><path style="fill:#f0997a" d="M233.5 324.02v-5.08l-14.24-4.4v5.08l14.24 4.4zM247.77 323.5v-5.08l10.9-3.88v5.08l-10.9 3.88z"/><path style="fill:#fff;opacity:.12" d="M233.5 324.02v-5.08l-14.24-4.4v5.08l14.24 4.4zM247.77 323.5v-5.08l10.9-3.88v5.08l-10.9 3.88z"/><path style="fill:#f0997a" d="M247.77 318.41v5.09l-2.45-4.25v-5.09l2.45 4.25zM265.4 308.24v5.09l-7.37-1.42v-5.09l1.04.2 6.33 1.22zM258.67 291.78v5.09l-5.49 3.17v-5.09l5.49-3.17zM224.75 294.95v5.09l-5.49-3.17v-5.09l5.49 3.17zM219.25 305.43v5.09l-7.61.88v-5.09l7.61-.88zM235.02 314.54v5.09l-1.52 4.39v-5.09l1.52-4.39z"/><g style="opacity:.08"><path d="M247.77 318.41v5.09l-2.45-4.25v-5.09l2.45 4.25zM265.4 308.24v5.09l-7.37-1.42v-5.09l1.04.2 6.33 1.22zM258.67 291.78v5.09l-5.49 3.17v-5.09l5.49-3.17zM224.75 294.95v5.09l-5.49-3.17v-5.09l5.49 3.17zM219.25 305.43v5.09l-7.61.88v-5.09l7.61-.88zM235.02 314.54v5.09l-1.52 4.39v-5.09l1.52-4.39z"/></g><path d="M253.18 300v-5a27 27 0 0 0-10.27-3.19v5.09a34.89 34.89 0 0 0-10.31.38v-5.09a25.24 25.24 0 0 0-7.85 2.81v5a12.88 12.88 0 0 0-4.86 4.54v-5.09a7.11 7.11 0 0 0-.64 5.94v5.09a9 9 0 0 0 1.79 3l3.71-2.14a26.85 26.85 0 0 0 10.25 3.2v5.09a34.16 34.16 0 0 0 10.3-.38v-5.09a25.13 25.13 0 0 0 7.86-2.8l3.71 2.14a9.74 9.74 0 0 0 1.14-1.59v-5.09a7.35 7.35 0 0 0 .54-1.14 11.82 11.82 0 0 0-5.37-5.68Z" style="fill:#f0997a"/><path d="M253.18 300v-5a27 27 0 0 0-10.27-3.19v5.09a34.89 34.89 0 0 0-10.31.38v-5.09a25.24 25.24 0 0 0-7.85 2.81v5a12.88 12.88 0 0 0-4.86 4.54v-5.09a7.11 7.11 0 0 0-.64 5.94v5.09a9 9 0 0 0 1.79 3l3.71-2.14a26.85 26.85 0 0 0 10.25 3.2v5.09a34.16 34.16 0 0 0 10.3-.38v-5.09a25.13 25.13 0 0 0 7.86-2.8l3.71 2.14a9.74 9.74 0 0 0 1.14-1.59v-5.09a7.35 7.35 0 0 0 .54-1.14 11.82 11.82 0 0 0-5.37-5.68Z" style="opacity:.03"/><path d="m258.67 291.78-5.49 3.22a27 27 0 0 0-10.27-3.19l1.52-4.38a37.17 37.17 0 0 1 14.24 4.35ZM232.6 292.14a25.24 25.24 0 0 0-7.85 2.81l-5.49-3.17a35.34 35.34 0 0 1 10.9-3.88ZM266.83 303a9.66 9.66 0 0 1-.82 4 10.68 10.68 0 0 1-.61 1.22l-6.33-1.22-1-.2a7.35 7.35 0 0 0 .54-1.14 6.73 6.73 0 0 0 .11-4.8l4.57-.53 3-.35a9.46 9.46 0 0 1 .54 3.02ZM258.67 314.53a29.43 29.43 0 0 1-4.92 2.25 39.52 39.52 0 0 1-6 1.63l-2.45-4.25a25.13 25.13 0 0 0 7.86-2.8l3.71 2.14ZM219 304.4a6.52 6.52 0 0 0 .27 1l-7.61.88a9.74 9.74 0 0 1-.54-3.26 10.14 10.14 0 0 1 1.43-5l3.86.74 3.5.68a7 7 0 0 0-.91 4.96ZM235 314.54l-1.52 4.39a42 42 0 0 1-9.34-2.14 30.07 30.07 0 0 1-4.9-2.26l1.78-1 3.71-2.14a26.85 26.85 0 0 0 10.27 3.15Z" style="fill:#f0997a"/><g style="opacity:.2"><path d="m258.67 291.78-5.49 3.22a27 27 0 0 0-10.27-3.19l1.52-4.38a37.17 37.17 0 0 1 14.24 4.35ZM232.6 292.14a25.24 25.24 0 0 0-7.85 2.81l-5.49-3.17a35.34 35.34 0 0 1 10.9-3.88ZM266.83 303a9.66 9.66 0 0 1-.82 4 10.68 10.68 0 0 1-.61 1.22l-6.33-1.22-1-.2a7.35 7.35 0 0 0 .54-1.14 6.73 6.73 0 0 0 .11-4.8l4.57-.53 3-.35a9.46 9.46 0 0 1 .54 3.02ZM258.67 314.53a29.43 29.43 0 0 1-4.92 2.25 39.52 39.52 0 0 1-6 1.63l-2.45-4.25a25.13 25.13 0 0 0 7.86-2.8l3.71 2.14ZM219 304.4a6.52 6.52 0 0 0 .27 1l-7.61.88a9.74 9.74 0 0 1-.54-3.26 10.14 10.14 0 0 1 1.43-5l3.86.74 3.5.68a7 7 0 0 0-.91 4.96ZM235 314.54l-1.52 4.39a42 42 0 0 1-9.34-2.14 30.07 30.07 0 0 1-4.9-2.26l1.78-1 3.71-2.14a26.85 26.85 0 0 0 10.27 3.15Z" style="fill:#fff"/></g><path d="M224.26 331.44c-.43-5.62-6.5-9.8-13.16-12.16-.07-5.73-.35-12.46-.35-12.46l-.89 9.95-2.44 27.12v1c0 4.67 3.08 9.34 9.25 12.9 7.5 4.34 17.84 6 27.57 5.1a46.34 46.34 0 0 1-17.4-3.53s-1.94-19.65-2.58-27.92Z" style="fill:#f0997a;opacity:.8"/><path d="M258 311.91v-.29c-2.2-4.92-10-8.57-19.32-8.57-9.09 0-16.75 3.47-19.16 8.21a9.29 9.29 0 0 0 1.48 2.24l3.71-2.14a26.85 26.85 0 0 0 10.29 3.18v5.09a34.16 34.16 0 0 0 10.3-.38v-5.09a25.13 25.13 0 0 0 7.86-2.8l3.71 2.14a9.74 9.74 0 0 0 1.13-1.59Z" style="fill:#fff;opacity:.07"/><path d="M245.32 346.24v16.54a43.14 43.14 0 0 0 14.84-4.37c-.51-5.68-1-14-1.38-16.3-.64-4.35-13.46-.71-13.46 4.13Z" style="fill:#f0997a"/><path d="M245.32 346.24v16.54a43.14 43.14 0 0 0 14.84-4.37c-.51-5.68-1-14-1.38-16.3-.64-4.35-13.46-.71-13.46 4.13Z" style="opacity:.1"/><path d="M256 342.11c-.15-1-1-1.6-2.17-1.83-3.85.55-8.54 3-8.54 6v16.54a45 45 0 0 0 12-3.06c-.43-5.85-.93-15.42-1.29-17.65ZM223.8 362.23l-2.66-29.62-.8 2.89h-5.58v3.5a6.88 6.88 0 0 1-.83 1.16l-2.69-1.56a18.12 18.12 0 0 1-5.7 2v3.69a24.52 24.52 0 0 1-7.46.28V341a19.39 19.39 0 0 1-7.45-2.31l-2.69 1.56a6.56 6.56 0 0 1-1.3-2.16v-2.59h-5.51v-.5l-.4-2.38-2.66 29.62v.74c0 3.38 2.23 6.77 6.71 9.35 8.94 5.17 23.45 5.17 32.39 0 4.76-2.78 6.98-6.47 6.63-10.1Z" style="fill:#f0997a"/><path d="m223.8 362.23-2.66-29.62-.8 2.89h-5.58v3.5a6.88 6.88 0 0 1-.83 1.16l-2.69-1.56a18.12 18.12 0 0 1-5.7 2v3.69a24.52 24.52 0 0 1-7.46.28V341a19.39 19.39 0 0 1-7.45-2.31l-2.69 1.56a6.56 6.56 0 0 1-1.3-2.16v-2.59h-5.51v-.5l-.4-2.38-2.66 29.62v.74c0 3.38 2.23 6.77 6.71 9.35 8.94 5.17 23.45 5.17 32.39 0 4.76-2.78 6.98-6.47 6.63-10.1Z" style="fill:#fff;opacity:.12"/><path d="M203.79 324.84v3.29a25.25 25.25 0 0 0-7.47.27v-3.35a33.91 33.91 0 0 1 7.47-.21ZM190.63 330.44a9.41 9.41 0 0 0-3.52 3.29l-.66-.13-4.68-.9a11.3 11.3 0 0 1 2.8-3.15 16.77 16.77 0 0 1 2.08-1.41ZM220.74 334.1l-5.49.64c0-.07 0-.15-.08-.21a8.62 8.62 0 0 0-3.91-4.09l4-2.3a15.13 15.13 0 0 1 3.32 2.52 9.49 9.49 0 0 1 2.2 3.41ZM220.1 340.07a12.84 12.84 0 0 1-4.88 4.56l-3.57-2.06-.38-.22a10.72 10.72 0 0 0 2.69-2.13 6.88 6.88 0 0 0 .83-1.16ZM207.32 347.45a34.82 34.82 0 0 1-10.35.37l1.11-3.18a24.52 24.52 0 0 0 7.46-.28ZM190.63 342.33l-.43.25-3.55 2.05c-2.94-1.69-4.78-3.77-5.52-6l5.51-.63a6.56 6.56 0 0 0 1.3 2.16 10.14 10.14 0 0 0 2.16 1.84Z" style="fill:#f0997a"/><g style="opacity:.2"><path d="M203.79 324.84v3.29a25.25 25.25 0 0 0-7.47.27v-3.35a33.91 33.91 0 0 1 7.47-.21ZM190.63 330.44a9.41 9.41 0 0 0-3.52 3.29l-.66-.13-4.68-.9a11.3 11.3 0 0 1 2.8-3.15 16.77 16.77 0 0 1 2.08-1.41ZM220.74 334.1l-5.49.64c0-.07 0-.15-.08-.21a8.62 8.62 0 0 0-3.91-4.09l4-2.3a15.13 15.13 0 0 1 3.32 2.52 9.49 9.49 0 0 1 2.2 3.41ZM220.1 340.07a12.84 12.84 0 0 1-4.88 4.56l-3.57-2.06-.38-.22a10.72 10.72 0 0 0 2.69-2.13 6.88 6.88 0 0 0 .83-1.16ZM207.32 347.45a34.82 34.82 0 0 1-10.35.37l1.11-3.18a24.52 24.52 0 0 0 7.46-.28ZM190.63 342.33l-.43.25-3.55 2.05c-2.94-1.69-4.78-3.77-5.52-6l5.51-.63a6.56 6.56 0 0 0 1.3 2.16 10.14 10.14 0 0 0 2.16 1.84Z" style="fill:#fff"/></g><path d="M190.63 342.34c5.69 3.28 14.92 3.28 20.61 0s5.69-8.62 0-11.9-14.92-3.29-20.61 0-5.69 8.61 0 11.9Z" style="fill:#ffbda7"/><path style="fill:#f0997a" d="M196.97 347.82v-3.68l-10.32-3.19v3.68l10.32 3.19zM207.32 347.44v-3.68l7.9-2.81v3.68l-7.9 2.81z"/><path style="fill:#fff;opacity:.12" d="M196.97 347.82v-3.68l-10.32-3.19v3.68l10.32 3.19zM207.32 347.44v-3.68l7.9-2.81v3.68l-7.9 2.81z"/><path style="fill:#f0997a" d="M207.32 343.76v3.68l-1.78-3.08v-3.68l1.78 3.08zM220.1 336.38v3.69l-5.34-1.03v-3.69l.75.15 4.59.88zM215.22 324.45v3.69l-3.98 2.3v-3.69l3.98-2.3zM190.63 326.75v3.69l-3.98-2.3v-3.69l3.98 2.3zM186.64 334.35v3.69l-5.51.63v-3.69l5.51-.63zM198.07 340.95v3.69l-1.1 3.18v-3.69l1.1-3.18z"/><g style="opacity:.08"><path d="M207.32 343.76v3.68l-1.78-3.08v-3.68l1.78 3.08zM220.1 336.38v3.69l-5.34-1.03v-3.69l.75.15 4.59.88zM215.22 324.45v3.69l-3.98 2.3v-3.69l3.98-2.3zM190.63 326.75v3.69l-3.98-2.3v-3.69l3.98 2.3zM186.64 334.35v3.69l-5.51.63v-3.69l5.51-.63zM198.07 340.95v3.69l-1.1 3.18v-3.69l1.1-3.18z"/></g><path d="M211.24 330.44v-3.69a19.5 19.5 0 0 0-7.45-2.31v3.69a25.25 25.25 0 0 0-7.47.27v-3.69a18.23 18.23 0 0 0-5.69 2v3.69a9.41 9.41 0 0 0-3.52 3.29V330a5.18 5.18 0 0 0-.47 4.31V338a6.56 6.56 0 0 0 1.3 2.16l2.69-1.56a19.39 19.39 0 0 0 7.45 2.31v3.69a24.52 24.52 0 0 0 7.46-.28v-3.69a18.12 18.12 0 0 0 5.7-2l2.69 1.56a6.88 6.88 0 0 0 .83-1.16v-3.69a6.09 6.09 0 0 0 .39-.82 8.62 8.62 0 0 0-3.91-4.08Z" style="fill:#f0997a"/><path d="M211.24 330.44v-3.69a19.5 19.5 0 0 0-7.45-2.31v3.69a25.25 25.25 0 0 0-7.47.27v-3.69a18.23 18.23 0 0 0-5.69 2v3.69a9.41 9.41 0 0 0-3.52 3.29V330a5.18 5.18 0 0 0-.47 4.31V338a6.56 6.56 0 0 0 1.3 2.16l2.69-1.56a19.39 19.39 0 0 0 7.45 2.31v3.69a24.52 24.52 0 0 0 7.46-.28v-3.69a18.12 18.12 0 0 0 5.7-2l2.69 1.56a6.88 6.88 0 0 0 .83-1.16v-3.69a6.09 6.09 0 0 0 .39-.82 8.62 8.62 0 0 0-3.91-4.08Z" style="opacity:.03"/><path d="m215.22 324.45-4 2.3a19.5 19.5 0 0 0-7.45-2.31l1.11-3.18a27 27 0 0 1 10.34 3.19ZM196.32 324.71a18.23 18.23 0 0 0-5.69 2l-4-2.3a25.63 25.63 0 0 1 7.9-2.81ZM221.13 332.61a6.83 6.83 0 0 1-.59 2.89 8 8 0 0 1-.44.88l-4.59-.88-.75-.15a6.09 6.09 0 0 0 .39-.82 4.91 4.91 0 0 0 .08-3.48l3.31-.39 2.2-.25a6.46 6.46 0 0 1 .39 2.2ZM215.22 340.94a21.13 21.13 0 0 1-3.57 1.63 28.41 28.41 0 0 1-4.33 1.19l-1.78-3.09a18.12 18.12 0 0 0 5.7-2l2.69 1.56ZM186.45 333.6a5.15 5.15 0 0 0 .19.75l-5.51.63a6.91 6.91 0 0 1-.39-2.36 7.36 7.36 0 0 1 1-3.61l2.8.54 2.54.49a5.05 5.05 0 0 0-.63 3.56ZM198.08 341l-1.08 3.13a30.24 30.24 0 0 1-6.77-1.55 22.15 22.15 0 0 1-3.55-1.64l1.29-.74 2.69-1.56a19.39 19.39 0 0 0 7.42 2.36Z" style="fill:#f0997a"/><g style="opacity:.2"><path d="m215.22 324.45-4 2.3a19.5 19.5 0 0 0-7.45-2.31l1.11-3.18a27 27 0 0 1 10.34 3.19ZM196.32 324.71a18.23 18.23 0 0 0-5.69 2l-4-2.3a25.63 25.63 0 0 1 7.9-2.81ZM221.13 332.61a6.83 6.83 0 0 1-.59 2.89 8 8 0 0 1-.44.88l-4.59-.88-.75-.15a6.09 6.09 0 0 0 .39-.82 4.91 4.91 0 0 0 .08-3.48l3.31-.39 2.2-.25a6.46 6.46 0 0 1 .39 2.2ZM215.22 340.94a21.13 21.13 0 0 1-3.57 1.63 28.41 28.41 0 0 1-4.33 1.19l-1.78-3.09a18.12 18.12 0 0 0 5.7-2l2.69 1.56ZM186.45 333.6a5.15 5.15 0 0 0 .19.75l-5.51.63a6.91 6.91 0 0 1-.39-2.36 7.36 7.36 0 0 1 1-3.61l2.8.54 2.54.49a5.05 5.05 0 0 0-.63 3.56ZM198.08 341l-1.08 3.13a30.24 30.24 0 0 1-6.77-1.55 22.15 22.15 0 0 1-3.55-1.64l1.29-.74 2.69-1.56a19.39 19.39 0 0 0 7.42 2.36Z" style="fill:#fff"/></g><path d="M183.27 365.41c-3.53-4.12-3.94-17.22-3.43-22.84l-1.77 19.66v.74c0 3.38 2.23 6.77 6.71 9.35 8.94 5.17 23.45 5.17 32.39 0-12.77 3.95-26.54 1.68-33.9-6.91Z" style="fill:#f0997a;opacity:.5"/><path d="M214.76 339v-.21c-1.6-3.57-7.26-6.21-14-6.21-6.59 0-12.14 2.52-13.89 5.95a7 7 0 0 0 1.08 1.63l2.69-1.56a19.39 19.39 0 0 0 7.45 2.31v3.69a24.52 24.52 0 0 0 7.46-.28v-3.69a18.12 18.12 0 0 0 5.7-2l2.69 1.56a6.88 6.88 0 0 0 .82-1.19Z" style="fill:#fff;opacity:.07"/><path d="M239 310.24a.51.51 0 0 1-.5-.5v-37.53a.51.51 0 0 1 .5-.5.5.5 0 0 1 .5.5v37.53a.5.5 0 0 1-.5.5Z" style="fill:#b16668"/><path style="fill:#8c00ff" d="m239.44 273.45 11.71 10.49-11.71-2.73v-7.76z"/><path d="m351.67 74.88 6 3.46a7 7 0 0 1-.05-.79v-1.74c0-3.09 2.17-4.35 4.85-2.8a9.4 9.4 0 0 1 2.89 2.78c.44-3.89 3.49-5.34 7.2-3.2a16 16 0 0 1 7.26 12.57v2.61a6.92 6.92 0 0 1-.61 3l5 2.88a5.93 5.93 0 0 1 2.69 4.66c0 1.71-1.2 2.41-2.69 1.55l-32.54-18.77a5.92 5.92 0 0 1-2.67-4.66c0-1.71 1.18-2.43 2.67-1.55ZM391.34 58.94l3.31 1.27v-7.29c0-5.79 4.61-7.17 9.62-4.28 5 2.89 9.07 9.92 9.07 15.7v1.06a4.87 4.87 0 0 1 4.21.65 14.42 14.42 0 0 1 6.52 11.3v.48l4.62 2.67a9.49 9.49 0 0 1 4.31 7.44c0 2.74-1.92 3.85-4.29 2.48l-37.37-21.56a9.49 9.49 0 0 1-4.29-7.44c0-2.74 1.95-3.85 4.29-2.48Z" style="fill:#ebebeb"/><path d="M362 133.05a6.66 6.66 0 0 1 3.21.55c2 .88 3.1 2.57 4.49 4.11 1.26 1.39 2.53 2.81 3.9 4.11 2.86 2.7 6 5.15 8.31 8.4a19.22 19.22 0 0 1 2.93 15.39c-2.65 11.56-8.54 18.75-14.83 18.75l-8.74 1.13c-3.62.47-7.65-2-10.2-4.27a26.85 26.85 0 0 1-3.9-4.48 24.74 24.74 0 0 1-2.35-5.33c-.94-2.39-.31-5-.43-7.49a8.22 8.22 0 0 0-.7-3.26 22.12 22.12 0 0 0-2.24-3 13 13 0 0 1-2.87-7.91 7.56 7.56 0 0 1 4.35-6.83 7.71 7.71 0 0 1 13-5.62 7.55 7.55 0 0 1 3.91-3.78 7 7 0 0 1 2.16-.47Z" style="fill:#263238"/><path d="M316.72 312.05c-.45 11.17 17.86 13.36 33.94 5.69 12.13-5.78 20.46-9.94 31.48-18.19 13.68-10.23 14.89-25.73 5.13-44.14L340.73 253c-8.09 9.36-37.24 21.83-47 44-4.69 11.73 11.45 17.91 23 15Z" style="fill:#b16668"/><path d="M316.72 312.05c1.23-10.54 9.23-15.73 16.11-20.83s21.33-14 21.33-14-8-11.61-14.55-18.39c0 0-.34 11.08 5.4 20.41 0 0-20 11.45-26 21.15a16.28 16.28 0 0 0-2.29 11.66Z" style="fill:#9a4a4d"/><path d="M390.15 206.44c-.41-3.42-.54-9.63-8.8-12.62 0 0-5-.7-10.14-1.06h-16.6c-2.57.52-9.12 6.45-16.31 16.28a13.13 13.13 0 0 0 2.36 18.11l2.13 13.21-.27 5.31-3.39 9.06c5.75 7.79 29 11.35 48.14.68-4.15-8.15-7.1-14.73-7.1-14.73l7.62-22.05c1.59-4.63 2.93-7.36 2.36-12.19Z" style="fill:#b16668"/><path style="fill:#9a4a4d" d="m387.7 218.89-7.72-4.42 6.58 7.72 1.14-3.3z"/><path d="M436.05 200.52c-1.67 4-6.43 15.9-11.72 25.57-1.08 2-4.13 7.48-6 8.25-2.41 1-4.82-.69-6.28-1.42-5-2.5-32.93-19.14-32.93-19.14-8.75-9.13-6.07-20.9-5.07-20.83 4.66.37 10.39.27 14.86 3.67 5.42 4.14 25.39 18.38 25.39 18.38 3.26-5.16 4.56-7.45 7.61-12.74 2.41-4.19 3.81-6.48 3.6-9.24a15.4 15.4 0 0 0-.51-3.13 36.4 36.4 0 0 1-.77-9.71 1.21 1.21 0 0 1 0-.43 1 1 0 0 1 .4-.46 1.72 1.72 0 0 1 2 .49 4.56 4.56 0 0 1 .89 2.05 6 6 0 0 0 .79 2.11 1 1 0 0 0 .33.31.83.83 0 0 0 .47.06c.9-.1 1.23-1.16 1.46-1.91a31.1 31.1 0 0 0 1.12-5.39c.15-1.26.54-2.5.78-3.75a3.69 3.69 0 0 1 .83-2c.86-.85 2.29-.65 3.44-.26a10.08 10.08 0 0 1 1.84.81 9.35 9.35 0 0 1 3.63 4.92 15 15 0 0 1 .56 7.2 26.92 26.92 0 0 1-3.21 9.59c-1.13 2.27-2.49 4.55-3.51 7ZM354.61 192.76c-7.13-1.06-12.91-.29-17.28 11.18s-8.56 26.28-8.56 26.28l-32.83-.48a11.81 11.81 0 0 0-4.05-3.59c-2.49-1.07-5.52-.93-8.48-1.61-4.39-1-5.53-1.33-5 1s4.07 3.73 4.07 3.73l2.3 9.86s39.15 6 43.91 6.38c5.28.46 8.22.82 11.36-4.56s12.42-29.46 12.42-29.46Z" style="fill:#b16668"/><path d="M346.71 149.9c-1.21.63-4.48 6.86-4.17 20.49.27 11.56 4 14.41 5.9 15.23s5.5.32 9-.26v6.93s-4.87 5.66-4.57 8.84 7 3.93 11.6.82a29.39 29.39 0 0 0 7.48-7.83v-16.76s1.92 2.11 5.82-.47 4.49-7.92 2.23-10.22-7.14-1.57-8 1.61c0 0-1.51-3.21-10.05-6.39-8.31-3.08-12.18-5.76-15.24-11.99Z" style="fill:#b16668"/><path d="m344.06 163.73 3.23-1.54a1.72 1.72 0 0 0-2.33-.88 1.88 1.88 0 0 0-.9 2.42ZM357.27 163l3.35 1.27a1.72 1.72 0 0 0-1-2.3 1.89 1.89 0 0 0-2.35 1.03ZM372.11 165.09l-.2 7.07a3.44 3.44 0 0 1-3.51-3.52 3.73 3.73 0 0 1 3.71-3.55ZM356.49 167.72a1.45 1.45 0 1 0 1.53-1.44 1.49 1.49 0 0 0-1.53 1.44Z" style="fill:#263238"/><path d="m357.77 176.92-4.43 1.41a2.29 2.29 0 0 0 2.88 1.58 2.43 2.43 0 0 0 1.55-2.99Z" style="fill:#9a4a4d"/><path d="M344.93 167.22a1.46 1.46 0 0 0 1.37 1.57 1.51 1.51 0 1 0-1.37-1.57Z" style="fill:#263238"/><path style="fill:#9a4a4d" d="m351.29 167.33 1.02 8.12-4.46-.66 3.44-7.46zM357.47 185.36c3.71-.49 11.36-2.69 12.55-5.71a7.86 7.86 0 0 1-2.68 3.86c-2.29 2-9.87 4.16-9.87 4.16Z"/><path d="M354.16 277.27s4.28-11.75 16.1-17.63 18.14-2 18.14-2l-8.23-17 3.62-10.47s-19.71-12-24.15-30.2l-2.91-.51s-13.63 4.7-18.43 9.54-4.13 13.4 2.36 18.11l2.13 13.21-.27 5.31-3.39 9.06s.7 15.91 10.16 25.57Z" style="fill:#8c00ff"/><path d="M354.16 277.27s4.28-11.75 16.1-17.63 18.14-2 18.14-2l-8.23-17 3.62-10.47s-19.71-12-24.15-30.2l-2.91-.51s-13.63 4.7-18.43 9.54-4.13 13.4 2.36 18.11l2.13 13.21-.27 5.31-3.39 9.06s.7 15.91 10.16 25.57Z" style="opacity:.15"/><path d="M347.76 224.77c.83 2.55 4 4.85 7.84 5.39 4.92.7 10.12-1.12 12.21-6.47 0 0-1.08 10.1-12.21 8.53-7.82-1.1-7.84-7.45-7.84-7.45Z" style="opacity:.15"/><path d="M357.94 200.14a23.22 23.22 0 0 0 14-7.33v-4.45Z" style="fill:#8c00ff"/><path d="M357.94 200.14a23.22 23.22 0 0 0 14-7.33v-4.45Z" style="opacity:.15"/><path d="m358.19 199.5-.72-10.87-1.58 4.13a10.28 10.28 0 0 0 1.58 6.87Z" style="fill:#8c00ff"/><path d="m358.19 199.5-.72-10.87-1.58 4.13a10.28 10.28 0 0 0 1.58 6.87Z" style="opacity:.15"/><path d="M357.78 198a1.92 1.92 0 0 1 2.46 1.67 2.67 2.67 0 0 1-2.13 2.65 1.92 1.92 0 0 1-2.46-1.66 2.66 2.66 0 0 1 2.13-2.66ZM310.79 241.63H267l2 31.12c0 2.89 1.84 5.79 5.63 8 7.59 4.49 20 4.62 27.64.3 3.87-2.18 5.81-5.08 5.8-8Z" style="fill:#37474f"/><path d="M273.5 231.94c-8.6 4.85-8.69 12.86-.19 17.89s22.36 5.18 31 .33 8.69-12.85.19-17.88-22.39-5.18-31-.34Z" style="fill:#455a64"/><path d="M308.9 241.26a5.53 5.53 0 0 1-.31 1.72c-.67 2-2.46 4-5.25 5.52a32.36 32.36 0 0 1-29.06-.31c-2.69-1.59-4.46-3.52-5.08-5.52a5.56 5.56 0 0 1-.31-1.84c.05-2.67 2-5.24 5.55-7.22a32.39 32.39 0 0 1 29.07.31c3.49 2.08 5.41 4.67 5.39 7.34Z" style="fill:#263238"/><path d="M289 244.73a29.56 29.56 0 0 0-14.56 3.27l-.21.13a32.36 32.36 0 0 0 29.06.31l.21-.12a29.78 29.78 0 0 0-14.5-3.59Z" style="fill:#ffbda7"/><path d="M297.21 253.32c.86-.48 1.55-.07 1.54.91a3.43 3.43 0 0 1-1.58 2.65c-.85.49-1.54.08-1.53-.9a3.42 3.42 0 0 1 1.57-2.66Z" style="fill:#263238"/><path d="M267.54 250.32c-1.89 4.84-3.35 11.42.87 14.54.23.17.45.32.68.47v2c-.55-.34-1.13-.72-1.68-1.13-6.28-4.65-2.44-14.83 0-19.78Z" style="fill:#e0e0e0"/><path d="M297.94 255.5c-.23.49-6.27 12-16.2 14.36a14.79 14.79 0 0 1-3.42.4 17.28 17.28 0 0 1-9.25-2.89v-2c4.1 2.85 8.23 3.82 12.27 2.89 9.16-2.15 15-13.4 15.07-13.5a.84.84 0 0 1 1.15-.36.83.83 0 0 1 .38 1.1Z" style="fill:#e0e0e0"/><path d="M100.08 312.28A87.41 87.41 0 0 0 88.77 307c-4.11-1.46-3-2.94-.43-3.74a31.65 31.65 0 0 1 10-.66c9.61.87 13.16 2.65 13.16 2.65s6.66-5.38 14.94-6.17c3.19-.3 7.37-.35 6.72 1.29-.84 2.08-5.47 3.82-9.35 9.08 1.79.87 9 2.9 15.67 6.73 7 4 3.75 5.71-1.47 5.61-4.79-.1-15 .16-15 .16s1.21 4.4 2.46 11.58c1 5.67-4.72 1.74-7.71-1.59-4.28-4.75-8.59-10-8.59-10s-7.74 1.33-16.06 3.57c-6 1.61-10.66 3.45-6.89-2.66s13.86-10.57 13.86-10.57Z" style="fill:#f28f8f"/><path d="M118.05 329.32c-2.22-2.55-7.85-10.68-7.85-10.68s-15.93 4.44-19.91 5.61-5.15.71-4.71-.26c-2.5 4.76 2 3.06 7.53 1.56 8.32-2.24 16.06-3.57 16.06-3.57s4.31 5.24 8.59 10c2.22 2.48 5.94 5.27 7.3 4.22-2.35-.14-4.78-4.33-7.01-6.88ZM143.44 320.37c-1.33.84-3.23.52-8.19-.06s-13-1.67-13-1.67L123 322s10.24-.26 15-.16c2.82.03 5-.43 5.44-1.47ZM87.3 303.69c-1.67.78-2 2.1 1.47 3.34a87.41 87.41 0 0 1 11.31 5.25l3.28-1.65s-4.62-2-9.25-3.45c-4.23-1.33-8.22-2.27-6.81-3.49ZM123.84 309.48c3.88-5.26 8.51-7 9.35-9.08a.7.7 0 0 0-.29-.91s.67.86-3.07 2.46a28.73 28.73 0 0 0-7.59 5.69c-.92 1.15 1.6 1.84 1.6 1.84Z" style="fill:#b16668"/><path d="M119.51 392.23s-17.19 3.83-22.25 1.17-3.68-7.7-1.13-11.18c0 0-2.63-2.64 1.05-8a8.83 8.83 0 0 1 9.49-3.6s2.07-4.18 9.56-3.26c6.25.77 8.16 13.37 6.9 20.95 0 0 5.63-1.45 7.5 0s-6.48 3.84-6.48 3.84-2.8 5.49-4.05 6.27-.59-6.19-.59-6.19Z" style="fill:#8c00ff"/><path d="M119.51 392.23s-17.19 3.83-22.25 1.17-3.68-7.7-1.13-11.18c0 0-2.63-2.64 1.05-8a8.83 8.83 0 0 1 9.49-3.6s2.07-4.18 9.56-3.26c6.25.77 8.16 13.37 6.9 20.95 0 0 5.63-1.45 7.5 0s-6.48 3.84-6.48 3.84-2.8 5.49-4.05 6.27-.59-6.19-.59-6.19Z" style="fill:#fafafa;opacity:.8"/><path d="M103.35 392.53c-6.55-.67-8.93-3.3-9.4-5.43a5.68 5.68 0 0 0 3.31 6.3c5.06 2.66 22.25-1.17 22.25-1.17a39.74 39.74 0 0 0-.16 4.16 20.41 20.41 0 0 1 1.19-5.14s-9.69 2.04-17.19 1.28ZM96.13 382.22s6.71-1.27 16.24 4a28.2 28.2 0 0 0-10.92-5.48c-6.79-1.76-4.27-6.51-4.27-6.51-3.68 5.35-1.05 7.99-1.05 7.99ZM119.29 383.28c-3.82-9.36-9-12.1-8.13-13.69 1.21-2.33 5.07-2.2 5.07-2.2-7.49-.92-9.56 3.26-9.56 3.26 8.33 3.48 12.62 12.63 12.62 12.63Z" style="opacity:.1"/></svg>