<svg xmlns="http://www.w3.org/2000/svg" viewBox="0 0 500 500"><g id="freepik--Floor--inject-338"><ellipse id="freepik--floor--inject-338" cx="252" cy="342.34" rx="228.86" ry="132.14" style="fill:#f5f5f5"></ellipse></g><g id="freepik--Character--inject-338"><g id="freepik--character--inject-338"><path d="M325,452.88c-7.68,4.63-17.68-.56-22.29-7.22s-6.56-12.22-6.49-22.08c.09-11.37,4.78-16.56,5.13-22.08.63-9.83.68-17.21,8.19-18.27S325,452.88,325,452.88Z" style="fill:#263238"></path><path d="M292.21,282c26-4.71,80-11.72,94.47-7.53s21.07,13.78,19.19,26.15-8,23.82-22.8,41.79-42.3,51.44-46.62,60.21-5.29,24.46-3.95,36.13-2.87,14.13-9.61,14.27-21.07-9.17-22.82-25.21,4-15.34,5.32-27.39-1.11-12.95,4.19-17.19S321,380.86,326.7,370.9s11.95-32,11.95-32l-55,7.32s-17.38-7.43-13.15-22.85S292.21,282,292.21,282Z" style="fill:#ffbda7"></path><path d="M299.84,425.26c4.92-3.87,30.66,3.38,32.51,12.11l-.27-14.17s-9.89-15.68-30.45-10.66C296.69,419.73,299.84,425.26,299.84,425.26Z" style="fill:#263238"></path><path d="M291.62,294.74c3.74,8.67,1.2,23.86-2.65,30.92,0,0,15.72,7.47,25.94,9.7s15.29-.18,20.5-8.31,9.39-20.19,27-25.09c-15,8.06-20,25-23.76,37l-55,7.32s-14.22-1.48-9.3-22.14S291.62,294.74,291.62,294.74Z" style="fill:#f0997a"></path><path d="M317,395.63c-4.48-.47-8.15-.88-11.15-1.23.21-6.51-.47-7.78,3.77-11.17,5.31-4.24,11.43-2.37,17.12-12.33,3.85-6.74,7.95-19,10.21-26.21,1.92.25,10.63,1.74,16.22,8.6,2.88,3.53,6.29,9.34,9.15,14.61-11.81,14.68-23.18,29.34-25.83,34.72-2.08,4.23-3.37,10.08-4,16.31C329.05,416.57,319.49,405.62,317,395.63Z" style="fill:#f0997a"></path><path d="M456,465c2.12,3.08,2,8.88-5.09,13.8s-20.43,8.68-30.34,7.07S406.19,479.77,400,476c-5.77-3.53-7.82-2.58-12-4.28s-4-8.49-4-8.49Z" style="fill:#263238"></path><path d="M189.48,315.37c0,11.63,6,51.59,49.71,62.17a773.51,773.51,0,0,0,79.32,14.81s5.63,11.51,21.14,24.44S371.08,441,376.29,447c6.79,7.69,4.23,12.21,7.39,16.81,1.67,2.42,2.95,3.92,6.24,5,3,1,8.26,1.38,13.89,5,12.81,8.28,23.68,9.4,35.69,5.74,5.33-1.62,16.93-9,16.6-13.61-.57-7.74-5.59-6.49-13.79-8.16a119,119,0,0,1-27.13-9.47c-8.73-4.33-18-17.18-26.19-29.85s-22.66-36.76-30.78-49.05-11.16-15.21-25.14-20.71c-16.95-6.66-54.27-21-54.27-21s6.6-19.85,13.41-45.65C243.42,276.49,191.61,270.83,189.48,315.37Z" style="fill:#ffbda7"></path><path d="M424.09,483.19c-1.06-6.2,5.45-25.42,20.51-25,0,0-6.73-3.13-12.19-3-12.54,2-18.9,14.33-19.25,24.5C415.29,482,424.09,483.19,424.09,483.19Z" style="fill:#263238"></path><path d="M292.21,282l25.66-4.4s-11.34,7.36-10.29,27.88a87.22,87.22,0,0,0,10.29,36.2l-1.73.4L299,335.45s-7.3,2.23-17.34,14.88-10,35.12-10,35.12-34.5-5.86-48.81-12.87-37.2-18.67-34.26-65.21Z" style="fill:#455a64"></path><path d="M314.91,335.36c-7-1.85-25.94-9.7-25.94-9.7s7-10.8,4.36-29.21c-1.12,14.15-6.2,26.39-14.53,31.2l37.34,14.43,1.73-.4Z" style="fill:#37474f"></path><g id="freepik--Top--inject-338"><path d="M222.1,202.13l-.55.22c-6.19,2.34-13,2.09-19.36.68-.82-.18-1.65-.36-2.44-.6-.53-.17-1-.49-1.48-.68-1.22-.43-2.51-.6-3.73-1.09a19.7,19.7,0,0,1-6.37-4.17,19.5,19.5,0,0,1-6.07-13.58c0-1.52.35-3.32,1.75-3.91a9.66,9.66,0,0,0-7,1.69,9.72,9.72,0,0,1,1.44-5.62,5.54,5.54,0,0,1,5-2.54c-1.66-4.42-2.1-9.59.17-13.73s7.77-6.64,12-4.49c-.09-3.41-.14-7,1.36-10.05,2.48-5.09,8.79-7.45,14.4-6.69s10.55,4,14.79,7.78c3.56,3.14,7.18,6.85,9.21,11.2A53.14,53.14,0,0,1,238.7,166l.09.4a32.51,32.51,0,0,1-.37,16,33.36,33.36,0,0,1-7.83,14.08A23.77,23.77,0,0,1,222.1,202.13Z" style="fill:#37474f"></path><path d="M289.9,268.21c.33-.59-2.07-13.43-2.74-17.61-1.1-7-2-10.71-2-10.71l-19-47.71-3.43-16.84s10.56-.7,16,1.6c7,3,9.37,7.28,14.87,18.53,4.71,9.63,16.81,41,18,46.3s.83,8.49-.77,16.66c-1.23,6.31-2.43,12.52-4.21,19.41Z" style="fill:#ffbda7"></path><path d="M286.43,246.19c3.42-5.38,13.91-7.07,21.12-4.49-9.25-7.38-20.15-1.71-22.1-.63C285.67,242.11,286,243.83,286.43,246.19Z" style="fill:#f0997a"></path><g id="freepik--Chest--inject-338"><path d="M189.77,224.86c0-18.74,6.93-31.57,10.69-42.06L221,178.51s16.35-2.22,26.19-2.69,15.61-.48,15.61-.48c6.65,7.06,27,25.38,32.23,39.24,3.53,9.27,2.62,21.85-7.09,30.41-.34,9.69-.16,18-.16,18s5.23,10.3,5.81,18.54c-1.62,11-40.26,48-106.52,30.17,0-10.24,0-22.31,5-44.62C193.38,261.38,189.77,243.59,189.77,224.86Z" style="fill:#37474f"></path><path d="M262.81,248.82s-8.23,10-24.41,8c-16.69-2-19.82-15.88-19.82-15.88s-.87,18.13,19.07,20.54C256,263.73,262.81,248.82,262.81,248.82Z" style="fill:#263238"></path></g><path d="M218.52,98.84c-9.48,2.47-14.61,13.56-12.34,28.39S221.54,159,221.54,159l58.64-28a24,24,0,0,0,5.88-21.83c-2.88-13.59-13.38-23.27-29.24-25.54S223.25,83.81,218.52,98.84Z" style="fill:#37474f"></path><path d="M272.63,103.87c5.08,3.07,9.12,17.24,6.95,41.2-1.25,13.84-4.86,20.2-11.08,23.47-3,1.57-8.54,3-16.26,1.72l-.19,9.2s24.05,25.1,3,26.6c-22,1.56-34.11-25-34.11-25l.9-33.72c-1.23,2-8.17,4.87-12.9-1.19-5.56-7.12-4.31-15.61.65-18.73,5.13-3.23,11-.15,13.26,5.65,5.33,2.23,12.42-3.3,12.1-23.94,6.55-5.45,15.17,2,23.26,1C264.32,109.39,266.34,100.5,272.63,103.87Z" style="fill:#ffbda7"></path><polygon points="258.34 128.29 259.27 144.89 269.25 141.04 258.34 128.29" style="fill:#f0997a"></polygon><path d="M250.29,135.49a5.83,5.83,0,0,1-1.47.75,6.14,6.14,0,0,1-1.8.37,7.41,7.41,0,0,1-1.75-.21,5.36,5.36,0,0,1-1-.26,3.12,3.12,0,0,1-.76-.5c-.13-.1-.14.18-.1.25a4.37,4.37,0,0,0,3.54,1.54,4.3,4.3,0,0,0,2.12-.4,3,3,0,0,0,1.21-1.47S250.33,135.46,250.29,135.49Z" style="fill:#f0997a"></path><path d="M274.56,134.46a1.47,1.47,0,0,1-.4.19c-.14.07-.26.16-.39.23a5.7,5.7,0,0,1-.68.39,4.75,4.75,0,0,1-1.62.39,6.37,6.37,0,0,1-2-.11,15,15,0,0,1-1.63-.58c-.09,0-.09.13-.05.18a4.64,4.64,0,0,0,4,1.28,5.17,5.17,0,0,0,1.81-.48,2.15,2.15,0,0,0,.69-.5,2.37,2.37,0,0,0,.33-.86S274.63,134.39,274.56,134.46Z" style="fill:#f0997a"></path><path d="M252.27,118.8A2.23,2.23,0,0,0,251,118a2.61,2.61,0,0,0-.79-.06,2.32,2.32,0,0,0-.38.07c-.13,0-.2.06-.24.21a.24.24,0,0,0,.1.25.5.5,0,0,0,.27.07l.41,0a3.46,3.46,0,0,1,.64.13,1.67,1.67,0,0,1,.23.12l.11.07c-.06,0,0,0,0,0l.09.08h0l0,0a.56.56,0,0,1,.11.2c0-.05,0,0,0,0a.43.43,0,0,1,0,.11s0,.08,0,.09a.71.71,0,0,1,0,.14v0s0,0,0,0a.5.5,0,0,1,0,.12l-.06.29c-.06.2-.09.29-.16.49a.9.9,0,0,0,0,.16.66.66,0,0,0,0,.15c0,.12-.05.22-.06.35s.15.4.33.32a1.52,1.52,0,0,0,.34-.22,2,2,0,0,0,.27-.23l.14-.19a1.43,1.43,0,0,0,.14-.34,1.85,1.85,0,0,0-.29-1.81Z" style="fill:#f0997a"></path><path d="M257.82,154.75c-1.63,1-2.41-.92-5.18-2.08s-4.79,0-4.9-2c-.09-1.66,2.5-4.56,7.17-3C258.89,149.08,259.27,153.82,257.82,154.75Z" style="fill:#b16668"></path><path d="M250,147.72a3.53,3.53,0,0,0-2.27,2.95c.11,2,2.2.87,4.9,2a13.44,13.44,0,0,1,2.81,1.72A7.92,7.92,0,0,0,250,147.72Z" style="fill:#f0997a"></path><path d="M211.92,143.46a2.82,2.82,0,1,0,3.19-2.37A2.81,2.81,0,0,0,211.92,143.46Z" style="fill:#8C00FF"></path><path d="M252.24,170.26c-16.51-3.58-25.77-10.29-27.45-17,0,0,1,8.74,5.67,12.61,6.49,5.41,21.68,8.93,21.68,8.93Z" style="fill:#f0997a"></path><path d="M251.34,130.37c-.48-1.67-1.7,1.34-3.78,1.94s-4.25-1.43-3.77.24,2.56,2.53,4.64,1.93S251.82,132,251.34,130.37Z" style="fill:#263238"></path><path d="M274.15,131.48c.26-1.72-1.92.53-3.87.23s-2.92-3-3.18-1.3a3.59,3.59,0,0,0,7,1.07Z" style="fill:#263238"></path><path d="M267.28,118.15l6,4.79a3.69,3.69,0,0,1-5.3.7A4,4,0,0,1,267.28,118.15Z" style="fill:#263238"></path><path d="M247.71,119.85l-7,3.45a3.74,3.74,0,0,0,5.11,1.83A4.06,4.06,0,0,0,247.71,119.85Z" style="fill:#263238"></path><path d="M236.05,279.29c7.38,2.43,13.09,3.61,16.29,1a46.3,46.3,0,0,1,8.16-5.08,25,25,0,0,1,7.93-2.49c3.47-.66,5.67-1.09,6.37-.93s3.65,1.7,7.65,3.08c1.92.66,2.2,4.79-1.81,5.9a20.38,20.38,0,0,1-7.87.48s2.14,3.66,4.32,3.82,7.24-1.09,12.34-2.67,7.57-2.14,9.15.35c.44.62-4.46,5.06-4.46,5.06a14.63,14.63,0,0,1-.5,7.47c-1.33,4.34-10.14,12.07-16.06,14.86a33.15,33.15,0,0,1-14.1,3.31c-4.09.21-10.89-2.49-16.11-4.4a121.89,121.89,0,0,0-16.76-4.24Z" style="fill:#ffbda7"></path><path d="M294.25,290.4a6.31,6.31,0,0,0-2.93-3.94l-7.6-.26c-2.13,2.74-5.37,4.38-8.6,5.64s-6.61,2.25-9.56,4.09a5.06,5.06,0,0,0-2.77,5.05,3,3,0,0,0,.31,1.61,3.11,3.11,0,0,0,2.59,1.1,26.83,26.83,0,0,0,7.32-.5c-2,2.89-6.52,3.49-7.95,6.7a6.81,6.81,0,0,0-.36,3.53,32.09,32.09,0,0,0,12.86-3.24c5.92-2.79,14.73-10.52,16.06-14.86a17,17,0,0,0,.75-4.42C294.33,290.73,294.3,290.57,294.25,290.4Z" style="fill:#f0997a"></path><path d="M307.55,265.63,287.76,253.9s0,8.54-.59,11.2-1.92,4.21-3.58,4.78h0a9.6,9.6,0,0,0-3.11,1.84A66,66,0,0,1,273.9,277c-2.13,1.51-4,3.12-1.93,5s3.63,1.64,5.44,1.27a23.9,23.9,0,0,0,4.57-1.73,15.18,15.18,0,0,0,2,3.52l-1.76,2.2a30.85,30.85,0,0,1-4.3,3.66,55.3,55.3,0,0,1-6.75,3.66c-2.37,1.13-6.48,2.59-6.41,5.47s1.33,2.25,4,1.92,11.63-3.06,11.63-3.06a29.19,29.19,0,0,1-3.19,3.39c-1.25,1-4.38,3.93-7.07,6s-4.49,5-3.37,7.26,3.5.11,5.75-1.11,4.13-2.1,4.13-2.1l-3.22,3.15c-1,1-2,2.94-1.25,4.41s1.5,1.92,3.25.85,3.56-2.67,5.41-3.75a16.82,16.82,0,0,0,2.71-1.88s-2.39,2.78-2,4.23,1.51,2.27,2.6,1.77,3.62-3.09,5.59-4.08a30.2,30.2,0,0,0,4.64-3.27c1.25-.93,1.47-1.87,2.18-4.39s1.47-4.81,2.37-7.47c1-3.14,2.11-6.11,3.22-9.52,1.26-3.91,2.66-6.21,3.91-11.73C307.49,274.57,307.33,273,307.55,265.63Z" style="fill:#ffbda7"></path><path d="M287.55,261.72h0a23.9,23.9,0,0,1-.38,3.38,7.53,7.53,0,0,1-1.62,3.42h0c3.29-2.28,5.81-2.64,8.59-2.22-.73-.88-3.42-.86-4.72-.86S287.46,263.67,287.55,261.72Z" style="fill:#f0997a"></path><path d="M285.46,273.25a4.87,4.87,0,0,0-2.61-1.82,4.76,4.76,0,0,0-.52-.1c-.15,0-.34-.08-.46,0a.29.29,0,0,0,0,.4,1.41,1.41,0,0,0,.49.12l.44.1a5.1,5.1,0,0,1,1,.36,4.37,4.37,0,0,1,1.46,1.17C285.45,273.72,285.58,273.41,285.46,273.25Z" style="fill:#f0997a"></path><path d="M283.6,274a4.62,4.62,0,0,0-1.15-.74,6.26,6.26,0,0,0-.61-.21c-.16,0-.5-.15-.59.06a.25.25,0,0,0,0,.25,1.21,1.21,0,0,0,.64.23,3.62,3.62,0,0,1,.56.17,4.38,4.38,0,0,1,1,.55C283.67,274.46,283.73,274.12,283.6,274Z" style="fill:#f0997a"></path><path d="M280.44,294.64c-.14-.1-.18.21-.1.28,1,.89.87,2.25.8,3.43a.4.4,0,0,0,.18.38.17.17,0,0,0,.27-.13C281.68,297.22,281.67,295.56,280.44,294.64Z" style="fill:#f0997a"></path><path d="M280.64,298.34a3.54,3.54,0,0,0-.07-.73,2.31,2.31,0,0,0-.68-1.33c-.07-.06-.18-.11-.26,0a.29.29,0,0,0,0,.31c.06.13.1.2.14.31l.06.13s0,.05,0,0a.25.25,0,0,1,0,.07,2.33,2.33,0,0,1,.07.53c0,.19,0,.39,0,.58s0,.21,0,.3a.93.93,0,0,0,.25.55.21.21,0,0,0,.22.06C280.67,299,280.64,298.6,280.64,298.34Z" style="fill:#f0997a"></path><path d="M278.08,309.33a3,3,0,0,0-1.19-1.35c-.07,0-.08.11-.06.14a9.4,9.4,0,0,1,.85,1.39,4.47,4.47,0,0,1,.33,1.54.42.42,0,0,0,.29.35.2.2,0,0,0,.26-.2A4.55,4.55,0,0,0,278.08,309.33Z" style="fill:#f0997a"></path><path d="M277.63,311.15a1.55,1.55,0,0,0-.08-.23,2.93,2.93,0,0,0-.19-.4,3.26,3.26,0,0,0-.44-.61c-.06-.06-.17-.12-.23,0a.31.31,0,0,0,0,.32l.19.27.08.15,0,0s0,0,0,0l0,.06.12.31,0,0s0-.05,0,0a.31.31,0,0,1,0,.08l.05.14a.38.38,0,0,0,.15.18.12.12,0,0,0,.08,0,.14.14,0,0,0,.09,0h0l0,0a.61.61,0,0,0,0-.13A.32.32,0,0,0,277.63,311.15Z" style="fill:#f0997a"></path><path d="M284.52,304a4.28,4.28,0,0,0-1.34-1.64.15.15,0,0,0-.23.06.34.34,0,0,0,.08.33,10.26,10.26,0,0,1,1.09,1.52,8.36,8.36,0,0,1,.62,1.76c.05.19.34.28.34,0A4.2,4.2,0,0,0,284.52,304Z" style="fill:#f0997a"></path><path d="M284,305.82a2.66,2.66,0,0,0-.57-.8c-.07-.07-.18-.12-.25,0a.32.32,0,0,0,.05.34,2,2,0,0,1,.37.62,2.38,2.38,0,0,1,.11.38c0,.06,0,0,0,0s0,.06,0,.09a2,2,0,0,0,0,.24.72.72,0,0,0,.05.21c0,.1.15.26.27.2s0-.05.08-.07a.11.11,0,0,0,.05-.08s0-.06,0-.09a1,1,0,0,0,0-.24A2.37,2.37,0,0,0,284,305.82Z" style="fill:#f0997a"></path><path d="M283.6,314.76a3.4,3.4,0,0,0-.09-.46,3.21,3.21,0,0,0-.43-.94,2.5,2.5,0,0,0-1.3-1.14c-.16,0-.12.25,0,.31a3.91,3.91,0,0,1,1,1.14,3.46,3.46,0,0,1,.26.7c0,.1,0,.21.05.31a1.5,1.5,0,0,1,0,.2.71.71,0,0,0,.16.34s.12.1.18.07.18-.16.18-.32S283.61,314.83,283.6,314.76Z" style="fill:#f0997a"></path><path d="M294.2,313.79c0-.13,0-.26-.05-.4a2.86,2.86,0,0,0-.22-.81,3,3,0,0,0-.37-.66,1.33,1.33,0,0,0-.61-.52c-.25-.08-.21.29-.12.4s.29.31.38.44a1.7,1.7,0,0,1,.22.45,4.41,4.41,0,0,1,.2.71,6.17,6.17,0,0,0,.17.77c.08.18.36.29.41,0A1.47,1.47,0,0,0,294.2,313.79Z" style="fill:#f0997a"></path><path d="M282,281.53a15.18,15.18,0,0,0,2,3.52l3.63-4-2.46,2.21,0-2.4s4-3.25,4.9-5.83C289.36,276.37,285.36,279.92,282,281.53Z" style="fill:#f0997a"></path><path d="M280.41,298.9a38,38,0,0,0,3.6-2.24,9.77,9.77,0,0,1,1.93-1,18.12,18.12,0,0,1,2-.72,17.82,17.82,0,0,1-1.82,1.15c-.62.34-1.21.69-1.8,1.08A9.89,9.89,0,0,1,280.41,298.9Z" style="fill:#f0997a"></path><path d="M276.66,312.35c1.28-.82,2.48-1.74,3.68-2.66s2.4-1.86,3.57-2.81,2.07-2.17,3.23-3.18a13.15,13.15,0,0,1,3.93-2.36,18.26,18.26,0,0,0-3.6,2.71c-1.07,1.05-2,2.27-3.16,3.31s-2.42,1.86-3.69,2.71A24.35,24.35,0,0,1,276.66,312.35Z" style="fill:#f0997a"></path><path d="M283.39,315.28a13.34,13.34,0,0,0,1.37-1.24c.44-.43.9-.86,1.37-1.26,1-.81,1.93-1.55,2.82-2.39a20.93,20.93,0,0,0,2.47-2.68l1.06-1.51a4.88,4.88,0,0,1,1.3-1.34,5.64,5.64,0,0,0-1,1.51c-.3.54-.58,1.09-.92,1.62a15.57,15.57,0,0,1-2.45,2.86,30.76,30.76,0,0,1-2.94,2.31A23.23,23.23,0,0,1,283.39,315.28Z" style="fill:#f0997a"></path><path d="M291.27,308.33l-.21,1.79-2,.62A22.38,22.38,0,0,0,291.27,308.33Z" style="fill:#f0997a"></path><path d="M280.51,271.72a57.18,57.18,0,0,1-4.92,4.13c-.85.66-1.73,1.27-2.57,1.93a4.28,4.28,0,0,0-1.83,2.43,1.79,1.79,0,0,0,.54,1.34,6.52,6.52,0,0,0,1.22,1,4.4,4.4,0,0,0,2.93.77,18,18,0,0,0,6-2l.21-.1.1.22a14.72,14.72,0,0,0,2,3.45l.12.15-.12.15-1.74,2.21h0a31.31,31.31,0,0,1-3.77,3.32,36.79,36.79,0,0,1-4.3,2.58q-2.22,1.15-4.49,2.19a11.74,11.74,0,0,0-4,2.61,2.81,2.81,0,0,0-.72,2.07c0,.79.17,1.63.82,1.7a9.56,9.56,0,0,0,2.36-.22,21.76,21.76,0,0,0,2.41-.45c3.21-.79,6.4-1.73,9.57-2.69l1.22-.37-.81,1a32,32,0,0,1-2.9,3.17c-1.1.91-2.13,1.84-3.19,2.78s-2.14,1.86-3.25,2.75a17,17,0,0,0-3.06,2.79,5.84,5.84,0,0,0-1.49,3.58,2.72,2.72,0,0,0,.64,1.69,1.42,1.42,0,0,0,1.6.09c1.22-.5,2.38-1.39,3.66-2s2.51-1.3,3.8-1.91l1.79-.85-1.42,1.38-2.09,2-1.05,1a5.18,5.18,0,0,0-.86,1.07,3.7,3.7,0,0,0-.62,2.55c.21.76.79,1.82,1.53,1.81a5.36,5.36,0,0,0,2.44-1.16c.79-.55,1.56-1.13,2.35-1.71,1.56-1.19,3.39-2,4.8-3.24l.36.35a13.7,13.7,0,0,0-1.22,1.69,4.93,4.93,0,0,0-.75,1.86,1.33,1.33,0,0,0,0,.45,3.71,3.71,0,0,0,.16.47,2.7,2.7,0,0,0,.55.81,1.35,1.35,0,0,0,1.68.29c1.15-.72,2.21-1.74,3.35-2.58a16,16,0,0,1,1.79-1.21,19.39,19.39,0,0,0,1.84-1c1.18-.77,2.27-1.71,3.4-2.55s1.4-2.38,1.82-3.71c.76-2.75,1.93-5.36,2.64-8.12-.67,2.77-1.78,5.41-2.49,8.16-.19.68-.37,1.38-.62,2.05a4.13,4.13,0,0,1-1.19,1.8c-1.14.87-2.19,1.82-3.38,2.63-.58.41-1.24.76-1.84,1.1a14.42,14.42,0,0,0-1.72,1.21c-1.13.86-2.13,1.85-3.39,2.64a1.7,1.7,0,0,1-1.17.22,2,2,0,0,1-1-.56,3.35,3.35,0,0,1-.65-1,4.76,4.76,0,0,1-.19-.53,1.86,1.86,0,0,1-.06-.61,5.41,5.41,0,0,1,.8-2.08,14.9,14.9,0,0,1,1.26-1.77l.36.35c-1.52,1.33-3.3,2.13-4.82,3.31-.78.57-1.55,1.17-2.35,1.73-.41.28-.81.55-1.25.8a3,3,0,0,1-1.52.48,1.83,1.83,0,0,1-1.43-.85,4.16,4.16,0,0,1-.68-1.42,4.31,4.31,0,0,1,.68-3,5.84,5.84,0,0,1,.95-1.2l1-1,2.07-2.05.38.54c-1.27.6-2.52,1.25-3.76,1.92s-2.33,1.51-3.72,2.09a3.34,3.34,0,0,1-1.17.26,1.71,1.71,0,0,1-1.2-.5,3.39,3.39,0,0,1-.88-2.18,6.62,6.62,0,0,1,1.63-4.1,17.42,17.42,0,0,1,3.17-2.92c1.08-.89,2.14-1.82,3.2-2.75s2.13-1.88,3.21-2.76a30.41,30.41,0,0,0,2.83-3l.41.61c-3.19.94-6.38,1.86-9.63,2.63-.8.18-1.66.35-2.47.45a9.38,9.38,0,0,1-2.59.19,1.48,1.48,0,0,1-1.13-1,4.43,4.43,0,0,1-.21-1.32,3.49,3.49,0,0,1,.88-2.51,12.61,12.61,0,0,1,4.27-2.75c1.52-.67,3-1.39,4.48-2.14a37.63,37.63,0,0,0,4.25-2.51,31.66,31.66,0,0,0,3.72-3.23v0l1.76-2.2v.3a15,15,0,0,1-2.07-3.58l.31.12a17.74,17.74,0,0,1-6.17,1.95,4.79,4.79,0,0,1-3.14-.88,7.88,7.88,0,0,1-1.25-1.06,2.07,2.07,0,0,1-.58-1.57,2.67,2.67,0,0,1,.75-1.47,9.45,9.45,0,0,1,1.21-1.08c.86-.65,1.75-1.24,2.61-1.88A57.19,57.19,0,0,0,280.51,271.72Z" style="fill:#b16668"></path><path d="M207.09,181.41c-13.92,2.45-23.65,6.72-29.27,23.55S165,259.72,163.39,268.53c-2.77,15.21,1.2,17.67,13,23,7.88,3.57,34.3,10.23,54.25,13.34l5.46-25.56c-19.85-7.5-36.75-14.59-36.75-14.59l8.4-36.88S217.74,198.05,207.09,181.41Z" style="fill:#ffbda7"></path><path d="M199.3,264.7c-9-3.32-20.14-.08-24.07,3.17,4.94-8.55,18.76-10.3,25.18-8.05Z" style="fill:#f0997a"></path></g></g></g></svg>