<svg xmlns="http://www.w3.org/2000/svg" viewBox="0 0 500 500"><g id="freepik--Shadow--inject-33"><polygon id="freepik--shadow--inject-33" points="205.23 484.55 52.53 396.38 328.37 237.13 481.07 325.29 205.23 484.55" style="fill:#f0f0f0"></polygon></g><g id="freepik--Character--inject-33"><g id="freepik--character--inject-33"><g id="freepik--Chair--inject-33"><g id="freepik--chair--inject-33"><path d="M65.38,159.76a65.27,65.27,0,0,0-4.61,20.29c-1.32,15.56,3.94,65.93,7.1,88.45h0c4.58,37.63,10.18,37.7,18.34,44,14,10.84,54.37,32.08,67.69,37.32,24.15,9.51,43.88-5.15,58.6-12.42a342.26,342.26,0,0,0,39-23.08c3.67-2.68,5.58-5.39,5.54-8.24,0-1.12,0-5.75,0-6.94,0-3.63-3.2-7.53-10-11.91-12.47-8.09-57.54-34.38-75-44.05a.18.18,0,0,0-.14-.15c-13.44-8.15-21.53-63.61-30.84-93.12-.19-.62-.39-1.24-.6-1.83s-.33-.92-.48-1.37c-.59-1.61-1.19-3.07-1.83-4.42" style="fill:#8C00FF"></path><path d="M257,299.13c0-3.63-3.2-7.53-10-11.91-12.47-8.09-57.54-34.38-75-44.05a.18.18,0,0,0-.14-.15c-13.44-8.15-21.53-63.61-30.84-93.12a53.18,53.18,0,0,0-2-5.42c0-.14-.11-.26-.17-.4-.16-.39-.34-.79-.53-1.2-.09-.19-.17-.41-.26-.6h0a28.15,28.15,0,0,0-6.22-9,13.17,13.17,0,0,0-3-2.14c-1.51-.86-4.68-2.62-5.48-3.09-9.13-5.46-21.1,1.09-36,9.27-9.28,5.08-17.2,11.13-22,22.4h0a65.27,65.27,0,0,0-4.61,20.29c-1.32,15.56,3.94,65.93,7.1,88.45h0c4.58,37.63,10.18,37.7,18.34,44,14,10.84,54.37,32.08,67.69,37.32,24.15,9.51,43.88-5.15,58.6-12.42a342.26,342.26,0,0,0,39-23.08c3.67-2.68,5.58-5.39,5.54-8.24C257,305,257,300.32,257,299.13Z" style="fill:#8C00FF"></path><path d="M257,299.13c0-3.63-3.2-7.53-10-11.91-12.47-8.09-57.54-34.38-75-44.05a.18.18,0,0,0-.14-.15c-13.44-8.15-21.53-63.61-30.84-93.12a53.18,53.18,0,0,0-2-5.42c0-.14-.11-.26-.17-.4-.16-.39-.34-.79-.53-1.2-.09-.19-.17-.41-.26-.6h0a28.15,28.15,0,0,0-6.22-9,13.17,13.17,0,0,0-3-2.14c-1.51-.86-4.68-2.62-5.48-3.09-9.13-5.46-21.1,1.09-36,9.27-9.28,5.08-17.2,11.13-22,22.4h0a65.27,65.27,0,0,0-4.61,20.29c-1.32,15.56,3.94,65.93,7.1,88.45h0c4.58,37.63,10.18,37.7,18.34,44,14,10.84,54.37,32.08,67.69,37.32,24.15,9.51,43.88-5.15,58.6-12.42a342.26,342.26,0,0,0,39-23.08c3.67-2.68,5.58-5.39,5.54-8.24C257,305,257,300.32,257,299.13Z" style="fill:#fff;opacity:0.25"></path><path d="M212.49,330.4a342.12,342.12,0,0,0,39-23.1c8.37-6.08,7.6-12.3-4.39-20.08-16.67-10.81-84.6-49.36-84.6-49.36s-85.89,50.69-82.2,60.05,56.86,38.31,73.61,44.9C178,352.31,197.78,337.66,212.49,330.4Z" style="fill:#8C00FF"></path><path d="M212.49,330.4a342.12,342.12,0,0,0,39-23.1c8.37-6.08,7.6-12.3-4.39-20.08-16.67-10.81-84.6-49.36-84.6-49.36s-85.89,50.69-82.2,60.05,56.86,38.31,73.61,44.9C178,352.31,197.78,337.66,212.49,330.4Z" style="fill:#fff;opacity:0.6000000000000001"></path><path d="M128.9,131.18c-9-4.75-20.79,1.7-35.32,9.66C84.27,146,76.34,152,71.52,163.31l-6.14-3.55c4.82-11.27,12.74-17.32,22-22.4,14.92-8.18,26.89-14.73,36-9.27C124.22,128.56,127.39,130.32,128.9,131.18Z" style="fill:#8C00FF"></path><path d="M128.9,131.18c-9-4.75-20.79,1.7-35.32,9.66C84.27,146,76.34,152,71.52,163.31l-6.14-3.55c4.82-11.27,12.74-17.32,22-22.4,14.92-8.18,26.89-14.73,36-9.27C124.22,128.56,127.39,130.32,128.9,131.18Z" style="fill:#fff;opacity:0.5"></path><path d="M141.08,149.9c-.19-.62-3.3-11.45-9.14-16.58a14.68,14.68,0,0,0-9.88-3.77c-7.89,0-17.37,5.22-28.48,11.29-.93.51-1.85,1-2.75,1.57-.35.2-.69.41-1,.62s-.82.51-1.23.77-.6.38-.9.59a51.23,51.23,0,0,0-5.6,4.25c-.28.24-.56.49-.83.77a39.65,39.65,0,0,0-3.18,3.29c-.18.21-.37.42-.54.63s-.43.52-.62.78-.41.54-.62.81l-.59.83a40.26,40.26,0,0,0-2.22,3.55l-.26.47c-.18.33-.35.67-.52,1-.25.5-.49,1-.72,1.49-2.54,5.58-4.29,12.48-5,21.27-2.16,25.56,6.59,110,15.38,117.29,0,0-1.35-8.26,16.33-19.39,12-7.55,20.44-13.91,33.27-20.19,31.24-15.35,40-18.23,40-18.23C158.48,234.87,150.39,179.41,141.08,149.9Z" style="fill:#8C00FF"></path><path d="M141.08,149.9c-.19-.62-3.3-11.45-9.14-16.58a14.68,14.68,0,0,0-9.88-3.77c-7.89,0-17.37,5.22-28.48,11.29-.93.51-1.85,1-2.75,1.57-.35.2-.69.41-1,.62s-.82.51-1.23.77-.6.38-.9.59a51.23,51.23,0,0,0-5.6,4.25c-.28.24-.56.49-.83.77a39.65,39.65,0,0,0-3.18,3.29c-.18.21-.37.42-.54.63s-.43.52-.62.78-.41.54-.62.81l-.59.83a40.26,40.26,0,0,0-2.22,3.55l-.26.47c-.18.33-.35.67-.52,1-.25.5-.49,1-.72,1.49-2.54,5.58-4.29,12.48-5,21.27-2.16,25.56,6.59,110,15.38,117.29,0,0-1.35-8.26,16.33-19.39,12-7.55,20.44-13.91,33.27-20.19,31.24-15.35,40-18.23,40-18.23C158.48,234.87,150.39,179.41,141.08,149.9Z" style="fill:#fff;opacity:0.4"></path></g></g><g id="freepik--Bottom--inject-33"><path d="M92.92,236.1c-5.67,17.46-5.41,34.73-2.63,44.14s10.35,22.2,35.71,34.95c28.95,14.54,62.78,28.53,62.78,28.53l100.35-58-99.07-49.86Z" style="fill:#8C00FF"></path><path d="M197.62,256.11c-2.53,12.29-9.69,18.73-9.69,18.73,15.46,9.09,50.44,28.69,59.4,35l10-5.77-60.5-33C200.12,262.25,197.62,256.11,197.62,256.11Z" style="opacity:0.35000000000000003"></path></g><g id="freepik--Hair--inject-33"><path d="M144.74,98.27c1-3.09,1.71-6.52,3.63-9.21s4.75-4.36,7.11-6.52l7.61-7C172.4,68,173.74,53,169.31,46.82c-10.25-14.38-30.78-16.15-41.44-14.69-20.21,2.76-29,9.81-29.05,20.56-6.16,1.2-9.16,4.77-11.57,9.73-1.8,3.68-2.13,7.87-2.13,11.89,0,6.41,4.47,14.26-1.5,19.51-2.91,2.56-6.4,2.93-9.71,4.55a14.05,14.05,0,0,0-6.28,6.29c-1.4,2.78-1,5.62-1.29,8.59a12.91,12.91,0,0,1-4,8.34c-2.07,2-4.36,3.21-6,5.6-4.31,6.3-4.39,10.74-3.36,16.71a21.08,21.08,0,0,0,4.84,9.93C64,161,73.55,165,82.27,168.06a48,48,0,0,0,14.64,2.6c5.62.22,12.57-.22,17.91-2,5.59-1.91,12.68-4.87,16.36-9.75,3.33-4.43,3.34-11.65,2.87-16.9-.56-6.27-3.27-11.91-4.42-18a17.16,17.16,0,0,1,.18-7.17c1-3.6,2.11-8.11,5.63-9.78S143.5,102.2,144.74,98.27Z" style="fill:#37474f"></path><path d="M137.82,53.5c-.26-9.85,9-18,22.36-13.26s15,19.29,12.06,27.63,8.12,12.56,9.58,20.76-6.1,14.86-1.8,19,8.29-1.2,6.78-4c3,2.06,2.75,6.63-.27,9a10.3,10.3,0,0,1-9.1,1.78c4.35,1.36,10.07,6.54,11.56,10.82,1.24,3.56.65,6.91-1,10.27-1.18,2.46-2.64,5.26-2.09,8.11s2.7,5,3.19,8c.67,4-.59,7.34-2.74,10.67-4.07,6.3-13.29,9.09-20.46,8.89-4.77-.14-8.51-2.95-12.14-5.79-4.79-3.76-9.54-4.51-15.53-4.08a50.22,50.22,0,0,1-9.81-.14c-5.64-.68-10.57-4.16-15.54-6.73a19.94,19.94,0,0,1-10-10.67c-4.75-12.55,9.32-20.29,17-26.87,4.58-3.93,9.55-8,13.31-12.78,6-7.63,4.11-19,4.19-28.09C137.5,68.59,137.61,61,137.82,53.5Z" style="fill:#263238"></path></g><path d="M152.89,124c22.5.71,24.07,1,43.7,12.25,13.27,7.59,30.66,17.57,30.66,17.57s7.84-30.66,7.12-35.91a13.86,13.86,0,0,0-1.36-4.85c-1.09-2-2.76-3.35-3.95-5.18a25.24,25.24,0,0,1-2.71-6.18c-.88-2.81-1.52-5.69-2.6-8.43a3.61,3.61,0,0,1-.41-2.07,2.15,2.15,0,0,1,2.23-1.5,3.81,3.81,0,0,1,2.49,1.37c1.23,1.37,2,3.07,3.25,4.45a2.53,2.53,0,0,0,1.63,1c.91,0,1.59-.85,1.9-1.71.82-2.24.25-4.76-.75-6.92-.81-1.74-2.44-3.58-4.6-2.76A7.3,7.3,0,0,0,227.21,87a6.69,6.69,0,0,1-2.48,1.75c-.63.15-1.81-.09-1.94-.86a1.34,1.34,0,0,1,.15-.75,22.11,22.11,0,0,1,3.39-5.76,6.08,6.08,0,0,1,2.19-1.88,6.9,6.9,0,0,1,2.34-.45,8.86,8.86,0,0,1,3.25.17c1.73.54,2.82,2,4.11,3.15a.74.74,0,0,0,.58.24c.33-.07.43-.49.44-.83a25.42,25.42,0,0,0-1.35-8.36,29.33,29.33,0,0,1-1.23-4.86,7.69,7.69,0,0,1,.82-4.86,1.75,1.75,0,0,1,1.57-1c.68.1,1.07.82,1.33,1.45a74.24,74.24,0,0,1,3.23,9.31c.83,3,1.17,6.21,2.31,9.13.25.65,1.09,1.29,1.25.3a16.25,16.25,0,0,0,.11-3.27,34,34,0,0,0-1-6.66,28.23,28.23,0,0,1-.88-4.43,7.6,7.6,0,0,1,.79-4.39,2.36,2.36,0,0,1,.7-.83c1-.68,2,.84,2.48,1.61a14.47,14.47,0,0,1,1.32,3.38q1.2,4.13,2.05,8.34c.26,1.3.51,2.61.68,3.93.09.76.15,1.52.25,2.28.06.46.07,1.75.53,2,.82.5,1.07-3,1.08-3.51a22.65,22.65,0,0,0-.26-4.11c-.2-1.29-.59-2.55-.72-3.86s-.09-3,.89-4a1.46,1.46,0,0,1,.78-.46c1.2-.17,1.66,1.77,2,2.58a40.21,40.21,0,0,1,1.75,4.37,36.92,36.92,0,0,1,1.61,14.51c-.23,3.37-.62,6.73-1.15,10.07-.24,1.47-.33,2.94-.69,4.38-.4,1.6-.7,3.22-1.06,4.83-.56,3.28-2.12,6.34-2.72,9.62-.35,1.87-.22,9-.15,15.83.12,14.41.91,27.66-3.15,42.8-3.4,12.68-12.52,13.6-21.94,10.52-13.44-4.38-52.83-21.48-52.83-21.48C161.11,152.24,152.89,124,152.89,124Z" style="fill:#ffbda7"></path><path d="M238.9,96.93s8.91,3.66,8.46,16.33c0,0,3.26-7.11-.48-12S238.9,96.93,238.9,96.93Z" style="fill:#f0997a"></path><path d="M227.25,153.82s-2.93,7.84.37,20.81a28.18,28.18,0,0,1-3.48-22.58Z" style="fill:#f0997a"></path><path d="M87.53,262.1c-.57-17.36,9.08-38.22,9-42-.66-19.49-10.44-32.6-12.62-42C79.1,157.54,80.58,141,85.09,136.5c0,0,21-10.13,26.46-11.34,12.08-2.7,19.44-1.69,24-1.59l18.5.43s17.74,9.46,29.18,22c9.51,10.46,13.3,27.46.4,41.58.69,9.66-2.31,18.07-.86,24.19,2.42,10.17,8.69,20.67,13.28,26.76C185.38,265.86,116.25,275.91,87.53,262.1Z" style="fill:#455a64"></path><path d="M158.2,57.93c2.64,5.74,4.35,17.48,4.75,22.78,1.53,20-4,26.61-8.7,29.85-2.95,2-7.25,3.56-13.72,3.28v11.4s12.81,8.62-3.7,10.4c-19.38,2.08-29-8.55-29-8.55L108,99.77c-1.51,1.84-5.72,1.9-8.44.15a12.27,12.27,0,0,1-5.36-9.76A10,10,0,0,1,96,83.6c1.2-1.66,4.61-2.71,6.62-2.3,2.73.56,3.55,1.76,5,3.35,1.92,2.13,1.67,5.39,4.58,3.44,2.38-1.6,1.63-4.82,1.78-7.78a10.76,10.76,0,0,1,.78-3.56c.54-1.23,1.28-2.35,1.7-3.63a24.61,24.61,0,0,0,.9-7.65c0-5.16-.61-10.18,4.73-12.82a13.91,13.91,0,0,1,7.17-1.26,70.5,70.5,0,0,1,8.56,2.11C144.44,42.57,153,46.64,158.2,57.93Z" style="fill:#ffbda7"></path><path d="M105.84,107.17a7.8,7.8,0,0,0-1.06.26,9.28,9.28,0,0,1-1.46.4,5.13,5.13,0,0,1-2.4-.12,4.33,4.33,0,0,1-3-3.59,4.56,4.56,0,0,1,1.61-4,4.39,4.39,0,0,1,2.07-.93,9.74,9.74,0,0,1,2.47.14.84.84,0,0,0,.84-.37.61.61,0,0,0-.17-.79c-1.51-1.06-3.8-.69-5.32.11a6.16,6.16,0,0,0-2.92,3.53,5.72,5.72,0,0,0,.55,4.74,5.86,5.86,0,0,0,3.7,2.48,6.89,6.89,0,0,0,4.37-.53,3.4,3.4,0,0,0,.63-.38c.21-.16.24-.32.38-.54S106,107.13,105.84,107.17Z" style="fill:#8C00FF"></path><path d="M133.67,75.64a3,3,0,1,1-3-2.92A3,3,0,0,1,133.67,75.64Z" style="fill:#263238"></path><path d="M155.2,73.07a3,3,0,1,1-3.4-2.49A3,3,0,0,1,155.2,73.07Z" style="fill:#263238"></path><path d="M157.3,68.35,150,65.22a3.82,3.82,0,0,1,5.09-2.17A4.17,4.17,0,0,1,157.3,68.35Z" style="fill:#263238"></path><path d="M132.21,67.05l-7.1,3.55a3.79,3.79,0,0,1,1.63-5.28A4.17,4.17,0,0,1,132.21,67.05Z" style="fill:#263238"></path><path d="M133.92,92.94l9,1.3a4.34,4.34,0,0,1-5,3.89A4.75,4.75,0,0,1,133.92,92.94Z" style="fill:#b16668"></path><path d="M134.06,94.68a4.75,4.75,0,0,0,3.85,3.45,4.28,4.28,0,0,0,2.34-.31A7.39,7.39,0,0,0,134.06,94.68Z" style="fill:#f28f8f"></path><polygon points="139.46 69.36 143.38 90.48 153.85 84.52 139.46 69.36" style="fill:#f0997a"></polygon><path d="M140.53,113.84c-16-1.29-23.15-5.25-27.43-12.67,0,0,2,9.14,9.4,12.34,7.82,3.36,18,4.56,18,4.56Z" style="fill:#f0997a"></path><g id="freepik--Arm--inject-33"><path d="M91,133.73c-9.9,4.2-19.45,6.91-25.45,21.23S45,213,44.73,224.19s33.79-13.4,33.79-13.4,16.36-36.64,16.42-37.2S97.83,146.85,91,133.73Z" style="fill:#f0997a"></path><path d="M100.21,172.37c2.11-2.63,3.05-18,2.43-21.27a46.85,46.85,0,0,1-.57-11c.21-3.52-1-6.75-2.57-7.27s-2.9-.39-3.39,2a27.76,27.76,0,0,1-3.39,9.63c-2.56,4.65-5.32,9.42-3.07,15.55S100.21,172.37,100.21,172.37Z" style="fill:#f0997a"></path><path d="M130.51,158.74c1.53,1.09.34,3.84.26,5.32a10.67,10.67,0,0,0,1.52,6c1.83,3,5,4.83,6.3,8.14a10.78,10.78,0,0,1-1.2,10c-.79,1.11-1.83,2.17-1.92,3.53,0,.37,0,.75,0,1.12a1,1,0,0,1-.61.86,1.08,1.08,0,0,1-1.19-.61,2.94,2.94,0,0,1,0-2.59,10.89,10.89,0,0,1,1.47-2.23,9.62,9.62,0,0,0,2.21-4.88c.2-2.5-1.23-4.83-2.74-6.83-.91-1.2-1.86-2.35-2.84-3.48a20.76,20.76,0,0,1-2.63-3.44,11.39,11.39,0,0,1-1.07-7.46c.15-.88.4-2.95,1.14-3.54A1.06,1.06,0,0,1,130.51,158.74Z" style="fill:#8C00FF"></path><path d="M130.51,158.74c1.53,1.09.34,3.84.26,5.32a10.67,10.67,0,0,0,1.52,6c1.83,3,5,4.83,6.3,8.14a10.78,10.78,0,0,1-1.2,10c-.79,1.11-1.83,2.17-1.92,3.53,0,.37,0,.75,0,1.12a1,1,0,0,1-.61.86,1.08,1.08,0,0,1-1.19-.61,2.94,2.94,0,0,1,0-2.59,10.89,10.89,0,0,1,1.47-2.23,9.62,9.62,0,0,0,2.21-4.88c.2-2.5-1.23-4.83-2.74-6.83-.91-1.2-1.86-2.35-2.84-3.48a20.76,20.76,0,0,1-2.63-3.44,11.39,11.39,0,0,1-1.07-7.46c.15-.88.4-2.95,1.14-3.54A1.06,1.06,0,0,1,130.51,158.74Z" style="fill:#fff;opacity:0.30000000000000004"></path><path d="M125.08,152.83l2.69,6c1.58.24,3.48-.16,6.18-.4,9.32-.86,10-2.27,10-2.27C138.56,156.85,128.68,157.09,125.08,152.83Z" style="fill:#ebebeb"></path><path d="M123.13,151.06l2.68,6c1.59.24,3.49-.15,6.18-.4,9.32-.86,10-2.27,10-2.27C136.6,155.08,126.73,155.33,123.13,151.06Z" style="fill:#ebebeb"></path><path d="M121.18,149.3l2.68,6c1.59.24,3.49-.15,6.18-.4,9.32-.86,10-2.26,10-2.26C134.65,153.31,124.77,153.56,121.18,149.3Z" style="fill:#ebebeb"></path><path d="M67.9,136.69c9.55-.93,44.68,7.16,50,9.27s5.75,4.43,9.23,8.55,13.47,4,18.84,3.31c0,0-.54,1.82-9.86,2.68-8.63.79-10.35-1.14-13-4.25s-2.76-6.86-7.79-8.44S82,139.5,68.59,139.87c-1.9,0-2-1-2-1.68S66.28,136.84,67.9,136.69Z" style="fill:#fafafa"></path><path d="M135.17,158.68a7.5,7.5,0,0,1,.11.81,1.32,1.32,0,0,1-.14.76,1.09,1.09,0,0,1-.48.36,26,26,0,0,1-5.61-.27,6.89,6.89,0,0,0,2.67,3.3,6.19,6.19,0,0,0,5.69,1.09,1.5,1.5,0,0,1,.66-.13,1.31,1.31,0,0,1,.47.16,6.32,6.32,0,0,0,5.11.07,2.69,2.69,0,0,1,1-.33,2.48,2.48,0,0,1,.72.13,6.17,6.17,0,0,0,6-1.66c1.22-1.49.83-3.87.43-5.58-.74-3.19-3.27-7-6.87-7.18a2.31,2.31,0,0,1-.52-.06,2.07,2.07,0,0,1-.63-.48,4.75,4.75,0,0,0-3-1.16,9,9,0,0,0-3.24.54,2,2,0,0,1-.69.14,2.3,2.3,0,0,1-1-.41,5.66,5.66,0,0,0-3.27-.59,7.54,7.54,0,0,0-4.46,1.74,3.92,3.92,0,0,0-1.31,2.34s2.39.66,2.62.76a12.44,12.44,0,0,1,2.59,1.4,8.94,8.94,0,0,1,2.21,2.17A6.18,6.18,0,0,1,135.17,158.68Z" style="fill:#8C00FF"></path><path d="M135.17,158.68a7.5,7.5,0,0,1,.11.81,1.32,1.32,0,0,1-.14.76,1.09,1.09,0,0,1-.48.36,26,26,0,0,1-5.61-.27,6.89,6.89,0,0,0,2.67,3.3,6.19,6.19,0,0,0,5.69,1.09,1.5,1.5,0,0,1,.66-.13,1.31,1.31,0,0,1,.47.16,6.32,6.32,0,0,0,5.11.07,2.69,2.69,0,0,1,1-.33,2.48,2.48,0,0,1,.72.13,6.17,6.17,0,0,0,6-1.66c1.22-1.49.83-3.87.43-5.58-.74-3.19-3.27-7-6.87-7.18a2.31,2.31,0,0,1-.52-.06,2.07,2.07,0,0,1-.63-.48,4.75,4.75,0,0,0-3-1.16,9,9,0,0,0-3.24.54,2,2,0,0,1-.69.14,2.3,2.3,0,0,1-1-.41,5.66,5.66,0,0,0-3.27-.59,7.54,7.54,0,0,0-4.46,1.74,3.92,3.92,0,0,0-1.31,2.34s2.39.66,2.62.76a12.44,12.44,0,0,1,2.59,1.4,8.94,8.94,0,0,1,2.21,2.17A6.18,6.18,0,0,1,135.17,158.68Z" style="fill:#fff;opacity:0.5"></path><path d="M140.3,153.36a9.36,9.36,0,0,0-2.89-3.58c-.09-.06-.1.15-.08.19.62,1.11,1.44,2.11,2,3.24a10.33,10.33,0,0,1,1.25,3.79,9.77,9.77,0,0,1-1.82,6.71,1,1,0,0,0-.22.47c1.23-.08,2.14-1.88,2.5-2.87a9.38,9.38,0,0,0,.47-4A11,11,0,0,0,140.3,153.36Zm8.3,4.34a10.22,10.22,0,0,0-1.17-3.69,8.62,8.62,0,0,0-2.68-3.32c-.09-.06-.1.13-.07.17.58,1,1.33,2,1.9,3a9.81,9.81,0,0,1,1.16,3.52,9.11,9.11,0,0,1-1.69,6.22.77.77,0,0,0-.2.44c1.13-.07,2-1.74,2.31-2.66A8.68,8.68,0,0,0,148.6,157.7Z" style="fill:#8C00FF;opacity:0.5"></path><g id="freepik--Mushroom--inject-33"><path d="M142.18,155.32c.61.7.8,3.45.81,4.23s1.57.72,2.83.33,2.58-1.22,2.15-1.86-1.82-3-1.7-4Z" style="fill:#e0e0e0"></path><path d="M142.18,155.32c.61.7.8,3.45.81,4.23s1.57.72,2.83.33,2.58-1.22,2.15-1.86-1.82-3-1.7-4Z" style="opacity:0.05"></path><path d="M151.88,149v0c.05.14.08.28.12.42s0,.09,0,.13l0,.17c.27,1.75-.82,2.44-2.37,2.8-.4,1.15-2.41,2.54-5.06,3.38s-5.13.86-6.1.13c-1.64.7-2.94.73-3.71-1.4,0,0,0,0,0,0l-.07-.21a4.94,4.94,0,0,1-.22-1.7c0-.08,0-.17,0-.25a4.88,4.88,0,0,1,.12-.75,2.86,2.86,0,0,1,.07-.28,6.26,6.26,0,0,1,.55-1.36l.11-.2a6.66,6.66,0,0,1,.48-.74h0a10.83,10.83,0,0,1,5.45-3.74c3.64-1.15,7.28-.46,9.27,1.51l.19.2.18.21a5.3,5.3,0,0,1,.39.54,1.74,1.74,0,0,1,.11.18l.08.13.07.14.06.13c0,.08.07.17.11.26S151.85,148.89,151.88,149Z" style="fill:#f5f5f5"></path><path d="M151.88,149v0c.05.14.08.28.12.42s0,.09,0,.13l0,.17c.27,1.75-.82,2.44-2.37,2.8-.4,1.15-2.41,2.54-5.06,3.38s-5.13.86-6.1.13c-1.64.7-2.94.73-3.71-1.4,0,0,0,0,0,0l-.07-.21a4.94,4.94,0,0,1-.22-1.7c0-.08,0-.17,0-.25a4.88,4.88,0,0,1,.12-.75,2.86,2.86,0,0,1,.07-.28,6.26,6.26,0,0,1,.55-1.36l.11-.2a6.66,6.66,0,0,1,.48-.74,2.7,2.7,0,0,0,.83,3.29,3.15,3.15,0,0,0,2.87.06c.78-.26,1.51-.68,2.28-1a11.35,11.35,0,0,1,3.64-.19c2.92-.05,5.48-2.46,3.66-5.3a2.69,2.69,0,0,0-.2-.27,6.76,6.76,0,0,1,1.65,1.15l.19.2.18.21a5.3,5.3,0,0,1,.39.54,1.74,1.74,0,0,1,.11.18l.08.13.07.14.06.13c0,.08.07.17.11.26S151.85,148.89,151.88,149Z" style="opacity:0.05"></path><path d="M142.4,154.37a7.32,7.32,0,0,1,.23,2.06,5.33,5.33,0,0,0-.55-1.05c-.88-1.12-1.55-.82-2.66-.29a.91.91,0,0,1-.84,0c-.63-.36-.54-1.74.2-2.26s2.4-.86,3-.1A4.11,4.11,0,0,1,142.4,154.37Z" style="fill:#e0e0e0"></path><path d="M142.4,154.37a7.32,7.32,0,0,1,.23,2.06,5.33,5.33,0,0,0-.55-1.05c-.88-1.12-1.55-.82-2.66-.29a.91.91,0,0,1-.84,0c-.63-.36-.54-1.74.2-2.26s2.4-.86,3-.1A4.11,4.11,0,0,1,142.4,154.37Z" style="opacity:0.1"></path><path d="M145.06,151.78a4.2,4.2,0,0,0,.39,1.66,6.22,6.22,0,0,0,1.06,1.77,3.37,3.37,0,0,1-.23-1.12c.1-1.42.82-1.54,2-1.73,1.59-.24.49-2.17-.71-2.19C146.72,150.15,145.14,150.81,145.06,151.78Z" style="fill:#e0e0e0"></path><path d="M145.06,151.78a4.2,4.2,0,0,0,.39,1.66,6.22,6.22,0,0,0,1.06,1.77,3.37,3.37,0,0,1-.23-1.12c.1-1.42.82-1.54,2-1.73,1.59-.24.49-2.17-.71-2.19C146.72,150.15,145.14,150.81,145.06,151.78Z" style="opacity:0.1"></path><path d="M142.4,154.37a3.58,3.58,0,0,0-1-1.22,2.19,2.19,0,0,0-2.41.74c-.27.6,0,1.33-.43,1.25h0c-.63-.36-.54-1.74.2-2.26s2.4-.86,3-.1A4.11,4.11,0,0,1,142.4,154.37Z" style="opacity:0.1"></path><path d="M145.45,153.44a3.63,3.63,0,0,1,.13-1.56,2.17,2.17,0,0,1,2.4-.74c.57.34.77,1.08,1.06.78h0c.32-.64-.52-1.73-1.43-1.75s-2.47.64-2.55,1.61A4.2,4.2,0,0,0,145.45,153.44Z" style="opacity:0.1"></path></g><path d="M92.57,152.94s5.54-4.3,7.87-5.76,7.28-1.81,9.14-3.11c2.13-1.5,2.44-3.79.52-4.67s-9.08-.14-11.3.5a25.74,25.74,0,0,0-8.13,4c-3.33,2.34-7.3,4.8-8,6.31-.89,1.86-.24,5.27.1,7.12s1.13,8.36,1.53,12c.34,3,.61,4.56-1.59,7.3C80,180,68.4,191.93,61,199.69c-5.49,5.75-14.36,13.9-17.22,23.44s-1.42,21.57,2.35,24.47,19.95,2.57,27.86-6.44c11.61-13.23,14.46-23.68,18.43-33,4.48-10.52,8.62-19.31,10.4-21.27,2.52-2.76,5.05-6.23,5.09-10.31,0-5.28.12-7.72,3.28-11.48,1.73-2,3.37-3.41,4.59-5.57s1.38-4.11.48-5-2.17.12-2.17.12a2.81,2.81,0,0,0-.49-1.37,7.37,7.37,0,0,0-1.29-1.53,6.26,6.26,0,0,0,1.46-1.19c.68-.76.15-2.66-.37-3.53s-3.53-1.12-4.92-.76-5.72,1.25-6.9,1.73S92.57,152.94,92.57,152.94Z" style="fill:#ffbda7"></path><path d="M113.77,150.54a1.94,1.94,0,0,0,.29-1.46,5.51,5.51,0,0,1-2.17,1.78c-1.76,1-7.07,2.69-9.8,4.57s-5.5,4.3-7,4.59c1.14,0,4.36-1.77,7.64-3.87a64.9,64.9,0,0,1,9.62-4.42A6.26,6.26,0,0,0,113.77,150.54Z" style="fill:#f0997a"></path><path d="M111.38,157.57c-.88.87-5.57,4-7.26,5.17s-4.63,2.89-4.63,2.89a22,22,0,0,0,4.15-1.88c1.63-1,6.32-4.17,8-5.6a7.6,7.6,0,0,0,2.5-3.52,2.81,2.81,0,0,0-.49-1.37C113.78,155,112.26,156.69,111.38,157.57Z" style="fill:#f0997a"></path></g></g><g id="freepik--Table--inject-33"><polygon points="205.25 416.09 63.93 334.5 319.21 187.11 460.54 268.7 205.25 416.09" style="fill:#8C00FF"></polygon><polygon points="205.25 416.09 63.93 334.5 319.21 187.11 460.54 268.7 205.25 416.09" style="fill:#fff;opacity:0.8"></polygon><polygon points="63.93 334.5 63.93 392.4 205.25 474 205.25 416.09 63.93 334.5" style="fill:#8C00FF"></polygon><polygon points="63.93 334.5 63.93 392.4 205.25 474 205.25 416.09 63.93 334.5" style="fill:#fff;opacity:0.5"></polygon><polygon points="205.25 474 460.54 326.6 460.54 268.7 205.25 416.09 205.25 474" style="fill:#8C00FF"></polygon><polygon points="205.25 416.09 460.54 268.7 460.54 326.6 205.25 474 205.25 416.09" style="fill:#fff;opacity:0.65"></polygon><polygon points="259.25 221.73 123.89 299.88 106.25 358.93 162.93 391.66 265.21 381.47 400.58 303.32 418.22 244.27 361.54 211.54 259.25 221.73" style="fill:#fafafa"></polygon><polygon points="400.58 303.32 332.89 395.91 265.21 381.47 400.58 303.32" style="fill:#ebebeb"></polygon><polygon points="106.25 358.93 134.59 426.94 162.93 391.66 106.25 358.93" style="fill:#e0e0e0"></polygon></g></g><g id="freepik--Glass--inject-33"><g id="freepik--glass--inject-33"><path id="freepik--shadow--inject-33" d="M309.5,230.86c6.47,3.74,6.47,9.8,0,13.54s-17,3.73-23.44,0-6.48-9.8,0-13.54S303,227.12,309.5,230.86Z" style="opacity:0.1"></path><path d="M306.35,231.41c-4.71-2.72-12.34-2.72-17.05,0-2.35,1.36-3.53,3.14-3.52,4.92v1.25c0,1.78,1.17,3.57,3.52,4.93,4.71,2.71,12.34,2.71,17.05,0,2.35-1.36,3.53-3.14,3.53-4.92v-1.26C309.88,234.55,308.71,232.77,306.35,231.41Z" style="fill:#8C00FF"></path><path d="M306.35,231.41c-4.71-2.72-12.34-2.72-17.05,0-2.35,1.36-3.53,3.14-3.52,4.92v1.25c0,1.78,1.17,3.57,3.52,4.93,4.71,2.71,12.34,2.71,17.05,0,2.35-1.36,3.53-3.14,3.53-4.92v-1.26C309.88,234.55,308.71,232.77,306.35,231.41Z" style="fill:#fff;opacity:0.30000000000000004"></path><path d="M289.3,241.26c-4.7-2.72-4.7-7.13,0-9.85s12.34-2.72,17.05,0,4.71,7.13,0,9.85S294,244,289.3,241.26Z" style="fill:#8C00FF"></path><path d="M289.3,241.26c-4.7-2.72-4.7-7.13,0-9.85s12.34-2.72,17.05,0,4.71,7.13,0,9.85S294,244,289.3,241.26Z" style="fill:#fff;opacity:0.55"></path><path d="M294.26,233c-2.92.64-3.7,2.69-2.14,4.25,2.4,2.41,8.49,1.89,10.2-.38Z" style="fill:#8C00FF;opacity:0.30000000000000004"></path><path d="M303.05,231.08c3.32.84,6.55,6.76.34,9.42-4.54,1.95-12.66.93-13.91,0a18.2,18.2,0,0,0,14.19,1.08C312.22,238.78,309,231.57,303.05,231.08Z" style="fill:#fff;opacity:0.30000000000000004"></path><g id="freepik--glass--inject-33"><path d="M310.81,164.6h-26s-2.62,18.21-2.35,29.32a15.34,15.34,0,0,0,7.76,13.34A11.09,11.09,0,0,1,296,216.9v13.6a2.36,2.36,0,0,1-1.12,2,5.8,5.8,0,0,0-1.85,1.87l-.09.16c-.51,1-.08,2.14,1.29,2.94a8,8,0,0,0,7.25,0c1.38-.8,1.81-1.94,1.3-2.94-.05-.09-.11-.18-.17-.27a5.65,5.65,0,0,0-1.76-1.75,2.41,2.41,0,0,1-1.14-2V216.9a11.11,11.11,0,0,1,5.71-9.64,15.33,15.33,0,0,0,7.77-13.34C313.43,182.81,310.81,164.6,310.81,164.6Z" style="fill:#8C00FF"></path><path d="M310.81,164.6h-26s-2.62,18.21-2.35,29.32a15.34,15.34,0,0,0,7.76,13.34A11.09,11.09,0,0,1,296,216.9v13.6a2.36,2.36,0,0,1-1.12,2,5.8,5.8,0,0,0-1.85,1.87l-.09.16c-.51,1-.08,2.14,1.29,2.94a8,8,0,0,0,7.25,0c1.38-.8,1.81-1.94,1.3-2.94-.05-.09-.11-.18-.17-.27a5.65,5.65,0,0,0-1.76-1.75,2.41,2.41,0,0,1-1.14-2V216.9a11.11,11.11,0,0,1,5.71-9.64,15.33,15.33,0,0,0,7.77-13.34C313.43,182.81,310.81,164.6,310.81,164.6Z" style="fill:#fff;opacity:0.5"></path><path d="M293,207.68c-2.83-1.43-5.66-2.29-8.2-5.69a15.51,15.51,0,0,0,5.47,5.27A11.09,11.09,0,0,1,296,216.9C296,211.49,295.84,209.12,293,207.68Z" style="fill:#8C00FF;opacity:0.2"></path><path d="M297.83,207a14,14,0,0,1-14.19-13.87v0c-.23-9.4,1.74-22.87,2.23-27.4h23.91c.5,4.53,2.47,18,2.24,27.4v0A14.05,14.05,0,0,1,297.83,207Z" style="fill:#8C00FF"></path><path d="M297.83,207a14,14,0,0,1-14.19-13.87v0c-.23-9.4,1.74-22.87,2.23-27.4h23.91c.5,4.53,2.47,18,2.24,27.4v0A14.05,14.05,0,0,1,297.83,207Z" style="fill:#fff;opacity:0.30000000000000004"></path><path d="M311.56,193.13v0a13.73,13.73,0,0,1-27.46,0v0c-.09-3.11.08-7.33.38-11.71a4.19,4.19,0,0,1,0-.5c.2-1.79,1.5-3.57,3.88-5,5.21-3,13.67-3,18.88,0,2.41,1.4,3.69,3.18,3.88,5a3.59,3.59,0,0,1,0,.47C311.47,185.79,311.65,190,311.56,193.13Z" style="fill:#8C00FF"></path><path d="M311.56,193.13v0a13.73,13.73,0,0,1-27.46,0v0c-.09-3.11.08-7.33.38-11.71a4.19,4.19,0,0,1,0-.5c.2-1.79,1.5-3.57,3.88-5,5.21-3,13.67-3,18.88,0,2.41,1.4,3.69,3.18,3.88,5a3.59,3.59,0,0,1,0,.47C311.47,185.79,311.65,190,311.56,193.13Z" style="opacity:0.30000000000000004"></path><path d="M309.24,187.93c-.1-2.65-.36-6.89-.65-11.07a10.52,10.52,0,0,0-1.32-.91,15.15,15.15,0,0,0-2.62-1.15c.8,10.48,1.39,18.38-.33,23.47-1,2.89-3.78,5.13-5.36,8.25h0a13.91,13.91,0,0,0,1.83-.27l.36-.09c.32-.08.65-.17,1-.27l.6-.22,1.57-1.51C309.28,199.41,309.5,194.69,309.24,187.93Z" style="fill:#8C00FF;opacity:0.5"></path><path d="M288.65,169.89c-5.07-2.93-5.07-7.67,0-10.6s13.29-2.93,18.36,0,5.07,7.67,0,10.6S293.72,172.82,288.65,169.89Z" style="fill:#8C00FF"></path><path d="M288.65,169.89c-5.07-2.93-5.07-7.67,0-10.6s13.29-2.93,18.36,0,5.07,7.67,0,10.6S293.72,172.82,288.65,169.89Z" style="fill:#fff;opacity:0.6000000000000001"></path><path d="M297.83,170.94a17.48,17.48,0,0,1-8.61-2c-2.08-1.2-3.23-2.73-3.23-4.31s1.15-3.11,3.23-4.31a19.19,19.19,0,0,1,17.22,0c2.08,1.2,3.23,2.73,3.23,4.31s-1.15,3.11-3.23,4.31A17.48,17.48,0,0,1,297.83,170.94Z" style="fill:#8C00FF"></path><path d="M297.83,170.94a17.48,17.48,0,0,1-8.61-2c-2.08-1.2-3.23-2.73-3.23-4.31s1.15-3.11,3.23-4.31a19.19,19.19,0,0,1,17.22,0c2.08,1.2,3.23,2.73,3.23,4.31s-1.15,3.11-3.23,4.31A17.48,17.48,0,0,1,297.83,170.94Z" style="fill:#fff;opacity:0.30000000000000004"></path><path d="M311.18,181.41c0,2-1.3,3.94-3.91,5.44-5.21,3-13.67,3-18.88,0-2.6-1.5-3.91-3.47-3.91-5.44a4.19,4.19,0,0,1,0-.5c.2-1.79,1.5-3.57,3.88-5,5.21-3,13.67-3,18.88,0,2.41,1.4,3.69,3.18,3.88,5A3.59,3.59,0,0,1,311.18,181.41Z" style="fill:#8C00FF"></path><path d="M311.18,181.41c0,2-1.3,3.94-3.91,5.44-5.21,3-13.67,3-18.88,0-2.6-1.5-3.91-3.47-3.91-5.44a4.19,4.19,0,0,1,0-.5c.2-1.79,1.5-3.57,3.88-5,5.21-3,13.67-3,18.88,0,2.41,1.4,3.69,3.18,3.88,5A3.59,3.59,0,0,1,311.18,181.41Z" style="opacity:0.2"></path></g><path d="M304,171c1,15.15,2.52,20.76.33,27.25-1.39,4.12-6.49,6.92-6.49,12.83V230a8,8,0,0,0,1.12,4.45c.58,1.33-1,3-3.9,2.48a7.07,7.07,0,0,0,5.75.11c1.66-.94,1.45-2.49,0-3.76-1.27-1.12-1.85-.59-1.85-4.85V214c0-4.81,1.74-6.33,5.37-9.81,5-4.75,5.18-9.47,4.92-16.23s-1.57-18.46-1.57-18.46Z" style="fill:#fff;opacity:0.30000000000000004"></path></g></g><g id="freepik--Bottle--inject-33"><g id="freepik--wine-bottle--inject-33"><path id="freepik--shadow--inject-33" d="M374.82,240.09c9.59,5.54,9.59,14.51,0,20s-25.14,5.54-34.73,0-9.59-14.51,0-20S365.23,234.55,374.82,240.09Z" style="opacity:0.1"></path><g id="freepik--wine-bottle--inject-33"><path d="M351.52,141V122.69l5.93.24,5.93-.24V141a29.6,29.6,0,0,0,7.47,19.83c3,3.32,5.77,8.69,5.91,17.21v69.86h0c0,4.15-4.09,8.38-12.13,10.35a30.32,30.32,0,0,1-14.36,0c-8-2-12.08-6.2-12.12-10.35h0V178.05c.13-8.52,2.91-13.89,5.9-17.21A29.55,29.55,0,0,0,351.52,141Z" style="fill:#8C00FF"></path><path d="M351.52,141V122.69l5.93.24,5.93-.24V141a29.6,29.6,0,0,0,7.47,19.83c3,3.32,5.77,8.69,5.91,17.21v69.86h0c0,4.15-4.09,8.38-12.13,10.35a30.32,30.32,0,0,1-14.36,0c-8-2-12.08-6.2-12.12-10.35h0V178.05c.13-8.52,2.91-13.89,5.9-17.21A29.55,29.55,0,0,0,351.52,141Z" style="opacity:0.5"></path><path d="M374.57,173.84c-.37-2.21-2-4.36-5-6.06-6.71-3.87-17.6-3.87-24.32,0-3,1.76-4.71,4-5,6.31a21.66,21.66,0,0,1,5.14-12A31.45,31.45,0,0,0,353.39,141V124.63l4.06.17,4.07-.17V141a31.4,31.4,0,0,0,8,21.08A21.63,21.63,0,0,1,374.57,173.84Z" style="fill:#8C00FF;opacity:0.2"></path><path d="M374.89,178.08V247.9c0,3.61-4.24,7-10.7,8.55a28.45,28.45,0,0,1-13.48,0c-6.47-1.59-10.67-4.94-10.7-8.56V178.05a33.36,33.36,0,0,1,.29-4c.28-2.3,1.95-4.55,5-6.31,6.72-3.87,17.61-3.87,24.32,0,2.94,1.7,4.59,3.85,5,6.06v0a3,3,0,0,1,.06.42v.05A32.15,32.15,0,0,1,374.89,178.08Z" style="fill:#8C00FF"></path><path d="M374.89,178.08V247.9c0,3.61-4.24,7-10.7,8.55a28.45,28.45,0,0,1-13.48,0c-6.47-1.59-10.67-4.94-10.7-8.56V178.05a33.36,33.36,0,0,1,.29-4c.28-2.3,1.95-4.55,5-6.31,6.72-3.87,17.61-3.87,24.32,0,2.94,1.7,4.59,3.85,5,6.06v0a3,3,0,0,1,.06.42v.05A32.15,32.15,0,0,1,374.89,178.08Z" style="opacity:0.30000000000000004"></path><path d="M369.61,181.83c-6.71,3.87-17.6,3.87-24.32,0-3.67-2.12-5.34-5-5-7.74.28-2.3,1.95-4.55,5-6.31,6.72-3.87,17.61-3.87,24.32,0,2.94,1.7,4.59,3.85,5,6.06v0a3,3,0,0,1,.06.42v.05C374.85,177,373.18,179.77,369.61,181.83Z" style="fill:#8C00FF;opacity:0.2"></path><path d="M369.36,253.46c-6.58,3.8-17.24,3.8-23.81,0-3.6-2.07-5.23-4.85-4.89-7.57.28-2.25,1.91-4.45,4.89-6.17,6.57-3.8,17.23-3.8,23.81,0,2.87,1.66,4.48,3.76,4.85,5.93h0l.06.42v0C374.49,248.77,372.85,251.45,369.36,253.46Z" style="fill:#8C00FF;opacity:0.2"></path><path d="M358.31,259c-8.14,0-13.85-5.92-13.85-10.26v-55c0-16.28-.28-21,6.14-32.11,5.64-9.76,5.5-13.95,5.39-38.7l-4.47-.18V141a29.55,29.55,0,0,1-7.47,19.83c-3,3.32-5.77,8.69-5.9,17.21v69.86c0,4.15,4.08,8.38,12.12,10.35a30.67,30.67,0,0,0,8,.85Z" style="opacity:0.2"></path><path d="M360.26,143V122.81l-1.95.08v21.79a38,38,0,0,0,4.5,16.52c2.54,4.44,6,8,6,20.74v74.94a18.81,18.81,0,0,0,3.82-2.13v-75.6c0-6-2.76-12.4-7.18-18.75A28.73,28.73,0,0,1,360.26,143Z" style="fill:#8C00FF;opacity:0.30000000000000004"></path><path d="M351.12,120.39a1,1,0,0,1,0-.17A3,3,0,0,1,353,117.5a9.87,9.87,0,0,1,8.95,0,3.72,3.72,0,0,1,1.63,1.68,1.62,1.62,0,0,1,.1.18l0,.13a1.43,1.43,0,0,1,.09.42v9.56a3.13,3.13,0,0,1-1.85,2.61,9.87,9.87,0,0,1-8.95,0,3.39,3.39,0,0,1-1.79-2.2.68.68,0,0,1-.07-.2Z" style="fill:#37474f"></path><path d="M363,131.28a6.77,6.77,0,0,1-4.92,1.18c-1.54-.25-3-1-3-2.81v-13a7.75,7.75,0,0,0-2.07.8,3,3,0,0,0-1.83,2.72,1,1,0,0,0,0,.17v9.29a.68.68,0,0,0,.07.2,3.39,3.39,0,0,0,1.79,2.2,9.87,9.87,0,0,0,8.95,0A5.35,5.35,0,0,0,363,131.28Z" style="fill:#263238"></path><path d="M353,122.67a9.87,9.87,0,0,0,8.95,0c2.47-1.43,2.47-3.74,0-5.17a9.87,9.87,0,0,0-8.95,0C350.51,118.93,350.51,121.24,353,122.67Z" style="fill:#455a64"></path></g><path d="M364.63,197.74a30.32,30.32,0,0,1-14.36,0c-8-2-12.08-6.2-12.12-10.35v35.22c0,4.16,4.08,8.39,12.12,10.35a30.19,30.19,0,0,0,14.36,0c8-2,12.09-6.2,12.13-10.36V187.39C376.72,191.54,372.67,195.77,364.63,197.74Z" style="fill:#fff"></path><path d="M344.46,230.83V195.61c-4.18-2.2-6.28-5.23-6.31-8.22v35.22C338.18,225.61,340.28,228.64,344.46,230.83Z" style="fill:#e0e0e0"></path><ellipse cx="358.1" cy="200.12" rx="8.07" ry="9.61" style="fill:#8C00FF"></ellipse><path d="M357.52,207.88a5.93,5.93,0,0,1-2.62-1,7.12,7.12,0,0,1-1.94-2,9.32,9.32,0,0,1-.72-8.24,8,8,0,0,1,1.49-2.45,7.78,7.78,0,0,0-1.66,2.38,9.31,9.31,0,0,0-.74,2.84,9.13,9.13,0,0,0,1.32,5.67,7.43,7.43,0,0,0,2.06,2.12,5.89,5.89,0,0,0,2.78,1,5.69,5.69,0,0,0,3.13-.58,6.92,6.92,0,0,0,2-1.63,7.31,7.31,0,0,1-2.06,1.47A5.36,5.36,0,0,1,357.52,207.88Zm7.37-8.53a10.05,10.05,0,0,0-.16-1.45,8.27,8.27,0,0,0-1-2.76,6.08,6.08,0,0,0-4.8-3,6.57,6.57,0,0,0-1.47,0,5.73,5.73,0,0,0-1.41.36,6.24,6.24,0,0,0-2.35,1.67,6.14,6.14,0,0,1,5.19-1.76,6.43,6.43,0,0,1,2.63.93,5.87,5.87,0,0,1,1.89,2,10,10,0,0,1,1.14,5.46,8.78,8.78,0,0,1-.58,2.77,8,8,0,0,1-1.41,2.4,8.21,8.21,0,0,0,2.28-5.15A8.78,8.78,0,0,0,364.89,199.35Z" style="fill:#8C00FF"></path><path d="M357.52,207.88a5.93,5.93,0,0,1-2.62-1,7.12,7.12,0,0,1-1.94-2,9.32,9.32,0,0,1-.72-8.24,8,8,0,0,1,1.49-2.45,7.78,7.78,0,0,0-1.66,2.38,9.31,9.31,0,0,0-.74,2.84,9.13,9.13,0,0,0,1.32,5.67,7.43,7.43,0,0,0,2.06,2.12,5.89,5.89,0,0,0,2.78,1,5.69,5.69,0,0,0,3.13-.58,6.92,6.92,0,0,0,2-1.63,7.31,7.31,0,0,1-2.06,1.47A5.36,5.36,0,0,1,357.52,207.88Zm7.37-8.53a10.05,10.05,0,0,0-.16-1.45,8.27,8.27,0,0,0-1-2.76,6.08,6.08,0,0,0-4.8-3,6.57,6.57,0,0,0-1.47,0,5.73,5.73,0,0,0-1.41.36,6.24,6.24,0,0,0-2.35,1.67,6.14,6.14,0,0,1,5.19-1.76,6.43,6.43,0,0,1,2.63.93,5.87,5.87,0,0,1,1.89,2,10,10,0,0,1,1.14,5.46,8.78,8.78,0,0,1-.58,2.77,8,8,0,0,1-1.41,2.4,8.21,8.21,0,0,0,2.28-5.15A8.78,8.78,0,0,0,364.89,199.35Z" style="opacity:0.30000000000000004"></path></g></g><g id="freepik--Candle--inject-33"><g id="freepik--candle--inject-33"><ellipse id="freepik--shadow--inject-33" cx="403.41" cy="275.26" rx="20.29" ry="11.72" style="opacity:0.1"></ellipse><g id="freepik--candle--inject-33"><path d="M414.37,265.06c-6.05,3.49-15.86,3.49-21.92,0s-6.05-9.16,0-12.66,15.87-3.49,21.92,0S420.42,261.56,414.37,265.06Z" style="fill:#8C00FF"></path><path d="M414.37,265.06c-6.05,3.49-15.86,3.49-21.92,0s-6.05-9.16,0-12.66,15.87-3.49,21.92,0S420.42,261.56,414.37,265.06Z" style="opacity:0.15"></path><g id="freepik--candle--inject-33"><path d="M417.38,252.1c0-2-1.36-4-4-5.59-5.39-3.11-14.12-3.11-19.51,0-2.68,1.54-4,3.57-4,5.59h0v15.34c0,2,1.34,4,4,5.58,5.39,3.07,14.12,3.07,19.5,0a9.32,9.32,0,0,0,3-2.62,5.06,5.06,0,0,0,1-3V252.1Z" style="fill:#8C00FF"></path><path d="M417.38,252.1c0-2-1.36-4-4-5.59-5.39-3.11-14.12-3.11-19.51,0-2.68,1.54-4,3.57-4,5.59h0v15.34c0,2,1.34,4,4,5.58,5.39,3.07,14.12,3.07,19.5,0a9.32,9.32,0,0,0,3-2.62,5.06,5.06,0,0,0,1-3V252.1Z" style="fill:#fff;opacity:0.2"></path><ellipse cx="403.59" cy="252.14" rx="13.79" ry="7.96" style="fill:#8C00FF"></ellipse><ellipse cx="403.59" cy="252.14" rx="13.79" ry="7.96" style="fill:#fff;opacity:0.5"></ellipse><path d="M415.81,252.64c-.21-1.63-1.39-3.23-3.55-4.48-4.79-2.76-12.55-2.76-17.33,0-2.17,1.25-3.35,2.85-3.55,4.49-.26-2,.93-4,3.55-5.51,4.78-2.76,12.54-2.76,17.33,0C414.87,248.65,416.05,250.67,415.81,252.64Z" style="fill:#8C00FF;opacity:0.30000000000000004"></path><path d="M412.26,248.16c-4.79-2.76-12.55-2.76-17.33,0-2.17,1.25-3.35,2.86-3.56,4.49.21,1.64,1.39,3.24,3.56,4.49,4.78,2.77,12.54,2.77,17.33,0,2.16-1.25,3.35-2.85,3.55-4.49C415.61,251,414.42,249.41,412.26,248.16Z" style="fill:#fff;opacity:0.2"></path><path d="M413.87,252.6c-1.42,0-2.75-.63-4.21-2.87s-3.23-4-6.07-4-4.6,1.82-6.06,4-2.79,2.87-4.21,2.87c0,0,1,4.53,10.22,4.53S413.87,252.6,413.87,252.6Z" style="fill:#8C00FF"></path><path d="M413.87,252.6c-1.42,0-2.75-.63-4.21-2.87s-3.23-4-6.07-4-4.6,1.82-6.06,4-2.79,2.87-4.21,2.87c0,0,1,4.53,10.22,4.53S413.87,252.6,413.87,252.6Z" style="fill:#fff;opacity:0.5"></path><path d="M408.63,248.21a10,10,0,0,0-2.9-2.28,5.45,5.45,0,0,0-2.85-.38,6.49,6.49,0,0,0-2.92,1.17,13.26,13.26,0,0,0-2.46,2.72c-.41.53-.82,1.08-1.27,1.58a4.23,4.23,0,0,1-.66.61c-.25.18-.52.29-.77.46-.05,0,0,.14,0,.14.92.13,1.74-.77,2.26-1.4.78-1,1.5-2,2.33-2.89a5.86,5.86,0,0,1,5.42-1.88,8.85,8.85,0,0,1,3.77,2.2S408.64,248.22,408.63,248.21Z" style="fill:#8C00FF"></path><path d="M408.63,248.21a10,10,0,0,0-2.9-2.28,5.45,5.45,0,0,0-2.85-.38,6.49,6.49,0,0,0-2.92,1.17,13.26,13.26,0,0,0-2.46,2.72c-.41.53-.82,1.08-1.27,1.58a4.23,4.23,0,0,1-.66.61c-.25.18-.52.29-.77.46-.05,0,0,.14,0,.14.92.13,1.74-.77,2.26-1.4.78-1,1.5-2,2.33-2.89a5.86,5.86,0,0,1,5.42-1.88,8.85,8.85,0,0,1,3.77,2.2S408.64,248.22,408.63,248.21Z" style="fill:#fff;opacity:0.8"></path><path d="M405,248.32a3.28,3.28,0,0,1-2.9,0,.87.87,0,0,1,0-1.66,3.28,3.28,0,0,1,2.9,0A.87.87,0,0,1,405,248.32Z" style="fill:#8C00FF;opacity:0.5"></path><g id="freepik--Flame--inject-33"><path d="M403.69,243.32c2.08-.15,3.6-2.45,2.14-5.69s-2.36-5-1.82-8.23a19.78,19.78,0,0,0-2.43,4.84,17.7,17.7,0,0,0-1.12,4.66C400.24,241.87,401.71,243.32,403.69,243.32Z" style="fill:#8C00FF"></path><path d="M403.69,243.32c2.08-.15,3.6-2.45,2.14-5.69s-2.36-5-1.82-8.23a19.78,19.78,0,0,0-2.43,4.84,17.7,17.7,0,0,0-1.12,4.66C400.24,241.87,401.71,243.32,403.69,243.32Z" style="fill:#fff;opacity:0.6000000000000001"></path><path d="M403.65,243.12c.67-.05,1.36-.85,1.69-1.48a4.42,4.42,0,0,0-.24-3.69l-.23-.51a18.39,18.39,0,0,1-1.72-4.93,20.93,20.93,0,0,0-.81,2,17,17,0,0,0-1.08,4.45,4.1,4.1,0,0,0,.64,3A3,3,0,0,0,403.65,243.12Z" style="fill:#fff;opacity:0.8"></path><path d="M403.75,243a2.07,2.07,0,0,0,.81-2.18c-.2-1.05-1.21-2.43-1.21-2.9a8.56,8.56,0,0,0-1,2.73A2.17,2.17,0,0,0,403.75,243Z" style="fill:#8C00FF"></path><path d="M403.75,243a2.07,2.07,0,0,0,.81-2.18c-.2-1.05-1.21-2.43-1.21-2.9a8.56,8.56,0,0,0-1,2.73A2.17,2.17,0,0,0,403.75,243Z" style="opacity:0.15"></path><path d="M403.69,247.89a.55.55,0,0,0,.46-.37,4.91,4.91,0,0,0,.17-.5,3.63,3.63,0,0,0,.09-1,6.78,6.78,0,0,0-.1-1c-.06-.32-.12-.64-.19-1-.14-.63-.31-1.24-.41-1.86a9.24,9.24,0,0,1-.09-1.9h-.06a8.36,8.36,0,0,0-.21,1.94,17.32,17.32,0,0,0,.16,1.93l.09.95a6.91,6.91,0,0,1,0,.91q0,.43-.12.87c0,.14-.05.29-.09.43a.62.62,0,0,0,.11.51Z" style="fill:#37474f"></path></g></g><g id="freepik--Jar--inject-33"><path d="M416.29,263.69a11,11,0,0,1-1.91,1.37,19.61,19.61,0,0,1-6.82,2.27,25.75,25.75,0,0,1-8.31,0,11.21,11.21,0,0,1-1.31-.24,16,16,0,0,1-2.24-.61,13.32,13.32,0,0,1-1.83-.7,15.68,15.68,0,0,1-1.42-.72A12,12,0,0,1,390,263.2a6.33,6.33,0,0,1-2.07-4.47v14.89a6.24,6.24,0,0,0,1.93,4.29l-.15-.13a2.64,2.64,0,0,0,.29.29c.08.1.17.18.27.29s.24.22.38.32a3,3,0,0,0,.46.36,1.58,1.58,0,0,0,.29.22,3.75,3.75,0,0,0,.36.24c.22.16.46.31.7.45.46.25.92.49,1.4.71h0a11.16,11.16,0,0,0,1.83.7,23.06,23.06,0,0,0,2.24.62,26.16,26.16,0,0,0,10.54.09l.07,0a.37.37,0,0,0,.14,0c.41-.08.82-.17,1.23-.29a1.31,1.31,0,0,0,.27-.06,10.08,10.08,0,0,0,1.21-.4.77.77,0,0,0,.26-.07c.46-.17.92-.35,1.37-.56s.92-.44,1.35-.68c3-1.75,4.53-4,4.53-6.33V259.16A6.82,6.82,0,0,1,416.29,263.69Z" style="fill:#8C00FF"></path><path d="M416.29,263.69a11,11,0,0,1-1.91,1.37,19.61,19.61,0,0,1-6.82,2.27,25.75,25.75,0,0,1-8.31,0,11.21,11.21,0,0,1-1.31-.24,16,16,0,0,1-2.24-.61,13.32,13.32,0,0,1-1.83-.7,15.68,15.68,0,0,1-1.42-.72A12,12,0,0,1,390,263.2a6.33,6.33,0,0,1-2.07-4.47v14.89a6.24,6.24,0,0,0,1.93,4.29l-.15-.13a2.64,2.64,0,0,0,.29.29c.08.1.17.18.27.29s.24.22.38.32a3,3,0,0,0,.46.36,1.58,1.58,0,0,0,.29.22,3.75,3.75,0,0,0,.36.24c.22.16.46.31.7.45.46.25.92.49,1.4.71h0a11.16,11.16,0,0,0,1.83.7,23.06,23.06,0,0,0,2.24.62,26.16,26.16,0,0,0,10.54.09l.07,0a.37.37,0,0,0,.14,0c.41-.08.82-.17,1.23-.29a1.31,1.31,0,0,0,.27-.06,10.08,10.08,0,0,0,1.21-.4.77.77,0,0,0,.26-.07c.46-.17.92-.35,1.37-.56s.92-.44,1.35-.68c3-1.75,4.53-4,4.53-6.33V259.16A6.82,6.82,0,0,1,416.29,263.69Z" style="fill:#fff;opacity:0.5"></path><path d="M393.87,265.78v14.88h0c-.48-.22-.94-.46-1.4-.71-.24-.14-.48-.29-.7-.45l-.65-.46a9.76,9.76,0,0,1-1.11-1V263.2a12,12,0,0,0,2.46,1.86A15.68,15.68,0,0,0,393.87,265.78Z" style="fill:#fff;opacity:0.4"></path><path d="M395.7,266.48a16,16,0,0,0,2.24.61V282a23.06,23.06,0,0,1-2.24-.62Z" style="fill:#fff;opacity:0.4"></path><path d="M418.91,259.16v14.46c0,2.29-1.51,4.58-4.53,6.33-.43.24-.89.47-1.35.68s-.91.39-1.37.56a.77.77,0,0,1-.26.07,10.08,10.08,0,0,1-1.21.4,1.31,1.31,0,0,1-.27.06c-.41.12-.82.21-1.23.29a.37.37,0,0,1-.14,0l-.07,0a26.16,26.16,0,0,1-10.54-.09,23.06,23.06,0,0,1-2.24-.62,11.16,11.16,0,0,1-1.83-.7h0c-.48-.22-.94-.46-1.4-.71-.24-.14-.48-.29-.7-.45a3.75,3.75,0,0,1-.36-.24,1.58,1.58,0,0,1-.29-.22,3,3,0,0,1-.46-.36c-.14-.1-.26-.22-.38-.32s-.19-.19-.27-.29a2.64,2.64,0,0,1-.29-.29l.15.13a.81.81,0,0,0,.14.12,12,12,0,0,0,3.88,2,16.29,16.29,0,0,0,1.83.51,21.64,21.64,0,0,0,2.24.45,26.06,26.06,0,0,0,3.41.24,19.51,19.51,0,0,0,3.73-.35c5.33-1,8.56-4.44,8.56-6.87v-5.95c-.42.19-.85.38-1.29.53a26.92,26.92,0,0,1-14.41,1,21.56,21.56,0,0,1-2.24-.56,9.38,9.38,0,0,1-1.23-.43,2.59,2.59,0,0,1-.6-.24,16.14,16.14,0,0,1-2.09-1,17.45,17.45,0,0,1-1.79-1.23,9.5,9.5,0,0,1-2.07-2.35v-5.06A6.33,6.33,0,0,0,390,263.2a12,12,0,0,0,2.46,1.86,15.68,15.68,0,0,0,1.42.72,13.32,13.32,0,0,0,1.83.7,16,16,0,0,0,2.24.61,11.21,11.21,0,0,0,1.31.24,25.75,25.75,0,0,0,8.31,0,19.61,19.61,0,0,0,6.82-2.27,11,11,0,0,0,1.91-1.37A6.82,6.82,0,0,0,418.91,259.16Z" style="fill:#8C00FF;opacity:0.2"></path><path d="M418.91,259.16v14.46c0,2.29-1.51,4.58-4.53,6.33-.43.24-.89.47-1.35.68s-.91.39-1.37.56a.77.77,0,0,1-.26.07,10.08,10.08,0,0,1-1.21.4,1.31,1.31,0,0,1-.27.06c-.41.12-.82.21-1.23.29a12.12,12.12,0,0,0,5.6-3.24,6.45,6.45,0,0,0,2-4v-11A6.82,6.82,0,0,0,418.91,259.16Z" style="opacity:0.1"></path><path d="M414.29,278.77a6.45,6.45,0,0,1-.82.46,24.15,24.15,0,0,1-12.12,2,22.23,22.23,0,0,1-3.41-.48,21.56,21.56,0,0,1-2.24-.58,15.84,15.84,0,0,1-1.83-.72c-.19-.07-.36-.16-.53-.24a8.69,8.69,0,0,1-3.35-2.69,3.86,3.86,0,0,1,0-4.75,8.56,8.56,0,0,1,3.35-2.66,4.27,4.27,0,0,1,.53-.24,5.5,5.5,0,0,1,.6-.28c.39-.15.8-.3,1.23-.44a17.49,17.49,0,0,1,2.24-.58c.42-.1.87-.19,1.31-.26a25.75,25.75,0,0,0,8.31,0,22.56,22.56,0,0,1,4.79,1.28c.39.16.76.33,1.12.52a.75.75,0,0,1,.17.1,8.79,8.79,0,0,1,2.65,1.91C418.62,273.62,418,276.61,414.29,278.77Z" style="fill:#8C00FF;opacity:0.30000000000000004"></path></g></g></g></g><g id="freepik--Spoon--inject-33"><g id="freepik--spoon--inject-33"><path id="freepik--shadow--inject-33" d="M136.14,327a.28.28,0,0,0,0,.09s0,0,0,0l0,.08,0,0,.07.08,0,0,.13.09h0l45.6,25.2a6.46,6.46,0,0,0-1.19,3.29,2.81,2.81,0,0,0,0,.29v0h0a7.11,7.11,0,0,0,3.18,5.41c6.51,4.66,16.85,5.77,21.74,2.94a3.45,3.45,0,0,0,1.83-4h0a13.54,13.54,0,0,0-3.79-6.39l0,0-.47-.48-.06-.06-.57-.54a17.83,17.83,0,0,0-4.4-3.08,13.24,13.24,0,0,0-1.44-.61,16.68,16.68,0,0,0-2.39-.64,20.46,20.46,0,0,0-3.72-.32,11.34,11.34,0,0,0-6,1.66l-43.4-26.17c-1.37-.79-5.23,1.22-5.23,2.37,0,.11,0,.57,0,.69Z" style="fill:#8C00FF;opacity:0.2"></path><g id="freepik--tea-spoon--inject-33"><path d="M206,359.89h0c-1.51,1.22-3.24,2.4-7.32,2.59s-9.65-.66-13.9-3.74c-4.08-2.95-3.77-6.44-3.16-8,.06-.08.77-1.26.84-1.34l2.55-1.87a15.65,15.65,0,0,1,7.65-1.27c5.84.57,12.64,4.38,14.51,9.53A3.34,3.34,0,0,1,206,359.89Z" style="fill:#e0e0e0"></path><path d="M206,359.89h0c-1.51,1.22-3.24,2.4-7.32,2.59s-9.65-.66-13.9-3.74c-4.08-2.95-3.77-6.44-3.16-8,.06-.08.77-1.26.84-1.34l2.55-1.87a15.65,15.65,0,0,1,7.65-1.27c5.84.57,12.64,4.38,14.51,9.53A3.34,3.34,0,0,1,206,359.89Z" style="opacity:0.15"></path><path d="M138.45,325.73l44.74,24.73a13.67,13.67,0,0,1,2.85-1.65v-.66l-42.83-25.83c-1.32-.77-5.06,1.18-5.06,2.3v.66A.5.5,0,0,0,138.45,325.73Z" style="fill:#e0e0e0"></path><path d="M138.45,325.73l44.74,24.73a13.17,13.17,0,0,1,2.85-1.65v-.66l-42.83-25.83c-1.32-.77-5.06,1.18-5.06,2.3v.66A.5.5,0,0,0,138.45,325.73Z" style="opacity:0.25"></path><path d="M143.21,322.32c-1.53-.89-6.3,1.86-4.76,2.75l44.74,24.73a13.27,13.27,0,0,1,2.85-1.65Z" style="fill:#f0f0f0"></path><path d="M182.92,349.1,142.78,327c-3.05-1.67-4.91-2.43-3-3.55,2.28-1.32,2.83-.73,2.83-.73a5,5,0,0,0-2.13.73c-1.15.73-.15,1.71,2.09,2.78S182.92,349.1,182.92,349.1Z" style="fill:#fafafa"></path><path d="M184.83,356.39c4.84,3.33,16,6.25,20.7,3.52s-.32-9.16-6.09-12-11-2.43-14.93-.18S180,353.1,184.83,356.39Z" style="fill:#e6e6e6"></path><path d="M191.4,346.26a18.14,18.14,0,0,1,7.92,1.94c4.28,2.07,7.71,5.85,7.81,8.61a3.06,3.06,0,0,1-1.74,2.86,10.13,10.13,0,0,1-5,1,31.23,31.23,0,0,1-15.4-4.55c-2.24-1.54-3.35-3.06-3.29-4.52.05-1.29,1.07-2.55,2.95-3.63a13.48,13.48,0,0,1,6.76-1.75m0-.28a13.69,13.69,0,0,0-6.89,1.79c-3.9,2.25-4.47,5.33.32,8.62a31.56,31.56,0,0,0,15.55,4.6,10.46,10.46,0,0,0,5.15-1.08c4.74-2.74-.32-9.16-6.09-12a18.46,18.46,0,0,0-8-2Z" style="fill:#e0e0e0"></path><path d="M206.93,358.6c-.82-2.7-4.65-6.16-8.41-8-5.32-2.66-9.69-2.53-12.47-.63s-2.62,4.65,2,7.76a24.32,24.32,0,0,0,2.87,1.59c5.15,1.73,11.33,2.49,14.56.63A4,4,0,0,0,206.93,358.6Z" style="fill:#f0f0f0"></path><path d="M190.3,357.16c3.34,2.23,10.34,4.34,12.74,2.7s-1.54-5.85-5.35-7.75-6.88-1.8-8.85-.45S187,355,190.3,357.16Z" style="fill:#fafafa"></path></g></g></g><g id="freepik--speech-bubble--inject-33"><g id="freepik--speech-bubble--inject-33"><g id="freepik--speech-bubble--inject-33"><path d="M333.43,108a31.78,31.78,0,0,1-22.82,5l-3.56-.78a31.8,31.8,0,0,1,12.08-62.23l3.59.61A31.8,31.8,0,0,1,333.43,108Z" style="fill:#fff"></path><path d="M344.25,62.34a34.52,34.52,0,0,0-60,33.59l-6.13,8.81a2,2,0,0,0,2.1,3.1l10.46-2.38a34.52,34.52,0,0,0,53.61-43.12ZM333.43,108a31.78,31.78,0,0,1-22.82,5l-3.56-.78a31.8,31.8,0,0,1,12.08-62.23l3.59.61A31.8,31.8,0,0,1,333.43,108Z" style="fill:#455a64"></path><path d="M333.43,108a31.78,31.78,0,0,1-22.82,5l-3.56-.78a31.8,31.8,0,0,1,12.08-62.23l3.59.61A31.8,31.8,0,0,1,333.43,108Z" style="fill:#fff;opacity:0.7000000000000001"></path></g><path id="freepik--Heart--inject-33" d="M315.4,99.06c-21.33-11.67-22.92-24-16.62-29.88,5.65-5.31,15.83-1.65,16.88,6,1.23-7.67,11.49-11.1,17-5.66C338.84,75.62,337,87.87,315.4,99.06Z" style="fill:#8C00FF"></path></g></g><g id="freepik--Ingredients--inject-33"><g id="freepik--ingredients--inject-33"><path d="M456.9,399.66c9.16,2.33,17.51,7.17,25.05,12.88-3,.67-5.49,2.83-8,4.7-9.39,7.11-19.87,9.78-33.16,7.61a37.41,37.41,0,0,1-15.06-6.23c-5.33-3.89-7.24-6.08-8.92-9.26A44.58,44.58,0,0,1,456.9,399.66Z" style="fill:#37474f"></path><path d="M427.71,409.54c5.05-3.77,12.27-4.63,18.43-4.43a58.12,58.12,0,0,1,9.84,1.18c3.1.64,6.6,1.33,9.25,3.16.21.15,0,.71-.28.68-3.18-.34-6.25-1.46-9.39-2.06a51.91,51.91,0,0,0-9-.95,48,48,0,0,0-9.19.64c-3.28.59-6.41,1.79-9.69,2.42C427.39,410.24,427.59,409.63,427.71,409.54Z" style="fill:#263238"></path><path d="M441.77,391.74c6.91-10.9,9.76-20.44,11.48-33.24-15.87,2.48-33.5,8.9-42.11,21.53s-7.87,21.74-5.54,30c2.4.73,10.9.66,16.92-1.37C431.53,405.62,436.57,399.94,441.77,391.74Z" style="fill:#455a64"></path><path d="M424.69,381.84c2.67-2.74,5.48-5.32,8.39-7.8,3.27-2.79,6.86-4.93,10.36-7.38.42-.29.65.24.3.52-2.94,2.38-5.57,5.25-8.37,7.81s-5.55,5.25-8.22,8-5,5.3-7.35,8.06c-1.23,1.44-2.46,2.87-3.73,4.27-1.55,1.7-3.3,3.18-4.83,4.91-.2.23-.52.12-.34-.19.91-1.64,1.6-3.42,2.64-5s2.31-3.28,3.58-4.83C419.5,387.29,422.07,384.53,424.69,381.84Z" style="fill:#37474f"></path><path d="M376.58,448.37c0-6.12-4-12.24-12.12-16.9-16.17-9.34-42.38-9.34-58.55,0-8.09,4.66-12.13,10.78-12.13,16.9v5.2c0,6.12,4,12.23,12.13,16.9,16.17,9.34,42.38,9.34,58.55,0,8.08-4.67,12.12-10.78,12.12-16.9Zm-15,11.35c-7,4-16.33,6.24-26.36,6.24s-19.39-2.21-26.36-6.24c-5.08-2.93-8.29-6.48-9.3-10.19,1-3.71,4.22-7.26,9.3-10.19,7-4,16.34-6.24,26.36-6.24s19.39,2.22,26.36,6.24c5.08,2.93,8.3,6.48,9.31,10.19C369.84,453.24,366.62,456.79,361.54,459.72Z" style="fill:#8C00FF"></path><path d="M364.46,431.47c-8.35-4.82-19.37-7.15-30.31-7v8.65c.34,0,.68,0,1,0,10,0,19.39,2.22,26.36,6.24,5.08,2.93,8.3,6.48,9.31,10.19-1,3.71-4.23,7.26-9.31,10.19-7,4-16.33,6.24-26.36,6.24-.35,0-.69,0-1,0v11.53c10.94.16,22-2.17,30.31-7,8.08-4.67,12.12-10.78,12.12-16.9v-5.2C376.58,442.25,372.54,436.13,364.46,431.47Z" style="opacity:0.1"></path><path d="M361.54,434.28c-7-4-16.34-6.24-26.35-6.24s-19.4,2.21-26.37,6.24c-6.22,3.59-9.65,8.11-9.65,12.72a6,6,0,0,0,.05.84.2.2,0,0,0,0,.07,5.62,5.62,0,0,0,.06.56c0,.14,0,.29.08.43s.09.42.14.63c1,3.72,4.24,7.26,9.31,10.19,7,4,16.34,6.25,26.37,6.25s19.38-2.23,26.35-6.25c5.07-2.93,8.3-6.47,9.31-10.19.06-.25.13-.51.18-.77a1,1,0,0,0,0-.17c0-.22.07-.45.09-.68a.2.2,0,0,0,0-.07,8,8,0,0,0,0-.84C371.19,442.39,367.77,437.87,361.54,434.28Z" style="fill:#8C00FF"></path><path d="M361.54,434.28c-7-4-16.34-6.24-26.35-6.24s-19.4,2.21-26.37,6.24c-6.22,3.59-9.65,8.11-9.65,12.72a6,6,0,0,0,.05.84.2.2,0,0,0,0,.07,5.62,5.62,0,0,0,.06.56c0,.14,0,.29.08.43s.09.42.14.63c1,3.72,4.24,7.26,9.31,10.19,7,4,16.34,6.25,26.37,6.25s19.38-2.23,26.35-6.25c5.07-2.93,8.3-6.47,9.31-10.19.06-.25.13-.51.18-.77a1,1,0,0,0,0-.17c0-.22.07-.45.09-.68a.2.2,0,0,0,0-.07,8,8,0,0,0,0-.84C371.19,442.39,367.77,437.87,361.54,434.28Z" style="opacity:0.1"></path><path d="M364.19,431.62c-16-9.24-42-9.24-58,0-8,4.63-12,10.69-12,16.75s4,12.12,12,16.74c16,9.25,42,9.25,58,0,8-4.62,12-10.68,12-16.74S372.19,436.25,364.19,431.62Zm-55.12,2.78c6.9-4,16.18-6.18,26.11-6.18h0a2.86,2.86,0,0,1,2.76,3.53l-2.67,11.52c-.11.48-1.17.65-1.68.27l-4-2.91a1.61,1.61,0,0,1-.69-1l-.16-.79c-.15-.76-1.1-1.43-2.52-1.63a5,5,0,0,0-3.15.55l-5.83,3.37a1.48,1.48,0,0,0-.08,2.73h0a4.42,4.42,0,0,0,1.94.55l1.37.09a4.76,4.76,0,0,1,1.66.4l5,2.31c.66.3.37.9-.46,1l-24.12,1.87a2.88,2.88,0,0,1-3.11-2.74V447C299.51,442.44,302.9,438,309.07,434.4Zm26.11,31.4c-9.93,0-19.21-2.2-26.11-6.18-.42-.24-.82-.49-1.21-.73a2.88,2.88,0,0,1,.93-5.21l18.46-4.38c.77-.18,1.55.26,1.24.71l-2.37,3.45a2.51,2.51,0,0,1-1.09.82l-1.11.48c-1.06.45-1.59,1.26-1.19,2.07a3.23,3.23,0,0,0,2.4,1.3l8.29,1.28c1.75.27,3.47-.35,3.83-1.37a1.17,1.17,0,0,0-.16-1.25l-.54-.73a1.17,1.17,0,0,1-.24-1l.95-3.66c.13-.48,1.18-.64,1.69-.26l10.84,8.11a2.89,2.89,0,0,1-1.12,5.13A61.78,61.78,0,0,1,335.18,465.8Zm27.46-7a2.79,2.79,0,0,1-2.76.22l-19.55-8.7c-.67-.3-.39-.91.44-1l6.35-.54a5.55,5.55,0,0,1,1.78.14l1.27.31a5.23,5.23,0,0,0,3.58-.37,1.46,1.46,0,0,0,.87-1.93l-2.11-4.54c-.47-1-2.3-1.67-4.08-1.46h0a3.94,3.94,0,0,0-1.79.7l-.82.64a3.81,3.81,0,0,1-1.44.63l-6,1.36c-.77.17-1.54-.27-1.22-.72l9-12.63a2.93,2.93,0,0,1,3-1.13,44.83,44.83,0,0,1,12.09,4.6c6.16,3.57,9.56,8,9.56,12.61C370.86,451.24,368,455.38,362.64,458.8Z" style="fill:#8C00FF"></path><g style="opacity:0.30000000000000004"><path d="M364.19,431.62c-16-9.24-42-9.24-58,0-8,4.63-12,10.69-12,16.75s4,12.12,12,16.74c16,9.25,42,9.25,58,0,8-4.62,12-10.68,12-16.74S372.19,436.25,364.19,431.62Zm-55.12,2.78c6.9-4,16.18-6.18,26.11-6.18h0a2.86,2.86,0,0,1,2.76,3.53l-2.67,11.52c-.11.48-1.17.65-1.68.27l-4-2.91a1.61,1.61,0,0,1-.69-1l-.16-.79c-.15-.76-1.1-1.43-2.52-1.63a5,5,0,0,0-3.15.55l-5.83,3.37a1.48,1.48,0,0,0-.08,2.73h0a4.42,4.42,0,0,0,1.94.55l1.37.09a4.76,4.76,0,0,1,1.66.4l5,2.31c.66.3.37.9-.46,1l-24.12,1.87a2.88,2.88,0,0,1-3.11-2.74V447C299.51,442.44,302.9,438,309.07,434.4Zm26.11,31.4c-9.93,0-19.21-2.2-26.11-6.18-.42-.24-.82-.49-1.21-.73a2.88,2.88,0,0,1,.93-5.21l18.46-4.38c.77-.18,1.55.26,1.24.71l-2.37,3.45a2.51,2.51,0,0,1-1.09.82l-1.11.48c-1.06.45-1.59,1.26-1.19,2.07a3.23,3.23,0,0,0,2.4,1.3l8.29,1.28c1.75.27,3.47-.35,3.83-1.37a1.17,1.17,0,0,0-.16-1.25l-.54-.73a1.17,1.17,0,0,1-.24-1l.95-3.66c.13-.48,1.18-.64,1.69-.26l10.84,8.11a2.89,2.89,0,0,1-1.12,5.13A61.78,61.78,0,0,1,335.18,465.8Zm27.46-7a2.79,2.79,0,0,1-2.76.22l-19.55-8.7c-.67-.3-.39-.91.44-1l6.35-.54a5.55,5.55,0,0,1,1.78.14l1.27.31a5.23,5.23,0,0,0,3.58-.37,1.46,1.46,0,0,0,.87-1.93l-2.11-4.54c-.47-1-2.3-1.67-4.08-1.46h0a3.94,3.94,0,0,0-1.79.7l-.82.64a3.81,3.81,0,0,1-1.44.63l-6,1.36c-.77.17-1.54-.27-1.22-.72l9-12.63a2.93,2.93,0,0,1,3-1.13,44.83,44.83,0,0,1,12.09,4.6c6.16,3.57,9.56,8,9.56,12.61C370.86,451.24,368,455.38,362.64,458.8Z" style="fill:#fff"></path></g><path d="M335.18,425.3c10.92,0,21.17,2.44,28.86,6.89s11.71,10.1,11.71,16.18-4.16,11.82-11.71,16.18-17.94,6.89-28.86,6.89S314,469,306.32,464.55s-11.71-10.11-11.71-16.18,4.16-11.82,11.71-16.18,17.95-6.89,28.86-6.89m0-.84c-10.59,0-21.19,2.34-29.27,7s-12.13,10.78-12.13,16.9,4,12.23,12.13,16.9,18.68,7,29.27,7,21.19-2.33,29.28-7,12.13-10.78,12.13-16.9-4-12.24-12.13-16.9-18.68-7-29.28-7Z" style="fill:#8C00FF"></path><g id="freepik--seeds--inject-33"><path d="M308.55,443.2c1.32.15,2.21.8,2,1.45s-1.44,1.05-2.75.9-2.21-.8-2-1.45S307.24,443.05,308.55,443.2Z" style="fill:#8C00FF"></path><path d="M313.39,436.74c1.1.46,1.49,1.27.86,1.82a3.39,3.39,0,0,1-3.13.16c-1.1-.46-1.48-1.27-.85-1.82A3.37,3.37,0,0,1,313.39,436.74Z" style="fill:#8C00FF"></path><path d="M324.11,432.7c.48.74.05,1.55-1,1.79a2.73,2.73,0,0,1-2.74-.92c-.48-.75-.05-1.55,1-1.79A2.71,2.71,0,0,1,324.11,432.7Z" style="fill:#8C00FF"></path><path d="M334.48,434.39c.17.8-.58,1.52-1.67,1.6a2.09,2.09,0,0,1-2.29-1.29c-.17-.79.58-1.51,1.67-1.59A2.1,2.1,0,0,1,334.48,434.39Z" style="fill:#8C00FF"></path><path d="M340.77,460.61c-.44-.76.05-1.55,1.09-1.77a2.63,2.63,0,0,1,2.68,1c.44.76-.05,1.55-1.09,1.77A2.61,2.61,0,0,1,340.77,460.61Z" style="fill:#8C00FF"></path><path d="M330.16,462.23a2,2,0,0,1,2.19-1.36c1.09.06,1.9.75,1.79,1.55a2,2,0,0,1-2.19,1.35C330.86,463.72,330.05,463,330.16,462.23Z" style="fill:#8C00FF"></path><path d="M319.23,459.08a3.28,3.28,0,0,1,3.07-.39c.86.42.88,1.26,0,1.89a3.27,3.27,0,0,1-3.07.38C318.41,460.55,318.39,459.71,319.23,459.08Z" style="fill:#8C00FF"></path><path d="M313.74,454.5a3.4,3.4,0,0,1,3.14.06c.66.53.35,1.35-.72,1.84a3.38,3.38,0,0,1-3.13-.07C312.36,455.8,312.68,455,313.74,454.5Z" style="fill:#8C00FF"></path><path d="M350.85,437.31a3.34,3.34,0,0,1-3.09.31c-.84-.43-.8-1.27.07-1.88a3.33,3.33,0,0,1,3.1-.32C351.76,435.86,351.72,436.7,350.85,437.31Z" style="fill:#8C00FF"></path><path d="M359.77,440.1c-1.21.34-2.57.14-3-.46s.12-1.36,1.33-1.71,2.57-.13,3,.46S361,439.75,359.77,440.1Z" style="fill:#8C00FF"></path><path d="M362.4,448.22c-1.32-.12-2.26-.75-2.09-1.4s1.37-1.09,2.69-1,2.26.75,2.1,1.41S363.72,448.34,362.4,448.22Z" style="fill:#8C00FF"></path><path d="M354.5,453.16c-1.24-.31-1.9-1.05-1.47-1.67s1.76-.85,3-.54,1.89,1.05,1.47,1.66S355.73,453.47,354.5,453.16Z" style="fill:#8C00FF"></path><path d="M322.3,458.69a3.28,3.28,0,0,0-3.07.39c-.84.63-.82,1.47,0,1.88a3.27,3.27,0,0,0,3.07-.38C323.18,460,323.16,459.11,322.3,458.69Zm-.93-26.91c-1,.24-1.46,1-1,1.79a2.73,2.73,0,0,0,2.74.92c1-.24,1.46-1.05,1-1.79A2.71,2.71,0,0,0,321.37,431.78ZM308.55,443.2c-1.31-.15-2.54.25-2.75.9s.69,1.3,2,1.45,2.55-.25,2.75-.9S309.87,443.35,308.55,443.2ZM363,445.85c-1.32-.12-2.53.31-2.69,1s.77,1.28,2.09,1.4,2.53-.31,2.7-1S364.33,446,363,445.85Zm-12.07-10.43a3.33,3.33,0,0,0-3.1.32c-.87.61-.91,1.45-.07,1.88a3.34,3.34,0,0,0,3.09-.31C351.72,436.7,351.76,435.86,350.93,435.42Zm-9.07,23.42c-1,.22-1.53,1-1.09,1.77a2.61,2.61,0,0,0,2.68,1c1-.22,1.53-1,1.09-1.77A2.63,2.63,0,0,0,341.86,458.84Z" style="fill:#fff;opacity:0.2"></path><path d="M313.74,454.5c-1.06.48-1.38,1.3-.71,1.83a3.38,3.38,0,0,0,3.13.07c1.07-.49,1.38-1.31.72-1.84A3.4,3.4,0,0,0,313.74,454.5Zm18.61,6.37a2,2,0,0,0-2.19,1.36c-.11.8.7,1.49,1.79,1.54a2,2,0,0,0,2.19-1.35C334.25,461.62,333.44,460.93,332.35,460.87Zm-18.1-22.31c.63-.55.24-1.36-.86-1.82a3.37,3.37,0,0,0-3.12.16c-.63.55-.25,1.36.85,1.82A3.39,3.39,0,0,0,314.25,438.56Zm17.94-5.45c-1.09.08-1.84.8-1.67,1.59a2.09,2.09,0,0,0,2.29,1.29c1.09-.08,1.84-.8,1.67-1.6A2.1,2.1,0,0,0,332.19,433.11ZM356,451c-1.24-.31-2.58-.07-3,.54s.23,1.36,1.47,1.67,2.57.06,3-.55S357.26,451.26,356,451Zm5.07-12.56c-.47-.59-1.83-.8-3-.46s-1.8,1.11-1.33,1.71,1.83.8,3,.46S361.58,439,361.1,438.39Z" style="fill:#fff;opacity:0.5"></path></g><path d="M425.73,421.34l.8-7.15h0c.19-1.39-.38-2.91-2-4.59-.14-.15-.3-.3-.46-.45a3.75,3.75,0,0,0-.35-.33c-.41-.37-.84-.73-1.28-1.07l-.15-.12c-.35-.26-.72-.52-1.09-.77s-.63-.41-1-.59l-.52-.3-.56-.3-.59-.29c-.26-.13-.52-.26-.8-.37a28.2,28.2,0,0,0-2.71-1.05l-1.19-.37-1.23-.32c-12.37-3.13-29.53-.46-43.21,7.49-8.85,5.14-14.58,11.53-16.7,17.7,0,0,0,0,0,0a14.8,14.8,0,0,0-.7,2.77c0,.23-.08.47-.11.7s-.07.69-.09,1l-.59,5.35c-.05.24-.08.47-.11.71a13.79,13.79,0,0,0,.18,4.59,9.12,9.12,0,0,0,.23.9,11.47,11.47,0,0,0,.9,2.29c.13.26.27.52.42.76a15.57,15.57,0,0,0,4.18,4.58c.23.18.48.35.72.52a.83.83,0,0,0,.16.12c7.36,5.12,13,3.38,18.8-.72,4.16.63,11.12-1,18.53-4.21a53.06,53.06,0,0,1,7.44,8.51c1.5,2.21,8.22.07,13-2.65,3.45-2,6.59-4.67,6.88-6.5h0l0-.16v0l.77-7h0a1.42,1.42,0,0,0-1-1.55c-1.42-.6-4.43-2-7.38-3.62,2.61-2.76,4-5.29,3.77-7.15C422.57,425.84,425.35,423.78,425.73,421.34Z" style="fill:#e0e0e0"></path><path d="M425.73,421.34l.8-7.15h0c.19-1.39-.38-2.91-2-4.59-.14-.15-.3-.3-.46-.45a3.75,3.75,0,0,0-.35-.33c-.41-.37-.84-.73-1.28-1.07l-.15-.12c-.35-.26-.72-.52-1.09-.77s-.63-.41-1-.59l-.52-.3-.56-.3-.59-.29c-.26-.13-.52-.26-.8-.37a28.2,28.2,0,0,0-2.71-1.05l-1.19-.37-1.23-.32c-12.37-3.13-29.53-.46-43.21,7.49-8.85,5.14-14.58,11.53-16.7,17.7,0,0,0,0,0,0a14.8,14.8,0,0,0-.7,2.77c0,.23-.08.47-.11.7s-.07.69-.09,1l-.59,5.35c-.05.24-.08.47-.11.71a13.79,13.79,0,0,0,.18,4.59,9.12,9.12,0,0,0,.23.9,11.47,11.47,0,0,0,.9,2.29c.13.26.27.52.42.76a15.57,15.57,0,0,0,4.18,4.58c.23.18.48.35.72.52a.83.83,0,0,0,.16.12c7.36,5.12,13,3.38,18.8-.72,4.16.63,11.12-1,18.53-4.21a53.06,53.06,0,0,1,7.44,8.51c1.5,2.21,8.22.07,13-2.65,3.45-2,6.59-4.67,6.88-6.5h0l0-.16v0l.77-7h0a1.42,1.42,0,0,0-1-1.55c-1.42-.6-4.43-2-7.38-3.62,2.61-2.76,4-5.29,3.77-7.15C422.57,425.84,425.35,423.78,425.73,421.34Z" style="opacity:0.1"></path><path d="M402.69,456.38c1.5,2.21,8.22.07,13-2.65,3.45-2,6.59-4.67,6.88-6.5h0l0-.16v0l.77-7h0a1.42,1.42,0,0,0-1-1.55l-1.44-.64L396,440.79l-.79,7.08A53.06,53.06,0,0,1,402.69,456.38Z" style="opacity:0.1"></path><g id="freepik--mushroom--inject-33"><path d="M392,438.18c4,1.23,10,8.9,11.51,11.11s8.22.07,13-2.65,8.95-6.81,5.87-8.11-13.65-6.37-14.89-9.19Z" style="fill:#e0e0e0"></path><path d="M392,438.18c4,1.23,10,8.9,11.51,11.11s8.22.07,13-2.65,8.95-6.81,5.87-8.11-13.65-6.37-14.89-9.19Z" style="opacity:0.05"></path><path d="M422.3,407.63l.15.12c.44.34.87.7,1.28,1.07a3.75,3.75,0,0,1,.35.33c.16.15.32.3.46.45,4.44,4.67,1,8-5,11.07.44,3.81-5.72,10.38-15.68,16.17s-20.7,9-26.31,8.16c-5.8,4.1-11.44,5.84-18.8.71l-.16-.11-.72-.52a15.75,15.75,0,0,1-4.19-4.58c-.15-.25-.28-.51-.41-.77a12.05,12.05,0,0,1-.91-2.28c-.08-.3-.16-.6-.22-.9a13.58,13.58,0,0,1-.18-4.6c0-.23.06-.47.11-.7a14.8,14.8,0,0,1,.7-2.77s0,0,0,0c2.12-6.17,7.85-12.56,16.7-17.7,13.68-7.95,30.84-10.62,43.21-7.49l1.23.32,1.19.37a28.2,28.2,0,0,1,2.71,1.05c.28.11.54.24.8.37l.59.29.56.3.52.3c.33.18.64.38,1,.59S422,407.37,422.3,407.63Z" style="fill:#f5f5f5"></path><path d="M422.3,407.63l.15.12c.44.34.87.7,1.28,1.07a3.75,3.75,0,0,1,.35.33c.16.15.32.3.46.45,4.44,4.67,1,8-5,11.07.44,3.81-5.72,10.38-15.68,16.17s-20.7,9-26.31,8.16c-5.8,4.1-11.44,5.84-18.8.71l-.16-.11-.72-.52a15.75,15.75,0,0,1-4.19-4.58c-.15-.25-.28-.51-.41-.77a12.05,12.05,0,0,1-.91-2.28c-.08-.3-.16-.6-.22-.9a13.58,13.58,0,0,1-.18-4.6c0-.23.06-.47.11-.7a14.8,14.8,0,0,1,.7-2.77c.58,4.07,3.24,7.46,9.85,8.4,4.86.7,9.16-1.48,12.57-3.5,2.92-1.74,5.33-3.88,8.11-5.71,3.9-2.56,10.62-3.7,15.49-5.2,12.61-3.89,19.23-14.08,6-19.9-.45-.2-.93-.35-1.4-.53a44.37,44.37,0,0,1,9.34,1.23l1.23.32,1.19.37a28.2,28.2,0,0,1,2.71,1.05c.28.11.54.24.8.37l.59.29.56.3.52.3c.33.18.64.38,1,.59S422,407.37,422.3,407.63Z" style="opacity:0.05"></path><path d="M391.17,435.17c1.68,1.38,5.3,5.47,4.87,5.62a26.79,26.79,0,0,0-4.35-2.31c-6-2.1-8.3-.38-12.16,2.57a5.19,5.19,0,0,1-3.59,1.21c-3.37-.23-5.6-4.29-3.36-6.74s8.83-5.53,12.93-4.14C387.92,432.21,389.52,433.82,391.17,435.17Z" style="fill:#e0e0e0"></path><path d="M391.17,435.17c1.68,1.38,5.3,5.47,4.87,5.62a26.79,26.79,0,0,0-4.35-2.31c-6-2.1-8.3-.38-12.16,2.57a5.19,5.19,0,0,1-3.59,1.21c-3.37-.23-5.6-4.29-3.36-6.74s8.83-5.53,12.93-4.14C387.92,432.21,389.52,433.82,391.17,435.17Z" style="opacity:0.1"></path><path d="M397.86,424.34c.87,1.69,3,3,4.82,4.26s7.66,4,7.95,3.73a12.05,12.05,0,0,1-3.09-2.9c-2.27-4.22.66-5.5,5.61-7.59,6.46-2.72-1.94-6.85-7.22-5.38C402,417.54,396.37,421.44,397.86,424.34Z" style="fill:#e0e0e0"></path><path d="M397.86,424.34c.87,1.69,3,3,4.82,4.26s7.66,4,7.95,3.73a12.05,12.05,0,0,1-3.09-2.9c-2.27-4.22.66-5.5,5.61-7.59,6.46-2.72-1.94-6.85-7.22-5.38C402,417.54,396.37,421.44,397.86,424.34Z" style="opacity:0.1"></path><path d="M391.17,435.17a20.37,20.37,0,0,0-6.6-2.23c-3.43-.42-9,3.11-9.07,5.18s2.39,3.85.45,4.13h0c-3.37-.23-5.6-4.29-3.36-6.74s8.83-5.53,12.93-4.14C387.92,432.21,389.52,433.82,391.17,435.17Z" style="opacity:0.1"></path><path d="M402.67,428.6s-2.23-2.34-2.37-4.65,6-5.44,9.07-5.19,5.39,2.14,6.1.91h0c.15-2.25-5.58-4.3-9.56-3.19s-9.55,5-8.07,7.87C398.73,426,400.89,427.32,402.67,428.6Z" style="opacity:0.1"></path></g></g></g></svg>