<svg xmlns="http://www.w3.org/2000/svg" viewBox="0 0 500 500"><g id="freepik--Trees--inject-20"><g id="freepik--Palms--inject-20"><g id="freepik--palms--inject-20"><g id="freepik--Palm--inject-20"><path d="M189.9,144.22c-2.76,2.67-10.48,11.15-17.21,31.58-4.19,12.71-6.68,36.69-2.69,68,2.68,21.06,11.13,36.22,11.54,37.84h11.94c-6.71-11.78-16.87-33.44-18.12-64.63-1.25-31.34,6.09-56.55,17.22-72.76Z" style="fill:#f5f5f5"></path><path d="M190.91,143.46c1.75-1.75.87-1.58,3.36-3.59,3.78-3,10.64-4.24,16.65-3.43,10.58,1.42,20.77,6.38,25.77,16.13-4.42-3.41-9.71-3.93-15.08-3.4-1.55-2.1-3.1-4.18-4.75-6.2q.24,3.25.61,6.5a20.09,20.09,0,0,1-7.35-.68c-1.68-2.61-3.52-5.09-5.44-7.53.77,2.26,1.52,4.51,2.2,6.79C201.45,147.11,195.92,145.88,190.91,143.46Z" style="fill:#f5f5f5"></path><g style="opacity:0.15"><path d="M190.91,143.46c1.75-1.75.87-1.58,3.36-3.59,3.78-3,10.64-4.24,16.65-3.43,10.58,1.42,20.77,6.38,25.77,16.13-4.42-3.41-9.71-3.93-15.08-3.4-1.55-2.1-3.1-4.18-4.75-6.2q.24,3.25.61,6.5a20.09,20.09,0,0,1-7.35-.68c-1.68-2.61-3.52-5.09-5.44-7.53.77,2.26,1.52,4.51,2.2,6.79C201.45,147.11,195.92,145.88,190.91,143.46Z" style="fill:#f5f5f5"></path></g><path d="M192.48,144.21s.84-3.31-4-8.55a34.24,34.24,0,0,0-23.65-10.56c-5.47,0-13.41,1.69-17.27,5.38a26,26,0,0,1,13.14,2.17,30,30,0,0,1,10.41-3.24s-5.59,3.25-6.78,4.84a18.3,18.3,0,0,0,9.29,4.17s4.16-4.62,8.79-4.53a11.46,11.46,0,0,0-6.06,5.56A82.74,82.74,0,0,0,192.48,144.21Z" style="fill:#f5f5f5"></path><path d="M192.48,144.21s.84-3.31-4-8.55a34.24,34.24,0,0,0-23.65-10.56c-5.47,0-13.41,1.69-17.27,5.38a26,26,0,0,1,13.14,2.17,30,30,0,0,1,10.41-3.24s-5.59,3.25-6.78,4.84a18.3,18.3,0,0,0,9.29,4.17s4.16-4.62,8.79-4.53a11.46,11.46,0,0,0-6.06,5.56A82.74,82.74,0,0,0,192.48,144.21Z" style="fill:#f5f5f5;opacity:0.2"></path><path d="M192.48,144.21a31.46,31.46,0,0,0-19-3.43c-14.32,1.89-22.45,8.85-25.43,15a19.17,19.17,0,0,1,15.58-2.71l5.16-6-.52,6.61a18.72,18.72,0,0,0,7.77-.83l5.08-8-1.6,7S188.07,149.75,192.48,144.21Z" style="fill:#f5f5f5"></path><path d="M192.48,144.21a31.46,31.46,0,0,0-19-3.43c-14.32,1.89-22.45,8.85-25.43,15a19.17,19.17,0,0,1,15.58-2.71l5.16-6-.52,6.61a18.72,18.72,0,0,0,7.77-.83l5.08-8-1.6,7S188.07,149.75,192.48,144.21Z" style="fill:#f5f5f5;opacity:0.05"></path><path d="M192.48,144.21s2.55-.85,7.71,1.28c8.75,3.62,15.74,13.47,17.53,18.56s2.79,13,.61,17.8a25.54,25.54,0,0,0-6.3-11.51,29.37,29.37,0,0,0-.37-10.73s-1.2,6.26-2.3,7.88a18,18,0,0,1-6.89-7.28s2.93-5.38,1.34-9.65a11.26,11.26,0,0,1-3.19,7.44S196.56,151.52,192.48,144.21Z" style="fill:#f5f5f5"></path><path d="M192.48,144.21s2.55-.85,7.71,1.28c8.75,3.62,15.74,13.47,17.53,18.56s2.79,13,.61,17.8a25.54,25.54,0,0,0-6.3-11.51,29.37,29.37,0,0,0-.37-10.73s-1.2,6.26-2.3,7.88a18,18,0,0,1-6.89-7.28s2.93-5.38,1.34-9.65a11.26,11.26,0,0,1-3.19,7.44S196.56,151.52,192.48,144.21Z" style="fill:#f5f5f5;opacity:0.05"></path><path d="M181.91,184.32A21.83,21.83,0,0,0,185,175.1c.08-1.34.08-2.76.06-4.23,4.79-3.3,5.22-6.72,5.22-6.72a8.75,8.75,0,0,1-5.35,3.7c-.52-3.17,0-6.35.18-9.15,3.86-1.64,5.15-3.92,5.15-3.92a10.37,10.37,0,0,1-5,1.56c1.14-5.93,4.61-10.78,7.22-12.13,0,0,3.24,2.15,3.87,13.32C197,169.05,191,180.28,181.91,184.32Z" style="fill:#f5f5f5"></path></g><g id="freepik--palm--inject-20"><path d="M65.53,281.6h-18c-4.32-16.18-8.73-55.83-9.51-74-2.16-50.31,5.88-84.91,13.71-105.68C64.33,68.47,77.73,55,82.49,50.72l4.44.16C68.53,72.17,52.31,111.75,48.8,174.41,46.3,219,57.25,262.59,65.53,281.6Z" style="fill:#f5f5f5"></path><path d="M80.36,45.25c-2.6-2.7-1.27-2.42-5-5.53C69.75,35,59.4,33,50.29,34.06c-16,1.86-31.6,9.07-39.44,23.67,6.79-5,14.8-5.66,22.91-4.72,2.41-3.12,4.81-6.22,7.35-9.24-.3,3.29-.65,6.56-1.1,9.82,3.79.61,7.43-.06,11.15-.82,2.61-3.9,5.46-7.61,8.43-11.24-1.22,3.39-2.42,6.78-3.51,10.21C64.32,50.46,72.71,48.76,80.36,45.25Z" style="fill:#f5f5f5"></path><g style="opacity:0.15"><path d="M80.36,45.25c-2.6-2.7-1.27-2.42-5-5.53C69.75,35,59.4,33,50.29,34.06c-16,1.86-31.6,9.07-39.44,23.67,6.79-5,14.8-5.66,22.91-4.72,2.41-3.12,4.81-6.22,7.35-9.24-.3,3.29-.65,6.56-1.1,9.82,3.79.61,7.43-.06,11.15-.82,2.61-3.9,5.46-7.61,8.43-11.24-1.22,3.39-2.42,6.78-3.51,10.21C64.32,50.46,72.71,48.76,80.36,45.25Z" style="fill:#f5f5f5"></path></g><path d="M78,46.33s-1.17-5,6.27-12.81c11.69-12.21,27.82-15.46,36.09-15.32s20.23,2.94,26,8.63c0,0-8.92-1.59-19.94,2.91a45.33,45.33,0,0,0-15.65-5.19s8.37,5.06,10.13,7.52a27.7,27.7,0,0,1-14.17,6S100.47,31,93.47,31c0,0,6.37,2.39,9,8.57A125.31,125.31,0,0,1,78,46.33Z" style="fill:#f5f5f5"></path><path d="M78,46.33s-1.17-5,6.27-12.81c11.69-12.21,27.82-15.46,36.09-15.32s20.23,2.94,26,8.63c0,0-8.92-1.59-19.94,2.91a45.33,45.33,0,0,0-15.65-5.19s8.37,5.06,10.13,7.52a27.7,27.7,0,0,1-14.17,6S100.47,31,93.47,31c0,0,6.37,2.39,9,8.57A125.31,125.31,0,0,1,78,46.33Z" style="fill:#f5f5f5;opacity:0.2"></path><path d="M78,46.33a47.63,47.63,0,0,1,28.81-4.65c21.61,3.27,33.71,14,38.05,23.41,0,0-9.16-7.56-23.49-4.53l-7.64-9.23.6,10c-3,.49-7-.09-11.74-1.47L95.1,47.66l2.23,10.61S84.48,54.84,78,46.33Z" style="fill:#f5f5f5"></path><path d="M78,46.33a47.63,47.63,0,0,1,28.81-4.65c21.61,3.27,33.71,14,38.05,23.41,0,0-9.16-7.56-23.49-4.53l-7.64-9.23.6,10c-3,.49-7-.09-11.74-1.47L95.1,47.66l2.23,10.61S84.48,54.84,78,46.33Z" style="fill:#f5f5f5;opacity:0.05"></path><path d="M78,46.33S74.13,45,66.27,48.05C52.93,53.28,42.08,68,39.23,75.63s-4.58,19.61-1.43,26.92c0,0,1.75-8.76,9.85-17.24a44.75,44.75,0,0,1,.87-16.23s1.63,9.51,3.25,12A27.27,27.27,0,0,0,62.41,70.26S58.12,62,60.64,55.62c0,0-.1,6.7,4.62,11.35C65.26,67,71.59,57.27,78,46.33Z" style="fill:#f5f5f5"></path><path d="M78,46.33S74.13,45,66.27,48.05C52.93,53.28,42.08,68,39.23,75.63s-4.58,19.61-1.43,26.92c0,0,1.75-8.76,9.85-17.24a44.75,44.75,0,0,1,.87-16.23s1.63,9.51,3.25,12A27.27,27.27,0,0,0,62.41,70.26S58.12,62,60.64,55.62c0,0-.1,6.7,4.62,11.35C65.26,67,71.59,57.27,78,46.33Z" style="fill:#f5f5f5;opacity:0.05"></path><path d="M75.51,105.6s2.94-7.32,2-14.59c-.27-2-.67-4.13-1.13-6.3,6.17-6.29,5.82-11.48,5.82-11.48a13.21,13.21,0,0,1-6.88,7c-1.68-4.57-1.87-9.42-2.37-13.65,5.27-3.54,6.52-7.3,6.52-7.3a15.79,15.79,0,0,1-7,3.76c0-9.14,3.76-17.34,7.24-20.1,0,0,5.44,2.27,9.58,18.67C93.52,78.58,87.88,97,75.51,105.6Z" style="fill:#f5f5f5"></path></g></g><g id="freepik--palms--inject-20"><g id="freepik--palm--inject-20"><path d="M359.83,154.48c2.76,2.66,10.48,11.15,17.21,31.58,4.19,12.71,7.71,36.52,2.69,67.95-1.88,11.83-5.62,26-6,27.59h-9.15c2.25-9,7.05-23.87,9.82-54.37,2.83-31.24-6.09-56.55-17.22-72.77Z" style="fill:#f5f5f5"></path><path d="M358.82,153.72c-1.75-1.75-.87-1.58-3.36-3.59-3.78-3-10.64-4.24-16.65-3.44-10.58,1.43-20.77,6.39-25.77,16.13,4.42-3.41,9.71-3.92,15.08-3.4,1.55-2.09,3.1-4.17,4.74-6.2-.16,2.18-.35,4.34-.6,6.51a20.53,20.53,0,0,0,7.35-.68c1.68-2.61,3.52-5.1,5.44-7.53-.77,2.25-1.52,4.51-2.2,6.79C348.28,157.36,353.81,156.13,358.82,153.72Z" style="fill:#f5f5f5"></path><g style="opacity:0.15"><path d="M358.82,153.72c-1.75-1.75-.87-1.58-3.36-3.59-3.78-3-10.64-4.24-16.65-3.44-10.58,1.43-20.77,6.39-25.77,16.13,4.42-3.41,9.71-3.92,15.08-3.4,1.55-2.09,3.1-4.17,4.74-6.2-.16,2.18-.35,4.34-.6,6.51a20.53,20.53,0,0,0,7.35-.68c1.68-2.61,3.52-5.1,5.44-7.53-.77,2.25-1.52,4.51-2.2,6.79C348.28,157.36,353.81,156.13,358.82,153.72Z" style="fill:#f5f5f5"></path></g><path d="M357.25,154.46s-.84-3.31,4-8.54a34.26,34.26,0,0,1,23.65-10.57c5.47,0,13.41,1.7,17.27,5.39A25.91,25.91,0,0,0,389,142.9a30,30,0,0,0-10.41-3.24s5.59,3.25,6.78,4.85a18.34,18.34,0,0,1-9.29,4.16s-4.17-4.61-8.79-4.53a11.51,11.51,0,0,1,6.06,5.56A82.74,82.74,0,0,1,357.25,154.46Z" style="fill:#f5f5f5"></path><path d="M357.25,154.46s-.84-3.31,4-8.54a34.26,34.26,0,0,1,23.65-10.57c5.47,0,13.41,1.7,17.27,5.39A25.91,25.91,0,0,0,389,142.9a30,30,0,0,0-10.41-3.24s5.59,3.25,6.78,4.85a18.34,18.34,0,0,1-9.29,4.16s-4.17-4.61-8.79-4.53a11.51,11.51,0,0,1,6.06,5.56A82.74,82.74,0,0,1,357.25,154.46Z" style="fill:#f5f5f5;opacity:0.2"></path><path d="M357.25,154.46a31.5,31.5,0,0,1,19-3.42c14.32,1.89,22.45,8.85,25.43,15a19.15,19.15,0,0,0-15.58-2.7l-5.16-6,.52,6.6a18.68,18.68,0,0,1-7.77-.82l-5.08-8,1.6,7S361.66,160,357.25,154.46Z" style="fill:#f5f5f5"></path><path d="M357.25,154.46a31.5,31.5,0,0,1,19-3.42c14.32,1.89,22.45,8.85,25.43,15a19.15,19.15,0,0,0-15.58-2.7l-5.16-6,.52,6.6a18.68,18.68,0,0,1-7.77-.82l-5.08-8,1.6,7S361.66,160,357.25,154.46Z" style="fill:#f5f5f5;opacity:0.05"></path><path d="M357.25,154.46s-2.55-.85-7.71,1.28c-8.75,3.62-15.74,13.48-17.53,18.56s-2.79,13-.61,17.81a25.64,25.64,0,0,1,6.29-11.52,29.5,29.5,0,0,1,.38-10.73s1.2,6.26,2.3,7.89a18.09,18.09,0,0,0,6.89-7.28s-2.93-5.38-1.34-9.66a11.28,11.28,0,0,0,3.19,7.45S353.17,161.77,357.25,154.46Z" style="fill:#f5f5f5"></path><path d="M357.25,154.46s-2.55-.85-7.71,1.28c-8.75,3.62-15.74,13.48-17.53,18.56s-2.79,13-.61,17.81a25.64,25.64,0,0,1,6.29-11.52,29.5,29.5,0,0,1,.38-10.73s1.2,6.26,2.3,7.89a18.09,18.09,0,0,0,6.89-7.28s-2.93-5.38-1.34-9.66a11.28,11.28,0,0,0,3.19,7.45S353.17,161.77,357.25,154.46Z" style="fill:#f5f5f5;opacity:0.05"></path><path d="M367.82,194.57a21.83,21.83,0,0,1-3.12-9.21c-.08-1.35-.08-2.77-.06-4.24-4.79-3.3-5.22-6.71-5.22-6.71a8.75,8.75,0,0,0,5.35,3.7c.52-3.18,0-6.35-.18-9.16-3.86-1.63-5.15-3.91-5.15-3.91a10.46,10.46,0,0,0,5,1.55c-1.14-5.93-4.61-10.77-7.22-12.13,0,0-3.24,2.16-3.87,13.32C352.73,179.31,358.72,190.54,367.82,194.57Z" style="fill:#f5f5f5"></path></g><g id="freepik--palm--inject-20"><path d="M435.12,281.6h18c4.32-16.18,8.72-55.83,9.51-74,2.16-50.31-5.88-84.91-13.71-105.68-12.57-33.41-26-46.93-30.73-51.16l-4.43.16c18.4,21.29,34.61,60.87,38.12,123.53C454.34,219,443.4,262.59,435.12,281.6Z" style="fill:#f5f5f5"></path><path d="M420.29,45.25c2.6-2.7,1.26-2.42,5-5.53,5.63-4.71,16-6.71,25.09-5.66,16,1.86,31.59,9.07,39.44,23.67C483,52.7,475,52.07,466.89,53c-2.41-3.12-4.81-6.22-7.36-9.24.31,3.29.66,6.56,1.11,9.82-3.79.61-7.43-.06-11.15-.82-2.61-3.9-5.46-7.61-8.43-11.24,1.22,3.39,2.42,6.78,3.51,10.21C436.33,50.46,427.94,48.76,420.29,45.25Z" style="fill:#f5f5f5"></path><g style="opacity:0.15"><path d="M420.29,45.25c2.6-2.7,1.26-2.42,5-5.53,5.63-4.71,16-6.71,25.09-5.66,16,1.86,31.59,9.07,39.44,23.67C483,52.7,475,52.07,466.89,53c-2.41-3.12-4.81-6.22-7.36-9.24.31,3.29.66,6.56,1.11,9.82-3.79.61-7.43-.06-11.15-.82-2.61-3.9-5.46-7.61-8.43-11.24,1.22,3.39,2.42,6.78,3.51,10.21C436.33,50.46,427.94,48.76,420.29,45.25Z" style="fill:#f5f5f5"></path></g><path d="M422.69,46.33s1.17-5-6.28-12.81C404.73,21.31,388.6,18.06,380.33,18.2s-20.23,2.94-26,8.63c0,0,8.92-1.59,19.94,2.91A45.23,45.23,0,0,1,390,24.55s-8.37,5.06-10.13,7.52a27.7,27.7,0,0,0,14.17,6S400.18,31,407.17,31c0,0-6.37,2.39-9,8.57A125.54,125.54,0,0,0,422.69,46.33Z" style="fill:#f5f5f5"></path><path d="M422.69,46.33s1.17-5-6.28-12.81C404.73,21.31,388.6,18.06,380.33,18.2s-20.23,2.94-26,8.63c0,0,8.92-1.59,19.94,2.91A45.23,45.23,0,0,1,390,24.55s-8.37,5.06-10.13,7.52a27.7,27.7,0,0,0,14.17,6S400.18,31,407.17,31c0,0-6.37,2.39-9,8.57A125.54,125.54,0,0,0,422.69,46.33Z" style="fill:#f5f5f5;opacity:0.2"></path><path d="M422.69,46.33a47.63,47.63,0,0,0-28.81-4.65c-21.61,3.27-33.72,14-38.06,23.41,0,0,9.17-7.56,23.5-4.53L387,51.33l-.6,10c3,.49,7-.09,11.73-1.47l7.45-12.21-2.22,10.61S416.17,54.84,422.69,46.33Z" style="fill:#f5f5f5"></path><path d="M422.69,46.33a47.63,47.63,0,0,0-28.81-4.65c-21.61,3.27-33.72,14-38.06,23.41,0,0,9.17-7.56,23.5-4.53L387,51.33l-.6,10c3,.49,7-.09,11.73-1.47l7.45-12.21-2.22,10.61S416.17,54.84,422.69,46.33Z" style="fill:#f5f5f5;opacity:0.05"></path><path d="M422.69,46.33s3.83-1.36,11.69,1.72c13.34,5.23,24.18,19.94,27,27.58s4.58,19.61,1.42,26.92c0,0-1.74-8.76-9.84-17.24a44.75,44.75,0,0,0-.87-16.23s-1.64,9.51-3.25,12a27.27,27.27,0,0,1-10.64-10.82S442.53,62,440,55.62c0,0,.1,6.7-4.63,11.35C435.38,67,429.06,57.27,422.69,46.33Z" style="fill:#f5f5f5"></path><path d="M422.69,46.33s3.83-1.36,11.69,1.72c13.34,5.23,24.18,19.94,27,27.58s4.58,19.61,1.42,26.92c0,0-1.74-8.76-9.84-17.24a44.75,44.75,0,0,0-.87-16.23s-1.64,9.51-3.25,12a27.27,27.27,0,0,1-10.64-10.82S442.53,62,440,55.62c0,0,.1,6.7-4.63,11.35C435.38,67,429.06,57.27,422.69,46.33Z" style="fill:#f5f5f5;opacity:0.05"></path><path d="M425.14,105.6s-2.94-7.32-2-14.59c.27-2,.67-4.13,1.13-6.3-6.18-6.29-5.82-11.48-5.82-11.48a13.2,13.2,0,0,0,6.87,7c1.69-4.57,1.88-9.42,2.38-13.65-5.27-3.54-6.53-7.3-6.53-7.3a15.84,15.84,0,0,0,7,3.76c0-9.14-3.75-17.34-7.24-20.1,0,0-5.43,2.27-9.58,18.67C407.12,78.58,412.77,97,425.14,105.6Z" style="fill:#f5f5f5"></path></g></g></g></g><g id="freepik--Shadows--inject-20"><path id="freepik--Shadow--inject-20" d="M199.24,458.9,15.12,352.68c-2.5-1.45-2.5-3.78,0-5.22l147.81-85.34a10,10,0,0,1,9,0L356.08,368.34c2.5,1.44,2.5,3.78,0,5.22L208.27,458.9A10,10,0,0,1,199.24,458.9Z" style="fill:#f0997a"></path><path id="freepik--shadow--inject-20" d="M318.08,250.83c-5.77,3.33-5.77,8.73,0,12.06s15.13,3.34,20.9,0,5.77-8.73,0-12.06S323.85,247.5,318.08,250.83Z" style="fill:#f0997a"></path><path id="freepik--shadow--inject-20" d="M361.39,436c1.94,0,4.76-2.56,6-3.91,2.89-3.2,5.82-6.72,6.75-7.85,1.59.29,7,1.31,12.61,2.83l1.35.37a19.64,19.64,0,0,0,4.47.94,1.85,1.85,0,0,0,1.77-.83c.45-.82.15-2-1-3.88-2.45-4-7.67-7-10.24-8.3a64,64,0,0,1,7.73-3.49c1.2-.43,2.79-1.14,2.77-2.45,0-.64-.45-1.53-2.45-2.16a24.12,24.12,0,0,0-6.1-.69c-.84,0-1.66,0-2.44.11-6.25.57-9.45,1.61-10.58,2.05a26.24,26.24,0,0,0-12.28-4.93c-1-.09-1.87-.14-2.65-.14-2,0-3.1.31-3.57,1a1.37,1.37,0,0,0-.11,1.32c.38,1,1.39,1.73,2.67,2.71a26,26,0,0,1,4.43,4.07l-1.21.44a68.94,68.94,0,0,0-10.72,4.7c-2.83,1.62-4,3-3.65,4.24.41,1.57,2.89,1.9,4.9,1.9h.38l2.13,0c3.12,0,7.22.09,9.11.13-.36,1.47-1.07,4.49-1.77,8.55a3.21,3.21,0,0,0,.38,2.7A1.7,1.7,0,0,0,361.39,436Z" style="fill:#f0997a"></path><path id="freepik--shadow--inject-20" d="M410.21,370.11a1.46,1.46,0,0,0,1.08-.48c.68-.75.9-2.91.66-6.43a99.77,99.77,0,0,0,17.55,2.13c3.31,0,5.67-.4,7.22-1.22a7.87,7.87,0,0,0,4.34-5.21c.59-2.55-.21-5.65-2.18-8.62.82-1.43,1.84-4.73-1.65-9.78a10.92,10.92,0,0,0-9.31-4.93,12.45,12.45,0,0,0-2,.16c-1-1.29-3.63-3.75-9.11-3.75a22.29,22.29,0,0,0-2.52.16,7.65,7.65,0,0,0-5.2,3.3c-3.48,4.66-4.66,13.64-3.93,20.4a22.84,22.84,0,0,0-4.06-.42,6.24,6.24,0,0,0-3.88,1,1.77,1.77,0,0,0-.73,1.76c.36,1.84,4.48,3.45,8.06,4.51,1,1.9,3.38,6.29,4.84,7.2A1.52,1.52,0,0,0,410.21,370.11Z" style="fill:#f0997a"></path></g><g id="freepik--Starfish--inject-20"><g id="freepik--starfish--inject-20"><path d="M381.24,412.91a72.76,72.76,0,0,1,9.27-4.3c3.36-1.2,2.43-2.4.34-3.06a25.7,25.7,0,0,0-8.21-.54c-7.87.72-10.78,2.17-10.78,2.17a25.86,25.86,0,0,0-12.24-5.05c-2.61-.25-6-.29-5.49,1.05.68,1.71,4.47,3.13,7.65,7.44-1.46.72-7.35,2.38-12.84,5.51-5.75,3.28-3.06,4.68,1.21,4.6,3.93-.08,12.31.13,12.31.13s-1,3.6-2,9.48c-.8,4.64,3.87,1.43,6.32-1.3,3.51-3.89,7-8.18,7-8.18s6.33,1.09,13.15,2.92c4.88,1.32,8.73,2.82,5.64-2.18S381.24,412.91,381.24,412.91Z" style="fill:#f28f8f"></path><path d="M366.52,426.87c1.82-2.09,6.43-8.75,6.43-8.75s13.05,3.64,16.31,4.6,4.21.58,3.85-.22c2.05,3.9-1.6,2.51-6.16,1.28-6.82-1.83-13.15-2.92-13.15-2.92s-3.53,4.29-7,8.18c-1.82,2-4.86,4.32-6,3.46C362.71,432.39,364.7,429,366.52,426.87Z" style="fill:#b16668"></path><path d="M345.72,419.53c1.09.7,2.65.43,6.72,0s10.65-1.37,10.65-1.37l-.63,2.74s-8.38-.21-12.31-.13C347.87,420.77,346.07,420.39,345.72,419.53Z" style="fill:#b16668"></path><path d="M391.7,405.88c1.37.64,1.66,1.72-1.19,2.73a72.76,72.76,0,0,0-9.27,4.3l-2.68-1.35s3.78-1.64,7.57-2.82C389.59,407.65,392.86,406.88,391.7,405.88Z" style="fill:#b16668"></path><path d="M361.78,410.62c-3.18-4.31-7-5.73-7.65-7.44a.56.56,0,0,1,.23-.74h0s-.55.7,2.51,2a23.39,23.39,0,0,1,6.22,4.67C363.84,410.05,361.78,410.62,361.78,410.62Z" style="fill:#b16668"></path></g></g><g id="freepik--Shell--inject-20"><g id="freepik--shell--inject-20"><path d="M409.53,359.47s19.72,4.39,25.51,1.34,4.22-8.83,1.3-12.82c0,0,3-3-1.2-9.13a10.14,10.14,0,0,0-10.88-4.14s-2.38-4.79-11-3.73c-7.16.88-9.35,15.33-7.91,24,0,0-6.45-1.66-8.6,0s7.43,4.41,7.43,4.41,3.21,6.29,4.65,7.18S409.53,359.47,409.53,359.47Z" style="fill:#fff"></path><path d="M428.06,359.81c7.51-.76,10.25-3.78,10.78-6.22.44,2.73-.42,5.44-3.8,7.22-5.79,3.05-25.51-1.34-25.51-1.34a47.4,47.4,0,0,1,.19,4.77,23.17,23.17,0,0,0-1.37-5.9S419.46,360.69,428.06,359.81Z" style="opacity:0.1"></path><path d="M436.34,348s-7.69-1.46-18.62,4.61a32.36,32.36,0,0,1,12.52-6.29c7.79-2,4.9-7.45,4.9-7.45C439.36,345,436.34,348,436.34,348Z" style="opacity:0.1"></path><path d="M409.79,349.21c4.37-10.73,10.27-13.87,9.32-15.7-1.39-2.68-5.82-2.52-5.82-2.52,8.59-1.06,11,3.73,11,3.73C414.7,338.71,409.79,349.21,409.79,349.21Z" style="opacity:0.1"></path></g></g><g id="freepik--Towel--inject-20"><g id="freepik--towel--inject-20"><path d="M200.34,453l-184-106.14c-2.47-1.43-2.47-3.75,0-5.18L163,257a9.89,9.89,0,0,1,9,0l184,106.15c2.47,1.42,2.47,3.74,0,5.17L209.3,453A9.89,9.89,0,0,1,200.34,453Z" style="fill:#fafafa"></path><g style="opacity:0.30000000000000004"><path d="M336.38,357.94l-19.31-.8h0l1.38,11.15-19.3-.8h0l1.39,11.15-19.31-.8h0L282.6,389l-19.31-.8h0l1.38,11.15-19.31-.8h0l1.39,11.15-19.31-.8h0L228.82,420l-19.31-.8h0l1.39,11.15-19.31-.8h0L193,440.74l-15-.62,3.58,2.07,15,.62-1.39-11.15,19.32.8-1.39-11.15,19.31.8L231,411l19.31.8-1.39-11.15,19.32.8-1.39-11.15,19.31.8-1.38-11.15,19.31.8-1.39-11.15,19.32.8-1.39-11.15L340,360l-.81-6.52-3.59-2.06Z" style="fill:#0E8B01"></path><path d="M32.67,356.28l14.28.6-1.39-11.16,19.32.8-1.39-11.15,19.31.8L81.42,325l19.31.8-1.38-11.15,19.31.8-1.39-11.15,19.32.8L135.2,294l19.31.8-1.38-11.15,19.31.8-1.39-11.15,19.32.8-.86-6.91-3.59-2.07.86,6.91-19.31-.8h0l1.39,11.14-19.31-.8h0l1.39,11.14-19.31-.8h0L133,303.05l-19.31-.8h0l1.38,11.14-19.3-.8h0l1.39,11.14L77.84,323h0l1.39,11.14-19.31-.8h0l1.38,11.15L42,343.65h0l1.39,11.15-14.29-.6Z" style="fill:#0E8B01"></path></g><path d="M133.91,278.08l-13.86-8a.88.88,0,0,0-.88,1.52l13.87,8a.82.82,0,0,0,.43.12.88.88,0,0,0,.76-.44A.87.87,0,0,0,133.91,278.08Zm-7,4-13.86-8a.88.88,0,0,0-.87,1.52l13.86,8a.88.88,0,0,0,.44.12.87.87,0,0,0,.43-1.63ZM106,294.2l-13.86-8a.87.87,0,0,0-.87,1.51l13.86,8a.88.88,0,0,0,.44.12.87.87,0,0,0,.43-1.63Zm7-4-13.86-8a.88.88,0,0,0-.88,1.52l13.87,8a.85.85,0,0,0,.43.12.87.87,0,0,0,.44-1.63Zm7-4-13.87-8a.87.87,0,0,0-1.19.32.88.88,0,0,0,.32,1.2l13.86,8a.87.87,0,0,0,1.2-.32A.87.87,0,0,0,120,286.14ZM161.77,262l-13.86-8a.87.87,0,0,0-1.19.33.86.86,0,0,0,.32,1.19l13.86,8a.88.88,0,0,0,.44.12.88.88,0,0,0,.43-1.64Zm-20.89,12.09-13.87-8a.87.87,0,0,0-1.19.32.88.88,0,0,0,.32,1.2l13.86,8a.87.87,0,0,0,.44.11.87.87,0,0,0,.44-1.63ZM154.81,266l-13.87-8a.88.88,0,0,0-.87,1.52l13.86,8a.88.88,0,1,0,.88-1.52ZM99.08,298.23l-13.86-8a.87.87,0,1,0-.88,1.51l13.86,8a.87.87,0,0,0,1.2-.32A.87.87,0,0,0,99.08,298.23ZM147.84,270,134,262a.88.88,0,0,0-1.2.32.89.89,0,0,0,.32,1.2l13.87,8a.84.84,0,0,0,.43.11.86.86,0,0,0,.76-.43A.88.88,0,0,0,147.84,270ZM64.25,318.37l-13.87-8a.88.88,0,0,0-.87,1.52l13.86,8a.88.88,0,1,0,.88-1.52Zm-7,4-13.86-8a.89.89,0,0,0-1.2.32.88.88,0,0,0,.32,1.2l13.87,8a.84.84,0,0,0,.43.11.86.86,0,0,0,.76-.43A.88.88,0,0,0,57.28,322.4Zm-20.9,12.09-13.86-8a.88.88,0,1,0-.87,1.52l13.86,8a.86.86,0,0,0,1.19-.32A.86.86,0,0,0,36.38,334.49Zm7-4-13.86-8a.88.88,0,0,0-.88,1.52l13.86,8a.87.87,0,0,0,.44.11.86.86,0,0,0,.76-.44A.87.87,0,0,0,43.35,330.46Zm-20.9,12.09-13.86-8a.88.88,0,0,0-.88,1.52l13.87,8a.82.82,0,0,0,.43.12.87.87,0,0,0,.44-1.63Zm7-4-13.87-8a.87.87,0,0,0-1.19.32.88.88,0,0,0,.32,1.2l13.86,8a.87.87,0,0,0,1.2-.32A.87.87,0,0,0,29.42,338.52Zm48.76-28.21-13.86-8a.87.87,0,1,0-.88,1.51l13.87,8a.82.82,0,0,0,.43.12.88.88,0,0,0,.44-1.64Zm7-4-13.87-8a.86.86,0,0,0-1.19.32.87.87,0,0,0,.32,1.19l13.86,8a.88.88,0,0,0,.44.12.88.88,0,0,0,.44-1.64Zm83.59-48.35-13.86-8a.87.87,0,1,0-.88,1.51l13.87,8a.82.82,0,0,0,.43.12.88.88,0,0,0,.44-1.64ZM92.11,302.26l-13.86-8a.87.87,0,1,0-.87,1.51l13.86,8a.87.87,0,1,0,.87-1.51Zm-20.9,12.08-13.86-8a.87.87,0,1,0-.87,1.51l13.86,8a.88.88,0,0,0,.44.12.88.88,0,0,0,.43-1.64ZM50.32,326.43l-13.87-8a.88.88,0,0,0-.87,1.52l13.86,8a.88.88,0,0,0,.88-1.52Zm273.92,71.09-13.86-8a.89.89,0,0,0-1.2.32.88.88,0,0,0,.32,1.2l13.87,8a.81.81,0,0,0,.43.11.86.86,0,0,0,.76-.43A.88.88,0,0,0,324.24,397.52Zm-7,4-13.86-8a.87.87,0,0,0-1.19.32.88.88,0,0,0,.32,1.2l13.86,8a.88.88,0,1,0,.87-1.52Zm-7,4-13.86-8a.88.88,0,0,0-.88,1.52l13.86,8a.87.87,0,0,0,1.2-.32A.87.87,0,0,0,310.31,405.58Zm-7,4-13.86-8a.88.88,0,1,0-.87,1.52l13.86,8a.87.87,0,0,0,.87-1.51Zm27.87-16.12-13.87-8a.88.88,0,0,0-.87,1.52l13.86,8a.88.88,0,1,0,.88-1.52ZM366,373.35l-13.87-8a.87.87,0,1,0-.87,1.51l13.86,8a.87.87,0,0,0,1.2-.32A.87.87,0,0,0,366,373.35Zm-27.87,16.11-13.86-8a.87.87,0,1,0-.87,1.51l13.86,8a.88.88,0,0,0,.44.12.88.88,0,0,0,.43-1.64Zm-41.79,24.18-13.87-8a.87.87,0,0,0-1.19.32.88.88,0,0,0,.32,1.2l13.86,8a.87.87,0,0,0,1.2-.32A.87.87,0,0,0,296.38,413.64Zm62.69-36.26-13.86-8a.87.87,0,1,0-.88,1.51l13.87,8a.85.85,0,0,0,.43.12.87.87,0,0,0,.44-1.63Zm-13.93,8.05-13.86-8a.87.87,0,1,0-.88,1.51l13.87,8a.82.82,0,0,0,.43.12.88.88,0,0,0,.44-1.64Zm7-4-13.87-8a.87.87,0,1,0-.87,1.51l13.86,8a.88.88,0,0,0,.44.12.88.88,0,0,0,.44-1.64ZM240.65,445.87l-13.87-8a.88.88,0,0,0-.87,1.52l13.86,8a.88.88,0,1,0,.88-1.52ZM219.75,458l-13.86-8a.88.88,0,1,0-.88,1.52l13.86,8a.88.88,0,0,0,.44.12.86.86,0,0,0,.76-.44A.87.87,0,0,0,219.75,458Zm27.86-16.12-13.86-8a.87.87,0,0,0-1.19.33.86.86,0,0,0,.32,1.19l13.86,8a.87.87,0,0,0,.44.11.86.86,0,0,0,.75-.43A.87.87,0,0,0,247.61,441.84Zm-20.9,12.09-13.86-8a.88.88,0,0,0-.87,1.52l13.86,8a.87.87,0,0,0,.44.11.85.85,0,0,0,.75-.44A.86.86,0,0,0,226.71,453.93Zm62.7-36.26-13.86-8a.88.88,0,0,0-.88,1.52l13.87,8a.82.82,0,0,0,.43.12.88.88,0,0,0,.76-.44A.87.87,0,0,0,289.41,417.67Zm-34.83,20.14-13.86-8a.87.87,0,1,0-.88,1.51l13.87,8a.82.82,0,0,0,.43.12.88.88,0,0,0,.44-1.64Zm-20.9,12.09-13.86-8a.89.89,0,0,0-1.2.32.88.88,0,0,0,.32,1.2l13.87,8a.84.84,0,0,0,.43.11.86.86,0,0,0,.76-.43A.88.88,0,0,0,233.68,449.9Zm48.76-28.2-13.86-8a.87.87,0,1,0-.87,1.51l13.86,8a.88.88,0,0,0,.44.12.87.87,0,0,0,.43-1.63Zm-7,4-13.87-8a.87.87,0,1,0-.87,1.51l13.86,8a.87.87,0,0,0,1.2-.32A.87.87,0,0,0,275.48,425.73Zm-13.93,8-13.87-8a.86.86,0,0,0-1.19.32.87.87,0,0,0,.32,1.19l13.86,8a.88.88,0,0,0,.44.12.88.88,0,0,0,.44-1.64Zm7-4-13.86-8a.87.87,0,1,0-.88,1.51l13.87,8a.85.85,0,0,0,.43.12.87.87,0,0,0,.44-1.63Z" style="fill:#fafafa"></path></g></g><g id="freepik--Character--inject-20"><g id="freepik--character--inject-20"><path id="freepik--shadow--inject-20" d="M55.2,318.71c8.19,36.86,63,68.64,95.83,77.4,44.12,8,69.93-20,106.61-33,15.88-3.74,27.3-15.51,40.22-24.45,14.56-8.45,29.65-17.1,45.88-21.75,7.11-3.17,43.89-1.95,35.82-14.23C331,258.7,278.06,341,224.87,324.55,212.5,320,202,311.22,191.19,303.91c-8.95-9.25-19.84-16.62-32.86-18.33-26.23-3.7-91-13.47-102.42,18.13A27,27,0,0,0,55.2,318.71Z" style="opacity:0.30000000000000004"></path><g id="freepik--Bottom--inject-20"><g id="freepik--Legs--inject-20"><path d="M325.52,312.32l-.46.18a79.34,79.34,0,0,1-10.44,3.36c-3.22.8-6.4,1.32-9.41,2.9-14.93,7.83-24.91,9.79-42.32,27.09,0,0-17.8-19.34-19.47-21.11,0,0,11.63-4.72,11.84-9.85a12.46,12.46,0,0,1,3.87-8.47c2.2-1.88,5.34-2.6,9.75-3.37a73.79,73.79,0,0,0,11.22-2.44,30.66,30.66,0,0,0,5.41-2.46A43,43,0,0,1,300,292.63a30.33,30.33,0,0,1,11.91.83,41.42,41.42,0,0,1,6.86,2.26c1.77.76,4.34,1.57,5.28,3.37a4.5,4.5,0,0,0,.42.78,3.09,3.09,0,0,0,1.76.8,7.43,7.43,0,0,1,3.66,2.05,5.15,5.15,0,0,1,1.41,3.88,5.8,5.8,0,0,1-2.24,3.79A13.77,13.77,0,0,1,325.52,312.32Z" style="fill:#f28f8f"></path><path d="M168.23,267.23c6.89,6.73,18.23,13.15,30.19,22.15,19.94,15,38.79,29.19,46.59,41.45,6.76,10.64,11.67,29.35-12.6,32-13.82,1.53-45.47-8.59-59.12-17l-30.66-26.58Z" style="fill:#ffa8a7"></path><path d="M227.73,363.07c-5.59-1-8.62-4.26-15.12-10-7.74-6.84-12.67-9.92-26.19-10-14.59-15.45-40-33.45-40-33.45,5.62-9.84,10-18.21,12.7-26.47l7.88-1.59c1.13,14.23-12.41,28.94-12.41,28.94l33.13,29.64s12.82-.54,18.87,4.81S221.32,361.1,227.73,363.07Z" style="fill:#f28f8f"></path><path d="M374.82,296.63a7.43,7.43,0,0,0-3.05-2.88,3,3,0,0,1-1.51-1.2,4.18,4.18,0,0,1-.22-.86c-.47-2-2.78-3.39-4.31-4.55a41.56,41.56,0,0,0-6.1-3.86,30.4,30.4,0,0,0-11.35-3.7,43,43,0,0,0-15.37,1.85,30.62,30.62,0,0,1-5.84,1.07,73.52,73.52,0,0,1-11.49-.35c-4.46-.32-7.68-.39-10.27.9a12.45,12.45,0,0,0-5.8,7.27c-1.46,4.93-13.88,6.68-13.88,6.68l.05.1c-4.92.92-11.35,1.61-21.51,3.34-11.77,2-30.55,5.7-40.24,15.23s16.26,45.56,16.26,45.56c15.69-5.58,47.7-33.34,62.61-40.75s29.29-10.74,44.21-14.27c3.31-.79,6.52-.54,9.84-.53a80,80,0,0,0,10.94-.72l.5-.07a14.26,14.26,0,0,0,3.87-1,5.83,5.83,0,0,0,3.09-3.14A5.13,5.13,0,0,0,374.82,296.63Z" style="fill:#ffa8a7"></path><path d="M227.77,312.49c11.25,8.41,14.79,15.84,14.79,15.84s-2.23-12.41-11.6-17.86A30.82,30.82,0,0,0,227.77,312.49Z" style="fill:#f28f8f"></path><path d="M69.06,275.05c-12.22,29-3.83,55,16.34,71.45,24.87,20.35,37,26.89,53.85,34.4,17.72,7.91,42,9.85,53.89,1.53,11.05-7.74,4.67-19.22,3-25.43-4.2-15.23-49.73-47.41-49.73-47.41,9.39-16.43,15.29-28.76,15.74-43.31Z" style="fill:#ffa8a7"></path><path d="M188.37,385c13.39-5.24,39.36-21.91,39.36-21.91-5.6-1-8.62-4.27-15.12-10-7.74-6.84-12.67-9.91-26.18-10C186.43,343,177.47,389.24,188.37,385Z" style="fill:#ffa8a7"></path><path d="M193.62,352.18c-.73-4.56-1.75-6.62-4-9-1-.06-2.08-.09-3.22-.1A30.3,30.3,0,0,1,193.62,352.18Z" style="fill:#f28f8f"></path><path d="M146.36,309.59c-5.22-2.55-19.41-4.91-34-2.51,4.11-5,22-6.66,37.68-1.12Z" style="fill:#f28f8f"></path></g><g id="freepik--bottom--inject-20"><path d="M165.81,263.93a21.77,21.77,0,0,0-6.07-14.43c.18-4.65.27-9.75.27-14.75l-80.57,2.88a36.81,36.81,0,0,1-2.12,18.15c-.95,2.51-6.59,13.39-7.35,16.11,6.28,17.27,45.92,21.74,70,14.5C154.73,282,164.24,276.65,165.81,263.93Z" style="fill:#ffa8a7"></path><path d="M143.1,268.17a6.58,6.58,0,0,1,1.3-2A6.68,6.68,0,0,1,146,264.9a2.28,2.28,0,0,1,.91-.3,8.69,8.69,0,0,1,1,0c.22,0,.39.48.21.61-.54.42-1,.92-1.52,1.36l-.18.18a2.4,2.4,0,0,1,.61.38,6.53,6.53,0,0,1,1.53,2.18.91.91,0,0,1,0,.82.35.35,0,0,1-.55,0,2.53,2.53,0,0,0-.45-.34l-.16-.09s-.15-.12,0,0a1.39,1.39,0,0,0-.28-.12,5.35,5.35,0,0,0-.68-.21l-.53-.14a5.2,5.2,0,0,0-1-.09s-.08,0-.12,0-.1.26-.16.39-.11.29-.16.43a1.39,1.39,0,0,0-.06.19v0a3.72,3.72,0,0,1-.37,1.14,2.18,2.18,0,0,1-.28.69c-.18.26-.49.15-.67,0s-.23-.57-.34-.86a.5.5,0,0,1,0-.12A4.21,4.21,0,0,1,143.1,268.17Z" style="fill:#f28f8f"></path><path d="M165.81,263.93c-1.57,4.67-3.24,13.19-21.12,19.81-23.62,8.75-66.88,2.71-74.73-11.85l-.9,3.16S70.46,284.36,91,291s30.08,8,55.41,18.63c13.84-6.32,22.43-22.47,21.87-42.36Z" style="fill:#0E8B01"></path><g style="opacity:0.2"><path d="M165.81,263.93c-1.57,4.67-3.24,13.19-21.12,19.81-23.62,8.75-66.88,2.71-74.73-11.85l-.9,3.16S70.46,284.36,91,291s30.08,8,55.41,18.63c13.84-6.32,22.43-22.47,21.87-42.36Z"></path></g></g></g><g id="freepik--Top--inject-20"><g id="freepik--Hat--inject-20"><ellipse cx="117.85" cy="105.72" rx="72.65" ry="40.23" transform="translate(-27.43 42.79) rotate(-18.47)" style="fill:#0E8B01"></ellipse><ellipse cx="117.85" cy="105.72" rx="45.41" ry="25.15" transform="matrix(0.95, -0.32, 0.32, 0.95, -27.43, 42.79)" style="opacity:0.30000000000000004"></ellipse></g><path id="freepik--Hair--inject-20" d="M157.67,142.59c15.22,35.12-43,80.82-69.25,48.37-1,0-2-.07-2.94-.16-16.27-.81-36-20.45-29.11-36.92-3.23,4.21-6.64,9.48-4.7,14.41C35.13,145.88,66,130.2,75.91,113.52c.19-.31.38-.63.55-1,2.64-4.54,5-9.31,7.75-13.86,6.05-6.3,15.16-12,26.07-15.63,16.33-5.45,32.18-4.87,41.3.6l.65.5a35.39,35.39,0,0,1,7,9.58c5.5,11.34,2.78,23.95-9.52,32.39a26,26,0,0,1,13.55,25.37A16.35,16.35,0,0,0,157.67,142.59Z" style="fill:#263238"></path><g id="freepik--Arm--inject-20"><path d="M285.37,212.21c-.73-1.78-2.51-.25-3,.57-2.39-4.63-4.74-8.42-7.71-7.08a10.73,10.73,0,0,0-2.76-2.51c-1.13-.47-3,1-2.18,4.35-1.47.71-2.25,1-2.56,3a10.93,10.93,0,0,1-3.2-1.82c-2.12-1.55-4.91-4.66-7.46-4.84-3.84-.28-3.07-1.44-5.6-1.87s-6.12-.43-15.52,1.63c-8,1.76-29.33,6.18-40.25,9.38-.54-.95-1.1-1.91-1.68-2.89C186.88,199,174.55,183.5,168,175s-10.55-11.08-24.43-13l.54,35.18s20.65,27.25,30.25,38.49c7.77,9.11,11.72,10.14,22.19,7.08,10.82-3.16,18.72-8.13,28.52-13.28S242,221.38,244.25,222s14.57,7.39,19.29,10.87c3.82,2.81,3.09,1.68,8,1.33s10.43-1.87,11.7-2.73,3.49-8,4-10.49S286.11,214,285.37,212.21Z" style="fill:#ffa8a7"></path><path d="M195.13,213c-5.53,2-11.85,8.15-12.67,13.66-.69-9.1,10.63-17.14,10.63-17.14Z" style="fill:#f28f8f"></path><path d="M225.52,206.8a2.06,2.06,0,0,0-1-.86c-9.62,2.09-21.94,4.85-29.41,7-.54-.95-1.1-1.91-1.68-2.89-4.55-7.65-11.86-17.44-18.09-25.57-1.44.59-2.65,3.77-2.34,5.4.46,2.41,1.62,2.91,1,5.28a9,9,0,0,1-1,1.9,6.74,6.74,0,0,0,0,5.85,9.28,9.28,0,0,0,4.2,4.22c1.66.86,3.54,1.32,5,2.49,2.54,2,3.14,5.66,5.18,8.19a9,9,0,0,0,8.82,3c2.06-.49,3.89-1.71,6-2.22,3.7-.91,7.89.52,11.27-1.23,3-1.57,4.55-5.32,7.7-6.65a26.75,26.75,0,0,0,3.18-1.15C225.3,209.05,226.05,207.8,225.52,206.8Z" style="fill:#f5f5f5"></path><path d="M193.2,209.68a1.74,1.74,0,0,0-.11-.18,35.91,35.91,0,0,0-6.79,6.65,12.72,12.72,0,0,0,1.11,1.7l.12.13a21.55,21.55,0,0,1,7.6-5Z" style="fill:#e0e0e0"></path><path d="M225.1,229.43a105.45,105.45,0,0,1,14.93-7c1.74-.56,3.74-1.17,5.44-.17a130.82,130.82,0,0,1,19,11,6.39,6.39,0,0,0,2.32,1.18,69.57,69.57,0,0,0,13.41-2.1c1.17-.45,2.7-.59,3.34-1.76a43.33,43.33,0,0,0,3.18-9c.7-2.64-.33-5.31-1.15-7.83-.29-.61-.47-1.82-1.11-2.06-.82-.14-1.76,1-2.17,1.72l-.26-.52c-1.44-2.45-3.91-8.62-7.51-6.86a10.6,10.6,0,0,0-2.67-2.55.91.91,0,0,0-.89,0c-1.4.75-1.32,2.79-1,4.18l-.21.1a6,6,0,0,0-1.68,1,3.71,3.71,0,0,0-.78,2.07c-3.83-1.27-6.11-4.76-9.43-6.38-1.26-.61-2.71-.35-4-.89a6.3,6.3,0,0,1-1.25-.7c-1.5-1-3.49-.9-5.23-.92-7.36.38-14.52,2.55-21.79,3.69,7.2-1.68,14.35-3.73,21.77-4.16,1.86,0,3.88-.08,5.52,1a5.37,5.37,0,0,0,2.45,1,8.45,8.45,0,0,1,2.77.57c3.35,1.6,5.55,4.93,9.05,6.19l-.34.23a3.61,3.61,0,0,1,.87-2,6.22,6.22,0,0,1,1.84-1.14l-.16.33c-.37-1.6-.35-3.74,1.33-4.64a1.55,1.55,0,0,1,1.42,0,10.32,10.32,0,0,1,2.72,2.51l-.37-.09c4.09-1.61,6.52,4.47,8.14,7.22l-.59,0a2.83,2.83,0,0,1,2.59-1.53c1.17.41,1.15,1.58,1.6,2.49.87,2.57,1.89,5.48,1.15,8.22-1,3.32-1.8,6.8-3.72,9.72-2.4,1.63-5.87,2-8.68,2.6-1.8.32-3.66.37-5.46.61a11.48,11.48,0,0,1-2.8.27,6.67,6.67,0,0,1-2.55-1.28,130.29,130.29,0,0,0-18.89-11.06c-1.64-1-3.49-.36-5.19.15a105.25,105.25,0,0,0-15,6.63Z" style="fill:#b16668"></path><path d="M269.35,229.87c4.1-1.29,8.7-1.92,12.25-4.43,1.67-1.47.95-4,.9-6-.09-2.22-.14-4.44-.13-6.65.28,2.21.47,4.4.66,6.6s.89,4.92-1,6.58c-3.74,2.6-8.36,3.13-12.72,3.91Z" style="fill:#f28f8f"></path><path d="M267.2,225.68a48.34,48.34,0,0,0,9.43-4.13,2.5,2.5,0,0,0,.83-.7c.56-2.88.13-5.94-.21-8.84-.42-2.2-1.69-4.25-2.59-6.31.63,1,1.2,2,1.77,3a12.53,12.53,0,0,1,1.35,3.24,28.14,28.14,0,0,1,.43,8.73,2.18,2.18,0,0,1-1.25,1.45,32.76,32.76,0,0,1-9.76,3.59Z" style="fill:#f28f8f"></path><path d="M260.33,221.69c2.09-.17,4.2-.26,6.26-.51a4.79,4.79,0,0,0,2.76-1A20.63,20.63,0,0,0,272,217.4c.13-.19.27-.29.3-.53a49.06,49.06,0,0,0-.8-7.71c-.14-1-.47-2.3-1.76-1.62,1.29-.91,1.86.49,2.1,1.55a34,34,0,0,1,1.11,7.88,1.17,1.17,0,0,1-.16.5,14.34,14.34,0,0,1-3.71,3.7c-2.75,1-5.86.54-8.73.52Z" style="fill:#f28f8f"></path><path d="M267.16,210.5c-.26,1.53-.37,3.07-.53,4.6-2.18.19-4.4.53-6.57.56a9.39,9.39,0,0,1-2.83-2.36c-2.15-2.89-2.24-6.91-5.33-9.14,3.31,1.77,3.8,6,5.86,8.7a9.37,9.37,0,0,0,2.6,2.19l-.17,0q3.1-.21,6.23-.31l-.19.18a29.94,29.94,0,0,1,.93-4.38Z" style="fill:#f28f8f"></path></g><g id="freepik--Chest--inject-20"><path d="M89,163.58c4.84-1.09,9.89-2.84,10.3-9l29.78.06c-.14,2.84,1.79,3.48,5.24,4.5,4.55,1.34,9.21,2.92,9.21,2.92s13.83,15.88,17.29,22,17.81,24.22-2.5,39.86l-81.5-3.37C88.59,207.26,94.31,190.55,89,163.58Z" style="fill:#ffa8a7"></path><path d="M135.32,211.67c1.62-7.06-2.86-16.84-7.52-20.33a20.88,20.88,0,0,1,12.57,20.46C139.63,220,135.32,211.67,135.32,211.67Z" style="fill:#f28f8f"></path><path d="M166,189.09A133.2,133.2,0,0,0,143.6,162l-5.14-1.52c9.56,9.7,15,24.69,15,24.69-4.63,2.73-13.37,11-15.5,26-6.48-15.35-21.37-18.18-34.56-18.5C97.71,174,89,163.58,89,163.58l-7.7,1.58s7.32,13.79,5.22,27.91-12.83,22.5-12.83,22.5l5.47,22.51s10.23,10.75,39.71,11.15,41.15-13,41.15-13,1.21-7.08,2.54-13.73C170.61,215.8,173.89,202,166,189.09Z" style="fill:#0E8B01"></path><path d="M166,189.09A133.2,133.2,0,0,0,143.6,162l-5.14-1.52c9.56,9.7,15,24.69,15,24.69-4.63,2.73-13.37,11-15.5,26-6.48-15.35-21.37-18.18-34.56-18.5C97.71,174,89,163.58,89,163.58l-7.7,1.58s7.32,13.79,5.22,27.91-12.83,22.5-12.83,22.5l5.47,22.51s10.23,10.75,39.71,11.15,41.15-13,41.15-13,1.21-7.08,2.54-13.73C170.61,215.8,173.89,202,166,189.09Z" style="opacity:0.2"></path></g><g id="freepik--Head--inject-20"><path d="M96.53,133.4a10.2,10.2,0,0,1-8.67-4.52c-4.15-5.78-4-11.13-1.28-14.39,2.19-2.67,6.94-4,9.88-1.63,3.13,2.51,3,4.23,4,6.75s6,2.92,8.33-6.49c2.19-8.78,4-17.69,9.49-20.27,8-3.79,12.65-.19,15.52,3.47a8.39,8.39,0,0,1,12.44-2.92c4.14,2.88,7.38,7.87,6.86,25-.53,17.42-4.54,26.06-9.38,29.81-3,2.32-6.68,4.2-14.47,4l-.56,9.33s3.83,10.12,1,28.94c-10.23-13.08-17.55-20.76-30.35-35.79l1.27-23.47S100,133.18,96.53,133.4Z" style="fill:#ffa8a7"></path><path d="M123.66,122.55a6.29,6.29,0,1,1-6.28-6.29A6.29,6.29,0,0,1,123.66,122.55Z" style="fill:#f28f8f"></path><path d="M150.17,118a6.29,6.29,0,1,0,0,12.58,6.1,6.1,0,0,0,1.87-.29,90.1,90.1,0,0,0,1.07-11.56A6.34,6.34,0,0,0,150.17,118Z" style="fill:#f28f8f"></path><path d="M126.11,117.81a3,3,0,0,1-3.88,1.54,2.92,2.92,0,0,1-1.42-3.9,3,3,0,0,1,3.88-1.54A2.93,2.93,0,0,1,126.11,117.81Z" style="fill:#263238"></path><path d="M123.66,113.67c-1.81-.17-3.18,2.11-4.8.94.13,1.33,2,2.33,3.34,1.84C123.07,116.13,123.66,113.67,123.66,113.67Z" style="fill:#263238"></path><path d="M149.63,112l-5.77-3.83a3.36,3.36,0,0,1,4.73-1A3.58,3.58,0,0,1,149.63,112Z" style="fill:#263238"></path><path d="M141.57,118.26a2.9,2.9,0,1,0,2.14-3.55A2.92,2.92,0,0,0,141.57,118.26Z" style="fill:#263238"></path><path d="M144.76,114.67c1.81.17,2.72,2.66,4.54,1.82a2.64,2.64,0,0,1-3.64,1.18C144.87,117.19,144.76,114.67,144.76,114.67Z" style="fill:#263238"></path><path d="M125,107.31l-6.73,3.1a3.49,3.49,0,0,1,1.65-4.84A3.93,3.93,0,0,1,125,107.31Z" style="fill:#263238"></path><path d="M123.6,131.22l9.29,3.83c-1,2.59-4.13,3.78-7,2.46C123.34,136.36,122.62,133.81,123.6,131.22Z" style="fill:#b16668"></path><path d="M128.59,138a5.24,5.24,0,0,0-4.9-5.06,4.1,4.1,0,0,0-.49,0,4.39,4.39,0,0,0,2.66,4.53A5.73,5.73,0,0,0,128.59,138Z" style="fill:#f28f8f"></path><polygon points="132.74 111.67 132.63 128.84 142.38 126.43 132.74 111.67" style="fill:#f28f8f"></polygon><path d="M129.27,152.14c-9.23-.66-13.66-3.55-17.91-7-1.83-1.48-4.89-6-6.86-10.49a26,26,0,0,0,5.23,12.66c6.29,7.63,19.39,7.36,19.39,7.36Z" style="fill:#f28f8f"></path></g><g id="freepik--arm--inject-20"><path d="M193.82,204.83a2.54,2.54,0,0,0-2.59-1.76c1.27-.76,1.4-1.62,1-3.48s-1.44-2.66-3-2.45c0,0-.73-3.59-1.55-4.61s-2.83-.54-4.84-.27c-.54-1.6-2.66-1.84-7.41-.95s-9.26,1.43-11.6,2.66-6.36,8.75-9.27,13c-2.18,3.18-10.43,7.83-18.51,10.66s-15.58,5-31.15,9.39c-3.82-11.3-12.16-38.41-14.33-44.22-6.08-16.25-9.21-17.65-9.21-17.65-13.57,2.8-17.83,11.4-19.55,18.52-2.57,10.6,2.22,25.95,6.31,38.41s10.38,27,14.62,34.18,10.61,8.6,13,8.63,9-1,19.15-6.45,17.21-11.22,38.35-24c5.08-3.08,7.51-4.73,14.44-6.59s8.94-3.53,13.42-6.43,11-8.4,11.62-9.47.48-2.28-.66-3.5C194.38,206.82,194.18,205.67,193.82,204.83Z" style="fill:#ffa8a7"></path><path d="M171.57,195.59c.88-.45,1.78-.84,2.7-1.2s1.84-.68,2.77-1,1.89-.56,2.85-.76a16.12,16.12,0,0,1,2.93-.39c-.95.25-1.89.52-2.82.8l-2.79.88-2.81.85C173.47,195.07,172.53,195.35,171.57,195.59Z" style="fill:#f28f8f"></path><path d="M177.83,201.08a22.81,22.81,0,0,1,2.69-1.39c.92-.42,1.86-.78,2.81-1.12s1.92-.63,2.9-.88a16.65,16.65,0,0,1,3-.55c-.49.14-1,.3-1.44.47l-1.42.49-2.84,1Z" style="fill:#f28f8f"></path><path d="M185.05,196.5a3.17,3.17,0,0,1-.28,1,2.75,2.75,0,0,1-.67.88c-.17.15.14.49.29.3a3.28,3.28,0,0,0,.56-1,2.87,2.87,0,0,0,.16-1.16S185.06,196.44,185.05,196.5Z" style="fill:#f28f8f"></path><path d="M181.48,206.85a27.37,27.37,0,0,1,4.7-2.32,23.2,23.2,0,0,1,5-1.46c-.82.32-1.62.67-2.42,1l-2.43,1C184.76,205.67,183.14,206.29,181.48,206.85Z" style="fill:#f28f8f"></path><path d="M184,213.71a38.68,38.68,0,0,1,3.89-2.88,36.32,36.32,0,0,1,4.2-2.42,38.68,38.68,0,0,1-3.89,2.88A37.18,37.18,0,0,1,184,213.71Z" style="fill:#f28f8f"></path><path d="M68.1,222.09a233.43,233.43,0,0,0,13.19,31c2.45,5,6.22,9.58,11.76,11,5.37,1.36,11.08-1.27,16-3.23,10.3-4.54,19.39-11.34,28.91-17.29q7.13-4.53,14.37-8.87c4.77-3,9.79-5.7,15.34-6.93-5.53,1.35-10.43,4.14-15.15,7.24q-7.19,4.42-14.25,9c-11,6.81-32.34,23.56-45.43,20.68-5.7-1.48-9.69-6.29-12.09-11.38a213.64,213.64,0,0,1-12.69-31.3Z" style="fill:#b16668"></path><path d="M104.88,227c-13.7,6.21-15.82,13.51-15.82,13.51s-1-9.21,14.76-16.66Z" style="fill:#f28f8f"></path><path d="M153.27,234.4a49.55,49.55,0,0,1,11-5.75c3.93-1.3,8-2.14,11.61-4.28,1.78-1,3.48-2.22,5.22-3.36a90.87,90.87,0,0,0,9.74-7.66c1.66-1.41,2.79-2.77,1-4.7l-.28-.3c1-.68,2.38-1.63,2.08-3a2.36,2.36,0,0,0-2.39-2l-1.46,0,1.26-.73c1.34-.66,1.08-2,.76-3.24a2.24,2.24,0,0,0-2.55-2l-.32,0-.06-.31a13.88,13.88,0,0,0-1.51-4.51c-1.1-.95-3.1-.22-4.5-.13l-.27,0-.08-.25c-.95-2.33-6-.82-8-.61a88.44,88.44,0,0,0-8.81,1.71c-3.05.67-4.54,3.63-6.23,6-1.66,2.5-3.2,5.07-4.92,7.54,1.65-2.51,3.13-5.12,4.73-7.67s3.17-5.54,6.29-6.26c2.91-.87,5.9-1.27,8.84-1.84,2.39-.3,7.49-2,8.72.94l-.34-.21c3.21-.44,5.22-1.2,6.14,2.7.25.8.45,1.61.62,2.43l-.38-.27a2.74,2.74,0,0,1,2.22.57,3.84,3.84,0,0,1,1.1,1.95c.45,1.44.54,3.27-1.07,4.06l-.2-.68a3.08,3.08,0,0,1,3.12,2.52c.38,1.54-.94,2.72-2,3.48l.05-.53c2,2.15,1,4.05-1,5.68a90.91,90.91,0,0,1-15.16,11c-3.64,2.09-7.8,2.93-11.76,4.13a49.14,49.14,0,0,0-11.14,5.44Z" style="fill:#b16668"></path></g></g></g></g><g id="freepik--Sunscreen--inject-20"><g id="freepik--sunscreen--inject-20"><g id="freepik--Tube--inject-20"><path d="M318.87,255.55h0v-9.37h19.35v9.37h0a4.9,4.9,0,0,1-2.84,4.4,15.13,15.13,0,0,1-13.71,0A4.94,4.94,0,0,1,318.87,255.55Z" style="fill:#0E8B01"></path><path d="M338.22,255.55a4.9,4.9,0,0,1-2.84,4.4,15.13,15.13,0,0,1-13.71,0,4.94,4.94,0,0,1-2.8-4.4" style="fill:#0E8B01"></path><path d="M321.67,256.93a15.19,15.19,0,0,0,13.71,0,4.9,4.9,0,0,0,2.84-4.41v.76a4.89,4.89,0,0,1-2.84,4.4,15.13,15.13,0,0,1-13.71,0,4.92,4.92,0,0,1-2.8-4.4v-.76A4.94,4.94,0,0,0,321.67,256.93Z" style="opacity:0.15"></path><path d="M340.83,197a2.89,2.89,0,0,0-1.32-2.27l-22-12.69c-.72-.42-1.31-.08-1.31.76v5.58l24.6,14.21Z" style="fill:#0E8B01"></path><path d="M315.48,246.18l.75-57.81,24.6,14.21.74,43.6h0c0,1.93-1.27,3.85-3.82,5.32-5.09,2.94-13.35,2.94-18.45,0C316.76,250,315.48,248.1,315.48,246.18Z" style="fill:#0E8B01"></path><path d="M315.48,246.18l.75-57.81,24.6,14.21.74,43.6h0c0,1.93-1.27,3.85-3.82,5.32-5.09,2.94-13.35,2.94-18.45,0C316.76,250,315.48,248.1,315.48,246.18Z" style="fill:#fff;opacity:0.5"></path></g><g id="freepik--Sun--inject-20"><path d="M331.44,223.23a.5.5,0,0,0,.25.23.2.2,0,0,0,.13,0l4.48-.78c.14,0,.18-.17.11-.34a.42.42,0,0,0-.38-.25l-4.48.78C331.41,222.91,331.37,223.06,331.44,223.23Z" style="fill:#fff"></path><path d="M331.08,215.44l-2.59,3.41c-.08.1,0,.28.1.41a.41.41,0,0,0,.14.1.2.2,0,0,0,.24-.05l2.59-3.41c.08-.1,0-.28-.1-.41S331.15,215.34,331.08,215.44Z" style="fill:#fff"></path><path d="M325,216.51v-5.12a.45.45,0,0,0-.27-.39c-.16-.06-.28,0-.28.16v5.13a.45.45,0,0,0,.28.39A.18.18,0,0,0,325,216.51Z" style="fill:#fff"></path><path d="M337.94,229.4l-5.17-2.06c-.16-.06-.28,0-.28.16a.44.44,0,0,0,.28.39l5.17,2.06c.15.06.28,0,.28-.16A.46.46,0,0,0,337.94,229.4Z" style="fill:#fff"></path><path d="M318.72,222c0,3.27,2.67,7,6,8.31s6-.27,6-3.55-2.68-7-6-8.31S318.72,218.74,318.72,222Z" style="fill:#fff"></path><path d="M320.8,229.54c-.13-.13-.3-.15-.38,0l-2.59,3.41a.34.34,0,0,0,.11.41.38.38,0,0,0,.13.1.22.22,0,0,0,.25,0L320.9,230A.35.35,0,0,0,320.8,229.54Z" style="fill:#fff"></path><path d="M315.87,216.15l1.7,1.65a.42.42,0,0,0,.14.09.19.19,0,0,0,.24,0,.36.36,0,0,0-.1-.42l-2-1.91Z" style="fill:#fff"></path><path d="M331.32,238.68a.23.23,0,0,0,.14,0c.13,0,.18-.17.1-.34L329,232.89a.4.4,0,0,0-.38-.25c-.13,0-.18.18-.1.34l2.59,5.47A.45.45,0,0,0,331.32,238.68Z" style="fill:#fff"></path><path d="M324.42,232.29v5.13a.44.44,0,0,0,.28.38c.15.06.27,0,.27-.16v-5.13a.48.48,0,0,0-.27-.39C324.54,232.06,324.42,232.14,324.42,232.29Z" style="fill:#fff"></path><path d="M317.85,225.91c.13,0,.17-.17.1-.34a.42.42,0,0,0-.38-.25l-1.82.32v.64Z" style="fill:#fff"></path><path d="M331.82,231c-.13-.13-.3-.15-.38-.05a.35.35,0,0,0,.11.42l4.48,4.35a.51.51,0,0,0,.13.09.22.22,0,0,0,.25,0,.35.35,0,0,0-.11-.42Z" style="fill:#fff"></path><path d="M316.63,221.46c.15.06.27,0,.27-.16a.46.46,0,0,0-.27-.39l-.82-.32v.55Z" style="fill:#fff"></path><path d="M318.32,210.35a.42.42,0,0,0-.38-.25c-.14,0-.18.18-.11.34l2.59,5.47a.48.48,0,0,0,.24.23.24.24,0,0,0,.14,0c.13,0,.18-.17.1-.34Z" style="fill:#fff"></path></g></g></g><g id="freepik--speech-bubble--inject-20"><g id="freepik--speech-bubble--inject-20"><g id="freepik--speech-bubble--inject-20"><path d="M412.88,271.69A34.8,34.8,0,0,1,389,262.28l-2.76-2.88a34.88,34.88,0,0,1,49.09-49.25l2.9,2.76a34.88,34.88,0,0,1-25.38,58.78Z" style="fill:#fff"></path><path d="M450.7,236.72a37.86,37.86,0,0,0-75.21-6.19l-11,4.27a2.2,2.2,0,0,0,0,4.1l11,4.24a37.86,37.86,0,0,0,75.19-6.42Zm-37.82,35A34.8,34.8,0,0,1,389,262.28l-2.76-2.89a34.88,34.88,0,0,1,49.09-49.24l2.9,2.76a34.88,34.88,0,0,1-25.38,58.78Z" style="fill:#455a64"></path></g><g id="freepik--Skin--inject-20"><path d="M447,244.15A34.88,34.88,0,0,1,389,262.29l-2.75-2.89a34.67,34.67,0,0,1-7.57-15.25Z" style="fill:#ffa8a7"></path><path d="M447.68,238.76a34.27,34.27,0,0,1-.73,5.39H378.71a34.11,34.11,0,0,1-.73-5.39Z" style="fill:#f28f8f"></path></g><g id="freepik--Arrow--inject-20"><polygon points="427.81 218.35 430.17 220.71 417.49 233.39 403.92 219.82 401.57 222.17 417.49 238.09 432.52 223.05 434.88 225.41 436.14 217.08 427.81 218.35" style="fill:#0E8B01"></polygon><polygon points="427.81 218.35 430.17 220.71 417.49 233.39 403.92 219.82 401.57 222.17 417.49 238.09 432.52 223.05 434.88 225.41 436.14 217.08 427.81 218.35" style="opacity:0.2"></polygon></g><polygon id="freepik--arrow--inject-20" points="413.43 218.35 415.79 220.71 403.11 233.39 389.54 219.82 387.19 222.17 403.11 238.09 418.14 223.05 420.5 225.41 421.76 217.08 413.43 218.35" style="fill:#0E8B01"></polygon></g></g></svg>
