<svg xmlns="http://www.w3.org/2000/svg" viewBox="0 0 500 500"><path d="M97.3 281.32C13 330 13 409 97.3 457.64s221.07 48.69 305.4 0 84.3-127.64 0-176.32-221.07-48.69-305.4 0Z" style="fill:#fafafa"/><path d="M50.71 421.82c-9.17 5.3-9.17 13.88 0 19.18s24 5.29 33.21 0 9.18-13.88 0-19.18-24.04-5.3-33.21 0Z" style="fill:#e0e0e0"/><path d="M78 434.69c-9.18 5.29-9.18 13.88 0 19.17s24 5.3 33.21 0 9.17-13.88 0-19.17-24.08-5.3-33.21 0ZM412.83 433.27l-30.32 17.51c-5 2.87-13.7 2.51-19.45-.81-5.76-3.32-6.38-8.35-1.4-11.23L392 421.23c5-2.87 13.69-2.51 19.44.81 5.75 3.32 6.38 8.35 1.39 11.23Z" style="fill:#e0e0e0"/><path d="m394.51 427.63 30.33 17.51c5 2.88 13.69 2.52 19.45-.81 5.75-3.32 6.38-8.35 1.39-11.23l-30.32-17.5c-5-2.88-13.69-2.52-19.45.8-5.76 3.32-6.38 8.35-1.4 11.23ZM230.87 480.08 74.73 389.93l222.22-128.19 156.15 90.15-222.23 128.19z" style="fill:#e0e0e0"/><path d="M464 257.65c0-18-10.93-38.84-24.41-46.62-6.18-3.57-11.85-3.82-16.15-1.25L413 216l4.71 9.9c0 .74-.07 1.49-.07 2.27 0 17.25 10.07 37.17 22.8 45.62l4.64 9.76 10.4-6.06c5.2-2.96 8.52-9.92 8.52-19.84Z" style="fill:#8c00ff"/><g style="opacity:.30000000000000004"><path d="M464 257.65c0-18-10.93-38.84-24.41-46.62-6.18-3.57-11.85-3.82-16.15-1.25L413 216l4.71 9.9c0 .74-.07 1.49-.07 2.27 0 17.25 10.07 37.17 22.8 45.62l4.64 9.76 10.4-6.06c5.2-2.96 8.52-9.92 8.52-19.84Z" style="fill:#fff"/></g><path d="M428.59 217.08c13 7.51 23.54 27.64 23.54 45 0 5.68-1.14 10.34-3.11 13.79a18.9 18.9 0 0 0 4.6 13.54 1.54 1.54 0 0 1-1.41 2.52 23.22 23.22 0 0 1-6.61-2.22 21.4 21.4 0 0 1-7.83-7 19 19 0 0 1-9.18-2.82c-13-7.5-23.54-27.64-23.54-45s10.54-25.31 23.54-17.81Z" style="fill:#8c00ff"/><path d="M428.59 217.08c13 7.51 23.54 27.64 23.54 45 0 5.68-1.14 10.34-3.11 13.79a18.9 18.9 0 0 0 4.6 13.54 1.54 1.54 0 0 1-1.41 2.52 23.22 23.22 0 0 1-6.61-2.22 21.4 21.4 0 0 1-7.83-7 19 19 0 0 1-9.18-2.82c-13-7.5-23.54-27.64-23.54-45s10.54-25.31 23.54-17.81Z" style="fill:#fff;opacity:.5"/><path d="M417.51 232.06c-1.31-.76-2.37 0-2.37 1.78a5.64 5.64 0 0 0 2.37 4.52c1.3.76 2.36 0 2.36-1.78a5.66 5.66 0 0 0-2.36-4.52Zm20.23 11.33c-1.31-.75-2.37.05-2.37 1.79a5.66 5.66 0 0 0 2.37 4.52c1.31.75 2.36 0 2.36-1.79a5.66 5.66 0 0 0-2.36-4.52ZM423.76 245.87a6.45 6.45 0 0 0-2.46.47c-2.32.95-4.1 3.28-5 6.55a1.06 1.06 0 1 0 2 .57c.74-2.63 2.08-4.46 3.78-5.16a5.64 5.64 0 0 1 5 .7c4.34 2.5 8.29 9.06 9.82 16.32a1.06 1.06 0 0 0 1.25.82 1.05 1.05 0 0 0 .82-1.25c-1.67-7.94-5.92-14.89-10.83-17.72a8.77 8.77 0 0 0-4.38-1.3Z" style="fill:#37474f"/><path d="m486.65 108.79-9.49-5.48a4.64 4.64 0 0 0-4.2 0l-5.28 3-22.89-13.17 5.27-3a1.28 1.28 0 0 0 0-2.43l-9.49-5.48a4.66 4.66 0 0 0-4.21 0l-20 11.56a1.28 1.28 0 0 0 0 2.43l9.49 5.48a4.66 4.66 0 0 0 4.21 0l6.9-4 22.89 13.22-6.9 4a1.28 1.28 0 0 0 0 2.43l9.49 5.48a4.66 4.66 0 0 0 4.21 0l20-11.56a1.28 1.28 0 0 0 0-2.48Z" style="fill:#e0e0e0"/><path style="fill:#37474f" d="m434.35 95.58 1.91-.56-8.41-.75-4.94.28 11.44 1.03z"/><path style="fill:#455a64" d="M427.85 83.06v11.21l-4.94.28V80.68l4.94 2.38z"/><path style="fill:#37474f" d="m436.26 72.6-3.77-3.83-9.58 11.91 4.94 2.38 8.41-10.46z"/><path style="fill:#263238" d="m444.67 73.35-.74-3.56-11.44-1.02 3.77 3.83 8.41.75z"/><path style="fill:#455a64" d="M444.67 84.56V73.35l-8.41-.75-8.41 10.46v11.21l8.41.75 8.41-10.46zM422.91 94.55l-6.64-3.83V76.85l6.64 3.83v13.87z"/><path style="fill:#37474f" d="m432.49 68.77-9.58 11.91-6.64-3.83 9.58-11.91 6.64 3.83z"/><path style="fill:#263238" d="m443.93 69.79-6.64-3.83-11.44-1.02 6.64 3.83 11.44 1.02z"/><path d="M423.07 87.62c0-2.29.07-4.57.07-6.86l4.76-5.87 4.69-5.89q5.66.44 11.34.79c-3.81-.45-7.61-.85-11.42-1.24h-.12l-.07.09-4.82 5.93-4.77 6-.05.06v.08c0 2.31 0 4.63.07 6.94s.11 4.62.16 6.93c.09-2.34.14-4.65.16-6.96Z" style="opacity:.2"/><path style="fill:#37474f" d="m425.85 64.94-2.79.54-7.97 9.92 1.18 1.45 9.58-11.91z"/><path style="fill:#455a64" d="m415.09 86.95 1.18 3.77V76.85l-1.18-1.45v11.55z"/><path d="M416.27 90.72c-.09-2.31-.16-4.62-.19-6.94s0-4.62-.06-6.93v-.09l.06-.07c1.6-2 3.21-4 4.83-5.93s3.27-3.9 5-5.82c-1.52 2-3.06 4.07-4.63 6.08s-3.15 4-4.75 6l.06-.16c0 2.31 0 4.62-.06 6.93s-.17 4.62-.26 6.93Z" style="opacity:.2"/><path style="fill:#fff;opacity:.1" d="m444.67 73.35-8.19-.2-8.05 10.13-.11 10.67 7.94 1.07-8.41-.75V83.06l8.41-10.46 8.41.75z"/><path d="M420.6 82.66a.19.19 0 0 1 .15 0 .86.86 0 0 1 .13.14l1.19 2a1.8 1.8 0 0 0 .1.18.53.53 0 0 1 .05.2V86s0 .08-.05.09a.19.19 0 0 1-.14 0l-4.66-2.69a.33.33 0 0 1-.13-.13.24.24 0 0 1-.06-.15v-.82a.08.08 0 0 1 .06-.08.17.17 0 0 1 .13 0l3.15 1.81-.65-1.11a.34.34 0 0 1 0-.15.1.1 0 0 1 .08-.07ZM422.3 88.79a1.42 1.42 0 0 1-.16.72.74.74 0 0 1-.43.31 1.33 1.33 0 0 1-.62 0 4.51 4.51 0 0 1-.75-.3l-.65-.36-.63-.38a6.64 6.64 0 0 1-.75-.56 4.5 4.5 0 0 1-.62-.69 3.12 3.12 0 0 1-.42-.81 2.42 2.42 0 0 1-.16-.89 1.3 1.3 0 0 1 .16-.72.66.66 0 0 1 .42-.31 1.11 1.11 0 0 1 .62 0 3.26 3.26 0 0 1 .75.3l.63.35c.23.13.45.26.65.39a5.62 5.62 0 0 1 .75.56 4 4 0 0 1 .62.69 3.49 3.49 0 0 1 .43.81 2.65 2.65 0 0 1 .16.89Zm-3.2-1.18c.4.25.81.49 1.21.7l.33.15a.66.66 0 0 0 .26 0 .24.24 0 0 0 .18-.1.49.49 0 0 0 .06-.27 1 1 0 0 0-.06-.35.92.92 0 0 0-.18-.3 1.33 1.33 0 0 0-.26-.27 2.75 2.75 0 0 0-.33-.23c-.4-.26-.81-.49-1.21-.7a1.61 1.61 0 0 0-.34-.15.5.5 0 0 0-.26 0 .24.24 0 0 0-.18.1.49.49 0 0 0-.06.27 1 1 0 0 0 .06.35 1.92 1.92 0 0 0 .18.31 2.13 2.13 0 0 0 .26.26 2.88 2.88 0 0 0 .34.23Z" style="fill:#263238"/><path d="M457.91 100.84a2 2 0 0 0 2-.19 6.15 6.15 0 0 0 2.77-4.81 2 2 0 0 0-.81-1.8l-23.56-13.6a2 2 0 0 0-2 .2 6.13 6.13 0 0 0-2.77 4.8 2 2 0 0 0 .81 1.8Z" style="fill:#f0f0f0"/><path d="M462.64 95.84a1.69 1.69 0 0 0-2.77-1.6 6.1 6.1 0 0 0-2.78 4.8 1.7 1.7 0 0 0 2.78 1.61 6.15 6.15 0 0 0 2.77-4.81Z" style="fill:#fafafa"/><path d="m453 98-.94-.54a2 2 0 0 1-.81-1.79 6.15 6.15 0 0 1 2.75-4.82 2 2 0 0 1 2-.19l.94.54a2 2 0 0 0-2 .19 6.12 6.12 0 0 0-2.77 4.81A1.93 1.93 0 0 0 453 98ZM440.08 90.54l-.94-.54a2 2 0 0 1-.81-1.79 6.1 6.1 0 0 1 2.78-4.8 1.94 1.94 0 0 1 1.95-.2l.94.54a2 2 0 0 0-2 .2 6.09 6.09 0 0 0-2.77 4.8 1.92 1.92 0 0 0 .85 1.79ZM448.88 95.62l-5.64-3.25a2 2 0 0 1-.81-1.79 6.1 6.1 0 0 1 2.78-4.8 1.91 1.91 0 0 1 2-.2l5.64 3.25a2 2 0 0 0-2 .2 6.09 6.09 0 0 0-2.77 4.8 1.92 1.92 0 0 0 .8 1.79Z" style="fill:#e0e0e0"/><path style="fill:#37474f" d="m472.61 117.67 1.91-.56-8.41-.75-4.94.28 11.44 1.03z"/><path style="fill:#455a64" d="M466.11 105.15v11.21l-4.94.28v-13.87l4.94 2.38z"/><path style="fill:#37474f" d="m474.52 94.69-3.77-3.83-9.58 11.91 4.94 2.38 8.41-10.46z"/><path style="fill:#263238" d="m482.93 95.44-.74-3.56-11.44-1.02 3.77 3.83 8.41.75z"/><path style="fill:#455a64" d="M482.93 106.65V95.44l-8.41-.75-8.41 10.46v11.21l8.41.75 8.41-10.46zM461.17 116.64l-6.63-3.83V98.94l6.63 3.83v13.87z"/><path style="fill:#37474f" d="m470.75 90.86-9.58 11.91-6.63-3.83 9.57-11.91 6.64 3.83z"/><path style="fill:#263238" d="m482.19 91.88-6.64-3.83-11.44-1.02 6.64 3.83 11.44 1.02z"/><path d="M461.33 109.71c0-2.29.07-4.57.08-6.85l4.75-5.86 4.69-5.89q5.67.43 11.34.79c-3.8-.45-7.61-.85-11.42-1.24h-.12l-.07.09-4.82 5.94-4.77 6-.05.06v.08c0 2.31.05 4.63.08 6.94s.1 4.62.15 6.93c.05-2.37.14-4.7.16-6.99Z" style="opacity:.2"/><path style="fill:#37474f" d="m464.11 87.03-2.78.54-7.98 9.92 1.19 1.45 9.57-11.91z"/><path style="fill:#455a64" d="m453.35 109.04 1.19 3.77V98.94l-1.19-1.45v11.55z"/><path d="M454.54 112.81c-.09-2.31-.17-4.62-.2-6.93s0-4.63-.06-6.94v-.09l.06-.07c1.59-2 3.2-4 4.82-5.93s3.28-3.9 4.95-5.82c-1.51 2-3.06 4.07-4.62 6.08s-3.16 4-4.75 6l.05-.16c0 2.31 0 4.62-.06 6.94s-.11 4.61-.19 6.92Z" style="opacity:.2"/><path style="fill:#fff;opacity:.1" d="m482.93 95.44-8.19-.2-8.04 10.13-.11 10.67 7.93 1.07-8.41-.75v-11.21l8.41-10.46 8.41.75z"/><path d="M458.87 104.75a.22.22 0 0 1 .14 0 .47.47 0 0 1 .13.15l1.19 2 .1.18a.41.41 0 0 1 .06.2v.77a.08.08 0 0 1-.06.08.2.2 0 0 1-.14 0l-4.65-2.69a.43.43 0 0 1-.14-.13.24.24 0 0 1-.06-.15v-.82a.08.08 0 0 1 .06-.08.19.19 0 0 1 .14 0l3.15 1.82-.65-1.12a.24.24 0 0 1 0-.15.09.09 0 0 1 .08-.07ZM460.56 110.88a1.3 1.3 0 0 1-.16.72.66.66 0 0 1-.42.31 1.15 1.15 0 0 1-.63 0 3.38 3.38 0 0 1-.74-.3l-.65-.36-.64-.38a5.54 5.54 0 0 1-.74-.56 3.65 3.65 0 0 1-.62-.69 3.49 3.49 0 0 1-.43-.81 2.42 2.42 0 0 1-.16-.89 1.33 1.33 0 0 1 .16-.72.74.74 0 0 1 .43-.31 1.34 1.34 0 0 1 .62 0 3.71 3.71 0 0 1 .74.3l.64.36.65.38a5.75 5.75 0 0 1 .74.56 4.1 4.1 0 0 1 .63.69 3.12 3.12 0 0 1 .42.81 2.42 2.42 0 0 1 .16.89Zm-3.2-1.18c.41.26.81.49 1.21.7l.33.15a.68.68 0 0 0 .27 0 .23.23 0 0 0 .17-.1.4.4 0 0 0 .07-.27.81.81 0 0 0-.07-.35 1.11 1.11 0 0 0-.17-.3 2.29 2.29 0 0 0-.27-.27 2.75 2.75 0 0 0-.33-.23c-.4-.25-.8-.49-1.21-.7a1.55 1.55 0 0 0-.33-.15.52.52 0 0 0-.26 0 .24.24 0 0 0-.18.1.48.48 0 0 0-.07.27 1 1 0 0 0 .07.35 1.09 1.09 0 0 0 .18.31 1.6 1.6 0 0 0 .26.26 2.75 2.75 0 0 0 .33.23Z" style="fill:#263238"/><path d="M371.25 199.53a7.22 7.22 0 0 1-3.22-.79 2.71 2.71 0 0 1-1.41-2.38 3.18 3.18 0 0 1 1.71-2.57c4.14-2.5 16.4-9 26.25-14.15 5.36-2.82 10.05-5.29 12.16-6.45a6.25 6.25 0 0 1-1-3.25v-.66h.1c1.12-4.64 11.37-8.45 17.76-8.45 2.8 0 4.9.67 6.07 1.94a2.48 2.48 0 0 1 .43.85 6.61 6.61 0 0 1-.53 5.49 17.46 17.46 0 0 1-14.32 8.17 11.52 11.52 0 0 1-5.35-1.24c-3.25 2-29.63 18.59-35.15 22.47a6.25 6.25 0 0 1-3.5 1.02Z" style="fill:#e0e0e0"/><path d="M414.64 174.49c-4.8 0-8.75-3.32-8.75-6.93l23.67-3.82c-.33 1.75-1.6 4.1-4.35 6.64a14.34 14.34 0 0 1-10.57 4.11Z" style="fill:#37474f"/><path d="M407.09 168.1c0 2.58 3 5.79 7.84 5.77a16.89 16.89 0 0 0 12.1-5.39 22.53 22.53 0 0 1-1.82 1.9 14.34 14.34 0 0 1-10.57 4.11c-4.8 0-8.75-3.32-8.75-6.93l1.22-.19c-.01.26-.01.51-.02.73Z" style="fill:#263238"/><path d="M409 163.38c4.43-3 14.6-5.71 18.94-3.21s-.3 8.38-5.57 10.93-10.1 2.23-13.66.17-4.07-4.87.29-7.89Z" style="fill:#37474f"/><path d="M423.24 159.43a9.18 9.18 0 0 1 4.58 1 2.8 2.8 0 0 1 1.59 2.61c-.1 2.52-3.23 6-7.14 7.87a16.63 16.63 0 0 1-7.24 1.78 12.32 12.32 0 0 1-6.18-1.6c-1.72-1-2.66-2.14-2.71-3.32s1-2.72 3-4.14a28.62 28.62 0 0 1 14.08-4.16m0-.25a29.06 29.06 0 0 0-14.23 4.2c-4.37 3-3.85 5.83-.29 7.89a12.57 12.57 0 0 0 6.3 1.59 17 17 0 0 0 7.35-1.8c5.27-2.55 9.9-8.43 5.57-10.93a9.67 9.67 0 0 0-4.71-1Z" style="fill:#455a64"/><path d="M411.51 164c4.31-2.87 13.34-5.59 16.43-3.48s-2 7.54-6.9 10-8.86 2.31-11.4.57-2.4-4.23 1.87-7.09Z" style="fill:#455a64"/><g style="opacity:.1"><path d="M416.35 163c3.06-2 9.46-4 11.65-2.46s-1.4 5.34-4.89 7.09-6.29 1.64-8.09.4-1.7-3.03 1.33-5.03Z" style="fill:#fafafa"/></g><path d="M407.54 170.47c-.47.27-32.46 17-39.24 21.07a2.18 2.18 0 0 0-1.23 1.73v1.78a1.72 1.72 0 0 0 1 1.47 5.51 5.51 0 0 0 5.38-.27c6.25-4.39 31.7-20.31 36.64-23.16V172Z" style="fill:#37474f"/><path d="M407.54 170.47c-3.47 2-32.46 17-39.24 21.07a2.18 2.18 0 0 0-1.23 1.73 1.74 1.74 0 0 0 1 1.46 5.53 5.53 0 0 0 5.38-.27c6.25-4.4 31.7-19.66 36.64-22.51Z" style="fill:#455a64"/><path d="M475.92 147.28a8.38 8.38 0 0 0-5.07-4.89c-3.08-1.05-6.67.71-9.09 3.34a30.57 30.57 0 0 1-3.3 3.14l-2.59 2.06 4.29 6.21-5.76 2.24.8 5.15L453 159l3.84-3.12-3.68-5.3 6.57-6.94c-.6-3.06-2.29-5.86-5-6.77a8.4 8.4 0 0 0-7 .79 9.25 9.25 0 0 0-4 4.95c-2.29 6.72 2.37 12.44 5.84 18.54l3.73 5.77 6.73-2.22c6.47-2.73 13.65-4.42 15.94-11.14a9.22 9.22 0 0 0-.05-6.28Z" style="fill:#8c00ff"/><g style="opacity:.5"><path d="M475.92 147.28a8.38 8.38 0 0 0-5.07-4.89c-3.08-1.05-6.67.71-9.09 3.34a30.57 30.57 0 0 1-3.3 3.14l-2.59 2.06 4.29 6.21-5.76 2.24.8 5.15L453 159l3.84-3.12-3.68-5.3 6.57-6.94c-.6-3.06-2.29-5.86-5-6.77a8.4 8.4 0 0 0-7 .79 9.25 9.25 0 0 0-4 4.95c-2.29 6.72 2.37 12.44 5.84 18.54l3.73 5.77 6.73-2.22c6.47-2.73 13.65-4.42 15.94-11.14a9.22 9.22 0 0 0-.05-6.28Z" style="fill:#fff"/></g><path d="M410.85 40.45a5.66 5.66 0 0 0-4.71-.87c-2.14.56-3.52 2.9-3.91 5.3a20.36 20.36 0 0 1-.69 3l-.7 2.15 4.76 1.91-2.42 3.43 2.36 2.63-3.27-2.29 1-3.21-4.08-1.62 1.13-6.41c-1.49-1.5-3.5-2.46-5.36-2a5.68 5.68 0 0 0-3.68 3.07 6.28 6.28 0 0 0-.38 4.29c1.22 4.67 6 6.17 10.26 8.33l4.29 1.87 3-3.78c2.65-4 6.09-7.63 4.87-12.3a6.28 6.28 0 0 0-2.47-3.5Z" style="fill:#8c00ff"/><g style="opacity:.5"><path d="M410.85 40.45a5.66 5.66 0 0 0-4.71-.87c-2.14.56-3.52 2.9-3.91 5.3a20.36 20.36 0 0 1-.69 3l-.7 2.15 4.76 1.91-2.42 3.43 2.36 2.63-3.27-2.29 1-3.21-4.08-1.62 1.13-6.41c-1.49-1.5-3.5-2.46-5.36-2a5.68 5.68 0 0 0-3.68 3.07 6.28 6.28 0 0 0-.38 4.29c1.22 4.67 6 6.17 10.26 8.33l4.29 1.87 3-3.78c2.65-4 6.09-7.63 4.87-12.3a6.28 6.28 0 0 0-2.47-3.5Z" style="fill:#fff"/></g><ellipse cx="404.97" cy="139.03" rx="21.02" ry="12.14" style="fill:#e0e0e0"/><path d="M408.7 108c3.4-.48 9.32-1.2 14.46 5.54 5.85 7.68 3.85 19.12-1.6 24.86-6.86 7.23-19.3 10.08-28 4.85-9.65-5.78-13.08-19.73-8.75-27s13.19-7.25 15.63-6.73c3.63.75 5.62-1.11 8.26-1.52Z" style="fill:#8c00ff"/><path d="M397.81 140.63c9.64 3 21.21-.88 27.28-7.82a18.09 18.09 0 0 1-3.53 5.62c-6.86 7.23-19.3 10.08-28 4.85-7.31-4.38-11-13.46-10.54-20.76.04 2 4.18 14.8 14.79 18.11Z" style="opacity:.1"/><g style="opacity:.1"><path d="M412.78 110.32c2.13-.63 5.66.66 7.89 3.28 2.78 3.24 4.08 8.36 4.2 12.24.25 7.84-6.28 13.29-7.12 12.79s3.49-6.53-1-13.48-7.45-13.82-3.97-14.83Z" style="fill:#fff"/></g><g style="opacity:.1"><path d="M414.7 111.2c2.36.3 5.62 3.31 6.78 5.67s1.19 4.12.91 4.48c-.51.65-5.86-2.82-7.71-4.49-2.62-2.37-3.77-6.14.02-5.66Z" style="fill:#fff"/></g><path d="M406.52 115.22c1-1.17 2-1.87 2.87-.58s-1.81 4.15-5.49 3.83-5.33-2.34-5.48-3.5c0 0 2.06 2.17 4.45 2a6 6 0 0 0 3.65-1.75Z" style="opacity:.2"/><path d="M404.08 116.85a30.68 30.68 0 0 0-2-8.83c-1.73-4.08-4.5-6.85-5.23-7.13a8.78 8.78 0 0 0-3.6-.33c-1.67.13-3.6 1.37-3 2s3 .95 6.11 3.51 6.2 7.7 6.4 10.88a1.3 1.3 0 0 0 1.32-.1Z" style="fill:#37474f"/><path d="m396.71 100.85-.16-.06a9.67 9.67 0 0 0-3.29-.23 4.54 4.54 0 0 0-3 1.4c-.1.25.28.55 1.79.68a9.28 9.28 0 0 0 4.37-.68c.58-.27.84-.87.29-1.11Z" style="fill:#455a64"/><path d="M401.59 111.71c-1.55-3.69-5.73-6.59-8.55-7.81a16.67 16.67 0 0 1 3.3 2.15c3.09 2.56 6.2 7.7 6.4 10.88a1.3 1.3 0 0 0 1.34-.08s-.07-1.14-.34-2.78c.01 1.54-.74 1.04-2.15-2.36Z" style="opacity:.1"/><path d="M402.94 110.54a7.88 7.88 0 0 0 6.44-4.48c1.53-3.49-.85-7-.85-7a7.33 7.33 0 0 0-5.79 3.46c-1.51 2.48-.85 6.48.2 8.02Z" style="fill:#8c00ff"/><path d="M402.94 110.54a7.88 7.88 0 0 0 6.44-4.48c1.53-3.49-.85-7-.85-7a7.33 7.33 0 0 0-5.79 3.46c-1.51 2.48-.85 6.48.2 8.02Z" style="opacity:.5"/><path d="M408.53 99.08a7.33 7.33 0 0 0-5.79 3.46c-1.51 2.49-.85 6.45.2 8 .46-6.12 5.59-11.46 5.59-11.46Z" style="fill:#8c00ff"/><path d="M408.53 99.08a7.33 7.33 0 0 0-5.79 3.46c-1.51 2.49-.85 6.45.2 8 .46-6.12 5.59-11.46 5.59-11.46Z" style="opacity:.30000000000000004"/><path d="M371.29 146.26c0-7.5-5.65-13.94-19.88-14.34-16.57-.48-37.94 14.71-61.22 2.17-5.95-3.21-9.29-7.58-10.81-12.45 1.53-11.61 13.89-16.87 26.31-13.45l-4.8-8.68c-12 .22-23 6.29-22.4 17.44v-.17l.81 10.65c.63 5.85 3.74 11.25 10.91 15.12 23.28 12.54 44.65-2.65 61.22-2.18 11.53.33 17.45 4.62 19.26 10.23-2.72 8.88-20.85 19-41.49 13.66v8.42c21.06 5.44 39.52-5.21 41.65-14.2a16.26 16.26 0 0 0 .45-4.23v-8Zm-.31 3.08-.09.39Zm.15-.88v.15Z" style="fill:#e0e0e0"/><path d="m395.06 82.77-66.33 38.3a8.25 8.25 0 0 1-7.41-.31l-45.08-26c-10.58-6.12-11.73-15.36-2.57-20.65l40-23.1c9.17-5.3 25.18-4.63 35.77 1.48l45.07 26c2.21 1.27 2.49 3.19.55 4.28Z" style="fill:#e0e0e0"/><path d="M300.89 95.2c-13.54.26-26 8-21.51 22.14 1.53-11.62 13.89-16.87 26.31-13.45Z" style="fill:#8c00ff"/><g style="opacity:.30000000000000004"><path d="M300.89 95.2c-13.54.26-26 8-21.51 22.14 1.53-11.62 13.89-16.87 26.31-13.45Z" style="fill:#fff"/></g><path d="M351.41 127.61c-16.57-.47-37.94 14.72-61.22 2.17-5.95-3.2-9.29-7.58-10.81-12.44a20.8 20.8 0 0 1-.91-4.86l.81 10.65c.63 5.85 3.74 11.25 10.91 15.11 23.28 12.55 44.65-2.64 61.22-2.17 11.53.33 17.45 4.62 19.26 10.23a5.52 5.52 0 0 0 .16-.54c2.17-9.04-2.83-17.67-19.42-18.15Z" style="fill:#8c00ff"/><g style="opacity:.5"><path d="M351.41 127.61c-16.57-.47-37.94 14.72-61.22 2.17-5.95-3.2-9.29-7.58-10.81-12.44a20.8 20.8 0 0 1-.91-4.86l.81 10.65c.63 5.85 3.74 11.25 10.91 15.11 23.28 12.55 44.65-2.64 61.22-2.17 11.53.33 17.45 4.62 19.26 10.23a5.52 5.52 0 0 0 .16-.54c2.17-9.04-2.83-17.67-19.42-18.15Z" style="fill:#fff"/></g><path d="M371.29 141.83a15.74 15.74 0 0 1-.62 4.43c-2.72 8.87-20.85 19-41.49 13.66v8.42c21.06 5.44 39.52-5.21 41.65-14.2a16.26 16.26 0 0 0 .45-4.23Z" style="fill:#8c00ff"/><g style="opacity:.7000000000000001"><path d="M371.29 141.83a15.74 15.74 0 0 1-.62 4.43c-2.72 8.87-20.85 19-41.49 13.66v8.42c21.06 5.44 39.52-5.21 41.65-14.2a16.26 16.26 0 0 0 .45-4.23Z" style="fill:#fff"/></g><path d="M334.8 168.44a.12.12 0 0 1-.12-.12v-5.88a.13.13 0 0 1 .12-.12.12.12 0 0 1 .12.12v5.88a.12.12 0 0 1-.12.12ZM336.77 168.66a.12.12 0 0 1-.12-.12v-3.29a.12.12 0 0 1 .12-.12.13.13 0 0 1 .12.12v3.29a.12.12 0 0 1-.12.12ZM338.75 168.8a.12.12 0 0 1-.12-.12v-3.25a.12.12 0 0 1 .24 0v3.25a.12.12 0 0 1-.12.12ZM340.74 168.84a.13.13 0 0 1-.12-.12v-3.21a.13.13 0 0 1 .12-.12.12.12 0 0 1 .12.12v3.21a.12.12 0 0 1-.12.12ZM342.74 168.79a.12.12 0 0 1-.12-.12V163a.12.12 0 0 1 .12-.12.12.12 0 0 1 .12.12v5.7a.12.12 0 0 1-.12.09ZM344.74 168.65a.12.12 0 0 1-.12-.12v-3.27a.12.12 0 1 1 .24 0v3.27a.12.12 0 0 1-.12.12ZM346.73 168.41a.12.12 0 0 1-.12-.12v-3.22a.12.12 0 0 1 .12-.13.13.13 0 0 1 .12.13v3.22a.12.12 0 0 1-.12.12ZM348.69 168.09a.13.13 0 0 1-.12-.12v-3.19a.12.12 0 0 1 .12-.12.12.12 0 0 1 .12.12V168a.12.12 0 0 1-.12.09ZM350.64 167.66a.12.12 0 0 1-.12-.12V162a.12.12 0 1 1 .24 0v5.52a.12.12 0 0 1-.12.14ZM352.55 167.15a.13.13 0 0 1-.12-.12v-3.23a.13.13 0 0 1 .12-.12.12.12 0 0 1 .12.12v3.2a.12.12 0 0 1-.12.15ZM354.43 166.54a.12.12 0 0 1-.12-.12v-3.18a.12.12 0 0 1 .24 0v3.18a.12.12 0 0 1-.12.12ZM356.26 165.83a.13.13 0 0 1-.12-.12v-3.14a.13.13 0 0 1 .12-.12.12.12 0 0 1 .12.12v3.14a.12.12 0 0 1-.12.12ZM358 165a.12.12 0 0 1-.12-.12v-5.34a.13.13 0 0 1 .12-.13.12.12 0 0 1 .12.13v5.34a.12.12 0 0 1-.12.12ZM359.76 164.12a.12.12 0 0 1-.12-.12v-3.29a.12.12 0 0 1 .12-.12.12.12 0 0 1 .12.12V164a.12.12 0 0 1-.12.12ZM361.42 163.12a.12.12 0 0 1-.12-.12v-3.25a.13.13 0 0 1 .12-.12.12.12 0 0 1 .12.12V163a.12.12 0 0 1-.12.12ZM363 162a.13.13 0 0 1-.12-.12v-3.18a.12.12 0 0 1 .12-.12.12.12 0 0 1 .12.12v3.21a.12.12 0 0 1-.12.09ZM364.51 160.83a.12.12 0 0 1-.12-.12v-5.17a.12.12 0 1 1 .24 0v5.17a.12.12 0 0 1-.12.12ZM365.93 159.53a.12.12 0 0 1-.12-.12v-2.89a.12.12 0 0 1 .12-.12.12.12 0 0 1 .12.12v2.89a.12.12 0 0 1-.12.12ZM367.25 158.14a.13.13 0 0 1-.12-.12v-2.86a.13.13 0 0 1 .12-.12.12.12 0 0 1 .12.12V158a.12.12 0 0 1-.12.14ZM368.48 156.64a.12.12 0 0 1-.12-.12v-2.81a.12.12 0 0 1 .12-.12.12.12 0 0 1 .12.12v2.81a.13.13 0 0 1-.12.12ZM369.59 155a.13.13 0 0 1-.12-.12v-5a.12.12 0 0 1 .12-.12.12.12 0 0 1 .12.12v5a.12.12 0 0 1-.12.12ZM370.6 153.09a.12.12 0 0 1-.12-.12v-2.51a.12.12 0 0 1 .12-.12.12.12 0 0 1 .12.12V153a.12.12 0 0 1-.12.09ZM367.6 140.37a.12.12 0 0 1-.12-.12v-5.87a.12.12 0 0 1 .24 0v5.87a.12.12 0 0 1-.12.12ZM365.62 139.05a.12.12 0 0 1-.12-.13v-3.26a.12.12 0 1 1 .24 0v3.26a.12.12 0 0 1-.12.13ZM363.58 137.92a.12.12 0 0 1-.12-.12v-3.26a.12.12 0 0 1 .12-.12.12.12 0 0 1 .12.12v3.26a.12.12 0 0 1-.12.12ZM361.49 137a.12.12 0 0 1-.13-.12v-3.26a.12.12 0 0 1 .13-.12.12.12 0 0 1 .12.12v3.26a.12.12 0 0 1-.12.12ZM359.33 136.25a.12.12 0 0 1-.12-.12v-5.87a.12.12 0 0 1 .24 0v5.87a.12.12 0 0 1-.12.12ZM357.12 135.7a.12.12 0 0 1-.12-.12v-3.24a.12.12 0 0 1 .12-.12.12.12 0 0 1 .12.12v3.24a.13.13 0 0 1-.12.12ZM354.85 135.31a.12.12 0 0 1-.12-.12V132a.12.12 0 0 1 .12-.12.12.12 0 0 1 .12.12v3.23a.12.12 0 0 1-.12.08ZM352.52 135.1a.12.12 0 0 1-.12-.12v-3.24a.12.12 0 0 1 .12-.12.13.13 0 0 1 .12.12V135a.13.13 0 0 1-.12.1ZM350.13 135a.12.12 0 0 1-.12-.12v-5.87a.12.12 0 0 1 .12-.12.12.12 0 0 1 .12.12v5.87a.12.12 0 0 1-.12.12ZM347.68 135.14a.12.12 0 0 1-.12-.12v-3.35a.12.12 0 0 1 .24 0V135a.12.12 0 0 1-.12.14ZM345.17 135.39a.12.12 0 0 1-.12-.12v-3.35a.12.12 0 0 1 .12-.12.12.12 0 0 1 .12.12v3.35a.12.12 0 0 1-.12.12ZM342.61 135.77a.12.12 0 0 1-.12-.12v-3.35a.12.12 0 0 1 .24 0v3.35a.12.12 0 0 1-.12.12ZM340 136.29a.12.12 0 0 1-.12-.12v-5.87a.12.12 0 0 1 .12-.13.13.13 0 0 1 .12.13v5.87a.12.12 0 0 1-.12.12ZM337.3 136.94a.13.13 0 0 1-.12-.13v-3.65a.13.13 0 0 1 .12-.12.12.12 0 0 1 .12.12v3.65a.12.12 0 0 1-.12.13ZM334.56 137.7a.12.12 0 0 1-.12-.12v-3.66a.12.12 0 0 1 .24 0v3.66a.12.12 0 0 1-.12.12ZM331.76 138.57a.12.12 0 0 1-.12-.12v-3.66a.12.12 0 1 1 .24 0v3.66a.12.12 0 0 1-.12.12ZM329.24 139.36a.12.12 0 0 1-.12-.12v-5.87a.13.13 0 0 1 .12-.13.12.12 0 0 1 .12.13v5.87a.12.12 0 0 1-.12.12ZM326.74 140.06a.12.12 0 0 1-.12-.12v-3.63a.13.13 0 0 1 .12-.13.12.12 0 0 1 .12.13v3.63a.12.12 0 0 1-.12.12ZM324.23 140.68a.12.12 0 0 1-.12-.12v-3.64a.12.12 0 0 1 .12-.12.12.12 0 0 1 .12.12v3.64a.13.13 0 0 1-.12.12ZM321.7 141.2a.12.12 0 0 1-.12-.12v-3.64a.12.12 0 0 1 .12-.12.12.12 0 0 1 .12.12v3.64a.13.13 0 0 1-.12.12ZM319.16 141.62a.12.12 0 0 1-.12-.12v-5.88a.13.13 0 0 1 .12-.12.12.12 0 0 1 .12.12v5.88a.12.12 0 0 1-.12.12ZM316.63 141.94a.12.12 0 0 1-.12-.12v-3.2a.12.12 0 0 1 .24 0v3.2a.12.12 0 0 1-.12.12ZM314.1 142.16a.13.13 0 0 1-.1-.16v-3.2a.13.13 0 0 1 .12-.13.12.12 0 0 1 .12.13v3.2a.12.12 0 0 1-.14.16ZM311.59 142.26a.12.12 0 0 1-.12-.12v-3.2a.12.12 0 0 1 .12-.12.12.12 0 0 1 .12.12v3.2a.13.13 0 0 1-.12.12ZM309.09 142.24a.12.12 0 0 1-.12-.12v-5.87a.12.12 0 1 1 .24 0v5.87a.12.12 0 0 1-.12.12ZM306.62 142.1a.12.12 0 0 1-.12-.12v-3a.12.12 0 0 1 .24 0v3a.12.12 0 0 1-.12.12ZM304.18 141.84a.12.12 0 0 1-.12-.12v-3a.12.12 0 0 1 .24 0v3a.12.12 0 0 1-.12.12ZM301.78 141.44a.12.12 0 0 1-.12-.12v-3a.12.12 0 1 1 .24 0v3a.12.12 0 0 1-.12.12ZM299.42 140.9a.12.12 0 0 1-.12-.12v-5.88a.12.12 0 0 1 .24 0v5.88a.12.12 0 0 1-.12.12ZM297.11 140.22a.12.12 0 0 1-.12-.12v-3.45a.12.12 0 1 1 .24 0v3.45a.12.12 0 0 1-.12.12ZM294.85 139.39a.12.12 0 0 1-.12-.12v-3.44a.13.13 0 0 1 .12-.13.12.12 0 0 1 .12.13v3.44a.12.12 0 0 1-.12.12ZM292.66 138.41a.12.12 0 0 1-.12-.12v-3.45a.12.12 0 1 1 .24 0v3.45a.12.12 0 0 1-.12.12ZM290.53 137.27a.13.13 0 0 1-.12-.12v-5.88a.12.12 0 0 1 .12-.12.12.12 0 0 1 .12.12v5.88a.12.12 0 0 1-.12.12ZM288.48 136a.12.12 0 0 1-.12-.12v-3.38a.13.13 0 0 1 .12-.13.12.12 0 0 1 .12.13v3.38a.12.12 0 0 1-.12.12ZM286.51 134.49a.12.12 0 0 1-.12-.12V131a.12.12 0 0 1 .24 0v3.39a.12.12 0 0 1-.12.1ZM284.62 132.84a.12.12 0 0 1-.12-.12v-3.39a.13.13 0 0 1 .12-.12.12.12 0 0 1 .12.12v3.39a.12.12 0 0 1-.12.12ZM281.28 128.08a.12.12 0 0 1-.12-.12v-3.39a.12.12 0 0 1 .12-.12.12.12 0 0 1 .12.12V128a.13.13 0 0 1-.12.08ZM281.54 109.56a.12.12 0 0 1-.12-.12v-3.39a.12.12 0 0 1 .24 0v3.39a.12.12 0 0 1-.12.12ZM282.94 107.8a.12.12 0 0 1-.12-.12v-3.39a.12.12 0 0 1 .24 0v3.39a.12.12 0 0 1-.12.12ZM284.42 106.56a.12.12 0 0 1-.12-.12v-3.38a.12.12 0 0 1 .24 0v3.38a.12.12 0 0 1-.12.12ZM287.39 104.54a.12.12 0 0 1-.12-.12V101a.12.12 0 0 1 .24 0v3.38a.12.12 0 0 1-.12.16ZM289 103.77a.12.12 0 0 1-.12-.12v-3.39a.12.12 0 0 1 .12-.12.12.12 0 0 1 .12.12v3.39a.13.13 0 0 1-.12.12ZM290.47 103.18a.12.12 0 0 1-.12-.12v-3.39a.12.12 0 0 1 .12-.12.12.12 0 0 1 .12.12v3.39a.13.13 0 0 1-.12.12ZM296.38 102.27a.12.12 0 0 1-.12-.12v-3.38a.12.12 0 0 1 .12-.12.12.12 0 0 1 .12.12v3.38a.12.12 0 0 1-.12.12ZM294.27 102.42a.12.12 0 0 1-.12-.12v-3.38a.12.12 0 0 1 .12-.12.12.12 0 0 1 .12.12v3.38a.12.12 0 0 1-.12.12ZM280.13 125a.12.12 0 0 1-.12-.12v-3.38a.13.13 0 0 1 .12-.13.12.12 0 0 1 .12.13v3.38a.12.12 0 0 1-.12.12ZM282.83 131a.12.12 0 0 1-.12-.12V125a.12.12 0 0 1 .24 0v5.88a.12.12 0 0 1-.12.12ZM280 112.92a.12.12 0 0 1-.12-.12v-5.88a.12.12 0 0 1 .12-.12.13.13 0 0 1 .12.12v5.88a.12.12 0 0 1-.12.12ZM285.85 105.6a.12.12 0 0 1-.12-.12v-5.22a.12.12 0 0 1 .12-.12.12.12 0 0 1 .12.12v5.22a.12.12 0 0 1-.12.12ZM292.33 102.85a.12.12 0 0 1-.12-.12v-5.22a.12.12 0 1 1 .24 0v5.22a.12.12 0 0 1-.12.12ZM369.05 141.86a.13.13 0 0 1-.12-.12v-3.59a.13.13 0 0 1 .12-.12.12.12 0 0 1 .12.12v3.59a.12.12 0 0 1-.12.12ZM370.37 143.51a.13.13 0 0 1-.12-.12v-3.59a.13.13 0 0 1 .12-.12.12.12 0 0 1 .12.12v3.59a.12.12 0 0 1-.12.12Z" style="fill:#8c00ff"/><path d="M329 159.6v9.15l1.35.27a1.43 1.43 0 0 0 1.71-1.4v-6.26a1.42 1.42 0 0 0-1.16-1.4Z" style="fill:#455a64"/><path d="M390.6 72.07a2.8 2.8 0 0 0-1.66-2.2l-41-23.68c-9.64-5.56-24.2-6.16-32.54-1.35l-36.4 21C275.21 68 273.36 71 273.37 74v6.77c0 3.7 2.67 7.59 7.94 10.63l41 23.68a7.51 7.51 0 0 0 6.75.28l60.34-34.84a2 2 0 0 0 1.17-1.72c.01-.73.03-6.1.03-6.73Z" style="fill:#8c00ff"/><path d="M326.28 109.28v6.77a7.84 7.84 0 0 1-3.94-.94l-41-23.67c-5.27-3-8-7-7.94-10.64v-6.77c0 3.69 2.7 7.57 8 10.61l41 23.68a8 8 0 0 0 3.88.96Z" style="opacity:.2"/><path d="m389.43 73.76-60.34 34.84a7.48 7.48 0 0 1-6.75-.28l-41-23.67c-9.63-5.56-10.67-14-2.33-18.79l36.4-21c8.34-4.81 22.9-4.21 32.54 1.35l41 23.68c1.99 1.11 2.21 2.88.48 3.87Z" style="fill:#8c00ff"/><g style="opacity:.30000000000000004"><path d="m389.43 73.76-60.34 34.84a7.48 7.48 0 0 1-6.75-.28l-41-23.67c-9.63-5.56-10.67-14-2.33-18.79l36.4-21c8.34-4.81 22.9-4.21 32.54 1.35l41 23.68c1.99 1.11 2.21 2.88.48 3.87Z" style="fill:#fff"/></g><path d="m342.78 48.65 38.34 22.14a1.23 1.23 0 0 1 0 2.33L328 103.81a4.47 4.47 0 0 1-4 0l-38.41-22.14c-6.78-3.92-6.78-10.27 0-14.18a4.49 4.49 0 0 1 4 0l8.91 5.15a4.49 4.49 0 0 0 4 0l24.55-14.18a1.23 1.23 0 0 0 0-2.33L318.22 51a1.23 1.23 0 0 1 0-2.33c6.78-3.93 17.78-3.93 24.56-.02Z" style="fill:#37474f"/><path d="m324.46 57.6-23.38 13.49c-6-3.46-5.63-9.29.83-13s16.54-3.96 22.55-.49Z" style="fill:#fafafa"/><path d="M306.76 62a.54.54 0 0 1 0-1l.12-.07a1.93 1.93 0 0 1 1.78 0l5.06 2.92-1.9 1.09Z" style="fill:#8c00ff"/><path d="M379.22 417.49c1.59-.92 3.78-.78 6.2.62 4.85 2.79 8.78 9.6 8.78 15.2 0 2.79-1 4.76-2.57 5.68l-11.3 6.5A12.43 12.43 0 0 1 367.9 424Z" style="fill:#f5f5f5"/><path d="M394.79 408.52a12.43 12.43 0 0 1 12.42 21.53L391.63 439c1.59-.92 2.57-2.89 2.57-5.68 0-5.6-3.93-12.41-8.78-15.2-2.42-1.4-4.61-1.54-6.2-.62Z" style="fill:#8c00ff"/><path d="M379.22 417.49c1.59-.92 3.78-.78 6.2.62 4.85 2.79 8.78 9.6 8.78 15.2 0 2.79-1 4.76-2.57 5.68l-11.3 6.5A12.43 12.43 0 0 1 367.9 424Z" style="fill:#f5f5f5"/><path d="M394.2 433.31c0-5.6-3.93-12.41-8.78-15.2-2.42-1.4-4.61-1.54-6.2-.62l.88-.51.68-.39c1.58-.92 3.78-.78 6.2.61 4.85 2.8 8.78 9.61 8.78 15.21 0 2.79-1 4.76-2.57 5.68l-1.56.9c1.59-.92 2.57-2.89 2.57-5.68Z" style="opacity:.1"/><path d="M405.18 410.61a4.76 4.76 0 0 0-6.5-1.74l-29.93 17.31a4.76 4.76 0 1 0 4.76 8.24l29.93-17.31a4.76 4.76 0 0 0 1.74-6.5Z" style="fill:#fff;opacity:.30000000000000004"/><path d="M411.76 413.09A12.36 12.36 0 0 0 406 408c3.49 2.1 5.69 11.16-.5 14.73l-18.86 10.87c-6.55 3.78-9.76 5.58-11.89 6.81-6.19 3.57-12.93-2.87-13-6.93 0 .3 0 .61-.06.92v.07a11.82 11.82 0 0 0 .2 2.58v.29c0 .1.09.38.14.58l.15.54.16.48c.08.22.17.44.26.66s.1.25.16.38a11 11 0 0 0 .53 1 12.41 12.41 0 0 0 17 4.55l15.57-9 11.31-6.48a12.42 12.42 0 0 0 4.59-16.96Z" style="opacity:.05"/><path d="M435.11 412.83c-1.29-1.3-3.45-1.74-6.15-1-5.41 1.45-11 7-12.42 12.4-.73 2.7-.29 4.86 1 6.16l9.22 9.21a12.43 12.43 0 0 0 17.6-17.6Z" style="fill:#f5f5f5"/><path d="M422.41 400.13a12.43 12.43 0 1 0-17.6 17.56l12.73 12.68c-1.29-1.3-1.73-3.46-1-6.16 1.45-5.4 7-10.95 12.42-12.4 2.7-.72 4.86-.28 6.15 1Z" style="fill:#f5f5f5"/><path d="M435.11 412.83c-1.29-1.3-3.45-1.74-6.15-1-5.41 1.45-11 7-12.42 12.4-.73 2.7-.29 4.86 1 6.16l9.22 9.21a12.43 12.43 0 0 0 17.6-17.6Z" style="fill:#8c00ff"/><path d="M416.54 424.21c1.45-5.4 7-10.95 12.42-12.4 2.7-.72 4.86-.28 6.15 1l-.72-.72-.55-.55c-1.29-1.3-3.45-1.74-6.15-1-5.41 1.44-11 7-12.43 12.4-.72 2.7-.29 4.86 1 6.15l1.27 1.28c-1.28-1.3-1.72-3.46-.99-6.16Z" style="opacity:.1"/><path d="M411.83 399.45a4.76 4.76 0 0 1 6.73 0L443 424a4.76 4.76 0 0 1-6.73 6.72l-24.41-24.5a4.75 4.75 0 0 1-.03-6.77Z" style="fill:#fff;opacity:.30000000000000004"/><path d="M404.83 400.13a12.25 12.25 0 0 1 6.86-3.47c-3.91 1.12-8.39 9.29-3.34 14.35 3.43 3.44 10 10 15.39 15.39s8 7.93 9.72 9.67c5.05 5.06 13.23.59 14.36-3.32-.05.31-.11.61-.18.91v.07a12.88 12.88 0 0 1-.86 2.44 2.1 2.1 0 0 1-.13.26 5.21 5.21 0 0 1-.28.52c-.09.17-.19.33-.29.49s-.18.28-.28.42a6 6 0 0 1-.42.57l-.25.33c-.25.29-.5.58-.78.85a12.42 12.42 0 0 1-17.57 0l-12.71-12.7-9.24-9.19a12.42 12.42 0 0 1 0-17.59Z" style="opacity:.05"/><path d="M46.82 422.3v6.7c0 3 2 6.05 6 8.36 8 4.62 21 4.62 29 0a14 14 0 0 0 4.5-3.91 7.73 7.73 0 0 0 1.5-4.45v-6.7a6.56 6.56 0 0 0-.22-1.7c0-.19-.1-.37-.16-.56-.75-2.24-2.63-4.37-5.62-6.1-7.52-4.34-19.42-4.61-27.46-.8v3.35l-2.9 1.68v-3.36a12.46 12.46 0 0 0-3.27 3.25 9.83 9.83 0 0 0-.51.87 7.5 7.5 0 0 0-.85 3.37Z" style="fill:#f0f0f0"/><path d="M60.89 411.06c7.12-1.35 15.26-.39 20.92 2.88 3 1.73 4.87 3.86 5.62 6.1.06.19.12.37.16.56a6.56 6.56 0 0 1 .22 1.7v6.7a7.73 7.73 0 0 1-1.5 4.45 14 14 0 0 1-4.5 3.91c-5.66 3.27-13.8 4.21-20.92 2.86Z" style="fill:#ebebeb"/><path d="M81.81 413.94c7.51 4.33 8 11.2 1.37 15.85l-28.83-16.65c8.05-3.81 19.94-3.54 27.46.8Z" style="fill:#fafafa"/><path d="M67.32 410.47v1.36a28.17 28.17 0 0 1 13.81 3.28c3.31 1.91 5.2 4.38 5.31 6.94.1 2.16-1.09 4.3-3.35 6.11l-25.65-14.8a31.67 31.67 0 0 1 9.88-1.53v-1.36m0 0a30.86 30.86 0 0 0-13 2.67l28.83 16.65c6.6-4.65 6.14-11.52-1.37-15.85a29.66 29.66 0 0 0-14.49-3.47Z" style="fill:#ebebeb"/><path d="M83.18 428s8-6.11-.88-13.8c7 4.35 7.33 11 .88 15.56l-28.83-16.62Z" style="fill:#fff"/><path d="m51.45 414.81 28.83 16.65c-8 3.81-19.94 3.55-27.46-.79s-7.97-11.21-1.37-15.86Z" style="fill:#fafafa"/><path d="m51.54 416.44 25.64 14.8a31.27 31.27 0 0 1-9.87 1.53 28.06 28.06 0 0 1-13.81-3.28c-3.31-1.91-5.2-4.38-5.31-6.94-.1-2.15 1.09-4.3 3.35-6.11m-.09-1.63c-6.6 4.65-6.14 11.52 1.37 15.86a29.63 29.63 0 0 0 14.49 3.46 30.86 30.86 0 0 0 13-2.67l-28.86-16.65Z" style="fill:#ebebeb"/><path d="M80.28 431.46c-8 3.81-19.94 3.55-27.46-.79a17 17 0 0 1-2.37-1.67c14.74 7.39 26.61 2.19 26.61 2.19l-25.61-16.4Z" style="fill:#fff"/><path style="fill:#e0e0e0" d="m54.35 416.49 28.84 16.73-.01-3.43-28.83-16.65v3.35z"/><path style="opacity:.2" d="M80.28 431.46v3.43l2.91-1.67-2.91-1.76z"/><path d="m76 427.4-.92 7.25c-.42 3.28 1.19 6.9 4.91 10.11 7.43 6.4 20.53 8.66 29.24 5.05a13.78 13.78 0 0 0 5.09-3.45 8.52 8.52 0 0 0 2.12-4.56l.93-7.26a8.35 8.35 0 0 0 0-1.87c0-.21-.05-.42-.08-.64a13.43 13.43 0 0 0-4.84-7.59c-7-6-19-8.37-27.6-5.65l-.46 3.63-3.15 1.32.46-3.64a12.53 12.53 0 0 0-3.7 2.95 8.48 8.48 0 0 0-.63.85 8.75 8.75 0 0 0-1.37 3.5Z" style="fill:#f0f0f0"/><path d="M91.77 417.69c7.37-.23 15.46 2.23 20.71 6.75a13.43 13.43 0 0 1 4.84 7.59c0 .22.07.43.08.64a8.35 8.35 0 0 1 0 1.87l-.93 7.26a8.52 8.52 0 0 1-2.12 4.56 13.78 13.78 0 0 1-5.09 3.45c-6.16 2.55-14.51 2.16-21.5-.55Z" style="fill:#ebebeb"/><path d="M112.48 424.44c7 6 6.5 13.53-.8 17.41l-26.8-23.05c8.65-2.72 20.62-.37 27.6 5.64Z" style="fill:#fafafa"/><path d="M92.71 419.12c7 0 14.23 2.46 18.83 6.42 3.17 2.73 4.74 5.83 4.42 8.72a8.06 8.06 0 0 1-4.11 5.82L88 419.53a26.87 26.87 0 0 1 4.76-.41m0-1.45a26.51 26.51 0 0 0-7.83 1.12l26.8 23.06c7.3-3.88 7.78-11.4.8-17.41-5-4.33-12.67-6.77-19.77-6.77Z" style="fill:#ebebeb"/><path d="M111.93 440s8.88-5.23 1-15.1c6.5 5.94 5.88 13.2-1.26 17l-26.79-23.1Z" style="fill:#fff"/><path d="m81.73 420.1 26.8 23.06c-8.65 2.72-20.62.36-27.6-5.65s-6.5-13.51.8-17.41Z" style="fill:#fafafa"/><path d="m81.56 421.87 23.9 20.55a26.87 26.87 0 0 1-4.76.41c-7 0-14.23-2.46-18.83-6.42-3.17-2.73-4.74-5.82-4.42-8.72a8.06 8.06 0 0 1 4.11-5.82m.17-1.77c-7.3 3.88-7.78 11.4-.8 17.41 5 4.33 12.67 6.77 19.77 6.77a26.51 26.51 0 0 0 7.83-1.12l-26.8-23.06Z" style="fill:#ebebeb"/><path d="M108.53 443.16c-8.65 2.72-20.62.36-27.6-5.65a18.62 18.62 0 0 1-2.17-2.19c13.86 10.56 26.55 7 26.55 7L81.73 420.1Z" style="fill:#fff"/><path style="fill:#e0e0e0" d="m84.42 422.42 26.79 23.15.47-3.72-26.8-23.05-.46 3.62z"/><path style="opacity:.2" d="m108.53 443.15-.48 3.72 3.16-1.3-2.68-2.42z"/><path d="M334.26 189c-7.07 4.49-15.9 4.94-23.43 2.4a28.05 28.05 0 0 1-15.94-14 30.47 30.47 0 0 1-3.37-11.68c0-.73-.17-1.36-.79-1.35-10.91.12-20-2.16-25.89-10.47-5.49-7.68-6.27-18.41-3.46-27.28a32.35 32.35 0 0 1 7.81-13.41c.56-.54.84-1.49.13-1.81-7.08-3.23-12.06-9.49-14.67-17-2.87-8.19-2-17.22 1-25.3 2.42-6.52 4.26-9.43 10.52-15.6.18-.18.09-1-.25-.76-7.93 5.42-12.53 15.56-14 25.12A34.87 34.87 0 0 0 258 104c2.66 3.58 5.32 6.4 9.2 8.46-5.08 5.6-9.7 16.29-9.09 26 .32 5.15 1.58 10.77 4.32 15.12a24.6 24.6 0 0 0 11.65 9.73 39.85 39.85 0 0 0 16 2.54 32.85 32.85 0 0 0 9.11 20 29.73 29.73 0 0 0 22.13 8.7 26 26 0 0 0 13.68-4.24c.6-.41-.12-1.72-.74-1.31ZM251.74 118a4.46 4.46 0 0 0-2.54-3.82 6.05 6.05 0 0 0-1.29-6.78c-1.46-1.41-4.69-2.5-6.11-.55-1.51-2.86-6.07-3.37-8.56-1.74a5.49 5.49 0 0 0-2.51 4.34 5.15 5.15 0 0 0 1.59 3.85c-2.16 1.11-4.55 2.71-4.61 5.45a4.56 4.56 0 0 0 4.58 4.67 3.71 3.71 0 0 0 1.6 3.42 5.11 5.11 0 0 0 5 .3c1.41 2.43 5.45 2.6 7.71 1.61 2.43-1.07 4-4.3 2.76-6.78a4.05 4.05 0 0 0 2.38-3.97Zm-5.63 9.69a6.76 6.76 0 0 1-3.61.45c-1.18-.16-2.69-.57-3.2-1.82-.07-.16-.27-.42-.47-.34a5.17 5.17 0 0 1-3.86.24 2.79 2.79 0 0 1-1.67-3.08.62.62 0 0 0-.68-.74 3.36 3.36 0 0 1-3.67-4.55c.72-2 2.87-3.1 4.63-4 .31-.15.13-.66-.08-.8-2.53-1.64-2-5.26.2-6.92a5.56 5.56 0 0 1 8 1.88.24.24 0 0 0 .45 0 .32.32 0 0 0 .17-.12c1.18-1.8 3.68-1.12 5 .13a5 5 0 0 1 .76 6 .58.58 0 0 0 .36.72 3.23 3.23 0 0 1 2.46 3.28 3.52 3.52 0 0 1-2.54 3.12c-.28.09-.2.46-.09.64 1.44 2.22-.12 5.03-2.16 5.94ZM223.17 126a3.89 3.89 0 0 0-.88-4 2.9 2.9 0 0 0-4-.08 2.74 2.74 0 0 0-4.08-.94 2.86 2.86 0 0 0-.28 3.68c-1.39.88-3.25 2.37-2.34 4.64a3.77 3.77 0 0 0 4.24 2.54 2.67 2.67 0 0 0 2 1.63 2.88 2.88 0 0 0 2.83-1.47 3 3 0 0 0 4.15-2 3.14 3.14 0 0 0-1.64-4Zm.61 3.94a2.21 2.21 0 0 1-3.2 1 .35.35 0 0 0-.49.08 2.61 2.61 0 0 1-1.84 1.44 1.45 1.45 0 0 1-1.65-1.11c0-.27-.28-.66-.61-.61a3.09 3.09 0 0 1-2-.17 3.39 3.39 0 0 1-1.42-1.29 2.39 2.39 0 0 1 0-2.32 3 3 0 0 1 1.08-1.13 12.83 12.83 0 0 1 1.22-.64.51.51 0 0 0 0-.88 1.53 1.53 0 0 1 .16-2.46 1.83 1.83 0 0 1 2.17 0c.46.3 1.16 1.42 1.79 1a2.12 2.12 0 0 1 3.1.19c.66.9.37 2.1.07 3.09a.64.64 0 0 0 .55.74c1.53.06 1.69 1.92 1.07 3.06Z" style="fill:#e0e0e0"/><path d="M91.52 72.07a38 38 0 0 1 11.17 25.66l-.1 4.36a38.08 38.08 0 0 1-75.92.17l-.11-4.36a38.09 38.09 0 0 1 65-25.83Z" style="fill:#fff"/><path d="M35.32 69.91a41.34 41.34 0 0 0 53.34 62.8l11.76 5.16a2.4 2.4 0 0 0 3.16-3.17L98.36 123a41.34 41.34 0 0 0-63-53Zm56.2 2.16a38 38 0 0 1 11.17 25.66l-.1 4.36a38.08 38.08 0 0 1-75.92.17l-.11-4.36a38.09 38.09 0 0 1 65-25.83Z" style="fill:#8c00ff"/><path d="M35.32 69.91a41.34 41.34 0 0 0 53.34 62.8l11.76 5.16a2.4 2.4 0 0 0 3.16-3.17L98.36 123a41.34 41.34 0 0 0-63-53Zm56.2 2.16a38 38 0 0 1 11.17 25.66l-.1 4.36a38.08 38.08 0 0 1-75.92.17l-.11-4.36a38.09 38.09 0 0 1 65-25.83Z" style="fill:#fff;opacity:.5"/><path d="M91.52 72.07a38 38 0 0 1 11.17 25.66l-.1 4.36a38.08 38.08 0 0 1-75.92.17l-.11-4.36a38.09 38.09 0 0 1 65-25.83Z" style="fill:#fff;opacity:.7000000000000001"/><path d="M56.49 123.76a20.33 20.33 0 1 1 3.34-.28 20.08 20.08 0 0 1-3.34.28Zm0-39.74a19.42 19.42 0 1 0 19.16 16.25A19.29 19.29 0 0 0 56.51 84Z" style="fill:#455a64"/><path d="M64.11 123.76A20.46 20.46 0 0 1 44 106.7a20.38 20.38 0 1 1 20.09 17.06Zm.06-39.94a19.65 19.65 0 0 0-3.23.27 19.38 19.38 0 1 0 3.23-.27Z" style="fill:#455a64"/><path d="M72.64 122.85a20.43 20.43 0 0 1-20.11-17.06A20.38 20.38 0 1 1 76 122.57a21.23 21.23 0 0 1-3.36.28Zm-19.26-17.2a19.57 19.57 0 1 0 3.39-14.55 19.55 19.55 0 0 0-3.39 14.55Z" style="fill:#455a64"/><path d="M57.09 117.28a20.46 20.46 0 0 1-20.09-17 20.38 20.38 0 1 1 20.09 17Zm0-39.93a19.5 19.5 0 0 0-19.27 22.73 19.53 19.53 0 1 0 19.31-22.73Z" style="fill:#455a64"/><path d="M60.49 118a20.43 20.43 0 0 1-20.11-17 20.4 20.4 0 1 1 23.47 16.78 21.33 21.33 0 0 1-3.36.22Zm0-39.93a19.65 19.65 0 0 0-3.23.27 19.42 19.42 0 1 0 3.23-.27Z" style="fill:#455a64"/><path d="M61.59 116.39a12.13 12.13 0 1 1 2-.17 11.37 11.37 0 0 1-2 .17Zm-11.07-10.26a11.24 11.24 0 1 0 9.25-12.93 11.25 11.25 0 0 0-9.25 12.93Z" style="fill:#455a64"/><path d="M67.09 108a12.1 12.1 0 0 1-9.84-19.15 12.1 12.1 0 1 1 11.83 19 12.34 12.34 0 0 1-1.99.15Zm0-23.35a11.66 11.66 0 0 0-1.86.15 11.26 11.26 0 1 0 1.86-.15Z" style="fill:#455a64"/><path d="M64.52 109.92a12.13 12.13 0 1 1 2-.17 12.39 12.39 0 0 1-2 .17Zm0-23.35a11.66 11.66 0 0 0-1.86.15 11.26 11.26 0 1 0 1.86-.15Z" style="fill:#455a64"/><path d="M70 103.23a12.09 12.09 0 1 1 2-.16 12.11 12.11 0 0 1-2 .16Zm0-23.35a10.7 10.7 0 0 0-1.86.16 11.08 11.08 0 1 0 1.86-.16Z" style="fill:#455a64"/><path d="M65.93 104.05a11.51 11.51 0 0 1-11.31-9.6 11.48 11.48 0 0 1 22.65-3.76 11.49 11.49 0 0 1-9.44 13.2 11.16 11.16 0 0 1-1.9.16ZM66 82a10.63 10.63 0 0 0-10.53 12.31 10.61 10.61 0 1 0 16.64-10.37A10.49 10.49 0 0 0 66 82Z" style="fill:#455a64"/><path d="M55.53 106.14a12 12 0 1 1 2-.16 12.32 12.32 0 0 1-2 .16Zm0-23.34a11.63 11.63 0 0 0-1.85.15 11.24 11.24 0 0 0 3.69 22.17 11.25 11.25 0 0 0 9.24-12.93 11.25 11.25 0 0 0-11.07-9.39Z" style="fill:#455a64"/><path d="M63.72 113.34a20.43 20.43 0 0 1-20.11-17.06 20.4 20.4 0 1 1 23.47 16.78 21.35 21.35 0 0 1-3.36.28Zm-19.26-17.2a19.53 19.53 0 1 0 16.07-22.47 19.56 19.56 0 0 0-16.07 22.47Z" style="fill:#455a64"/><path d="M71.32 114.92a20.41 20.41 0 1 1 3.36-.28 21.35 21.35 0 0 1-3.36.28Zm0-39.94A19.53 19.53 0 1 0 90.6 91.31 19.5 19.5 0 0 0 71.34 75Z" style="fill:#455a64"/><path d="M210.14 345c.25-3.4-2.43-7.27-8.42-11.86-11-8.48-51.15-36.38-66.73-46.71a.15.15 0 0 0-.12-.14c-11.94-8.61-14.62-67.62-21.11-95.85a51.77 51.77 0 0 0-1.41-5.21c0-.13-.09-.25-.13-.38-.13-.38-.26-.76-.41-1.16-.07-.19-.13-.39-.2-.58a26.65 26.65 0 0 0-5.13-8.83 13 13 0 0 0-2.69-2.23c-1.34-.91-4.63-2.55-5.34-3-8.11-5.78-28.7 8.88-43.24 15.4-9 4.06-16.88 9.11-22.21 19.27a61.11 61.11 0 0 0-5.81 18.59c-2.39 14.43-1.92 62.82-.64 84.08 1.47 35.47 6.7 35.95 13.84 42.44 12.29 11.16 48.36 34 60.4 39.87 21.83 10.67 41.35-1.54 55.63-7.23s41.31-18.93 47.43-22.67c3.63-2.23 5.61-4.61 5.79-7.27.04-1.12.41-5.44.5-6.53Z" style="fill:#263238"/><path d="M156.91 374.87c14.27-5.68 41.31-18.94 47.43-22.68 8.26-5.05 8-10.91-2.61-19.07-14.75-11.33-75.29-52.37-75.29-52.37s-70.38 33.91-87.06 48.73c-2.52 2.24-2.63 7-1.74 8.08 9.13 11.42 49.83 37.79 63.64 44.54 21.84 10.66 41.35-1.54 55.63-7.23ZM103.79 172l-.23-.13a12.41 12.41 0 0 0-6-1.89c-7.38-.59-19 4.56-36.47 15.84a95.39 95.39 0 0 0-15 11.41l-.27.26a36 36 0 0 0-3.82 4.32c-.2.25-.39.5-.57.76l-.32.43c-.23.35-.47.69-.7 1.05-.46.7-.91 1.44-1.35 2.2l-.13.24-.5.94-5.43-3.77c5.33-10.16 13.53-15.39 22-20.56 14.5-8.92 30.7-20.51 41-15.51.8.41 6.43 3.54 7.79 4.41Z" style="fill:#455a64"/><path d="M113.76 190.42c-.94-3.72-4.2-19.77-16.24-20.41-7.37-.59-19 4.57-36.45 15.83-8.12 5.25-17.48 12-22.12 20.65-6.84 10.8-7.95 40.74-7.51 69.51s2.27 56.46 6.17 61.55c6.85-19.21 87.78-57 97.26-51.31-11.94-8.58-14.62-67.59-21.11-95.82Z" style="fill:#37474f"/><path d="M242.21 188a7 7 0 0 1-.92 3c-2-5-6.94-8.69-8.32-13.9-1.48-5.6-3.43-8.55-5.44-13.06-.6-1.36-1.1-3.38.92-3.49s4.45 1.82 5.72 3.14c.65.66 1.05 1.49 1.72 2.13.92.88 2 1.49 2.87 2.45a16.26 16.26 0 0 1 3.58 7c1 4.11.6 8.49-.13 12.73Z" style="fill:#9a4a4d"/><path d="M260.84 201.22c2.43-13.19 3.23-21.78.43-28.61-2.22-5.4-7.77-16.52-9.3-19.37-1.4-2.63-2.57-2.54-5.27-4.62s-6.29-4.33-8-5.55-3-.85-7.06.18-7 1.81-8.09 2.85a79.26 79.26 0 0 0-5.52 6.07c-1 1.33 1.15 3.79 4.86 2.67-1.44 2.44-2.35 3.45-2.48 5.71a27.87 27.87 0 0 0 .65 5.84s-1 2.27-1.59 3.73.45 2.64 2.19 2.61 3.45-1.58 4-2.16c-.78 2-.61 2.64.42 3.2 1.82 1 4.62-.47 6.33-1.92s3-2.38 3-2.38 2.67-.53 3.76.19.73 1.23.31 3c-.64 2.68-1.44 4.76-.42 9.63.61 2.94 2.31 6.07 1 11.38-.99 4.33-15.06 27.64-15.06 27.64s-1.25-1-20.22-22.27c-12.46-13.94-30-37.86-45.42-34.78l4.75 45.64s38.38 41.35 46.76 49.2c10.54 9.87 21.81 17.17 31.25-.2 12.06-22.13 14.52-34.84 18.72-57.68Z" style="fill:#b16668"/><path d="M225 221.31c-3.8 6.59-7.69 16.37-7.54 23.19-2.32-10.69 1.14-18.94 4.91-26ZM229.73 149.83c.59-.36 1.2-.71 1.81-1a2.42 2.42 0 0 1 .89-.28 4.08 4.08 0 0 1 1 .05 28.64 28.64 0 0 1 4 1.15 15.78 15.78 0 0 0-3.92-1.7 4.17 4.17 0 0 0-1.13-.12 3 3 0 0 0-1.13.29 17.17 17.17 0 0 0-1.9 1 22.31 22.31 0 0 0-6.35 5.65c1-1 2.13-1.84 3.25-2.69s2.29-1.62 3.48-2.35Zm1.94 5.15a4.65 4.65 0 0 0-.67.29c-.42.22-.81.45-1.2.7-.78.51-1.51 1.06-2.23 1.63a19.79 19.79 0 0 0-2 1.85 18.87 18.87 0 0 0-1.7 2.19 35.4 35.4 0 0 0-2.65 4.78l1.53-2.26c.5-.75 1-1.49 1.57-2.2a22.8 22.8 0 0 1 1.74-2 19.94 19.94 0 0 1 2-1.76c.7-.57 1.42-1.12 2.15-1.62.37-.26.74-.5 1.12-.72a2.56 2.56 0 0 1 1.16-.4 12.69 12.69 0 0 1 2.66.17c.9.1 1.8.25 2.7.34a22.89 22.89 0 0 0-5.39-1.06 3.4 3.4 0 0 0-.79.09Zm2.53 7.5a3.13 3.13 0 0 0-1.19.13 1.68 1.68 0 0 0-.3.16l-.23.15-.44.32-.86.67a19.08 19.08 0 0 0-5.38 6.69 32.1 32.1 0 0 1 5.84-6.14l.82-.66.42-.31.22-.16a.89.89 0 0 1 .16-.09 2.65 2.65 0 0 1 .93-.13h1c1.4.14 2.81.39 4.23.6a25.48 25.48 0 0 0-4.15-1.15 10 10 0 0 0-1.07-.08Z" style="fill:#9a4a4d"/><path d="M64.26 275c-7.67 17.54-7.27 36.55-5.35 46.61s3.73 23.93 28.77 39.75c28.59 18.05 49.4 28.52 49.4 28.52l94.92-60.8-64.78-39.39Z" style="fill:#8c00ff"/><path d="M64.26 275c-7.67 17.54-7.27 36.55-5.35 46.61s3.73 23.93 28.77 39.75c28.59 18.05 49.4 28.52 49.4 28.52l94.92-60.8-64.78-39.39Z" style="opacity:.15"/><path d="M90.18 341.88c-.79-.85-1.54-1.7-2.27-2.55 7.27-1.93 11.55-11 10.64-21.15-.52-5.85-1.11-12.48-.32-18.76l-1.23-.16c-.81 6.42-.21 13.12.31 19 .92 10.28-3.42 18.6-10.3 19.94C73 321.56 75.21 305.36 82 283.86l-1.22-.38c-7.44 23.56-8.57 40.86 8.47 59.27 11.19 12.11 41.72 28.63 59.59 39.65l1.19-.77c-17.83-10.97-48.64-27.63-59.85-39.75ZM168.08 307.34c-3.88 12.51-12 18.47-12 18.47 15.12 11 27.52 21.23 36.17 28.74l10.58-6.78-37.15-24.93c4.37-8.84 2.4-15.5 2.4-15.5Z" style="opacity:.35000000000000003"/><path d="M133.59 98.72c-7.22 0-12.26 10.58-13.26 20.58s-6.23 66.58-6.23 66.58S129.51 196 158.23 196s46.18-8.67 46.18-8.67v-70.19Z" style="fill:#263238"/><path d="M134.9 166.91s-19.11 8.61-33.35 15.51c-5.67 3.53-18.42 16-27.67 42.08s-17 64.54-16.4 75.62c0 0 12.86 21.91 46.51 19.63 55.82-3.78 66.78-27.92 66.78-27.92l-3.46-22.45 6.26-20.44a29.38 29.38 0 0 0 18.75-22.6c2.94-15.51-5-33.37-24-58.4 0 0-4.32-4.63-10.42-4.82s-23 3.79-23 3.79Z" style="fill:#fafafa"/><path d="M157.5 164.11h.4c5.33.16 9.31 4.08 9.69 4.47 19.44 25.63 26.54 42.85 23.75 57.57A28.63 28.63 0 0 1 173.28 248l-.51.15-.15.51-6.27 20.45-.06.22v.22l3.41 22.13c-1.36 2.54-14.26 23.6-65.8 27.09-1.61.11-3.22.17-4.78.17-27.48 0-39.37-17.08-40.68-19.11-.5-11.28 7.26-49.35 16.35-75 10.79-30.42 25.37-40.37 27.21-41.53 13.57-6.57 31.77-14.79 33.2-15.44 1.32-.3 16.28-3.75 22.27-3.75m0-1c-6.43 0-22.6 3.8-22.6 3.8s-19.11 8.61-33.35 15.51c-5.67 3.53-18.42 16-27.67 42.08s-17 64.54-16.4 75.62c0 0 11.63 19.8 41.67 19.8 1.57 0 3.18-.05 4.84-.17 55.82-3.78 66.78-27.92 66.78-27.92l-3.46-22.45 6.26-20.44a29.38 29.38 0 0 0 18.75-22.6c2.94-15.51-5-33.37-24-58.4 0 0-4.32-4.63-10.42-4.82Z" style="fill:#e0e0e0"/><path d="M187 264.73a6 6 0 0 0-1.43 1.33q-.81.85-1.59 1.74c-.85 1-1.66 2-2.45 3-1-.19-1.95-.37-2.94-.51s-2.27-.46-3.19.17a9.08 9.08 0 0 0-2 2.42 10.09 10.09 0 0 0-1.65 2.83c-.1.35.46.71.72.41.65-.76 1.13-1.68 1.71-2.49a20 20 0 0 1 1.66-2.13c.69-.72 1.92-.3 2.8-.16s2 .36 2.94.58a.72.72 0 0 0 .73-.21c.87-1.1 1.77-2.18 2.7-3.23.45-.51.91-1 1.38-1.51a9.41 9.41 0 0 0 1.45-1.58c.31-.55-.4-.87-.84-.66ZM190.85 275a6.12 6.12 0 0 0-2.09.56l-2.45.87-2.34.83-1.29.46c-.55.19-.62.09-1.06-.24-1-.78-2.42-1.82-3.78-1.49a14.81 14.81 0 0 0-2.29.88 21.67 21.67 0 0 0-2.65 1.13c-.45.26.26.75.56.67a20.91 20.91 0 0 0 2.45-.86 14.07 14.07 0 0 1 2.31-.88c.7-.12 1.59.61 2.13 1a4 4 0 0 0 1.58 1 4.87 4.87 0 0 0 2.16-.55l2.37-.82 2.36-.83a9.39 9.39 0 0 0 2.41-1c.38-.24-.01-.73-.38-.73ZM189.59 286.84a11.1 11.1 0 0 0-2.69-.49c-.88-.1-1.76-.19-2.64-.24a46.22 46.22 0 0 0-4.71-.07c-.09-1.33-.19-2.66-.33-4a.5.5 0 0 0-.39-.39 20.25 20.25 0 0 0-4.71-.78c-.53 0-.53.65 0 .75a34.55 34.55 0 0 1 3.93.93c.06 1.38.17 2.76.26 4.14a.59.59 0 0 0 .67.53 45.78 45.78 0 0 1 5.24.07c.84.06 1.68.14 2.52.25a19.46 19.46 0 0 0 2.5.33c.47.01.99-.77.35-1.03ZM160.27 250.25c-5.17 6.94-27.56 13-42-1 3.35 12.75 31.26 19.65 42 1Z" style="fill:#e0e0e0"/><path d="M202.39 124.86c-3.36 5.07-1.8 9.39-4.89 14.63-1.13 1.91-54 12.72-63.24 16a154.33 154.33 0 0 0-6.55-18c-4.51-10.12-6.27-20.23-4.55-27.64 2-8.54 7.68-11.26 10.43-11.14.3-7 8.47-16.4 24.59-19.22 32.19-5.62 60.3 21.02 44.21 45.37Z" style="fill:#263238"/><path d="M196.49 105.32a7.59 7.59 0 0 1 4 4.24c3 7.58 3.37 10.5.42 22.15-.88 3.5 1 6.1-.42 13.68-3.31 17.22-11.12 23-17.41 25.21-3.78 1.33-12.74 1-17.92-.6a14.31 14.31 0 0 0-.57 1.66c-.5 1.54-.05 2.34.42 2.75a6.94 6.94 0 0 1 1.6 1.82c2.61 4.6 9.31 18.85-6.86 20.59-8.56.92-16.63-1.71-23.54-6.73A37.71 37.71 0 0 1 125 178a3.18 3.18 0 0 1 .48-3.77c3.39-3.55 4.38-4.12 5.92-8.8a228.39 228.39 0 0 0 5.76-22.43c-1.17 1.22-9.68 3.1-12.86-4.26-4.22-9.76-1.54-17.89 5.16-20.51 8.12-3.16 12.65 3.74 13 8.76s5.64 6.87 7.84 1.4c3.15-7.82 3.12-18.21 12.29-23.57 4.89-2.85 11.8-3 18.45 2.81a5.15 5.15 0 0 0 6.88-.08c3.19-2.94 6.08-3.3 8.57-2.23Z" style="fill:#b16668"/><path d="m199.46 123.33-7-4.27a3.93 3.93 0 0 0 1.2 5.57 4.31 4.31 0 0 0 5.8-1.3ZM163.65 118.76l7.93-2a3.92 3.92 0 0 1-2.8 5 4.3 4.3 0 0 1-5.13-3ZM166.33 130.75c.11 1.79 1.39 2.27 3.21 2.21s3.47-.64 3.36-2.43a3.37 3.37 0 0 0-3.48-3.13 3.16 3.16 0 0 0-3.09 3.35ZM190.27 131.49c-.55 1.7.46 2.62 2.17 3.23s3.47.67 4-1a3.38 3.38 0 0 0-2.1-4.18 3.16 3.16 0 0 0-4.07 1.95Z" style="fill:#263238"/><path style="fill:#9a4a4d" d="m182.55 124.92-3.24 20.97 11.08-1.56-7.84-19.41zM174.34 114.81a5.19 5.19 0 0 0-.76-.44 1.76 1.76 0 0 0-.85-.24c-.22 0-.23.32-.14.48a1.17 1.17 0 0 0 .37.33l.15.07.17.09a5.06 5.06 0 0 1 .46.27 1.11 1.11 0 0 1 .29.28.93.93 0 0 1 .19.45 3.82 3.82 0 0 1 0 1.17 3.28 3.28 0 0 0-.12 1.39.82.82 0 0 0 0 .21c0 .11.13.26.26.23a.89.89 0 0 0 .44-.3 1.36 1.36 0 0 0 .27-.38 3 3 0 0 0 .22-.76 3.37 3.37 0 0 0-.08-1.64 2.7 2.7 0 0 0-.87-1.21Zm17.56 1.31a2.25 2.25 0 0 1-.35-.09 2.83 2.83 0 0 0-.77 0 1.92 1.92 0 0 0-.71.19 2 2 0 0 0-.92.91 3 3 0 0 0-.31 1.17 2.8 2.8 0 0 0 0 .71c0 .12.05.25.08.38s.09.16.12.24a.78.78 0 0 0 .25.39.39.39 0 0 0 .21.08c.07 0 .1 0 .15-.09s.12-.21.17-.33a1.68 1.68 0 0 0 .09-.32c0-.12 0-.24.05-.36s0-.5.06-.75a2.5 2.5 0 0 1 .05-.29v-.13c0-.09.07-.18.11-.26l.08-.14v-.06l.16-.17h.06l.13-.07a1.47 1.47 0 0 1 .58-.15 6.3 6.3 0 0 1 .75 0c.17 0 .32-.08.32-.27a.49.49 0 0 0-.36-.59ZM140.89 144.38s-2.47 10.49 4.17 18.31c6.06 7.14 15.15 9.82 19.39 10.8a3.16 3.16 0 0 1 .13-1.83 14.31 14.31 0 0 1 .57-1.66c-4.53-1.47-13-4.6-17.69-9.74a24.88 24.88 0 0 1-6.57-15.88ZM176.52 152.38a5.23 5.23 0 0 0-.75-1.29 7.24 7.24 0 0 0-1.71-1.46 7.55 7.55 0 0 0-1.9-.86 5.87 5.87 0 0 0-1-.22 5 5 0 0 0-1.81.15c-.47.11-.18.64.15.72s.61.22.93.28l.44.1c.35.1.7.21 1 .34a8.14 8.14 0 0 1 1.6.84 12.09 12.09 0 0 1 1.29 1.08 15.71 15.71 0 0 0 1.58 1.47.19.19 0 0 0 .29-.1 1.49 1.49 0 0 0-.11-1.05Z"/><path style="fill:#8c00ff" d="M232.44 460.41 88.49 377.3l210.37-121.35 143.95 83.11-210.37 121.35z"/><path style="fill:#fff;opacity:.8" d="M232.44 460.41 88.49 377.3l210.37-121.35 143.95 83.11-210.37 121.35z"/><path style="fill:#8c00ff" d="M88.49 377.3v11.16l143.95 83.11v-11.16L88.49 377.3z"/><path style="fill:#fff;opacity:.5" d="M88.49 377.3v11.16l143.95 83.11v-11.16L88.49 377.3z"/><path style="fill:#8c00ff" d="m232.44 471.57 210.37-121.35v-11.16L232.44 460.41v11.16z"/><path style="fill:#fff;opacity:.65" d="m232.44 460.41 210.37-121.35v11.16L232.44 471.57v-11.16z"/><path style="fill:#8c00ff;opacity:.30000000000000004" d="m279.23 301.76 79.28 45.74-110.99 64.08-79.25-45.76 110.96-64.06z"/><path style="fill:#fff" d="m279.21 298.52 79.29 45.74-110.99 64.09-79.25-45.77 110.95-64.06z"/><g style="opacity:.30000000000000004"><path d="M248 325.37a3.1 3.1 0 1 1-3.53 3.06 3.32 3.32 0 0 1 3.53-3.06ZM262.17 374.34a3.1 3.1 0 1 1-3.54 3.07 3.33 3.33 0 0 1 3.54-3.07Z" style="fill:#8c00ff"/><ellipse cx="248.03" cy="340.68" rx="3.54" ry="3.06" style="fill:#8c00ff"/><path d="M248 319.26a3.71 3.71 0 0 1-2.71-1.17l5.78-3.34a2.66 2.66 0 0 1 .47 1.44 3.33 3.33 0 0 1-3.54 3.07ZM248 349.86a3.1 3.1 0 1 1-3.53 3.06 3.32 3.32 0 0 1 3.53-3.06ZM262.17 386.59a3.1 3.1 0 1 1-3.54 3.06 3.32 3.32 0 0 1 3.54-3.06ZM248 386.59a3.1 3.1 0 1 1-3.53 3.06 3.32 3.32 0 0 1 3.53-3.06ZM248 362.1a3.1 3.1 0 1 1-3.53 3.07 3.32 3.32 0 0 1 3.53-3.07ZM276.31 374.34a3.1 3.1 0 1 1-3.54 3.07 3.34 3.34 0 0 1 3.54-3.07ZM276.31 362.1a3.1 3.1 0 1 1-3.54 3.07 3.33 3.33 0 0 1 3.54-3.07ZM248 374.34a3.1 3.1 0 1 1-3.53 3.07 3.33 3.33 0 0 1 3.53-3.07Z" style="fill:#8c00ff"/><ellipse cx="262.17" cy="316.19" rx="3.54" ry="3.06" style="fill:#8c00ff"/><path d="M262.17 349.86a3.1 3.1 0 1 1-3.54 3.06 3.32 3.32 0 0 1 3.54-3.06ZM262.17 325.37a3.1 3.1 0 1 1-3.54 3.06 3.32 3.32 0 0 1 3.54-3.06ZM262.17 362.1a3.1 3.1 0 1 1-3.54 3.07 3.32 3.32 0 0 1 3.54-3.07Z" style="fill:#8c00ff"/><ellipse cx="262.17" cy="340.68" rx="3.54" ry="3.06" style="fill:#8c00ff"/><path d="M272.77 389.65a3.58 3.58 0 0 1 7.08 0l-4.86 2.8a3.07 3.07 0 0 1-2.22-2.8ZM233.9 325.37a3.1 3.1 0 1 1-3.54 3.06 3.32 3.32 0 0 1 3.54-3.06ZM205.62 349.86a3.1 3.1 0 1 1-3.54 3.06 3.33 3.33 0 0 1 3.54-3.06ZM219.76 362.1a3.1 3.1 0 1 1-3.54 3.07 3.33 3.33 0 0 1 3.54-3.07ZM219.76 374.34a3.1 3.1 0 1 1-3.54 3.07 3.34 3.34 0 0 1 3.54-3.07ZM177.35 362.1a3.32 3.32 0 0 1 3.53 3.07 3.2 3.2 0 0 1-3 3l-3.88-2.28a3 3 0 0 1-.16-.72 3.32 3.32 0 0 1 3.51-3.07ZM286.91 304a2.57 2.57 0 0 1 .2-.87l5.55 3.2a3.75 3.75 0 0 1-2.21.73 3.32 3.32 0 0 1-3.54-3.06ZM276.31 349.86a3.1 3.1 0 1 1-3.54 3.06 3.33 3.33 0 0 1 3.54-3.06ZM205.62 374.34a3.1 3.1 0 1 1-3.54 3.07 3.34 3.34 0 0 1 3.54-3.07ZM233.9 362.1a3.1 3.1 0 1 1-3.54 3.07 3.32 3.32 0 0 1 3.54-3.07ZM233.9 349.86a3.1 3.1 0 1 1-3.54 3.06 3.32 3.32 0 0 1 3.54-3.06Z" style="fill:#8c00ff"/><ellipse cx="233.9" cy="340.68" rx="3.54" ry="3.06" style="fill:#8c00ff"/><path d="M219.76 349.86a3.1 3.1 0 1 1-3.54 3.06 3.33 3.33 0 0 1 3.54-3.06ZM233.9 386.59a3.1 3.1 0 1 1-3.54 3.06 3.32 3.32 0 0 1 3.54-3.06ZM219.76 337.61a3.1 3.1 0 1 1-3.54 3.07 3.34 3.34 0 0 1 3.54-3.07ZM233.9 374.34a3.1 3.1 0 1 1-3.54 3.07 3.33 3.33 0 0 1 3.54-3.07ZM205.62 362.1a3.1 3.1 0 1 1-3.54 3.07 3.33 3.33 0 0 1 3.54-3.07ZM258.63 401.9a3.33 3.33 0 0 1 3.54-3.07 4 4 0 0 1 1.39.25l-4.92 2.84ZM318.72 325.37a3.1 3.1 0 1 1-3.54 3.06 3.32 3.32 0 0 1 3.54-3.06ZM304.58 374.34a3.94 3.94 0 0 1 1.39.25l-4.92 2.84a3.33 3.33 0 0 1 3.53-3.09ZM347 343.74a3.09 3.09 0 1 1 0-6.12l3.28 1.89a2.62 2.62 0 0 1 .28 1.17 3.33 3.33 0 0 1-3.56 3.06ZM315.18 365.17a3.58 3.58 0 0 1 7.08 0l-4.87 2.83a3.11 3.11 0 0 1-2.21-2.83ZM329.32 328.43a2.7 2.7 0 0 1 .21-.88l5.56 3.21a3.8 3.8 0 0 1-2.23.74 3.33 3.33 0 0 1-3.54-3.07ZM332.86 349.86a3.1 3.1 0 1 1-3.54 3.06 3.33 3.33 0 0 1 3.54-3.06ZM332.86 337.61a3.1 3.1 0 1 1-3.54 3.07 3.34 3.34 0 0 1 3.54-3.07ZM347 349.86a4.12 4.12 0 0 1 1.38.24l-4.92 2.84a3.32 3.32 0 0 1 3.54-3.08ZM191.48 356a3.1 3.1 0 1 1 3.54-3.07 3.34 3.34 0 0 1-3.54 3.07ZM191.48 368.23a3.1 3.1 0 1 1 3.54-3.06 3.33 3.33 0 0 1-3.54 3.06ZM209.16 340.68a3.33 3.33 0 0 1-3.54 3.06 3.7 3.7 0 0 1-2.71-1.16l5.78-3.34a2.71 2.71 0 0 1 .47 1.44Z" style="fill:#8c00ff"/><ellipse cx="276.31" cy="340.68" rx="3.54" ry="3.06" style="fill:#8c00ff"/><path d="M244.5 401.9a3.57 3.57 0 1 1 3.5 3.1 3.32 3.32 0 0 1-3.5-3.1ZM219.76 386.59a3.33 3.33 0 0 1 3.54 3.06 3.22 3.22 0 0 1-3 3l-3.89-2.25a2.59 2.59 0 0 1-.17-.73 3.32 3.32 0 0 1 3.52-3.08ZM195 377.41a2.45 2.45 0 0 1-.13.55l-5.31-3.07a3.84 3.84 0 0 1 1.9-.55 3.33 3.33 0 0 1 3.54 3.07ZM233.9 398.83a3.32 3.32 0 0 1 3.53 3.07 2.1 2.1 0 0 1-.13.55l-5.3-3.07a3.81 3.81 0 0 1 1.9-.55ZM290.45 349.86a3.1 3.1 0 1 1-3.54 3.06 3.33 3.33 0 0 1 3.54-3.06ZM290.45 374.34a3.1 3.1 0 1 1-3.54 3.07 3.34 3.34 0 0 1 3.54-3.07ZM290.45 325.37a3.1 3.1 0 1 1-3.54 3.06 3.33 3.33 0 0 1 3.54-3.06ZM290.45 337.61a3.1 3.1 0 1 1-3.54 3.07 3.34 3.34 0 0 1 3.54-3.07ZM290.45 362.1a3.1 3.1 0 1 1-3.54 3.07 3.33 3.33 0 0 1 3.54-3.07ZM276.31 325.37a3.1 3.1 0 1 1-3.54 3.06 3.33 3.33 0 0 1 3.54-3.06ZM276.31 300.88a3.1 3.1 0 1 1-3.54 3.07 3.34 3.34 0 0 1 3.54-3.07Z" style="fill:#8c00ff"/><ellipse cx="276.31" cy="316.19" rx="3.54" ry="3.06" style="fill:#8c00ff"/><path d="M304.58 325.37a3.1 3.1 0 1 1-3.53 3.06 3.32 3.32 0 0 1 3.53-3.06ZM318.72 349.86a3.1 3.1 0 1 1-3.54 3.06 3.32 3.32 0 0 1 3.54-3.06ZM290.45 313.13a3.1 3.1 0 1 1-3.54 3.06 3.33 3.33 0 0 1 3.54-3.06ZM304.58 337.61a3.1 3.1 0 1 1-3.53 3.07 3.33 3.33 0 0 1 3.53-3.07ZM318.72 337.61a3.1 3.1 0 1 1-3.54 3.07 3.33 3.33 0 0 1 3.54-3.07ZM304.58 319.26a3.09 3.09 0 1 1 0-6.13l3.32 1.92a2.76 2.76 0 0 1 .26 1.14 3.33 3.33 0 0 1-3.58 3.07ZM304.58 362.1a3.1 3.1 0 1 1-3.53 3.07 3.32 3.32 0 0 1 3.53-3.07ZM304.58 349.86a3.1 3.1 0 1 1-3.53 3.06 3.32 3.32 0 0 1 3.53-3.06Z" style="fill:#8c00ff"/></g><path style="opacity:.05" d="M263.38 353.38 303 376.31l-55.49 32.03-39.63-22.88 55.5-32.08z"/><path style="opacity:.05" d="M279.39 298.52 319 321.46l-55.49 32.03-39.63-22.88 55.51-32.09z"/><path style="opacity:.1" d="m207.88 385.46 55.63-31.97L303 376.31l-39.44-19.64-55.68 28.79zM319 321.46l-55.49 32.03-39.63-22.88 39.51 20L319 321.46z"/><path d="M166 351c-7.38-4.93-45-26.31-56.47-33.45s-11.26-10.69-16.57-29.32-10.56-46.56-13.53-61.84.86-32.63 20.71-42.08c10.92 5.22 17.45 20.24 20.92 39.52 3.54 19.66 11.91 65 11.91 65s27.86 27.5 36.15 33.54c9.41 6.87 12.15 4.95 23.69 5.81C203.2 329 209.05 333 215 334c2.24.39 4.62.31 5.29 1.57 1.11 2.09-2 5.43-6.52 6.11-7.27 1.09-10.69-.85-14.72 0-2.25.47 3.15 6.29 3.57 6.72a55.08 55.08 0 0 0 7.3 6.16c2.53 1.78 8.45 2.92 11.41 3.75 3.12.87 6.27 2.46 7.79 5.32.37.69.56 1.69-.09 2.14a1.83 1.83 0 0 1-1.09.2l-2.9-.07h-1.12a5.07 5.07 0 0 1-.18 1c-.48 1.3-2 1.3-3.26 1.34s-2.46-.15-3.72-.15a6.73 6.73 0 0 1-4.28 1.73 14.15 14.15 0 0 1-2.83-.16 87.87 87.87 0 0 1-9-1.59c-5.37-1.3-11.88-2.85-16.94-5C179.29 361.1 173.36 356 166 351Z" style="fill:#b16668"/><g style="opacity:.30000000000000004"><path d="M357.66 312.78c-8.35 4-21.67 4-29.73 0s-8.06-10.37 0-14.34 21.38-3.95 29.73 0 8.34 10.37 0 14.34Z" style="fill:#8c00ff"/></g><path d="M363.92 255.08h-42l3.18 48.37c.2 2.18 1.88 4.32 5.1 6 6.84 3.54 18.13 3.54 25.21 0 3.32-1.66 5.07-3.8 5.27-6Z" style="fill:#f0f0f0"/><path d="M356.25 261.28c-7.55 3.43-19.59 3.43-26.88 0s-7.29-9 0-12.41 19.33-3.41 26.88 0 7.55 8.98 0 12.41Z" style="fill:#e0e0e0"/><path d="M356.25 261.28c-7.55 3.43-19.59 3.43-26.88 0s-7.29-9 0-12.41 19.33-3.41 26.88 0 7.55 8.98 0 12.41Z" style="fill:#e0e0e0"/><path d="M357.66 262.37a18.62 18.62 0 0 0 2.76-1.63 15.34 15.34 0 0 0-3.45-2.23c-8-3.84-20.64-3.84-28.34 0a14.78 14.78 0 0 0-3.35 2.24 17 17 0 0 0 2.66 1.62c8.06 4.03 21.37 4.03 29.72 0Z" style="fill:#8c00ff"/><path d="M359 259.68c-4.3 2.19-11.2 3.35-17.9 2.36s-9.95-3.21-5.49-5.78a26.86 26.86 0 0 0-7 2.25 14.78 14.78 0 0 0-3.35 2.24 17 17 0 0 0 2.66 1.62c8.06 4 21.37 4 29.72 0a18.62 18.62 0 0 0 2.76-1.63 11.39 11.39 0 0 0-1.4-1.06Z" style="opacity:.1"/><path d="M357.66 247.78c-8.34-4-21.65-4-29.73 0s-8.06 10.56 0 14.59 21.39 4 29.73 0 8.34-10.56 0-14.59Zm-1.41 13.5c-7.55 3.43-19.59 3.43-26.88 0s-7.29-9 0-12.41 19.33-3.41 26.88 0 7.55 8.98 0 12.41Z" style="fill:#fafafa"/><path d="M333.48 295c-5.93-2.18-7.49-10.74-7.49-15 0-4 .84-6.92 2.44-8.43a4.64 4.64 0 0 1 4.81-.9c4.84 1.43 8.21 8.79 8.21 14.49 0 4.27-1 7.49-2.78 9.09a4.29 4.29 0 0 1-3 1.14 6.53 6.53 0 0 1-2.19-.39Zm-4-21.75c-1.17 1.1-1.79 3.45-1.79 6.8 0 3.68 1.32 11.14 6.28 13a3.39 3.39 0 0 0 3.67-.38c1.33-1.18 2.09-3.89 2.09-7.43 0-4.93-3-11.31-6.91-12.49a5.19 5.19 0 0 0-1.38-.22 2.73 2.73 0 0 0-1.95.76Z" style="fill:#8c00ff"/><ellipse cx="262.75" cy="355.63" rx="34.57" ry="19.96" style="opacity:.15"/><path d="M284.82 335.81c-12.19-7-31.95-7-44.14 0-6.08 3.51-9.11 8.11-9.11 12.71v5.91c0 4.62 3 9.23 9.11 12.76 12.19 7 31.95 7 44.14 0 6.08-3.52 9.11-8.12 9.11-12.72v-5.93c.01-4.61-3.02-9.21-9.11-12.73Z" style="fill:#ffbda7"/><ellipse cx="262.75" cy="348.55" rx="31.21" ry="18.02" style="fill:#f0997a"/><path d="M284.82 328.4c-12.19-7-31.95-7-44.14 0-6.08 3.51-9.11 8.11-9.11 12.71v5.91c0 4.61 3 9.23 9.11 12.75 12.19 7 31.95 7 44.14 0 6.08-3.51 9.11-8.11 9.11-12.71v-5.93c.01-4.61-3.02-9.22-9.11-12.73Z" style="fill:#b16668"/><ellipse cx="262.75" cy="341.14" rx="31.21" ry="18.02" style="fill:#9a4a4d"/><path d="M284.87 334.51h-44.24c-4.93 7.2-4.92 18.66-4.93 20.91s.27 3.67 3.94 2.86a117 117 0 0 1 23.11-2.77 117 117 0 0 1 23.11 2.77c3.67.81 3.95-.62 3.94-2.86s0-13.71-4.93-20.91Z" style="fill:#f0f0f0"/><path d="M236.8 350.58a7.27 7.27 0 0 0 4.33 3.33c1.76.44 3.62.28 5.42.55 3.7.56 6.2 3.08 9.52 4.42a10.15 10.15 0 0 0 4.43.7 15.93 15.93 0 0 0 4.88-1.28c2.5-1 4.91-2.25 7.49-3a13.66 13.66 0 0 1 6.25-.53 8.49 8.49 0 0 0 5.16-.53c3.07-1.46 4.12-5.43 6.9-7.38 2.2-1.54 5.45-1.81 6.74-4.16a4.89 4.89 0 0 0-.87-5.35 11.12 11.12 0 0 0-4.87-3 44.22 44.22 0 0 0-10.5-2.14c-8-.83-16.09-1.3-24.15-1.51s-15.69-.47-23.4 2a14 14 0 0 0-4.92 2.44A5.86 5.86 0 0 0 227 340c.17 1.72 1.75 3.1 3.11 4 .94.64 2 1.06 2.93 1.76 1.7 1.31 2.62 3.18 3.76 4.82Z" style="fill:#8c00ff"/><path d="m295 331.69-.06-.26c-2.85-10.89-16.17-19.1-32.15-19.1s-29.32 8.21-32.17 19.1l-.06.26a10.94 10.94 0 0 0-.51 3.69c.14 4.74 3.33 9.44 9.58 13 12.79 7.38 33.51 7.38 46.3 0 6.22-3.58 9.44-8.28 9.58-13a10.94 10.94 0 0 0-.51-3.69Z" style="fill:#ffbda7"/><path d="M288.38 342.79c-8.16 6.21-29 8.27-42.1 1.67s-13.64-17.75-9.48-22.93a21 21 0 0 0-6.21 9.9l-.06.26a10.94 10.94 0 0 0-.51 3.69c.14 4.74 3.33 9.44 9.58 13 12.79 7.38 33.51 7.38 46.3 0 6.22-3.58 9.44-8.28 9.58-13a10.94 10.94 0 0 0-.51-3.69s.51 5.68-6.59 11.1Z" style="fill:#f0997a"/><g style="opacity:.7000000000000001"><path d="M288.24 338.67a1.25 1.25 0 0 1 2 1.47 1.25 1.25 0 1 1-2-1.47ZM290.11 327.37a1.26 1.26 0 1 1 .28 1.75 1.26 1.26 0 0 1-.28-1.75ZM278.07 343.94a1.26 1.26 0 1 1 2 1.48 1.26 1.26 0 0 1-1.75.28 1.27 1.27 0 0 1-.25-1.76ZM280 332.65a1.25 1.25 0 1 1 .28 1.75 1.24 1.24 0 0 1-.28-1.75ZM271.66 326.62a1.26 1.26 0 1 1 .28 1.76 1.26 1.26 0 0 1-.28-1.76ZM281.83 321.35a1.25 1.25 0 1 1 .28 1.75 1.25 1.25 0 0 1-.28-1.75ZM273.54 315.33a1.25 1.25 0 1 1 .28 1.75 1.25 1.25 0 0 1-.28-1.75ZM267.91 349.22a1.25 1.25 0 1 1 .28 1.75 1.25 1.25 0 0 1-.28-1.75ZM259.62 343.2a1.26 1.26 0 0 1 1.76-.28 1.26 1.26 0 1 1-1.76.28ZM269.79 337.92a1.26 1.26 0 1 1 .27 1.75 1.26 1.26 0 0 1-.27-1.75ZM261.5 331.9a1.26 1.26 0 1 1 .28 1.75 1.26 1.26 0 0 1-.28-1.75ZM249.46 348.47a1.26 1.26 0 1 1 .28 1.76 1.26 1.26 0 0 1-.28-1.76ZM263.38 320.6a1.26 1.26 0 1 1 .28 1.76 1.25 1.25 0 0 1-.28-1.76ZM255.09 314.58a1.26 1.26 0 1 1 .28 1.76 1.26 1.26 0 0 1-.28-1.76ZM251.34 337.18a1.25 1.25 0 1 1 .27 1.75 1.25 1.25 0 0 1-.27-1.75ZM243.05 331.16a1.25 1.25 0 1 1 .28 1.75 1.25 1.25 0 0 1-.28-1.75ZM253.21 325.88a1.26 1.26 0 1 1 .28 1.75 1.26 1.26 0 0 1-.28-1.75ZM244.93 319.86a1.26 1.26 0 1 1 .28 1.75 1.25 1.25 0 0 1-.28-1.75ZM241.17 342.45a1.26 1.26 0 0 1 1.76-.27 1.26 1.26 0 0 1-1.48 2 1.27 1.27 0 0 1-.28-1.73ZM232.89 336.43a1.26 1.26 0 0 1 2 1.48 1.26 1.26 0 1 1-2-1.48ZM234.76 325.14a1.26 1.26 0 1 1 .28 1.75 1.26 1.26 0 0 1-.28-1.75Z" style="fill:#fff"/></g></svg>